# Created by Kenney (www.kenney.nl)

mtllib box-wide.mtl

g box-wide

v 0.25 0 0.5
v -0.25 0 0.5
v 0.25 0.5 0.5
v -0.25 0.5 0.5
v 0.25 0.5 -0.5
v 0.25 0.5 -0.0625
v -0.25 0.5 -0.5
v -0.25 0.5 -0.0625
v 0.25 0.5 0.0625
v -0.25 0.5 0.0625
v -0.25 0 -0.5
v 0.25 0 -0.5
v 0.25 0.25 0.0625
v 0.25 0.25 -0.0625
v -0.25 0.25 0.0625
v -0.25 0.25 -0.0625

vn 0 0 1
vn 0 0 -1
vn 0 1 0
vn 0 -1 0
vn 1 0 0
vn -1 0 0

vt 9.84252 0
vt -9.84252 0
vt 9.84252 19.68504
vt -9.84252 19.68504
vt -9.84252 -19.68504
vt -9.84252 -2.46063
vt 9.84252 -19.68504
vt 9.84252 -2.46063
vt -9.84252 2.46063
vt 9.84252 2.46063
vt -2.46063 19.68504
vt -2.46063 9.84252
vt -19.68504 19.68504
vt -19.68504 0
vt 2.46063 9.84252
vt 19.68504 0
vt 2.46063 19.68504
vt 19.68504 19.68504

usemtl cardboard

f 3/3/1 2/2/1 1/1/1
f 2/2/1 3/3/1 4/4/1
f 1/1/2 2/2/2 3/3/2
f 4/4/2 3/3/2 2/2/2
f 7/7/3 6/6/3 5/5/3
f 6/6/3 7/7/3 8/8/3
f 5/5/4 6/6/4 7/7/4
f 8/8/4 7/7/4 6/6/4
f 10/10/3 3/4/3 9/9/3
f 3/4/3 10/10/3 4/3/3
f 9/9/4 3/4/4 10/10/4
f 4/3/4 10/10/4 3/4/4
f 7/3/2 12/2/2 11/1/2
f 12/2/2 7/3/2 5/4/2
f 11/1/1 12/2/1 7/3/1
f 5/4/1 7/3/1 12/2/1
f 3/13/5 13/12/5 9/11/5
f 1/14/5 13/12/5 3/13/5
f 1/14/5 14/15/5 13/12/5
f 12/16/5 14/15/5 1/14/5
f 12/16/5 6/17/5 14/15/5
f 6/17/5 12/16/5 5/18/5
f 9/11/6 13/12/6 3/13/6
f 3/13/6 13/12/6 1/14/6
f 13/12/6 14/15/6 1/14/6
f 1/14/6 14/15/6 12/16/6
f 14/15/6 6/17/6 12/16/6
f 5/18/6 12/16/6 6/17/6
f 2/4/4 12/7/4 1/3/4
f 12/7/4 2/4/4 11/5/4
f 1/3/3 12/7/3 2/4/3
f 11/5/3 2/4/3 12/7/3
f 10/17/6 2/16/6 4/18/6
f 15/15/6 2/16/6 10/17/6
f 16/12/6 2/16/6 15/15/6
f 16/12/6 11/14/6 2/16/6
f 11/14/6 16/12/6 7/13/6
f 8/11/6 7/13/6 16/12/6
f 4/18/5 2/16/5 10/17/5
f 10/17/5 2/16/5 15/15/5
f 15/15/5 2/16/5 16/12/5
f 2/16/5 11/14/5 16/12/5
f 7/13/5 16/12/5 11/14/5
f 16/12/5 7/13/5 8/11/5

usemtl tape

f 15/15/6 8/11/6 16/12/6
f 8/11/6 15/15/6 10/17/6
f 16/12/5 8/11/5 15/15/5
f 10/17/5 15/15/5 8/11/5
f 9/11/5 14/15/5 6/17/5
f 14/15/5 9/11/5 13/12/5
f 6/17/6 14/15/6 9/11/6
f 13/12/6 9/11/6 14/15/6
f 8/8/3 9/9/3 6/6/3
f 9/9/3 8/8/3 10/10/3
f 6/6/4 9/9/4 8/8/4
f 10/10/4 8/8/4 9/9/4

