# Created by Kenney (www.kenney.nl)

mtllib box-small.mtl

g box-small

v -0.25 0 -0.25
v 0.25 0 -0.25
v -0.25 0.5 -0.25
v 0.25 0.5 -0.25
v 0.25 0.5 -0.0625
v -0.25 0.5 -0.0625
v 0.25 0.5 0.0625
v 0.25 0.25 0.0625
v 0.25 0.5 0.25
v 0.25 0 0.25
v 0.25 0.25 -0.0625
v -0.25 0 0.25
v -0.25 0.5 0.0625
v -0.25 0.5 0.25
v -0.25 0.25 0.0625
v -0.25 0.25 -0.0625

vn 0 0 -1
vn 0 0 1
vn 0 1 0
vn 0 -1 0
vn 1 0 0
vn -1 0 0

vt 9.84252 0
vt -9.84252 0
vt 9.84252 19.68504
vt -9.84252 19.68504
vt -9.84252 -9.84252
vt -9.84252 -2.46063
vt 9.84252 -9.84252
vt 9.84252 -2.46063
vt -2.46063 19.68504
vt -2.46063 9.84252
vt 2.46063 9.84252
vt 2.46063 19.68504
vt 9.84252 9.84252
vt -9.84252 9.84252
vt -9.84252 2.46063
vt 9.84252 2.46063

usemtl cardboard

f 3/3/1 2/2/1 1/1/1
f 2/2/1 3/3/1 4/4/1
f 1/1/2 2/2/2 3/3/2
f 4/4/2 3/3/2 2/2/2
f 3/7/3 5/6/3 4/5/3
f 5/6/3 3/7/3 6/8/3
f 4/5/4 5/6/4 3/7/4
f 6/8/4 3/7/4 5/6/4
f 9/4/5 8/10/5 7/9/5
f 10/2/5 8/10/5 9/4/5
f 10/2/5 11/11/5 8/10/5
f 2/1/5 11/11/5 10/2/5
f 2/1/5 5/12/5 11/11/5
f 5/12/5 2/1/5 4/3/5
f 7/9/6 8/10/6 9/4/6
f 9/4/6 8/10/6 10/2/6
f 8/10/6 11/11/6 10/2/6
f 10/2/6 11/11/6 2/1/6
f 11/11/6 5/12/6 2/1/6
f 4/3/6 2/1/6 5/12/6
f 12/14/4 2/7/4 10/13/4
f 2/7/4 12/14/4 1/5/4
f 10/13/3 2/7/3 12/14/3
f 1/5/3 12/14/3 2/7/3
f 13/16/3 9/14/3 7/15/3
f 9/14/3 13/16/3 14/13/3
f 7/15/4 9/14/4 13/16/4
f 14/13/4 13/16/4 9/14/4
f 13/12/6 12/1/6 14/3/6
f 15/11/6 12/1/6 13/12/6
f 16/10/6 12/1/6 15/11/6
f 16/10/6 1/2/6 12/1/6
f 1/2/6 16/10/6 3/4/6
f 6/9/6 3/4/6 16/10/6
f 14/3/5 12/1/5 13/12/5
f 13/12/5 12/1/5 15/11/5
f 15/11/5 12/1/5 16/10/5
f 12/1/5 1/2/5 16/10/5
f 3/4/5 16/10/5 1/2/5
f 16/10/5 3/4/5 6/9/5
f 9/3/2 12/2/2 10/1/2
f 12/2/2 9/3/2 14/4/2
f 10/1/1 12/2/1 9/3/1
f 14/4/1 9/3/1 12/2/1

usemtl tape

f 7/9/5 11/11/5 5/12/5
f 11/11/5 7/9/5 8/10/5
f 5/12/6 11/11/6 7/9/6
f 8/10/6 7/9/6 11/11/6
f 15/11/6 6/9/6 16/10/6
f 6/9/6 15/11/6 13/12/6
f 16/10/5 6/9/5 15/11/5
f 13/12/5 15/11/5 6/9/5
f 6/8/3 7/15/3 5/6/3
f 7/15/3 6/8/3 13/16/3
f 5/6/4 7/15/4 6/8/4
f 13/16/4 6/8/4 7/15/4

