# Created by Kenney (www.kenney.nl)

mtllib conveyor-long-sides.mtl

g Group

v 1 0.2 -0.45
v 1 0.2 -0.4
v -1 0.2 -0.45
v -1 0.2 -0.4
v 1 5.86553E-16 0.5
v 1 5.86553E-16 0.4
v -1 5.86553E-16 0.5
v -1 5.86553E-16 0.4
v -1 0.2 0.4
v 1 0.2 0.4
v 1 0.15 0.5
v -1 0.15 0.5
v 1 0 -0.4
v 1 0 -0.5
v -1 0 -0.4
v -1 0 -0.5
v 1 0.15 -0.5
v -1 0.15 -0.5
v 1 0.2 0.45
v -1 0.2 0.45

vn 0 0.9238795 -0.3826834
vn 0 1 0
vn 0 -0.9238795 0.3826834
vn 0 -1 0
vn 0 0 -1
vn 0 0 1
vn 0 0.3826834 0.9238795
vn 0 -0.3826834 -0.9238795
vn 1 0 0
vn -1 0 0
vn 0 0.9238795 0.3826834
vn 0 -0.9238795 -0.3826834
vn 0 0.3826834 -0.9238795
vn 0 -0.3826834 0.9238795

vt -39.37008 -17.71654
vt -39.37008 -15.74803
vt 39.37008 -17.71654
vt 39.37008 -15.74803
vt 39.37008 19.68504
vt 39.37008 15.74803
vt -39.37008 19.68504
vt -39.37008 15.74803
vt 39.37008 2.309264E-14
vt -39.37008 2.309264E-14
vt 39.37008 7.874016
vt -39.37008 7.874016
vt 39.37008 5.905512
vt -39.37008 5.905512
vt 39.37008 -19.68504
vt -39.37008 -19.68504
vt 19.68504 5.905512
vt 19.68504 0
vt 17.71654 7.874016
vt 15.74803 0
vt 15.74803 7.874016
vt -19.68504 0
vt -19.68504 5.905512
vt -15.74803 0
vt -17.71654 7.874016
vt -15.74803 7.874016
vt -39.37008 17.71654
vt 39.37008 17.71654
vt -39.37008 -9.743597
vt -39.37008 -6.959713
vt 39.37008 -9.743597
vt 39.37008 -6.959713
vt 39.37008 0
vt -39.37008 0
vt 15.74803 2.309264E-14
vt 19.68504 2.309264E-14
vt -15.74803 2.309264E-14
vt -19.68504 2.309264E-14

usemtl grey

f 3/3/1 2/2/2 1/1/1
f 2/2/2 3/3/1 4/4/2
f 1/1/3 2/2/4 3/3/3
f 4/4/4 3/3/3 2/2/4
f 7/7/4 6/6/4 5/5/4
f 6/6/4 7/7/4 8/8/4
f 5/5/2 6/6/2 7/7/2
f 8/8/2 7/7/2 6/6/2
f 9/11/5 6/10/5 8/9/5
f 6/10/5 9/11/5 10/12/5
f 8/9/6 6/10/6 9/11/6
f 10/12/6 9/11/6 6/10/6
f 11/13/7 7/10/6 5/9/6
f 7/10/6 11/13/7 12/14/7
f 5/9/5 7/10/5 11/13/8
f 12/14/8 11/13/8 7/10/5
f 15/2/4 14/15/4 13/4/4
f 14/15/4 15/2/4 16/16/4
f 13/4/2 14/15/2 15/2/2
f 16/16/2 15/2/2 14/15/2
f 1/19/9 14/18/9 17/17/9
f 14/18/9 1/19/9 13/20/9
f 13/20/9 1/19/9 2/21/9
f 17/17/10 14/18/10 1/19/10
f 13/20/10 1/19/10 14/18/10
f 2/21/10 1/19/10 13/20/10
f 15/24/10 18/23/10 16/22/10
f 18/23/10 15/24/10 3/25/10
f 3/25/10 15/24/10 4/26/10
f 16/22/9 18/23/9 15/24/9
f 3/25/9 15/24/9 18/23/9
f 4/26/9 15/24/9 3/25/9
f 9/6/2 19/27/11 10/8/2
f 19/27/11 9/6/2 20/28/11
f 10/8/4 19/27/12 9/6/4
f 20/28/12 9/6/4 19/27/12
f 18/31/13 1/30/1 17/29/13
f 1/30/1 18/31/13 3/32/1
f 17/29/14 1/30/3 18/31/14
f 3/32/3 18/31/14 1/30/3
f 20/30/11 11/31/7 19/32/11
f 11/31/7 20/30/11 12/29/7
f 19/32/12 11/31/8 20/30/12
f 12/29/8 20/30/12 11/31/8
f 18/13/13 14/34/5 16/33/5
f 14/34/5 18/13/13 17/14/13
f 16/33/6 14/34/6 18/13/14
f 17/14/14 18/13/14 14/34/6
f 7/36/10 9/21/10 8/35/10
f 9/21/10 7/36/10 20/19/10
f 20/19/10 7/36/10 12/17/10
f 8/35/9 9/21/9 7/36/9
f 20/19/9 7/36/9 9/21/9
f 12/17/9 7/36/9 20/19/9
f 19/25/9 6/37/9 10/26/9
f 6/37/9 19/25/9 5/38/9
f 5/38/9 19/25/9 11/23/9
f 10/26/10 6/37/10 19/25/10
f 5/38/10 19/25/10 6/37/10
f 11/23/10 19/25/10 5/38/10
f 2/11/6 15/34/6 13/33/6
f 15/34/6 2/11/6 4/12/6
f 13/33/5 15/34/5 2/11/5
f 4/12/5 2/11/5 15/34/5

g Group

v 0.9 0.4 -0.4
v 1 0.3 -0.4
v 0.9 0.4 0.4
v 1 0.3 0.4
v 1 0.1 -0.4
v 1 0.1 0.4
v 0.9 1.173106E-15 -0.4
v 0.9 1.173106E-15 0.4
v -0.9 0 0.4
v -1 0.1 0.4
v -0.8585786 0.1 0.4
v -0.9 0.1414214 0.4
v 0.8585786 0.1 0.4
v 0.9 0.1414214 0.4
v -1 0.3 0.4
v -0.9 0.2585786 0.4
v -0.8585786 0.3 0.4
v 0.9 0.2585786 0.4
v 0.8585786 0.3 0.4
v -0.9 0.4 0.4
v -0.9 0 -0.4
v -1 0.1 -0.4
v -0.8585786 0.1 -0.4
v -0.9 0.1414214 -0.4
v 0.8585786 0.1 -0.4
v 0.9 0.1414214 -0.4
v -1 0.3 -0.4
v -0.9 0.2585786 -0.4
v -0.8585786 0.3 -0.4
v 0.9 0.2585786 -0.4
v 0.8585786 0.3 -0.4
v -0.9 0.4 -0.4

vn 0.3826834 0.9238795 0
vn 0.9238795 0.3826834 0
vn -0.3826834 -0.9238795 0
vn -0.9238795 -0.3826834 0
vn 0.9238795 -0.3826834 0
vn -0.9238795 0.3826834 0
vn 0.3826834 -0.9238795 0
vn -0.3826834 0.9238795 0

vt 15.74803 -13.91943
vt 15.74803 -19.48719
vt -15.74803 -13.91943
vt -15.74803 -19.48719
vt 15.74803 11.81102
vt 15.74803 3.937008
vt -15.74803 11.81102
vt -15.74803 3.937008
vt 15.74803 30.62273
vt 15.74803 25.05496
vt -15.74803 30.62273
vt -15.74803 25.05496
vt -35.43307 2.05131E-29
vt -39.37008 3.937008
vt 35.43307 4.618528E-14
vt -33.80231 3.937008
vt 39.37008 3.937008
vt -35.43307 5.56777
vt 33.80231 3.937008
vt 35.43307 5.56777
vt -39.37008 11.81102
vt 39.37008 11.81102
vt -35.43307 10.18026
vt -33.80231 11.81102
vt 35.43307 10.18026
vt 33.80231 11.81102
vt -35.43307 15.74803
vt 35.43307 15.74803
vt 35.43307 -15.74803
vt -35.43307 -15.74803
vt 35.43307 0
vt -35.43307 4.618528E-14

usemtl grey-dark

f 23/41/15 22/40/16 21/39/15
f 22/40/16 23/41/15 24/42/16
f 21/39/17 22/40/18 23/41/17
f 24/42/18 23/41/17 22/40/18
f 24/45/16 25/44/19 22/43/16
f 25/44/19 24/45/16 26/46/19
f 22/43/18 25/44/20 24/45/18
f 26/46/20 24/45/18 25/44/20
f 26/49/19 27/48/21 25/47/19
f 27/48/21 26/49/19 28/50/21
f 25/47/20 27/48/22 26/49/20
f 28/50/22 26/49/20 27/48/22
f 28/53/6 30/52/6 29/51/6
f 30/52/6 28/53/6 31/54/6
f 26/55/6 31/54/6 28/53/6
f 30/52/6 31/54/6 32/56/6
f 31/54/6 26/55/6 33/57/6
f 33/57/6 26/55/6 34/58/6
f 30/52/6 32/56/6 35/59/6
f 34/58/6 26/55/6 24/60/6
f 35/59/6 32/56/6 36/61/6
f 35/59/6 36/61/6 37/62/6
f 34/58/6 24/60/6 38/63/6
f 35/59/6 37/62/6 39/64/6
f 38/63/6 24/60/6 39/64/6
f 35/59/6 39/64/6 40/65/6
f 40/65/6 39/64/6 24/60/6
f 40/65/6 24/60/6 23/66/6
f 29/51/5 30/52/5 28/53/5
f 31/54/5 28/53/5 30/52/5
f 28/53/5 31/54/5 26/55/5
f 32/56/5 31/54/5 30/52/5
f 33/57/5 26/55/5 31/54/5
f 34/58/5 26/55/5 33/57/5
f 35/59/5 32/56/5 30/52/5
f 24/60/5 26/55/5 34/58/5
f 36/61/5 32/56/5 35/59/5
f 37/62/5 36/61/5 35/59/5
f 38/63/5 24/60/5 34/58/5
f 39/64/5 37/62/5 35/59/5
f 39/64/5 24/60/5 38/63/5
f 40/65/5 39/64/5 35/59/5
f 24/60/5 39/64/5 40/65/5
f 23/66/5 24/60/5 40/65/5
f 29/65/17 27/67/21 28/66/21
f 27/67/21 29/65/17 41/68/17
f 28/66/22 27/67/22 29/65/15
f 41/68/15 29/65/15 27/67/22
f 42/55/5 27/70/5 41/69/5
f 27/70/5 42/55/5 43/57/5
f 43/57/5 25/52/5 27/70/5
f 43/57/5 42/55/5 44/58/5
f 25/52/5 43/57/5 45/54/5
f 25/52/5 45/54/5 46/56/5
f 44/58/5 42/55/5 47/60/5
f 25/52/5 46/56/5 22/59/5
f 44/58/5 47/60/5 48/63/5
f 48/63/5 47/60/5 49/64/5
f 22/59/5 46/56/5 50/61/5
f 49/64/5 47/60/5 51/62/5
f 22/59/5 50/61/5 51/62/5
f 51/62/5 47/60/5 52/66/5
f 51/62/5 52/66/5 22/59/5
f 22/59/5 52/66/5 21/65/5
f 41/69/6 27/70/6 42/55/6
f 43/57/6 42/55/6 27/70/6
f 27/70/6 25/52/6 43/57/6
f 44/58/6 42/55/6 43/57/6
f 45/54/6 43/57/6 25/52/6
f 46/56/6 45/54/6 25/52/6
f 47/60/6 42/55/6 44/58/6
f 22/59/6 46/56/6 25/52/6
f 48/63/6 47/60/6 44/58/6
f 49/64/6 47/60/6 48/63/6
f 50/61/6 46/56/6 22/59/6
f 51/62/6 47/60/6 49/64/6
f 51/62/6 50/61/6 22/59/6
f 52/66/6 47/60/6 51/62/6
f 22/59/6 52/66/6 51/62/6
f 21/65/6 52/66/6 22/59/6
f 52/67/22 23/65/15 21/68/15
f 23/65/15 52/67/22 40/66/22
f 21/68/17 23/65/17 52/67/21
f 40/66/21 52/67/21 23/65/17
f 29/48/17 42/49/18 41/50/17
f 42/49/18 29/48/17 30/47/18
f 41/50/15 42/49/16 29/48/15
f 30/47/16 29/48/15 42/49/16
f 35/40/20 52/41/22 47/42/20
f 52/41/22 35/40/20 40/39/22
f 47/42/19 52/41/21 35/40/19
f 40/39/21 35/40/19 52/41/21
f 30/44/18 47/45/20 42/46/18
f 47/45/20 30/44/18 35/43/20
f 42/46/16 47/45/19 30/44/16
f 35/43/19 30/44/16 47/45/19

usemtl dark

f 44/58/5 45/54/5 43/57/5
f 45/54/5 44/58/5 46/56/5
f 46/56/5 44/58/5 48/63/5
f 46/56/5 48/63/5 50/61/5
f 50/61/5 48/63/5 49/64/5
f 50/61/5 49/64/5 51/62/5
f 43/57/6 45/54/6 44/58/6
f 46/56/6 44/58/6 45/54/6
f 48/63/6 44/58/6 46/56/6
f 50/61/6 48/63/6 46/56/6
f 49/64/6 48/63/6 50/61/6
f 51/62/6 49/64/6 50/61/6
f 33/57/6 32/56/6 31/54/6
f 32/56/6 33/57/6 34/58/6
f 32/56/6 34/58/6 36/61/6
f 36/61/6 34/58/6 38/63/6
f 36/61/6 38/63/6 37/62/6
f 37/62/6 38/63/6 39/64/6
f 31/54/5 32/56/5 33/57/5
f 34/58/5 33/57/5 32/56/5
f 36/61/5 34/58/5 32/56/5
f 38/63/5 34/58/5 36/61/5
f 37/62/5 38/63/5 36/61/5
f 39/64/5 38/63/5 37/62/5

