# Created by Kenney (www.kenney.nl)

mtllib conveyor.mtl

g conveyor

v -0.4 0 0.5
v -0.5 0.1 0.5
v 0.4 1.173106E-15 0.5
v -0.3585787 0.1 0.5
v 0.5 0.1 0.5
v -0.4 0.1414214 0.5
v 0.3585787 0.1 0.5
v 0.4 0.1414214 0.5
v -0.5 0.3 0.5
v 0.5 0.3 0.5
v -0.4 0.2585786 0.5
v -0.3585787 0.3 0.5
v 0.4 0.2585786 0.5
v 0.3585787 0.3 0.5
v -0.4 0.4 0.5
v 0.4 0.4 0.5
v 0.4 0.4 -0.5
v 0.5 0.3 -0.5
v -0.4 0 -0.5
v 0.4 1.173106E-15 -0.5
v -0.5 0.1 -0.5
v -0.3585787 0.1 -0.5
v 0.5 0.1 -0.5
v -0.4 0.1414214 -0.5
v 0.3585787 0.1 -0.5
v 0.4 0.1414214 -0.5
v -0.5 0.3 -0.5
v -0.4 0.2585786 -0.5
v -0.3585787 0.3 -0.5
v 0.4 0.2585786 -0.5
v 0.3585787 0.3 -0.5
v -0.4 0.4 -0.5
v -0.3585787 0.1 -0.4
v 0.3585787 0.1 -0.4
v -0.4 0.1414214 -0.4
v 0.4 0.1414214 -0.4
v -0.4 0.2585786 -0.4
v 0.4 0.2585786 -0.4
v -0.3585787 0.3 -0.4
v 0.3585787 0.3 -0.4
v -0.3585787 0.1 0.4
v -0.4 0.1414214 0.4
v 0.3585787 0.1 0.4
v 0.4 0.1414214 0.4
v -0.4 0.2585786 0.4
v 0.4 0.2585786 0.4
v -0.3585787 0.3 0.4
v 0.3585787 0.3 0.4

vn 0 0 1
vn 0 0 -1
vn 0.3826834 0.9238795 0
vn 0.9238795 0.3826834 0
vn -0.3826834 -0.9238795 0
vn -0.9238795 -0.3826834 0
vn -0.9238795 0.3826834 0
vn -0.3826834 0.9238795 0
vn 0.9238795 -0.3826834 0
vn 0.3826834 -0.9238795 0

vt -15.74803 0
vt -19.68504 3.937008
vt 15.74803 4.618528E-14
vt -14.11727 3.937008
vt 19.68504 3.937008
vt -15.74803 5.56777
vt 14.11727 3.937008
vt 15.74803 5.56777
vt -19.68504 11.81102
vt 19.68504 11.81102
vt -15.74803 10.18026
vt -14.11727 11.81102
vt 15.74803 10.18026
vt 14.11727 11.81102
vt -15.74803 15.74803
vt 15.74803 15.74803
vt 19.68504 5.861978E-14
vt 19.68504 -5.56777
vt -19.68504 5.861978E-14
vt -19.68504 -5.56777
vt 15.74803 0
vt -15.74803 4.618528E-14
vt -19.68504 11.13554
vt -19.68504 16.70331
vt 19.68504 11.13554
vt 19.68504 16.70331
vt -19.68504 -3.552714E-15
vt 19.68504 -3.552714E-15
vt 15.74803 19.68504
vt 15.74803 -19.68504
vt -15.74803 19.68504
vt -15.74803 -19.68504
vt 19.68504 -1.630762
vt 19.68504 -3.937008
vt 15.74803 -1.630762
vt 15.74803 -3.937008
vt 14.11727 -15.74803
vt 14.11727 -19.68504
vt -14.11727 -15.74803
vt -14.11727 -19.68504
vt -15.74803 -3.937008
vt -19.68504 -3.937008
vt -15.74803 -1.630762
vt -19.68504 -1.630762
vt -19.68504 5.56777
vt -19.68504 10.18026
vt -19.68504 12.7663
vt -19.68504 15.07255
vt -15.74803 12.7663
vt -15.74803 15.07255
vt 19.68504 15.07255
vt 19.68504 12.7663
vt 15.74803 15.07255
vt 15.74803 12.7663
vt 19.68504 10.18026
vt 19.68504 5.56777
vt 14.11727 19.68504
vt 14.11727 15.74803
vt -14.11727 19.68504
vt -14.11727 15.74803

usemtl dark

f 3/3/1 2/2/1 1/1/1
f 2/2/1 3/3/1 4/4/1
f 5/5/1 4/4/1 3/3/1
f 2/2/1 4/4/1 6/6/1
f 4/4/1 5/5/1 7/7/1
f 7/7/1 5/5/1 8/8/1
f 2/2/1 6/6/1 9/9/1
f 8/8/1 5/5/1 10/10/1
f 9/9/1 6/6/1 11/11/1
f 9/9/1 11/11/1 12/12/1
f 8/8/1 10/10/1 13/13/1
f 9/9/1 12/12/1 14/14/1
f 13/13/1 10/10/1 14/14/1
f 9/9/1 14/14/1 15/15/1
f 15/15/1 14/14/1 10/10/1
f 15/15/1 10/10/1 16/16/1
f 1/1/2 2/2/2 3/3/2
f 4/4/2 3/3/2 2/2/2
f 3/3/2 4/4/2 5/5/2
f 6/6/2 4/4/2 2/2/2
f 7/7/2 5/5/2 4/4/2
f 8/8/2 5/5/2 7/7/2
f 9/9/2 6/6/2 2/2/2
f 10/10/2 5/5/2 8/8/2
f 11/11/2 6/6/2 9/9/2
f 12/12/2 11/11/2 9/9/2
f 13/13/2 10/10/2 8/8/2
f 14/14/2 12/12/2 9/9/2
f 14/14/2 10/10/2 13/13/2
f 15/15/2 14/14/2 9/9/2
f 10/10/2 14/14/2 15/15/2
f 16/16/2 10/10/2 15/15/2
f 16/19/3 18/18/4 17/17/3
f 18/18/4 16/19/3 10/20/4
f 17/17/5 18/18/6 16/19/5
f 10/20/6 16/19/5 18/18/6
f 21/5/2 20/22/2 19/21/2
f 20/22/2 21/5/2 22/7/2
f 22/7/2 23/2/2 20/22/2
f 22/7/2 21/5/2 24/8/2
f 23/2/2 22/7/2 25/4/2
f 23/2/2 25/4/2 26/6/2
f 24/8/2 21/5/2 27/10/2
f 23/2/2 26/6/2 18/9/2
f 24/8/2 27/10/2 28/13/2
f 28/13/2 27/10/2 29/14/2
f 18/9/2 26/6/2 30/11/2
f 29/14/2 27/10/2 31/12/2
f 18/9/2 30/11/2 31/12/2
f 31/12/2 27/10/2 32/16/2
f 31/12/2 32/16/2 18/9/2
f 18/9/2 32/16/2 17/15/2
f 19/21/1 20/22/1 21/5/1
f 22/7/1 21/5/1 20/22/1
f 20/22/1 23/2/1 22/7/1
f 24/8/1 21/5/1 22/7/1
f 25/4/1 22/7/1 23/2/1
f 26/6/1 25/4/1 23/2/1
f 27/10/1 21/5/1 24/8/1
f 18/9/1 26/6/1 23/2/1
f 28/13/1 27/10/1 24/8/1
f 29/14/1 27/10/1 28/13/1
f 30/11/1 26/6/1 18/9/1
f 31/12/1 27/10/1 29/14/1
f 31/12/1 30/11/1 18/9/1
f 32/16/1 27/10/1 31/12/1
f 18/9/1 32/16/1 31/12/1
f 17/15/1 32/16/1 18/9/1
f 1/25/5 21/24/6 19/23/5
f 21/24/6 1/25/5 2/26/6
f 19/23/3 21/24/4 1/25/3
f 2/26/4 1/25/3 21/24/4
f 9/18/7 32/27/8 27/20/7
f 32/27/8 9/18/7 15/28/8
f 27/20/9 32/27/10 9/18/9
f 15/28/10 9/18/9 32/27/10
f 5/24/9 20/25/10 23/26/9
f 20/25/10 5/24/9 3/23/10
f 23/26/7 20/25/8 5/24/7
f 3/23/8 5/24/7 20/25/8
f 1/31/5 20/30/10 3/29/10
f 20/30/10 1/31/5 19/32/5
f 3/29/8 20/30/8 1/31/3
f 19/32/3 1/31/3 20/30/8
f 10/9/4 23/5/9 18/10/4
f 23/5/9 10/9/4 5/2/9
f 18/10/6 23/5/7 10/9/6
f 5/2/7 10/9/6 23/5/7
f 32/30/8 16/31/3 17/32/3
f 16/31/3 32/30/8 15/29/8
f 17/32/5 16/31/5 32/30/10
f 15/29/10 32/30/10 16/31/5
f 2/5/6 27/9/7 21/2/6
f 27/9/7 2/5/6 9/10/7
f 21/2/4 27/9/9 2/5/4
f 9/10/9 2/5/4 27/9/9

usemtl grey-dark

f 35/8/2 34/4/2 33/7/2
f 34/4/2 35/8/2 36/6/2
f 36/6/2 35/8/2 37/13/2
f 36/6/2 37/13/2 38/11/2
f 38/11/2 37/13/2 39/14/2
f 38/11/2 39/14/2 40/12/2
f 33/7/1 34/4/1 35/8/1
f 36/6/1 35/8/1 34/4/1
f 37/13/1 35/8/1 36/6/1
f 38/11/1 37/13/1 36/6/1
f 39/14/1 37/13/1 38/11/1
f 40/12/1 39/14/1 38/11/1
f 39/35/10 28/34/9 29/33/10
f 28/34/9 39/35/10 37/36/9
f 29/33/8 28/34/7 39/35/8
f 37/36/7 39/35/8 28/34/7
f 39/39/10 31/38/5 40/37/5
f 31/38/5 39/39/10 29/40/10
f 40/37/3 31/38/3 39/39/8
f 29/40/8 39/39/8 31/38/3
f 40/43/5 30/42/6 38/41/6
f 30/42/6 40/43/5 31/44/5
f 38/41/4 30/42/4 40/43/3
f 31/44/3 40/43/3 30/42/4
f 36/6/7 30/46/6 26/45/7
f 30/46/6 36/6/7 38/11/6
f 26/45/9 30/46/4 36/6/9
f 38/11/4 36/6/9 30/46/4
f 34/49/8 26/48/7 25/47/8
f 26/48/7 34/49/8 36/50/7
f 25/47/10 26/48/9 34/49/10
f 36/50/9 34/49/10 26/48/9
f 22/38/3 34/39/8 25/40/8
f 34/39/8 22/38/3 33/37/3
f 25/40/10 34/39/10 22/38/5
f 33/37/5 22/38/5 34/39/10
f 35/53/4 22/52/3 24/51/4
f 22/52/3 35/53/4 33/54/3
f 24/51/6 22/52/5 35/53/6
f 33/54/5 35/53/6 22/52/5
f 37/13/9 24/56/4 28/55/9
f 24/56/4 37/13/9 35/8/4
f 28/55/7 24/56/6 37/13/7
f 35/8/6 37/13/7 24/56/6
f 43/7/1 42/6/1 41/4/1
f 42/6/1 43/7/1 44/8/1
f 42/6/1 44/8/1 45/11/1
f 45/11/1 44/8/1 46/13/1
f 45/11/1 46/13/1 47/12/1
f 47/12/1 46/13/1 48/14/1
f 41/4/2 42/6/2 43/7/2
f 44/8/2 43/7/2 42/6/2
f 45/11/2 44/8/2 42/6/2
f 46/13/2 44/8/2 45/11/2
f 47/12/2 46/13/2 45/11/2
f 48/14/2 46/13/2 47/12/2
f 14/33/5 46/36/6 13/34/6
f 46/36/6 14/33/5 48/35/5
f 13/34/4 46/36/4 14/33/3
f 48/35/3 14/33/3 46/36/4
f 12/59/10 48/58/5 14/57/5
f 48/58/5 12/59/10 47/60/10
f 14/57/3 48/58/3 12/59/8
f 47/60/8 12/59/8 48/58/3
f 12/44/10 45/41/9 47/43/10
f 45/41/9 12/44/10 11/42/9
f 47/43/8 45/41/7 12/44/8
f 11/42/7 12/44/8 45/41/7
f 11/46/9 42/6/4 45/11/9
f 42/6/4 11/46/9 6/45/4
f 45/11/7 42/6/6 11/46/7
f 6/45/6 11/46/7 42/6/6
f 6/48/4 41/49/3 42/50/4
f 41/49/3 6/48/4 4/47/3
f 42/50/6 41/49/5 6/48/6
f 4/47/5 6/48/6 41/49/5
f 41/58/3 7/59/8 43/60/8
f 7/59/8 41/58/3 4/57/3
f 43/60/10 7/59/10 41/58/5
f 4/57/5 41/58/5 7/59/10
f 7/52/8 44/53/7 43/54/8
f 44/53/7 7/52/8 8/51/7
f 43/54/10 44/53/9 7/52/10
f 8/51/9 7/52/10 44/53/9
f 8/56/7 46/13/6 44/8/7
f 46/13/6 8/56/7 13/55/6
f 44/8/9 46/13/4 8/56/9
f 13/55/4 8/56/9 46/13/4

