# Created by Kenney (www.kenney.nl)

mtllib conveyor-bars-stripe.mtl

g conveyor-bars-stripe

v -0.0625 0.25 -0.5
v -0.0625 0.25 -0.3
v -0.1875 0.25 -0.5
v -0.1875 0.25 -0.3
v -0.0625 0 0.5
v -0.1875 0 0.5
v 0 0.0625 0.5
v -0.0625 0.0625 0.5
v -0.25 0.0625 0.5
v -0.1875 0.0625 0.5
v -0.0625 0.1875 0.5
v -0.1875 0.1875 0.5
v -0.0625 0.25 0.5
v -0.25 0.1875 0.5
v -0.1875 0.25 0.5
v 0 0.1875 0.5
v -0.3125 0.1875 0.5
v -0.3125 0.25 0.5
v -0.4375 0.1875 0.5
v -0.4375 0.25 0.5
v -0.5 0.1875 0.5
v -0.5 0.0625 0.5
v -0.4375 0.0625 0.5
v -0.3125 0.0625 0.5
v -0.4375 0 0.5
v -0.3125 0 0.5
v 0.0625 0.1875 0.5
v 0.0625 0.25 0.5
v 0.1875 0.25 0.5
v 0.0625 0.0625 0.5
v 0.1875 0.1875 0.5
v 0.1875 0.0625 0.5
v 0.25 0.0625 0.5
v 0.0625 0 0.5
v 0.1875 0 0.5
v 0.25 0.1875 0.5
v 0.3125 0.1875 0.5
v 0.3125 0.0625 0.5
v 0.4375 0.0625 0.5
v 0.3125 0 0.5
v 0.4375 0.25 0.5
v 0.3125 0.25 0.5
v 0.4375 0.1875 0.5
v 0.5 0.1875 0.5
v 0.5 0.0625 0.5
v 0.4375 0 0.5
v 0 0.1875 0.3
v -0.0625 0.25 0.3
v -0.4375 -3.205931E-31 0.3
v -0.5 0.0625 0.3
v -0.25 0.1875 0.3
v -0.1875 0.25 0.3
v 0.5 0.0625 -0.3
v 0.5 0.0625 -0.5
v 0.4375 -3.205931E-31 -0.3
v 0.4375 0 -0.5
v -0.3125 0.25 0.3
v -0.3125 -3.205931E-31 -0.3
v -0.3125 0 -0.5
v -0.4375 -3.205931E-31 -0.3
v -0.4375 0 -0.5
v -0.25 0.0625 -0.3
v -0.25 0.0625 -0.5
v 0.0625 0.25 0.3
v -0.5 0.1875 0.3
v 0.25 0.1875 0.3
v 0.1875 0.25 0.3
v -0.4375 0.25 0.3
v 0.1875 0.25 -0.5
v 0.1875 0.25 -0.3
v 0.0625 0.25 -0.5
v 0.0625 0.25 -0.3
v -0.3125 0.25 -0.5
v -0.3125 0.25 -0.3
v -0.4375 0.25 -0.5
v -0.4375 0.25 -0.3
v 0.3125 -3.205931E-31 -0.3
v 0.3125 0 -0.5
v 0.4375 0.25 -0.5
v 0.4375 0.25 -0.3
v 0.3125 0.25 -0.5
v 0.3125 0.25 -0.3
v 0.3125 0.25 0.3
v 0.5 0.1875 0.3
v 0.5 0.0625 0.3
v 0.4375 0.25 0.3
v 0.3125 -3.205931E-31 0.3
v 0.25 0.0625 0.3
v -0.5 0.0625 -0.5
v -0.3125 0.0625 -0.5
v -0.4375 0.0625 -0.5
v -0.4375 0.1875 -0.5
v -0.5 0.1875 -0.5
v -0.3125 0.1875 -0.5
v -0.25 0.1875 -0.5
v -0.1875 0.1875 -0.5
v -0.1875 0.0625 -0.5
v -0.0625 0.1875 -0.5
v -0.0625 0.0625 -0.5
v 0 0.0625 -0.5
v 0 0.1875 -0.5
v -0.0625 0 -0.5
v -0.1875 0 -0.5
v 0.0625 0.1875 -0.5
v 0.0625 0.0625 -0.5
v 0.1875 0.1875 -0.5
v 0.1875 0.0625 -0.5
v 0.25 0.0625 -0.5
v 0.1875 0 -0.5
v 0.0625 0 -0.5
v 0.25 0.1875 -0.5
v 0.3125 0.1875 -0.5
v 0.3125 0.0625 -0.5
v 0.4375 0.1875 -0.5
v 0.4375 0.0625 -0.5
v 0.5 0.1875 -0.5
v -0.5 0.1875 -0.3
v -0.25 0.1875 -0.3
v -0.5 0.0625 -0.3
v 0 0.1875 -0.3
v 0.5 0.1875 -0.3
v 0.25 0.0625 -0.3
v -0.0625 -3.205931E-31 0.3
v -0.0625 -3.205931E-31 -0.3
v -0.1875 -3.205931E-31 0.3
v -0.1875 -3.205931E-31 -0.3
v 0.1875 -3.205931E-31 0.3
v 0.1875 -3.205931E-31 -0.3
v 0.0625 -3.205931E-31 0.3
v 0.0625 -3.205931E-31 -0.3
v 0 0.0625 0.3
v 0 0.0625 -0.3
v 0.25 0.1875 -0.3
v -0.3125 -3.205931E-31 0.3
v 0.4375 -3.205931E-31 0.3
v -0.25 0.0625 0.3

vn 0.3826834 0.9238795 0
vn -0.3826834 0.9238795 0
vn 0.3826834 -0.9238795 0
vn -0.3826834 -0.9238795 0
vn 0 0 1
vn 0 0 -1
vn 0.7071068 0.7071068 0
vn -0.7071068 -0.7071068 0
vn -0.9238795 -0.3826834 0
vn 0.9238795 0.3826834 0
vn -0.7071068 0.7071068 0
vn 0.7071068 -0.7071068 0
vn 0.9238795 -0.3826834 0
vn -0.9238795 0.3826834 0

vt 2.46063 -19.68504
vt 2.46063 -11.81102
vt 7.38189 -19.68504
vt 7.38189 -11.81102
vt -2.46063 -6.821211E-14
vt -7.38189 -6.821211E-14
vt -2.273737E-14 2.46063
vt -2.46063 2.46063
vt -9.84252 2.46063
vt -7.38189 2.46063
vt -2.46063 7.38189
vt -7.38189 7.38189
vt -2.46063 9.84252
vt -9.84252 7.38189
vt -7.38189 9.84252
vt -2.273737E-14 7.38189
vt -12.30315 7.38189
vt -12.30315 9.84252
vt -17.22441 7.38189
vt -17.22441 9.84252
vt -19.68504 7.38189
vt -19.68504 2.46063
vt -17.22441 2.46063
vt -12.30315 2.46063
vt -17.22441 -6.821211E-14
vt -12.30315 -6.821211E-14
vt 2.46063 7.38189
vt 2.46063 9.84252
vt 7.38189 9.84252
vt 2.46063 2.46063
vt 7.38189 7.38189
vt 7.38189 2.46063
vt 9.84252 2.46063
vt 2.46063 -6.821211E-14
vt 7.38189 -6.821211E-14
vt 9.84252 7.38189
vt 12.30315 7.38189
vt 12.30315 2.46063
vt 17.22441 2.46063
vt 12.30315 -4.547474E-14
vt 17.22441 9.84252
vt 12.30315 9.84252
vt 17.22441 7.38189
vt 19.68504 7.38189
vt 19.68504 2.46063
vt 17.22441 -4.547474E-14
vt -11.81102 5.219784
vt -19.68504 5.219784
vt -11.81102 8.69964
vt -19.68504 8.69964
vt 19.68504 12.1795
vt 11.81102 12.1795
vt 19.68504 15.65935
vt 11.81102 15.65935
vt 11.81102 -1.739928
vt 11.81102 1.739928
vt 19.68504 -1.739928
vt 19.68504 1.739928
vt -11.81102 12.1795
vt -19.68504 12.1795
vt -11.81102 15.65935
vt -19.68504 15.65935
vt -12.30315 -11.81102
vt -12.30315 -19.68504
vt -17.22441 -11.81102
vt -17.22441 -19.68504
vt 11.81102 -5.219784
vt 19.68504 -5.219784
vt 11.81102 -8.69964
vt 19.68504 -8.69964
vt 11.81102 8.69964
vt 19.68504 8.69964
vt 11.81102 5.219784
vt 19.68504 5.219784
vt 11.81102 2.46063
vt 11.81102 7.38189
vt -11.81102 -1.739928
vt -19.68504 -1.739928
vt -11.81102 1.739928
vt -19.68504 1.739928
vt -7.38189 -19.68504
vt -7.38189 -11.81102
vt -2.46063 -19.68504
vt -2.46063 -11.81102
vt 12.30315 -19.68504
vt 12.30315 -11.81102
vt 17.22441 -19.68504
vt 17.22441 -11.81102
vt -11.81102 7.38189
vt -11.81102 2.46063
vt -11.81102 -8.69964
vt -19.68504 -8.69964
vt -11.81102 -5.219784
vt -19.68504 -5.219784
vt 17.22441 0
vt 12.30315 0
vt 0 2.46063
vt 0 7.38189
vt 2.46063 0
vt 7.38189 0
vt -7.38189 0
vt -2.46063 0
vt -17.22441 0
vt -12.30315 0
vt -2.46063 11.81102
vt -7.38189 11.81102
vt 7.38189 11.81102
vt 2.46063 11.81102
vt 2.46063 19.68504
vt 7.38189 19.68504
vt -12.30315 19.68504
vt -12.30315 11.81102
vt -17.22441 19.68504
vt -17.22441 11.81102
vt -7.38189 19.68504
vt -2.46063 19.68504
vt 17.22441 19.68504
vt 17.22441 11.81102
vt 12.30315 19.68504
vt 12.30315 11.81102

usemtl grey-dark

f 3/3/2 2/2/1 1/1/1
f 2/2/1 3/3/2 4/4/2
f 1/1/4 2/2/4 3/3/3
f 4/4/3 3/3/3 2/2/4
f 7/7/5 6/6/5 5/5/5
f 6/6/5 7/7/5 8/8/5
f 8/8/5 9/9/5 6/6/5
f 9/9/5 8/8/5 10/10/5
f 8/8/5 7/7/5 11/11/5
f 9/9/5 10/10/5 12/12/5
f 11/11/5 13/13/5 12/12/5
f 12/12/5 13/13/5 14/14/5
f 9/9/5 12/12/5 14/14/5
f 14/14/5 13/13/5 15/15/5
f 11/11/5 16/16/5 13/13/5
f 11/11/5 7/7/5 16/16/5
f 17/17/5 9/9/5 14/14/5
f 17/17/5 14/14/5 18/18/5
f 17/17/5 18/18/5 19/19/5
f 20/20/5 19/19/5 18/18/5
f 21/21/5 19/19/5 20/20/5
f 22/22/5 19/19/5 21/21/5
f 22/22/5 23/23/5 19/19/5
f 22/22/5 24/24/5 23/23/5
f 24/24/5 9/9/5 17/17/5
f 24/24/5 22/22/5 25/25/5
f 25/25/5 9/9/5 24/24/5
f 9/9/5 25/25/5 26/26/5
f 7/7/5 27/27/5 16/16/5
f 16/16/5 27/27/5 28/28/5
f 28/28/5 27/27/5 29/29/5
f 7/7/5 30/30/5 27/27/5
f 31/31/5 29/29/5 27/27/5
f 7/7/5 32/32/5 30/30/5
f 32/32/5 33/33/5 31/31/5
f 32/32/5 7/7/5 34/34/5
f 34/34/5 33/33/5 32/32/5
f 33/33/5 34/34/5 35/35/5
f 31/31/5 36/36/5 29/29/5
f 31/31/5 33/33/5 36/36/5
f 33/33/5 37/37/5 36/36/5
f 33/33/5 38/38/5 37/37/5
f 33/33/5 39/39/5 38/38/5
f 39/39/5 33/33/5 40/40/5
f 37/37/5 41/41/5 36/36/5
f 36/36/5 41/41/5 42/42/5
f 43/43/5 41/41/5 37/37/5
f 43/43/5 44/44/5 41/41/5
f 43/43/5 45/45/5 44/44/5
f 39/39/5 45/45/5 43/43/5
f 40/40/5 45/45/5 39/39/5
f 45/45/5 40/40/5 46/46/5
f 5/5/6 6/6/6 7/7/6
f 8/8/6 7/7/6 6/6/6
f 6/6/6 9/9/6 8/8/6
f 10/10/6 8/8/6 9/9/6
f 11/11/6 7/7/6 8/8/6
f 12/12/6 10/10/6 9/9/6
f 12/12/6 13/13/6 11/11/6
f 13/13/6 16/16/6 11/11/6
f 16/16/6 7/7/6 11/11/6
f 14/14/6 13/13/6 12/12/6
f 14/14/6 12/12/6 9/9/6
f 15/15/6 13/13/6 14/14/6
f 16/16/6 27/27/6 7/7/6
f 28/28/6 27/27/6 16/16/6
f 29/29/6 27/27/6 28/28/6
f 27/27/6 30/30/6 7/7/6
f 27/27/6 29/29/6 31/31/6
f 30/30/6 32/32/6 7/7/6
f 31/31/6 33/33/6 32/32/6
f 34/34/6 7/7/6 32/32/6
f 32/32/6 33/33/6 34/34/6
f 35/35/6 34/34/6 33/33/6
f 29/29/6 36/36/6 31/31/6
f 36/36/6 33/33/6 31/31/6
f 36/36/6 37/37/6 33/33/6
f 37/37/6 38/38/6 33/33/6
f 38/38/6 39/39/6 33/33/6
f 40/40/6 33/33/6 39/39/6
f 36/36/6 41/41/6 37/37/6
f 42/42/6 41/41/6 36/36/6
f 37/37/6 41/41/6 43/43/6
f 41/41/6 44/44/6 43/43/6
f 44/44/6 45/45/6 43/43/6
f 43/43/6 45/45/6 39/39/6
f 39/39/6 45/45/6 40/40/6
f 46/46/6 40/40/6 45/45/6
f 48/49/1 16/48/7 47/47/7
f 16/48/7 48/49/1 13/50/1
f 47/47/8 16/48/8 48/49/4
f 13/50/4 48/49/4 16/48/8
f 22/53/9 49/52/4 25/51/4
f 49/52/4 22/53/9 50/54/9
f 25/51/1 49/52/1 22/53/10
f 50/54/10 22/53/10 49/52/1
f 14/57/11 52/56/2 51/55/11
f 52/56/2 14/57/11 15/58/2
f 51/55/12 52/56/3 14/57/12
f 15/58/3 14/57/12 52/56/3
f 55/52/3 54/53/13 53/54/13
f 54/53/13 55/52/3 56/51/3
f 53/54/14 54/53/14 55/52/2
f 56/51/2 55/52/2 54/53/14
f 57/61/1 14/60/7 51/59/7
f 14/60/7 57/61/1 18/62/1
f 51/59/8 14/60/8 57/61/4
f 18/62/4 57/61/4 14/60/8
f 60/65/4 59/64/3 58/63/3
f 59/64/3 60/65/4 61/66/4
f 58/63/2 59/64/2 60/65/1
f 61/66/1 60/65/1 59/64/2
f 26/26/6 25/25/6 9/9/6
f 24/24/6 9/9/6 25/25/6
f 25/25/6 22/22/6 24/24/6
f 23/23/6 24/24/6 22/22/6
f 17/17/6 9/9/6 24/24/6
f 14/14/6 9/9/6 17/17/6
f 18/18/6 14/14/6 17/17/6
f 19/19/6 23/23/6 22/22/6
f 19/19/6 18/18/6 17/17/6
f 21/21/6 19/19/6 22/22/6
f 18/18/6 19/19/6 20/20/6
f 20/20/6 19/19/6 21/21/6
f 58/69/3 63/68/12 62/67/12
f 63/68/12 58/69/3 59/70/3
f 62/67/11 63/68/11 58/69/2
f 59/70/2 58/69/2 63/68/11
f 47/73/11 28/72/2 64/71/2
f 28/72/2 47/73/11 16/74/11
f 64/71/3 28/72/3 47/73/12
f 16/74/12 47/73/12 28/72/3
f 22/45/9 65/76/14 50/75/9
f 65/76/14 22/45/9 21/44/14
f 50/75/10 65/76/13 22/45/10
f 21/44/13 22/45/10 65/76/13
f 67/79/1 36/78/7 66/77/7
f 36/78/7 67/79/1 29/80/1
f 66/77/8 36/78/8 67/79/4
f 29/80/4 67/79/4 36/78/8
f 65/69/14 20/68/2 68/67/2
f 20/68/2 65/69/14 21/70/14
f 68/67/3 20/68/3 65/69/13
f 21/70/13 65/69/13 20/68/3
f 71/83/2 70/82/1 69/81/1
f 70/82/1 71/83/2 72/84/2
f 69/81/4 70/82/4 71/83/3
f 72/84/3 71/83/3 70/82/4
f 75/87/2 74/86/1 73/85/1
f 74/86/1 75/87/2 76/88/2
f 73/85/4 74/86/4 75/87/3
f 76/88/3 75/87/3 74/86/4
f 77/86/4 56/87/3 55/88/3
f 56/87/3 77/86/4 78/85/4
f 55/88/2 56/87/2 77/86/1
f 78/85/1 77/86/1 56/87/2
f 81/64/2 80/65/1 79/66/1
f 80/65/1 81/64/2 82/63/2
f 79/66/4 80/65/4 81/64/3
f 82/63/3 81/64/3 80/65/4
f 66/52/11 42/53/2 83/54/2
f 42/53/2 66/52/11 36/51/11
f 83/54/3 42/53/3 66/52/12
f 36/51/12 66/52/12 42/53/3
f 44/21/10 85/90/13 84/89/10
f 85/90/13 44/21/10 45/22/13
f 84/89/9 85/90/14 44/21/9
f 45/22/14 44/21/9 85/90/14
f 86/93/1 44/92/10 84/91/10
f 44/92/10 86/93/1 41/94/1
f 84/91/9 44/92/9 86/93/4
f 41/94/4 86/93/4 44/92/9
f 33/68/8 87/69/4 40/70/4
f 87/69/4 33/68/8 88/67/8
f 40/70/1 87/69/1 33/68/7
f 88/67/7 33/68/7 87/69/1
f 89/45/6 59/96/6 61/95/6
f 59/96/6 89/45/6 90/38/6
f 90/38/6 63/33/6 59/96/6
f 90/38/6 89/45/6 91/39/6
f 91/39/6 89/45/6 92/43/6
f 92/43/6 89/45/6 93/44/6
f 92/43/6 93/44/6 75/41/6
f 92/43/6 75/41/6 94/37/6
f 63/33/6 90/38/6 94/37/6
f 94/37/6 75/41/6 95/36/6
f 63/33/6 94/37/6 95/36/6
f 95/36/6 75/41/6 73/42/6
f 96/31/6 63/33/6 95/36/6
f 96/31/6 95/36/6 3/29/6
f 97/32/6 63/33/6 96/31/6
f 96/31/6 3/29/6 98/27/6
f 1/28/6 98/27/6 3/29/6
f 99/30/6 63/33/6 97/32/6
f 100/97/6 99/30/6 98/27/6
f 101/98/6 98/27/6 1/28/6
f 100/97/6 98/27/6 101/98/6
f 102/99/6 63/33/6 99/30/6
f 99/30/6 100/97/6 102/99/6
f 63/33/6 102/99/6 103/100/6
f 104/11/6 100/97/6 101/98/6
f 104/11/6 101/98/6 71/13/6
f 105/8/6 100/97/6 104/11/6
f 104/11/6 71/13/6 106/12/6
f 107/10/6 100/97/6 105/8/6
f 108/9/6 107/10/6 106/12/6
f 109/101/6 100/97/6 107/10/6
f 107/10/6 108/9/6 109/101/6
f 100/97/6 109/101/6 110/102/6
f 106/12/6 71/13/6 111/14/6
f 108/9/6 106/12/6 111/14/6
f 111/14/6 71/13/6 69/15/6
f 112/17/6 108/9/6 111/14/6
f 112/17/6 111/14/6 81/18/6
f 113/24/6 108/9/6 112/17/6
f 112/17/6 81/18/6 114/19/6
f 115/23/6 108/9/6 113/24/6
f 114/19/6 81/18/6 116/21/6
f 116/21/6 81/18/6 79/20/6
f 54/22/6 114/19/6 116/21/6
f 54/22/6 115/23/6 114/19/6
f 115/23/6 54/22/6 56/103/6
f 56/103/6 108/9/6 115/23/6
f 108/9/6 56/103/6 78/104/6
f 61/95/5 59/96/5 89/45/5
f 90/38/5 89/45/5 59/96/5
f 59/96/5 63/33/5 90/38/5
f 91/39/5 89/45/5 90/38/5
f 92/43/5 89/45/5 91/39/5
f 93/44/5 89/45/5 92/43/5
f 75/41/5 93/44/5 92/43/5
f 94/37/5 75/41/5 92/43/5
f 94/37/5 90/38/5 63/33/5
f 95/36/5 75/41/5 94/37/5
f 95/36/5 94/37/5 63/33/5
f 73/42/5 75/41/5 95/36/5
f 95/36/5 63/33/5 96/31/5
f 3/29/5 95/36/5 96/31/5
f 96/31/5 63/33/5 97/32/5
f 98/27/5 3/29/5 96/31/5
f 3/29/5 98/27/5 1/28/5
f 97/32/5 63/33/5 99/30/5
f 98/27/5 99/30/5 100/97/5
f 1/28/5 98/27/5 101/98/5
f 101/98/5 98/27/5 100/97/5
f 99/30/5 63/33/5 102/99/5
f 102/99/5 100/97/5 99/30/5
f 103/100/5 102/99/5 63/33/5
f 101/98/5 100/97/5 104/11/5
f 71/13/5 101/98/5 104/11/5
f 104/11/5 100/97/5 105/8/5
f 106/12/5 71/13/5 104/11/5
f 105/8/5 100/97/5 107/10/5
f 106/12/5 107/10/5 108/9/5
f 107/10/5 100/97/5 109/101/5
f 109/101/5 108/9/5 107/10/5
f 110/102/5 109/101/5 100/97/5
f 111/14/5 71/13/5 106/12/5
f 111/14/5 106/12/5 108/9/5
f 69/15/5 71/13/5 111/14/5
f 111/14/5 108/9/5 112/17/5
f 81/18/5 111/14/5 112/17/5
f 112/17/5 108/9/5 113/24/5
f 114/19/5 81/18/5 112/17/5
f 113/24/5 108/9/5 115/23/5
f 116/21/5 81/18/5 114/19/5
f 79/20/5 81/18/5 116/21/5
f 116/21/5 114/19/5 54/22/5
f 114/19/5 115/23/5 54/22/5
f 56/103/5 54/22/5 115/23/5
f 115/23/5 108/9/5 56/103/5
f 78/104/5 56/103/5 108/9/5
f 93/92/14 76/93/2 75/94/2
f 76/93/2 93/92/14 117/91/14
f 75/94/3 76/93/3 93/92/13
f 117/91/13 93/92/13 76/93/3
f 73/53/1 118/52/7 95/51/7
f 118/52/7 73/53/1 74/54/1
f 95/51/8 118/52/8 73/53/4
f 74/54/4 73/53/4 118/52/8
f 119/61/9 61/60/4 60/59/4
f 61/60/4 119/61/9 89/62/9
f 60/59/1 61/60/1 119/61/10
f 89/62/10 119/61/10 61/60/1
f 1/72/1 120/73/7 101/74/7
f 120/73/7 1/72/1 2/71/1
f 101/74/8 120/73/8 1/72/4
f 2/71/4 1/72/4 120/73/8
f 121/76/10 54/45/13 116/44/10
f 54/45/13 121/76/10 53/75/13
f 116/44/9 54/45/14 121/76/9
f 53/75/14 121/76/9 54/45/14
f 79/68/1 121/69/10 116/70/10
f 121/69/10 79/68/1 80/67/1
f 116/70/9 121/69/9 79/68/4
f 80/67/4 79/68/4 121/69/9
f 122/93/8 78/92/4 77/91/4
f 78/92/4 122/93/8 108/94/8
f 77/91/1 78/92/1 122/93/7
f 108/94/7 122/93/7 78/92/1
f 125/106/4 124/84/3 123/105/3
f 124/84/3 125/106/4 126/82/4
f 123/105/2 124/84/2 125/106/1
f 126/82/1 125/106/1 124/84/2
f 127/47/3 122/71/12 88/49/12
f 122/71/12 127/47/3 128/73/3
f 88/49/11 122/71/11 127/47/2
f 128/73/2 127/47/2 122/71/11
f 129/108/4 128/4/3 127/107/3
f 128/4/3 129/108/4 130/2/4
f 127/107/2 128/4/2 129/108/1
f 130/2/1 129/108/1 128/4/2
f 123/77/3 132/56/12 131/79/12
f 132/56/12 123/77/3 124/55/3
f 131/79/11 132/56/11 123/77/2
f 124/55/2 123/77/2 132/56/11
f 118/77/11 3/80/2 95/78/11
f 3/80/2 118/77/11 4/79/2
f 95/78/12 3/80/3 118/77/12
f 4/79/3 118/77/12 3/80/3
f 119/90/9 93/21/14 89/22/9
f 93/21/14 119/90/9 117/89/14
f 89/22/10 93/21/13 119/90/10
f 117/89/13 119/90/10 93/21/13
f 111/60/11 82/61/2 81/62/2
f 82/61/2 111/60/11 133/59/11
f 81/62/3 82/61/3 111/60/12
f 133/59/12 111/60/12 82/61/3
f 101/48/11 72/49/2 71/50/2
f 72/49/2 101/48/11 120/47/11
f 71/50/3 72/49/3 101/48/12
f 120/47/12 101/48/12 72/49/3
f 69/58/1 133/55/7 111/57/7
f 133/55/7 69/58/1 70/56/1
f 111/57/8 133/55/8 69/58/4
f 70/56/4 69/58/4 133/55/8
f 52/107/2 13/109/1 48/108/1
f 13/109/1 52/107/2 15/110/2
f 48/108/4 13/109/4 52/107/3
f 15/110/3 52/107/3 13/109/4
f 25/113/4 134/112/3 26/111/3
f 134/112/3 25/113/4 49/114/4
f 26/111/2 134/112/2 25/113/1
f 49/114/1 25/113/1 134/112/2
f 64/105/2 29/115/1 67/106/1
f 29/115/1 64/105/2 28/116/2
f 67/106/4 29/115/4 64/105/3
f 28/116/3 64/105/3 29/115/4
f 40/119/4 135/118/3 46/117/3
f 135/118/3 40/119/4 87/120/4
f 46/117/2 135/118/2 40/119/1
f 87/120/1 40/119/1 135/118/2
f 46/60/3 85/61/13 45/62/13
f 85/61/13 46/60/3 135/59/3
f 45/62/14 85/61/14 46/60/2
f 135/59/2 46/60/2 85/61/14
f 83/112/2 41/113/1 86/114/1
f 41/113/1 83/112/2 42/111/2
f 86/114/4 41/113/4 83/112/3
f 42/111/3 83/112/3 41/113/4
f 68/118/2 18/119/1 57/120/1
f 18/119/1 68/118/2 20/117/2
f 57/120/4 18/119/4 68/118/3
f 20/117/3 68/118/3 18/119/4
f 26/92/3 136/93/12 9/94/12
f 136/93/12 26/92/3 134/91/3
f 9/94/11 136/93/11 26/92/2
f 134/91/2 26/92/2 136/93/11
f 131/56/8 130/77/4 129/55/4
f 130/77/4 131/56/8 132/79/8
f 129/55/1 130/77/1 131/56/7
f 132/79/7 131/56/7 130/77/1
f 125/73/4 62/49/8 126/47/4
f 62/49/8 125/73/4 136/71/8
f 126/47/1 62/49/7 125/73/1
f 136/71/7 125/73/1 62/49/7

usemtl grey

f 124/55/3 100/58/12 132/56/12
f 100/58/12 124/55/3 102/57/3
f 132/56/11 100/58/11 124/55/2
f 102/57/2 124/55/2 100/58/11
f 7/58/8 129/55/4 34/57/4
f 129/55/4 7/58/8 131/56/8
f 34/57/1 129/55/1 7/58/7
f 131/56/7 7/58/7 129/55/1
f 128/73/3 108/72/12 122/71/12
f 108/72/12 128/73/3 109/74/3
f 122/71/11 108/72/11 128/73/2
f 109/74/2 128/73/2 108/72/11
f 126/82/4 102/83/3 124/84/3
f 102/83/3 126/82/4 103/81/4
f 124/84/2 102/83/2 126/82/1
f 103/81/1 126/82/1 102/83/2
f 6/74/4 136/71/8 125/73/4
f 136/71/8 6/74/4 9/72/8
f 125/73/1 136/71/7 6/74/1
f 9/72/7 6/74/1 136/71/7
f 130/2/4 109/3/3 128/4/3
f 109/3/3 130/2/4 110/1/4
f 128/4/2 109/3/2 130/2/1
f 110/1/1 130/2/1 109/3/2
f 49/114/4 58/63/3 134/112/3
f 58/63/3 49/114/4 60/65/4
f 134/112/2 58/63/2 49/114/1
f 60/65/1 49/114/1 58/63/2
f 135/59/3 53/54/13 85/61/13
f 53/54/13 135/59/3 55/52/3
f 85/61/14 53/54/14 135/59/2
f 55/52/2 135/59/2 53/54/14
f 87/120/4 55/88/3 135/118/3
f 55/88/3 87/120/4 77/86/4
f 135/118/2 55/88/2 87/120/1
f 77/86/1 87/120/1 55/88/2
f 134/91/3 62/67/12 136/93/12
f 62/67/12 134/91/3 58/69/3
f 136/93/11 62/67/11 134/91/2
f 58/69/2 134/91/2 62/67/11
f 76/88/2 57/120/1 74/86/1
f 57/120/1 76/88/2 68/118/2
f 74/86/4 57/120/4 76/88/3
f 68/118/3 76/88/3 57/120/4
f 72/84/2 67/106/1 70/82/1
f 67/106/1 72/84/2 64/105/2
f 70/82/4 67/106/4 72/84/3
f 64/105/3 72/84/3 67/106/4
f 132/79/8 110/78/4 130/77/4
f 110/78/4 132/79/8 100/80/8
f 130/77/1 110/78/1 132/79/7
f 100/80/7 132/79/7 110/78/1
f 4/4/2 48/108/1 2/2/1
f 48/108/1 4/4/2 52/107/2
f 2/2/4 48/108/4 4/4/3
f 52/107/3 4/4/3 48/108/4
f 126/47/4 63/50/8 103/48/4
f 63/50/8 126/47/4 62/49/8
f 103/48/1 63/50/7 126/47/1
f 62/49/7 126/47/1 63/50/7
f 82/63/2 86/114/1 80/65/1
f 86/114/1 82/63/2 83/112/2
f 80/65/4 86/114/4 82/63/3
f 83/112/3 82/63/3 86/114/4
f 2/71/1 47/47/7 120/73/7
f 47/47/7 2/71/1 48/49/1
f 120/73/8 47/47/8 2/71/4
f 48/49/4 2/71/4 47/47/8
f 133/59/11 83/54/2 82/61/2
f 83/54/2 133/59/11 66/52/11
f 82/61/3 83/54/3 133/59/12
f 66/52/12 133/59/12 83/54/3
f 74/54/1 51/59/7 118/52/7
f 51/59/7 74/54/1 57/61/1
f 118/52/8 51/59/8 74/54/4
f 57/61/4 74/54/4 51/59/8
f 50/75/9 117/89/14 119/90/9
f 117/89/14 50/75/9 65/76/14
f 119/90/10 117/89/13 50/75/10
f 65/76/13 50/75/10 117/89/13
f 88/67/8 77/91/4 87/69/4
f 77/91/4 88/67/8 122/93/8
f 87/69/1 77/91/1 88/67/7
f 122/93/7 88/67/7 77/91/1
f 35/48/3 88/49/12 33/50/12
f 88/49/12 35/48/3 127/47/3
f 33/50/11 88/49/11 35/48/2
f 127/47/2 35/48/2 88/49/11
f 34/109/4 127/107/3 35/110/3
f 127/107/3 34/109/4 129/108/4
f 35/110/2 127/107/2 34/109/1
f 129/108/1 34/109/1 127/107/2
f 120/47/11 64/71/2 72/49/2
f 64/71/2 120/47/11 47/73/11
f 72/49/3 64/71/3 120/47/12
f 47/73/12 120/47/12 64/71/3
f 117/91/14 68/67/2 76/93/2
f 68/67/2 117/91/14 65/69/14
f 76/93/3 68/67/3 117/91/13
f 65/69/13 117/91/13 68/67/3
f 84/89/10 53/75/13 121/76/10
f 53/75/13 84/89/10 85/90/13
f 121/76/9 53/75/14 84/89/9
f 85/90/14 84/89/9 53/75/14
f 6/115/4 123/105/3 5/116/3
f 123/105/3 6/115/4 125/106/4
f 5/116/2 123/105/2 6/115/1
f 125/106/1 6/115/1 123/105/2
f 70/56/1 66/77/7 133/55/7
f 66/77/7 70/56/1 67/79/1
f 133/55/8 66/77/8 70/56/4
f 67/79/4 70/56/4 66/77/8
f 50/54/9 60/59/4 49/52/4
f 60/59/4 50/54/9 119/61/9
f 49/52/1 60/59/1 50/54/10
f 119/61/10 50/54/10 60/59/1
f 5/78/3 131/79/12 7/80/12
f 131/79/12 5/78/3 123/77/3
f 7/80/11 131/79/11 5/78/2
f 123/77/2 5/78/2 131/79/11
f 80/67/1 84/91/10 121/69/10
f 84/91/10 80/67/1 86/93/1
f 121/69/9 84/91/9 80/67/4
f 86/93/4 80/67/4 84/91/9
f 51/55/11 4/79/2 118/77/11
f 4/79/2 51/55/11 52/56/2
f 118/77/12 4/79/3 51/55/12
f 52/56/3 51/55/12 4/79/3

usemtl dark

f 105/8/6 106/12/6 107/10/6
f 106/12/6 105/8/6 104/11/6
f 107/10/5 106/12/5 105/8/5
f 104/11/5 105/8/5 106/12/5
f 91/39/6 94/37/6 90/38/6
f 94/37/6 91/39/6 92/43/6
f 90/38/5 94/37/5 91/39/5
f 92/43/5 91/39/5 94/37/5
f 97/32/6 98/27/6 99/30/6
f 98/27/6 97/32/6 96/31/6
f 99/30/5 98/27/5 97/32/5
f 96/31/5 97/32/5 98/27/5
f 113/24/6 114/19/6 115/23/6
f 114/19/6 113/24/6 112/17/6
f 115/23/5 114/19/5 113/24/5
f 112/17/5 113/24/5 114/19/5
f 11/11/5 10/10/5 8/8/5
f 10/10/5 11/11/5 12/12/5
f 8/8/6 10/10/6 11/11/6
f 12/12/6 11/11/6 10/10/6
f 43/43/5 38/38/5 39/39/5
f 38/38/5 43/43/5 37/37/5
f 39/39/6 38/38/6 43/43/6
f 37/37/6 43/43/6 38/38/6
f 17/17/5 23/23/5 24/24/5
f 23/23/5 17/17/5 19/19/5
f 24/24/6 23/23/6 17/17/6
f 19/19/6 17/17/6 23/23/6
f 31/31/5 30/30/5 32/32/5
f 30/30/5 31/31/5 27/27/5
f 32/32/6 30/30/6 31/31/6
f 27/27/6 31/31/6 30/30/6

