# Created by Kenney (www.kenney.nl)

mtllib conveyor-long.mtl

g conveyor-long

v 0.9 0.4 -0.5
v 1 0.3 -0.5
v 0.9 0.4 0.5
v 1 0.3 0.5
v 1 0.1 -0.5
v 0.9 1.173106E-15 -0.5
v 1 0.1 0.5
v 0.9 1.173106E-15 0.5
v -0.9 0 -0.5
v -1 0.1 -0.5
v -0.9 0 0.5
v -1 0.1 0.5
v -0.8585786 0.1 0.5
v -0.9 0.1414214 0.5
v 0.8585786 0.1 0.5
v 0.9 0.1414214 0.5
v -1 0.3 0.5
v -0.9 0.2585786 0.5
v -0.8585786 0.3 0.5
v 0.9 0.2585786 0.5
v 0.8585786 0.3 0.5
v -0.9 0.4 0.5
v -0.8585786 0.1 -0.5
v -0.9 0.1414214 -0.5
v 0.8585786 0.1 -0.5
v 0.9 0.1414214 -0.5
v -1 0.3 -0.5
v -0.9 0.2585786 -0.5
v -0.8585786 0.3 -0.5
v 0.9 0.2585786 -0.5
v 0.8585786 0.3 -0.5
v -0.9 0.4 -0.5
v 0.9 0.2585786 -0.4
v 0.8585786 0.3 -0.4
v 0.9 0.1414214 -0.4
v 0.8585786 0.1 -0.4
v 0.9 0.2585786 0.4
v 0.8585786 0.3 0.4
v 0.8585786 0.1 0.4
v 0.9 0.1414214 0.4
v -0.9 0.2585786 0.4
v -0.9 0.1414214 0.4
v -0.8585786 0.1 0.4
v -0.8585786 0.3 -0.4
v -0.8585786 0.3 0.4
v -0.9 0.2585786 -0.4
v -0.8585786 0.1 -0.4
v -0.9 0.1414214 -0.4

vn 0.3826834 0.9238795 0
vn 0.9238795 0.3826834 0
vn -0.3826834 -0.9238795 0
vn -0.9238795 -0.3826834 0
vn 0.9238795 -0.3826834 0
vn 0.3826834 -0.9238795 0
vn -0.9238795 0.3826834 0
vn -0.3826834 0.9238795 0
vn 0 0 1
vn 0 0 -1

vt 19.68504 -13.91943
vt 19.68504 -19.48719
vt -19.68504 -13.91943
vt -19.68504 -19.48719
vt 19.68504 30.62273
vt 19.68504 25.05496
vt -19.68504 30.62273
vt -19.68504 25.05496
vt 19.68504 11.81102
vt 19.68504 3.937008
vt -19.68504 11.81102
vt -19.68504 3.937008
vt -35.43307 0
vt -39.37008 3.937008
vt 35.43307 4.618528E-14
vt -33.80231 3.937008
vt 39.37008 3.937008
vt -35.43307 5.56777
vt 33.80231 3.937008
vt 35.43307 5.56777
vt -39.37008 11.81102
vt 39.37008 11.81102
vt -35.43307 10.18026
vt -33.80231 11.81102
vt 35.43307 10.18026
vt 33.80231 11.81102
vt -35.43307 15.74803
vt 35.43307 15.74803
vt 35.43307 0
vt -35.43307 4.618528E-14
vt -35.43307 -19.68504
vt -35.43307 19.68504
vt 35.43307 -19.68504
vt 35.43307 19.68504
vt -15.74803 -17.85643
vt -19.68504 -17.85643
vt -15.74803 -15.55019
vt -19.68504 -15.55019
vt -19.68504 5.56777
vt -19.68504 10.18026
vt -15.74803 5.56777
vt -15.74803 10.18026
vt -19.68504 26.68573
vt -19.68504 28.99197
vt -15.74803 26.68573
vt -15.74803 28.99197
vt 19.68504 -17.85643
vt 15.74803 -17.85643
vt 19.68504 -15.55019
vt 15.74803 -15.55019
vt 15.74803 26.68573
vt 15.74803 28.99197
vt 19.68504 26.68573
vt 19.68504 28.99197
vt 15.74803 5.56777
vt 15.74803 10.18026
vt 19.68504 5.56777
vt 19.68504 10.18026
vt 33.80231 -15.74803
vt 33.80231 -19.68504
vt -33.80231 -15.74803
vt -33.80231 -19.68504
vt -33.80231 15.74803
vt -33.80231 19.68504
vt 33.80231 15.74803
vt 33.80231 19.68504

usemtl dark

f 3/3/1 2/2/2 1/1/1
f 2/2/2 3/3/1 4/4/2
f 1/1/3 2/2/4 3/3/3
f 4/4/4 3/3/3 2/2/4
f 7/7/5 6/6/6 5/5/5
f 6/6/6 7/7/5 8/8/6
f 5/5/7 6/6/8 7/7/7
f 8/8/8 7/7/7 6/6/8
f 4/11/2 5/10/5 2/9/2
f 5/10/5 4/11/2 7/12/5
f 2/9/4 5/10/7 4/11/4
f 7/12/7 4/11/4 5/10/7
f 11/6/3 10/7/4 9/8/3
f 10/7/4 11/6/3 12/5/4
f 9/8/1 10/7/2 11/6/1
f 12/5/2 11/6/1 10/7/2
f 8/15/9 12/14/9 11/13/9
f 12/14/9 8/15/9 13/16/9
f 7/17/9 13/16/9 8/15/9
f 12/14/9 13/16/9 14/18/9
f 13/16/9 7/17/9 15/19/9
f 15/19/9 7/17/9 16/20/9
f 12/14/9 14/18/9 17/21/9
f 16/20/9 7/17/9 4/22/9
f 17/21/9 14/18/9 18/23/9
f 17/21/9 18/23/9 19/24/9
f 16/20/9 4/22/9 20/25/9
f 17/21/9 19/24/9 21/26/9
f 20/25/9 4/22/9 21/26/9
f 17/21/9 21/26/9 22/27/9
f 22/27/9 21/26/9 4/22/9
f 22/27/9 4/22/9 3/28/9
f 11/13/10 12/14/10 8/15/10
f 13/16/10 8/15/10 12/14/10
f 8/15/10 13/16/10 7/17/10
f 14/18/10 13/16/10 12/14/10
f 15/19/10 7/17/10 13/16/10
f 16/20/10 7/17/10 15/19/10
f 17/21/10 14/18/10 12/14/10
f 4/22/10 7/17/10 16/20/10
f 18/23/10 14/18/10 17/21/10
f 19/24/10 18/23/10 17/21/10
f 20/25/10 4/22/10 16/20/10
f 21/26/10 19/24/10 17/21/10
f 21/26/10 4/22/10 20/25/10
f 22/27/10 21/26/10 17/21/10
f 4/22/10 21/26/10 22/27/10
f 3/28/10 4/22/10 22/27/10
f 10/17/10 6/30/10 9/29/10
f 6/30/10 10/17/10 23/19/10
f 23/19/10 5/14/10 6/30/10
f 23/19/10 10/17/10 24/20/10
f 5/14/10 23/19/10 25/16/10
f 5/14/10 25/16/10 26/18/10
f 24/20/10 10/17/10 27/22/10
f 5/14/10 26/18/10 2/21/10
f 24/20/10 27/22/10 28/25/10
f 28/25/10 27/22/10 29/26/10
f 2/21/10 26/18/10 30/23/10
f 29/26/10 27/22/10 31/24/10
f 2/21/10 30/23/10 31/24/10
f 31/24/10 27/22/10 32/28/10
f 31/24/10 32/28/10 2/21/10
f 2/21/10 32/28/10 1/27/10
f 9/29/9 6/30/9 10/17/9
f 23/19/9 10/17/9 6/30/9
f 6/30/9 5/14/9 23/19/9
f 24/20/9 10/17/9 23/19/9
f 25/16/9 23/19/9 5/14/9
f 26/18/9 25/16/9 5/14/9
f 27/22/9 10/17/9 24/20/9
f 2/21/9 26/18/9 5/14/9
f 28/25/9 27/22/9 24/20/9
f 29/26/9 27/22/9 28/25/9
f 30/23/9 26/18/9 2/21/9
f 31/24/9 27/22/9 29/26/9
f 31/24/9 30/23/9 2/21/9
f 32/28/9 27/22/9 31/24/9
f 2/21/9 32/28/9 31/24/9
f 1/27/9 32/28/9 2/21/9
f 12/10/4 27/11/7 10/12/4
f 27/11/7 12/10/4 17/9/7
f 10/12/2 27/11/5 12/10/2
f 17/9/5 12/10/2 27/11/5
f 17/2/7 32/3/8 27/4/7
f 32/3/8 17/2/7 22/1/8
f 27/4/5 32/3/6 17/2/5
f 22/1/6 17/2/5 32/3/6
f 32/33/8 3/32/1 1/31/1
f 3/32/1 32/33/8 22/34/8
f 1/31/3 3/32/3 32/33/6
f 22/34/6 32/33/6 3/32/3
f 11/32/3 6/33/6 8/34/6
f 6/33/6 11/32/3 9/31/3
f 8/34/8 6/33/8 11/32/1
f 9/31/1 11/32/1 6/33/8

usemtl grey-dark

f 34/37/3 30/36/4 33/35/4
f 30/36/4 34/37/3 31/38/3
f 33/35/2 30/36/2 34/37/1
f 31/38/1 34/37/1 30/36/2
f 35/41/7 30/40/4 26/39/7
f 30/40/4 35/41/7 33/42/4
f 26/39/5 30/40/2 35/41/5
f 33/42/2 35/41/5 30/40/2
f 36/45/8 26/44/7 25/43/8
f 26/44/7 36/45/8 35/46/7
f 25/43/6 26/44/5 36/45/6
f 35/46/5 36/45/6 26/44/5
f 21/49/3 37/48/4 20/47/4
f 37/48/4 21/49/3 38/50/3
f 20/47/2 37/48/2 21/49/1
f 38/50/1 21/49/1 37/48/2
f 15/53/8 40/52/7 39/51/8
f 40/52/7 15/53/8 16/54/7
f 39/51/6 40/52/5 15/53/6
f 16/54/5 15/53/6 40/52/5
f 16/57/7 37/56/4 40/55/7
f 37/56/4 16/57/7 20/58/4
f 40/55/5 37/56/2 16/57/5
f 20/58/2 16/57/5 37/56/2
f 18/40/5 42/41/2 41/42/5
f 42/41/2 18/40/5 14/39/2
f 41/42/7 42/41/4 18/40/7
f 14/39/4 18/40/7 42/41/4
f 14/44/2 43/45/1 42/46/2
f 43/45/1 14/44/2 13/43/1
f 42/46/4 43/45/3 14/44/4
f 13/43/3 14/44/4 43/45/3
f 44/61/6 31/60/3 34/59/3
f 31/60/3 44/61/6 29/62/6
f 34/59/1 31/60/1 44/61/8
f 29/62/8 44/61/8 31/60/1
f 39/19/9 42/18/9 43/16/9
f 42/18/9 39/19/9 40/20/9
f 42/18/9 40/20/9 41/23/9
f 41/23/9 40/20/9 37/25/9
f 41/23/9 37/25/9 45/24/9
f 45/24/9 37/25/9 38/26/9
f 43/16/10 42/18/10 39/19/10
f 40/20/10 39/19/10 42/18/10
f 41/23/10 40/20/10 42/18/10
f 37/25/10 40/20/10 41/23/10
f 45/24/10 37/25/10 41/23/10
f 38/26/10 37/25/10 45/24/10
f 43/65/1 15/64/8 39/63/8
f 15/64/8 43/65/1 13/66/1
f 39/63/6 15/64/6 43/65/3
f 13/66/3 43/65/3 15/64/6
f 44/50/6 28/47/5 29/49/6
f 28/47/5 44/50/6 46/48/5
f 29/49/8 28/47/7 44/50/8
f 46/48/7 44/50/8 28/47/7
f 23/60/1 36/61/8 25/62/8
f 36/61/8 23/60/1 47/59/1
f 25/62/6 36/61/6 23/60/3
f 47/59/3 23/60/3 36/61/6
f 48/20/10 36/16/10 47/19/10
f 36/16/10 48/20/10 35/18/10
f 35/18/10 48/20/10 46/25/10
f 35/18/10 46/25/10 33/23/10
f 33/23/10 46/25/10 44/26/10
f 33/23/10 44/26/10 34/24/10
f 47/19/9 36/16/9 48/20/9
f 35/18/9 48/20/9 36/16/9
f 46/25/9 48/20/9 35/18/9
f 33/23/9 46/25/9 35/18/9
f 44/26/9 46/25/9 33/23/9
f 34/24/9 44/26/9 33/23/9
f 48/52/2 23/53/1 24/54/2
f 23/53/1 48/52/2 47/51/1
f 24/54/4 23/53/3 48/52/4
f 47/51/3 48/52/4 23/53/3
f 46/56/5 24/57/2 28/58/5
f 24/57/2 46/56/5 48/55/2
f 28/58/7 24/57/4 46/56/7
f 48/55/4 46/56/7 24/57/4
f 19/64/6 38/65/3 21/66/3
f 38/65/3 19/64/6 45/63/6
f 21/66/1 38/65/1 19/64/8
f 45/63/8 19/64/8 38/65/1
f 19/38/6 41/35/5 45/37/6
f 41/35/5 19/38/6 18/36/5
f 45/37/8 41/35/7 19/38/8
f 18/36/7 19/38/8 41/35/7

