# Created by Kenney (www.kenney.nl)

mtllib conveyor-bars-stripe-side.mtl

g Group

v 0.5 0.2 -0.45
v 0.5 0.2 -0.4
v -0.5 0.2 -0.45
v -0.5 0.2 -0.4
v 0.5 5.86553E-16 0.5
v 0.5 5.86553E-16 0.4
v -0.5 5.86553E-16 0.5
v -0.5 5.86553E-16 0.4
v -0.5 0.2 0.4
v 0.5 0.2 0.4
v 0.5 0.15 0.5
v -0.5 0.15 0.5
v 0.5 0 -0.4
v 0.5 0 -0.5
v -0.5 0 -0.4
v -0.5 0 -0.5
v 0.5 0.15 -0.5
v -0.5 0.15 -0.5
v 0.5 0.2 0.45
v -0.5 0.2 0.45

vn 0 0.9238795 -0.3826834
vn 0 1 0
vn 0 -0.9238795 0.3826834
vn 0 -1 0
vn 0 0 -1
vn 0 0 1
vn 0 0.3826834 0.9238795
vn 0 -0.3826834 -0.9238795
vn 1 0 0
vn -1 0 0
vn 0 0.9238795 0.3826834
vn 0 -0.9238795 -0.3826834
vn 0 0.3826834 -0.9238795
vn 0 -0.3826834 0.9238795

vt -19.68504 -17.71654
vt -19.68504 -15.74803
vt 19.68504 -17.71654
vt 19.68504 -15.74803
vt 19.68504 19.68504
vt 19.68504 15.74803
vt -19.68504 19.68504
vt -19.68504 15.74803
vt 19.68504 2.309264E-14
vt -19.68504 2.309264E-14
vt 19.68504 7.874016
vt -19.68504 7.874016
vt 19.68504 5.905512
vt -19.68504 5.905512
vt 19.68504 -19.68504
vt -19.68504 -19.68504
vt 19.68504 0
vt 17.71654 7.874016
vt 15.74803 0
vt 15.74803 7.874016
vt -19.68504 0
vt -15.74803 0
vt -17.71654 7.874016
vt -15.74803 7.874016
vt -19.68504 17.71654
vt 19.68504 17.71654
vt 19.68504 -9.743597
vt -19.68504 -9.743597
vt 19.68504 -6.959713
vt -19.68504 -6.959713
vt 15.74803 2.309264E-14
vt -15.74803 2.309264E-14

usemtl grey

f 3/3/1 2/2/2 1/1/1
f 2/2/2 3/3/1 4/4/2
f 1/1/3 2/2/4 3/3/3
f 4/4/4 3/3/3 2/2/4
f 7/7/4 6/6/4 5/5/4
f 6/6/4 7/7/4 8/8/4
f 5/5/2 6/6/2 7/7/2
f 8/8/2 7/7/2 6/6/2
f 9/11/5 6/10/5 8/9/5
f 6/10/5 9/11/5 10/12/5
f 8/9/6 6/10/6 9/11/6
f 10/12/6 9/11/6 6/10/6
f 11/13/7 7/10/6 5/9/6
f 7/10/6 11/13/7 12/14/7
f 5/9/5 7/10/5 11/13/8
f 12/14/8 11/13/8 7/10/5
f 15/2/4 14/15/4 13/4/4
f 14/15/4 15/2/4 16/16/4
f 13/4/2 14/15/2 15/2/2
f 16/16/2 15/2/2 14/15/2
f 1/18/9 14/17/9 17/13/9
f 14/17/9 1/18/9 13/19/9
f 13/19/9 1/18/9 2/20/9
f 17/13/10 14/17/10 1/18/10
f 13/19/10 1/18/10 14/17/10
f 2/20/10 1/18/10 13/19/10
f 15/22/10 18/14/10 16/21/10
f 18/14/10 15/22/10 3/23/10
f 3/23/10 15/22/10 4/24/10
f 16/21/9 18/14/9 15/22/9
f 3/23/9 15/22/9 18/14/9
f 4/24/9 15/22/9 3/23/9
f 10/8/2 20/26/11 19/25/11
f 20/26/11 10/8/2 9/6/2
f 19/25/12 20/26/12 10/8/4
f 9/6/4 10/8/4 20/26/12
f 3/29/1 17/28/13 18/27/13
f 17/28/13 3/29/1 1/30/1
f 18/27/14 17/28/14 3/29/3
f 1/30/3 3/29/3 17/28/14
f 19/29/11 12/28/7 11/27/7
f 12/28/7 19/29/11 20/30/11
f 11/27/8 12/28/8 19/29/12
f 20/30/12 19/29/12 12/28/8
f 18/13/13 14/21/5 16/17/5
f 14/21/5 18/13/13 17/14/13
f 16/17/6 14/21/6 18/13/14
f 17/14/14 18/13/14 14/21/6
f 7/9/10 9/20/10 8/31/10
f 9/20/10 7/9/10 20/18/10
f 20/18/10 7/9/10 12/13/10
f 8/31/9 9/20/9 7/9/9
f 20/18/9 7/9/9 9/20/9
f 12/13/9 7/9/9 20/18/9
f 19/23/9 6/32/9 10/24/9
f 6/32/9 19/23/9 5/10/9
f 5/10/9 19/23/9 11/14/9
f 10/24/10 6/32/10 19/23/10
f 5/10/10 19/23/10 6/32/10
f 11/14/10 19/23/10 5/10/10
f 2/11/6 15/21/6 13/17/6
f 15/21/6 2/11/6 4/12/6
f 13/17/5 15/21/5 2/11/5
f 4/12/5 2/11/5 15/21/5

g Group

v -0.0625 0.3 -0.4
v -0.0625 0.3 -0.2
v -0.1875 0.3 -0.4
v -0.1875 0.3 -0.2
v -0.0625 0.05 0.4
v -0.1875 0.05 0.4
v 0 0.1125 0.4
v -0.0625 0.1125 0.4
v -0.1875 0.1125 0.4
v -0.25 0.1125 0.4
v -0.0625 0.2375 0.4
v -0.1875 0.2375 0.4
v -0.0625 0.3 0.4
v -0.25 0.2375 0.4
v -0.1875 0.3 0.4
v 0 0.2375 0.4
v -0.3125 0.2375 0.4
v -0.3125 0.3 0.4
v -0.3125 0.1125 0.4
v -0.4375 0.2375 0.4
v -0.4375 0.05 0.4
v -0.3125 0.05 0.4
v -0.4375 0.1125 0.4
v -0.5 0.1125 0.4
v -0.5 0.2375 0.4
v -0.4375 0.3 0.4
v 0.0625 0.2375 0.4
v 0.0625 0.1125 0.4
v 0.0625 0.05 0.4
v 0.1875 0.1125 0.4
v 0.1875 0.3 0.4
v 0.0625 0.3 0.4
v 0.1875 0.2375 0.4
v 0.25 0.2375 0.4
v 0.25 0.1125 0.4
v 0.1875 0.05 0.4
v 0.3125 0.2375 0.4
v 0.3125 0.1125 0.4
v 0.3125 0.05 0.4
v 0.4375 0.1125 0.4
v 0.4375 0.3 0.4
v 0.3125 0.3 0.4
v 0.4375 0.2375 0.4
v 0.5 0.2375 0.4
v 0.5 0.1125 0.4
v 0.4375 0.05 0.4
v 0 0.2375 0.2
v -0.0625 0.3 0.2
v -0.4375 0.05 0.2
v -0.5 0.1125 0.2
v -0.25 0.2375 0.2
v -0.1875 0.3 0.2
v 0.5 0.1125 -0.2
v 0.5 0.1125 -0.4
v 0.4375 0.05 -0.2
v 0.4375 0.05 -0.4
v -0.3125 0.3 0.2
v -0.3125 0.05 -0.2
v -0.3125 0.05 -0.4
v -0.4375 0.05 -0.2
v -0.4375 0.05 -0.4
v -0.25 0.1125 -0.2
v -0.25 0.1125 -0.4
v 0.0625 0.3 0.2
v -0.5 0.2375 0.2
v 0.25 0.2375 0.2
v 0.1875 0.3 0.2
v -0.4375 0.3 0.2
v 0.1875 0.3 -0.4
v 0.1875 0.3 -0.2
v 0.0625 0.3 -0.4
v 0.0625 0.3 -0.2
v -0.3125 0.3 -0.4
v -0.3125 0.3 -0.2
v -0.4375 0.3 -0.4
v -0.4375 0.3 -0.2
v 0.3125 0.05 -0.2
v 0.3125 0.05 -0.4
v 0.4375 0.3 -0.4
v 0.4375 0.3 -0.2
v 0.3125 0.3 -0.4
v 0.3125 0.3 -0.2
v 0.3125 0.3 0.2
v 0.5 0.2375 0.2
v 0.5 0.1125 0.2
v 0.4375 0.3 0.2
v 0.3125 0.05 0.2
v 0.25 0.1125 0.2
v -0.5 0.1125 -0.4
v -0.4375 0.1125 -0.4
v -0.3125 0.1125 -0.4
v -0.4375 0.2375 -0.4
v -0.5 0.2375 -0.4
v -0.3125 0.2375 -0.4
v -0.25 0.2375 -0.4
v -0.1875 0.2375 -0.4
v -0.1875 0.1125 -0.4
v -0.0625 0.2375 -0.4
v -0.0625 0.05 -0.4
v -0.1875 0.05 -0.4
v -0.0625 0.1125 -0.4
v 0 0.1125 -0.4
v 0 0.2375 -0.4
v 0.0625 0.2375 -0.4
v 0.0625 0.1125 -0.4
v 0.1875 0.2375 -0.4
v 0.1875 0.05 -0.4
v 0.0625 0.05 -0.4
v 0.1875 0.1125 -0.4
v 0.25 0.1125 -0.4
v 0.25 0.2375 -0.4
v 0.3125 0.2375 -0.4
v 0.3125 0.1125 -0.4
v 0.4375 0.2375 -0.4
v 0.4375 0.1125 -0.4
v 0.5 0.2375 -0.4
v -0.5 0.2375 -0.2
v -0.25 0.2375 -0.2
v -0.5 0.1125 -0.2
v 0 0.2375 -0.2
v 0.5 0.2375 -0.2
v 0.25 0.1125 -0.2
v 0.25 0.2375 -0.2
v -0.3125 0.05 0.2
v 0.4375 0.05 0.2
v -0.25 0.1125 0.2
v -0.0625 0.05 -0.2
v 0 0.1125 -0.2
v -0.0625 0.05 0.2
v 0 0.1125 0.2
v 0.0625 0.05 0.2
v 0.0625 0.05 -0.2
v 0.1875 0.05 -0.2
v 0.1875 0.05 0.2
v -0.1875 0.05 -0.2
v -0.1875 0.05 0.2

vn 0.3826834 0.9238795 0
vn -0.3826834 0.9238795 0
vn 0.3826834 -0.9238795 0
vn -0.3826834 -0.9238795 0
vn 0.7071068 0.7071068 0
vn -0.7071068 -0.7071068 0
vn -0.9238795 -0.3826834 0
vn 0.9238795 0.3826834 0
vn -0.7071068 0.7071068 0
vn 0.7071068 -0.7071068 0
vn 0.9238795 -0.3826834 0
vn -0.9238795 0.3826834 0

vt 2.46063 -15.74803
vt 2.46063 -7.874016
vt 7.38189 -15.74803
vt 7.38189 -7.874016
vt -2.46063 -5.456968E-14
vt -7.38189 -5.456968E-14
vt -1.818989E-14 2.46063
vt -2.46063 2.46063
vt -7.38189 2.46063
vt -9.84252 2.46063
vt -2.46063 7.38189
vt -7.38189 7.38189
vt -2.46063 9.84252
vt -9.84252 7.38189
vt -7.38189 9.84252
vt -1.818989E-14 7.38189
vt -12.30315 7.38189
vt -12.30315 9.84252
vt -12.30315 2.46063
vt -17.22441 7.38189
vt -17.22441 -5.456968E-14
vt -12.30315 -5.456968E-14
vt -17.22441 2.46063
vt -19.68504 2.46063
vt -19.68504 7.38189
vt -17.22441 9.84252
vt 2.46063 7.38189
vt 2.46063 2.46063
vt 2.46063 -5.456968E-14
vt 7.38189 2.46063
vt 7.38189 9.84252
vt 2.46063 9.84252
vt 7.38189 7.38189
vt 9.84252 7.38189
vt 9.84252 2.46063
vt 7.38189 -5.456968E-14
vt 12.30315 7.38189
vt 12.30315 2.46063
vt 12.30315 -3.637979E-14
vt 17.22441 2.46063
vt 17.22441 9.84252
vt 12.30315 9.84252
vt 17.22441 7.38189
vt 19.68504 7.38189
vt 19.68504 2.46063
vt 17.22441 -3.637979E-14
vt -7.874016 5.219784
vt -15.74803 5.219784
vt -7.874016 8.69964
vt -15.74803 8.69964
vt 15.74803 12.1795
vt 7.874016 12.1795
vt 15.74803 15.65935
vt 7.874016 15.65935
vt 7.874016 -1.739928
vt 7.874016 1.739928
vt 15.74803 -1.739928
vt 15.74803 1.739928
vt -7.874016 12.1795
vt -15.74803 12.1795
vt -7.874016 15.65935
vt -15.74803 15.65935
vt -12.30315 -7.874016
vt -12.30315 -15.74803
vt -17.22441 -7.874016
vt -17.22441 -15.74803
vt 7.874016 -5.219784
vt 15.74803 -5.219784
vt 7.874016 -8.69964
vt 15.74803 -8.69964
vt 7.874016 8.69964
vt 15.74803 8.69964
vt 7.874016 5.219784
vt 15.74803 5.219784
vt 7.874016 2.46063
vt 7.874016 7.38189
vt 15.74803 2.46063
vt 15.74803 7.38189
vt -7.874016 -1.739928
vt -15.74803 -1.739928
vt -7.874016 1.739928
vt -15.74803 1.739928
vt -7.38189 -15.74803
vt -7.38189 -7.874016
vt -2.46063 -15.74803
vt -2.46063 -7.874016
vt 12.30315 -15.74803
vt 12.30315 -7.874016
vt 17.22441 -15.74803
vt 17.22441 -7.874016
vt -7.874016 7.38189
vt -7.874016 2.46063
vt -15.74803 7.38189
vt -15.74803 2.46063
vt -7.874016 -8.69964
vt -15.74803 -8.69964
vt -7.874016 -5.219784
vt -15.74803 -5.219784
vt 17.22441 0
vt 12.30315 0
vt 2.46063 0
vt 7.38189 0
vt 0 2.46063
vt 0 7.38189
vt -7.38189 0
vt -2.46063 0
vt -17.22441 0
vt -12.30315 0
vt 2.46063 7.874016
vt 2.46063 15.74803
vt 7.38189 7.874016
vt 7.38189 15.74803
vt -12.30315 15.74803
vt -12.30315 7.874016
vt -17.22441 15.74803
vt -17.22441 7.874016
vt -7.38189 7.874016
vt -7.38189 15.74803
vt -2.46063 7.874016
vt -2.46063 15.74803
vt 17.22441 15.74803
vt 17.22441 7.874016
vt 12.30315 15.74803
vt 12.30315 7.874016

usemtl grey-dark

f 23/35/16 22/34/15 21/33/15
f 22/34/15 23/35/16 24/36/16
f 21/33/18 22/34/18 23/35/17
f 24/36/17 23/35/17 22/34/18
f 27/39/6 26/38/6 25/37/6
f 26/38/6 27/39/6 28/40/6
f 29/41/6 26/38/6 28/40/6
f 26/38/6 29/41/6 30/42/6
f 28/40/6 27/39/6 31/43/6
f 30/42/6 29/41/6 32/44/6
f 31/43/6 33/45/6 32/44/6
f 32/44/6 33/45/6 34/46/6
f 30/42/6 32/44/6 34/46/6
f 34/46/6 33/45/6 35/47/6
f 31/43/6 36/48/6 33/45/6
f 31/43/6 27/39/6 36/48/6
f 37/49/6 30/42/6 34/46/6
f 37/49/6 34/46/6 38/50/6
f 39/51/6 30/42/6 37/49/6
f 37/49/6 38/50/6 40/52/6
f 41/53/6 30/42/6 39/51/6
f 30/42/6 41/53/6 42/54/6
f 43/55/6 41/53/6 39/51/6
f 41/53/6 43/55/6 44/56/6
f 44/56/6 43/55/6 40/52/6
f 44/56/6 40/52/6 45/57/6
f 40/52/6 38/50/6 45/57/6
f 45/57/6 38/50/6 46/58/6
f 27/39/6 47/59/6 36/48/6
f 27/39/6 48/60/6 47/59/6
f 49/61/6 48/60/6 27/39/6
f 48/60/6 49/61/6 50/62/6
f 47/59/6 51/63/6 36/48/6
f 36/48/6 51/63/6 52/64/6
f 53/65/6 51/63/6 47/59/6
f 53/65/6 54/66/6 51/63/6
f 49/61/6 55/67/6 50/62/6
f 50/62/6 55/67/6 53/65/6
f 53/65/6 55/67/6 54/66/6
f 55/67/6 49/61/6 56/68/6
f 55/67/6 57/69/6 54/66/6
f 55/67/6 58/70/6 57/69/6
f 59/71/6 58/70/6 55/67/6
f 58/70/6 59/71/6 60/72/6
f 57/69/6 61/73/6 54/66/6
f 54/66/6 61/73/6 62/74/6
f 63/75/6 61/73/6 57/69/6
f 63/75/6 64/76/6 61/73/6
f 63/75/6 65/77/6 64/76/6
f 60/72/6 65/77/6 63/75/6
f 59/71/6 65/77/6 60/72/6
f 65/77/6 59/71/6 66/78/6
f 25/37/5 26/38/5 27/39/5
f 28/40/5 27/39/5 26/38/5
f 28/40/5 26/38/5 29/41/5
f 30/42/5 29/41/5 26/38/5
f 31/43/5 27/39/5 28/40/5
f 32/44/5 29/41/5 30/42/5
f 32/44/5 33/45/5 31/43/5
f 33/45/5 36/48/5 31/43/5
f 36/48/5 27/39/5 31/43/5
f 34/46/5 33/45/5 32/44/5
f 34/46/5 32/44/5 30/42/5
f 35/47/5 33/45/5 34/46/5
f 34/46/5 30/42/5 37/49/5
f 38/50/5 34/46/5 37/49/5
f 37/49/5 30/42/5 39/51/5
f 40/52/5 38/50/5 37/49/5
f 39/51/5 30/42/5 41/53/5
f 42/54/5 41/53/5 30/42/5
f 39/51/5 41/53/5 43/55/5
f 44/56/5 43/55/5 41/53/5
f 40/52/5 43/55/5 44/56/5
f 45/57/5 40/52/5 44/56/5
f 45/57/5 38/50/5 40/52/5
f 46/58/5 38/50/5 45/57/5
f 52/64/5 51/63/5 36/48/5
f 36/48/5 51/63/5 47/59/5
f 36/48/5 47/59/5 27/39/5
f 47/59/5 48/60/5 27/39/5
f 47/59/5 51/63/5 53/65/5
f 27/39/5 48/60/5 49/61/5
f 50/62/5 49/61/5 48/60/5
f 51/63/5 54/66/5 53/65/5
f 50/62/5 55/67/5 49/61/5
f 53/65/5 55/67/5 50/62/5
f 54/66/5 55/67/5 53/65/5
f 56/68/5 49/61/5 55/67/5
f 54/66/5 57/69/5 55/67/5
f 57/69/5 58/70/5 55/67/5
f 55/67/5 58/70/5 59/71/5
f 60/72/5 59/71/5 58/70/5
f 54/66/5 61/73/5 57/69/5
f 62/74/5 61/73/5 54/66/5
f 57/69/5 61/73/5 63/75/5
f 61/73/5 64/76/5 63/75/5
f 64/76/5 65/77/5 63/75/5
f 63/75/5 65/77/5 60/72/5
f 60/72/5 65/77/5 59/71/5
f 66/78/5 59/71/5 65/77/5
f 68/81/15 36/80/19 67/79/19
f 36/80/19 68/81/15 33/82/15
f 67/79/20 36/80/20 68/81/18
f 33/82/18 68/81/18 36/80/20
f 44/85/21 69/84/18 41/83/18
f 69/84/18 44/85/21 70/86/21
f 41/83/15 69/84/15 44/85/22
f 70/86/22 44/85/22 69/84/15
f 34/89/23 72/88/16 71/87/23
f 72/88/16 34/89/23 35/90/16
f 71/87/24 72/88/17 34/89/24
f 35/90/17 34/89/24 72/88/17
f 75/84/17 74/85/25 73/86/25
f 74/85/25 75/84/17 76/83/17
f 73/86/26 74/85/26 75/84/16
f 76/83/16 75/84/16 74/85/26
f 77/93/15 34/92/19 71/91/19
f 34/92/19 77/93/15 38/94/15
f 71/91/20 34/92/20 77/93/18
f 38/94/18 77/93/18 34/92/20
f 80/97/18 79/96/17 78/95/17
f 79/96/17 80/97/18 81/98/18
f 78/95/16 79/96/16 80/97/15
f 81/98/15 80/97/15 79/96/16
f 78/101/17 83/100/24 82/99/24
f 83/100/24 78/101/17 79/102/17
f 82/99/23 83/100/23 78/101/16
f 79/102/16 78/101/16 83/100/23
f 67/105/23 52/104/16 84/103/16
f 52/104/16 67/105/23 36/106/23
f 84/103/17 52/104/17 67/105/24
f 36/106/24 67/105/24 52/104/17
f 44/109/21 85/108/26 70/107/21
f 85/108/26 44/109/21 45/110/26
f 70/107/22 85/108/25 44/109/22
f 45/110/25 44/109/22 85/108/25
f 87/113/15 54/112/19 86/111/19
f 54/112/19 87/113/15 51/114/15
f 86/111/20 54/112/20 87/113/18
f 51/114/18 87/113/18 54/112/20
f 85/101/26 46/100/16 88/99/16
f 46/100/16 85/101/26 45/102/26
f 88/99/17 46/100/17 85/101/25
f 45/102/25 85/101/25 46/100/17
f 91/117/16 90/116/15 89/115/15
f 90/116/15 91/117/16 92/118/16
f 89/115/18 90/116/18 91/117/17
f 92/118/17 91/117/17 90/116/18
f 95/121/16 94/120/15 93/119/15
f 94/120/15 95/121/16 96/122/16
f 93/119/18 94/120/18 95/121/17
f 96/122/17 95/121/17 94/120/18
f 97/120/18 76/121/17 75/122/17
f 76/121/17 97/120/18 98/119/18
f 75/122/16 76/121/16 97/120/15
f 98/119/15 97/120/15 76/121/16
f 101/96/16 100/97/15 99/98/15
f 100/97/15 101/96/16 102/95/16
f 99/98/18 100/97/18 101/96/17
f 102/95/17 101/96/17 100/97/18
f 86/84/23 62/85/16 103/86/16
f 62/85/16 86/84/23 54/83/23
f 103/86/17 62/85/17 86/84/24
f 54/83/24 86/84/24 62/85/17
f 64/125/22 105/124/25 104/123/22
f 105/124/25 64/125/22 65/126/25
f 104/123/21 105/124/26 64/125/21
f 65/126/26 64/125/21 105/124/26
f 106/129/15 64/128/22 104/127/22
f 64/128/22 106/129/15 61/130/15
f 104/127/21 64/128/21 106/129/18
f 61/130/18 106/129/18 64/128/21
f 55/100/20 107/101/18 59/102/18
f 107/101/18 55/100/20 108/99/20
f 59/102/15 107/101/15 55/100/19
f 108/99/19 55/100/19 107/101/15
f 109/77/5 79/132/5 81/131/5
f 79/132/5 109/77/5 110/72/5
f 79/132/5 110/72/5 111/70/5
f 110/72/5 109/77/5 112/75/5
f 112/75/5 109/77/5 113/76/5
f 111/70/5 83/67/5 79/132/5
f 112/75/5 113/76/5 95/73/5
f 112/75/5 95/73/5 114/69/5
f 83/67/5 111/70/5 114/69/5
f 114/69/5 95/73/5 115/66/5
f 83/67/5 114/69/5 115/66/5
f 115/66/5 95/73/5 93/74/5
f 116/65/5 83/67/5 115/66/5
f 116/65/5 115/66/5 23/63/5
f 117/62/5 83/67/5 116/65/5
f 116/65/5 23/63/5 118/59/5
f 119/133/5 83/67/5 117/62/5
f 83/67/5 119/133/5 120/134/5
f 119/133/5 117/62/5 121/60/5
f 121/60/5 122/135/5 119/133/5
f 122/135/5 121/60/5 118/59/5
f 118/59/5 23/63/5 123/136/5
f 122/135/5 118/59/5 123/136/5
f 123/136/5 23/63/5 21/64/5
f 124/43/5 122/135/5 123/136/5
f 124/43/5 123/136/5 91/45/5
f 125/40/5 122/135/5 124/43/5
f 124/43/5 91/45/5 126/44/5
f 127/137/5 122/135/5 125/40/5
f 122/135/5 127/137/5 128/138/5
f 127/137/5 125/40/5 129/41/5
f 129/41/5 130/42/5 127/137/5
f 130/42/5 129/41/5 126/44/5
f 126/44/5 91/45/5 131/46/5
f 130/42/5 126/44/5 131/46/5
f 131/46/5 91/45/5 89/47/5
f 132/49/5 130/42/5 131/46/5
f 132/49/5 131/46/5 101/50/5
f 133/51/5 130/42/5 132/49/5
f 132/49/5 101/50/5 134/52/5
f 76/139/5 130/42/5 133/51/5
f 130/42/5 76/139/5 98/140/5
f 76/139/5 133/51/5 135/55/5
f 135/55/5 74/56/5 76/139/5
f 74/56/5 135/55/5 134/52/5
f 74/56/5 134/52/5 136/57/5
f 134/52/5 101/50/5 136/57/5
f 136/57/5 101/50/5 99/58/5
f 81/131/6 79/132/6 109/77/6
f 110/72/6 109/77/6 79/132/6
f 111/70/6 110/72/6 79/132/6
f 112/75/6 109/77/6 110/72/6
f 113/76/6 109/77/6 112/75/6
f 79/132/6 83/67/6 111/70/6
f 95/73/6 113/76/6 112/75/6
f 114/69/6 95/73/6 112/75/6
f 114/69/6 111/70/6 83/67/6
f 115/66/6 95/73/6 114/69/6
f 115/66/6 114/69/6 83/67/6
f 93/74/6 95/73/6 115/66/6
f 115/66/6 83/67/6 116/65/6
f 23/63/6 115/66/6 116/65/6
f 116/65/6 83/67/6 117/62/6
f 118/59/6 23/63/6 116/65/6
f 117/62/6 83/67/6 119/133/6
f 120/134/6 119/133/6 83/67/6
f 121/60/6 117/62/6 119/133/6
f 119/133/6 122/135/6 121/60/6
f 118/59/6 121/60/6 122/135/6
f 123/136/6 23/63/6 118/59/6
f 123/136/6 118/59/6 122/135/6
f 21/64/6 23/63/6 123/136/6
f 123/136/6 122/135/6 124/43/6
f 91/45/6 123/136/6 124/43/6
f 124/43/6 122/135/6 125/40/6
f 126/44/6 91/45/6 124/43/6
f 125/40/6 122/135/6 127/137/6
f 128/138/6 127/137/6 122/135/6
f 129/41/6 125/40/6 127/137/6
f 127/137/6 130/42/6 129/41/6
f 126/44/6 129/41/6 130/42/6
f 131/46/6 91/45/6 126/44/6
f 131/46/6 126/44/6 130/42/6
f 89/47/6 91/45/6 131/46/6
f 131/46/6 130/42/6 132/49/6
f 101/50/6 131/46/6 132/49/6
f 132/49/6 130/42/6 133/51/6
f 134/52/6 101/50/6 132/49/6
f 133/51/6 130/42/6 76/139/6
f 98/140/6 76/139/6 130/42/6
f 135/55/6 133/51/6 76/139/6
f 76/139/6 74/56/6 135/55/6
f 134/52/6 135/55/6 74/56/6
f 136/57/6 134/52/6 74/56/6
f 136/57/6 101/50/6 134/52/6
f 99/58/6 101/50/6 136/57/6
f 113/128/26 96/129/16 95/130/16
f 96/129/16 113/128/26 137/127/26
f 95/130/17 96/129/17 113/128/25
f 137/127/25 113/128/25 96/129/17
f 93/85/15 138/84/19 115/83/19
f 138/84/19 93/85/15 94/86/15
f 115/83/20 138/84/20 93/85/18
f 94/86/18 93/85/18 138/84/20
f 139/93/21 81/92/18 80/91/18
f 81/92/18 139/93/21 109/94/21
f 80/91/15 81/92/15 139/93/22
f 109/94/22 139/93/22 81/92/15
f 21/104/15 140/105/19 123/106/19
f 140/105/19 21/104/15 22/103/15
f 123/106/20 140/105/20 21/104/18
f 22/103/18 21/104/18 140/105/20
f 141/108/22 74/109/25 136/110/22
f 74/109/25 141/108/22 73/107/25
f 136/110/21 74/109/26 141/108/21
f 73/107/26 141/108/21 74/109/26
f 99/100/15 141/101/22 136/102/22
f 141/101/22 99/100/15 100/99/15
f 136/102/21 141/101/21 99/100/18
f 100/99/18 99/100/18 141/101/21
f 142/129/20 98/128/18 97/127/18
f 98/128/18 142/129/20 130/130/20
f 97/127/15 98/128/15 142/129/19
f 130/130/19 142/129/19 98/128/15
f 138/111/23 23/114/16 115/112/23
f 23/114/16 138/111/23 24/113/16
f 115/112/24 23/114/17 138/111/24
f 24/113/17 138/111/24 23/114/17
f 139/124/21 113/125/26 109/126/21
f 113/125/26 139/124/21 137/123/26
f 109/126/22 113/125/25 139/124/22
f 137/123/25 139/124/22 113/125/25
f 131/92/23 102/93/16 101/94/16
f 102/93/16 131/92/23 143/91/23
f 101/94/17 102/93/17 131/92/24
f 143/91/24 131/92/24 102/93/17
f 123/80/23 92/81/16 91/82/16
f 92/81/16 123/80/23 140/79/23
f 91/82/17 92/81/17 123/80/24
f 140/79/24 123/80/24 92/81/17
f 89/90/15 143/87/19 131/89/19
f 143/87/19 89/90/15 90/88/15
f 131/89/20 143/87/20 89/90/18
f 90/88/18 89/90/18 143/87/20
f 72/143/16 33/142/15 68/141/15
f 33/142/15 72/143/16 35/144/16
f 68/141/18 33/142/18 72/143/17
f 35/144/17 72/143/17 33/142/18
f 41/147/18 144/146/17 42/145/17
f 144/146/17 41/147/18 69/148/18
f 42/145/16 144/146/16 41/147/15
f 69/148/15 41/147/15 144/146/16
f 84/151/16 51/150/15 87/149/15
f 51/150/15 84/151/16 52/152/16
f 87/149/18 51/150/18 84/151/17
f 52/152/17 84/151/17 51/150/18
f 59/155/18 145/154/17 66/153/17
f 145/154/17 59/155/18 107/156/18
f 66/153/16 145/154/16 59/155/15
f 107/156/15 59/155/15 145/154/16
f 66/92/17 105/93/25 65/94/25
f 105/93/25 66/92/17 145/91/17
f 65/94/26 105/93/26 66/92/16
f 145/91/16 66/92/16 105/93/26
f 103/146/16 61/147/15 106/148/15
f 61/147/15 103/146/16 62/145/16
f 106/148/18 61/147/18 103/146/17
f 62/145/17 103/146/17 61/147/18
f 88/154/16 38/155/15 77/156/15
f 38/155/15 88/154/16 46/153/16
f 77/156/18 38/155/18 88/154/17
f 46/153/17 88/154/17 38/155/18
f 42/128/17 146/129/24 30/130/24
f 146/129/24 42/128/17 144/127/17
f 30/130/23 146/129/23 42/128/16
f 144/127/16 42/128/16 146/129/23

usemtl grey

f 122/90/24 147/87/17 119/89/17
f 147/87/17 122/90/24 148/88/24
f 148/88/24 149/111/17 147/87/17
f 149/111/17 148/88/24 150/113/24
f 150/113/24 25/112/17 149/111/17
f 25/112/17 150/113/24 27/114/24
f 119/89/16 147/87/16 122/90/23
f 148/88/23 122/90/23 147/87/16
f 147/87/16 149/111/16 148/88/23
f 150/113/23 148/88/23 149/111/16
f 149/111/16 25/112/16 150/113/23
f 27/114/23 150/113/23 25/112/16
f 27/90/20 151/87/18 49/89/18
f 151/87/18 27/90/20 150/88/20
f 150/88/20 152/111/18 151/87/18
f 152/111/18 150/88/20 148/113/20
f 148/113/20 128/112/18 152/111/18
f 128/112/18 148/113/20 122/114/20
f 49/89/15 151/87/15 27/90/19
f 150/88/19 27/90/19 151/87/15
f 151/87/15 152/111/15 150/88/19
f 148/113/19 150/88/19 152/111/15
f 152/111/15 128/112/15 148/113/19
f 122/114/19 148/113/19 128/112/15
f 130/104/24 153/105/17 127/106/17
f 153/105/17 130/104/24 142/103/24
f 142/103/24 154/79/17 153/105/17
f 154/79/17 142/103/24 108/81/24
f 108/81/24 56/80/17 154/79/17
f 56/80/17 108/81/24 55/82/24
f 127/106/16 153/105/16 130/104/23
f 142/103/23 130/104/23 153/105/16
f 153/105/16 154/79/16 142/103/23
f 108/81/23 142/103/23 154/79/16
f 154/79/16 56/80/16 108/81/23
f 55/82/23 108/81/23 56/80/16
f 119/117/17 155/116/18 120/115/18
f 155/116/18 119/117/17 147/118/17
f 147/118/17 156/149/18 155/116/18
f 156/149/18 147/118/17 149/151/17
f 149/151/17 26/150/18 156/149/18
f 26/150/18 149/151/17 25/152/17
f 120/115/15 155/116/15 119/117/16
f 147/118/16 119/117/16 155/116/15
f 155/116/15 156/149/15 147/118/16
f 149/151/16 147/118/16 156/149/15
f 156/149/15 26/150/15 149/151/16
f 25/152/16 149/151/16 26/150/15
f 146/103/20 26/106/18 30/104/20
f 26/106/18 146/103/20 156/105/18
f 82/81/20 156/105/18 146/103/20
f 156/105/18 82/81/20 155/79/18
f 83/82/20 155/79/18 82/81/20
f 155/79/18 83/82/20 120/80/18
f 30/104/19 26/106/15 146/103/19
f 156/105/15 146/103/19 26/106/15
f 146/103/19 156/105/15 82/81/19
f 155/79/15 82/81/19 156/105/15
f 82/81/19 155/79/15 83/82/19
f 120/80/15 83/82/19 155/79/15
f 127/35/17 152/34/18 128/33/18
f 152/34/18 127/35/17 153/36/17
f 153/36/17 151/141/18 152/34/18
f 151/141/18 153/36/17 154/143/17
f 154/143/17 49/142/18 151/141/18
f 49/142/18 154/143/17 56/144/17
f 128/33/15 152/34/15 127/35/16
f 153/36/16 127/35/16 152/34/15
f 152/34/15 151/141/15 153/36/16
f 154/143/16 153/36/16 151/141/15
f 151/141/15 49/142/15 154/143/16
f 56/144/16 154/143/16 49/142/15
f 69/148/18 78/95/17 144/146/17
f 78/95/17 69/148/18 80/97/18
f 144/146/16 78/95/16 69/148/15
f 80/97/15 69/148/15 78/95/16
f 145/91/17 73/86/25 105/93/25
f 73/86/25 145/91/17 75/84/17
f 105/93/26 73/86/26 145/91/16
f 75/84/16 145/91/16 73/86/26
f 107/156/18 75/122/17 145/154/17
f 75/122/17 107/156/18 97/120/18
f 145/154/16 75/122/16 107/156/15
f 97/120/15 107/156/15 75/122/16
f 144/127/17 82/99/24 146/129/24
f 82/99/24 144/127/17 78/101/17
f 146/129/23 82/99/23 144/127/16
f 78/101/16 144/127/16 82/99/23
f 96/122/16 77/156/15 94/120/15
f 77/156/15 96/122/16 88/154/16
f 94/120/18 77/156/18 96/122/17
f 88/154/17 96/122/17 77/156/18
f 92/118/16 87/149/15 90/116/15
f 87/149/15 92/118/16 84/151/16
f 90/116/18 87/149/18 92/118/17
f 84/151/17 92/118/17 87/149/18
f 24/36/16 68/141/15 22/34/15
f 68/141/15 24/36/16 72/143/16
f 22/34/18 68/141/18 24/36/17
f 72/143/17 24/36/17 68/141/18
f 102/95/16 106/148/15 100/97/15
f 106/148/15 102/95/16 103/146/16
f 100/97/18 106/148/18 102/95/17
f 103/146/17 102/95/17 106/148/18
f 22/103/15 67/79/19 140/105/19
f 67/79/19 22/103/15 68/81/15
f 140/105/20 67/79/20 22/103/18
f 68/81/18 22/103/18 67/79/20
f 143/91/23 103/86/16 102/93/16
f 103/86/16 143/91/23 86/84/23
f 102/93/17 103/86/17 143/91/24
f 86/84/24 143/91/24 103/86/17
f 94/86/15 71/91/19 138/84/19
f 71/91/19 94/86/15 77/93/15
f 138/84/20 71/91/20 94/86/18
f 77/93/18 94/86/18 71/91/20
f 70/107/21 137/123/26 139/124/21
f 137/123/26 70/107/21 85/108/26
f 139/124/22 137/123/25 70/107/22
f 85/108/25 70/107/22 137/123/25
f 108/99/20 97/127/18 107/101/18
f 97/127/18 108/99/20 142/129/20
f 107/101/15 97/127/15 108/99/19
f 142/129/19 108/99/19 97/127/15
f 140/79/23 84/103/16 92/81/16
f 84/103/16 140/79/23 67/105/23
f 92/81/17 84/103/17 140/79/24
f 67/105/24 140/79/24 84/103/17
f 137/127/26 88/99/16 96/129/16
f 88/99/16 137/127/26 85/101/26
f 96/129/17 88/99/17 137/127/25
f 85/101/25 137/127/25 88/99/17
f 104/123/22 73/107/25 141/108/22
f 73/107/25 104/123/22 105/124/25
f 141/108/21 73/107/26 104/123/21
f 105/124/26 104/123/21 73/107/26
f 90/88/15 86/111/19 143/87/19
f 86/111/19 90/88/15 87/113/15
f 143/87/20 86/111/20 90/88/18
f 87/113/18 90/88/18 86/111/20
f 70/86/21 80/91/18 69/84/18
f 80/91/18 70/86/21 139/93/21
f 69/84/15 80/91/15 70/86/22
f 139/93/22 70/86/22 80/91/15
f 100/99/15 104/127/22 141/101/22
f 104/127/22 100/99/15 106/129/15
f 141/101/21 104/127/21 100/99/18
f 106/129/18 100/99/18 104/127/21
f 71/87/23 24/113/16 138/111/23
f 24/113/16 71/87/23 72/88/16
f 138/111/24 24/113/17 71/87/24
f 72/88/17 71/87/24 24/113/17

usemtl dark

f 125/40/5 126/44/5 129/41/5
f 126/44/5 125/40/5 124/43/5
f 129/41/6 126/44/6 125/40/6
f 124/43/6 125/40/6 126/44/6
f 110/72/5 114/69/5 111/70/5
f 114/69/5 110/72/5 112/75/5
f 111/70/6 114/69/6 110/72/6
f 112/75/6 110/72/6 114/69/6
f 117/62/5 118/59/5 121/60/5
f 118/59/5 117/62/5 116/65/5
f 121/60/6 118/59/6 117/62/6
f 116/65/6 117/62/6 118/59/6
f 133/51/5 134/52/5 135/55/5
f 134/52/5 133/51/5 132/49/5
f 135/55/6 134/52/6 133/51/6
f 132/49/6 133/51/6 134/52/6
f 31/43/6 29/41/6 28/40/6
f 29/41/6 31/43/6 32/44/6
f 28/40/5 29/41/5 31/43/5
f 32/44/5 31/43/5 29/41/5
f 63/75/6 58/70/6 60/72/6
f 58/70/6 63/75/6 57/69/6
f 60/72/5 58/70/5 63/75/5
f 57/69/5 63/75/5 58/70/5
f 37/49/6 43/55/6 39/51/6
f 43/55/6 37/49/6 40/52/6
f 39/51/5 43/55/5 37/49/5
f 40/52/5 37/49/5 43/55/5
f 53/65/6 48/60/6 50/62/6
f 48/60/6 53/65/6 47/59/6
f 50/62/5 48/60/5 53/65/5
f 47/59/5 53/65/5 48/60/5

