# Created by Kenney (www.kenney.nl)

mtllib conveyor-stripe.mtl

g conveyor-stripe

v -0.4 0 0.5
v -0.5 0.1 0.5
v 0.4 1.173106E-15 0.5
v -0.3585787 0.1 0.5
v 0.5 0.1 0.5
v -0.4 0.1414214 0.5
v 0.3585787 0.1 0.5
v 0.4 0.1414214 0.5
v -0.5 0.3 0.5
v 0.5 0.3 0.5
v -0.4 0.2585786 0.5
v -0.3585787 0.3 0.5
v 0.4 0.2585786 0.5
v 0.3585787 0.3 0.5
v -0.4 0.4 0.5
v 0.4 0.4 0.5
v 0.4 0.4 0.3
v 0.5 0.3 0.3
v -0.4 0 -0.5
v 0.4 1.173106E-15 -0.5
v -0.5 0.1 -0.5
v -0.3585787 0.1 -0.5
v 0.5 0.1 -0.5
v -0.4 0.1414214 -0.5
v 0.3585787 0.1 -0.5
v 0.4 0.1414214 -0.5
v -0.5 0.3 -0.5
v 0.5 0.3 -0.5
v -0.4 0.2585786 -0.5
v -0.3585787 0.3 -0.5
v 0.4 0.2585786 -0.5
v 0.3585787 0.3 -0.5
v -0.4 0.4 -0.5
v 0.4 0.4 -0.5
v -0.4 0 -0.3
v -0.5 0.1 -0.3
v -0.5 0.3 -0.3
v -0.4 0.4 -0.3
v 0.5 0.1 -0.3
v 0.4 1.173106E-15 -0.3
v 0.5 0.1 0.3
v -0.4 0.4 0.3
v 0.4 1.173106E-15 0.3
v -0.4 0 0.3
v -0.5 0.1 0.3
v -0.5 0.3 0.3
v 0.5 0.3 -0.3
v 0.4 0.4 -0.3
v -0.3585787 0.1 -0.4
v 0.3585787 0.1 -0.4
v -0.4 0.1414214 -0.4
v 0.4 0.1414214 -0.4
v -0.4 0.2585786 -0.4
v 0.4 0.2585786 -0.4
v -0.3585787 0.3 -0.4
v 0.3585787 0.3 -0.4
v -0.3585787 0.1 0.4
v -0.4 0.1414214 0.4
v 0.3585787 0.1 0.4
v 0.4 0.1414214 0.4
v -0.4 0.2585786 0.4
v 0.4 0.2585786 0.4
v -0.3585787 0.3 0.4
v 0.3585787 0.3 0.4

vn 0 0 1
vn 0 0 -1
vn 0.3826834 0.9238795 0
vn 0.9238795 0.3826834 0
vn -0.3826834 -0.9238795 0
vn -0.9238795 -0.3826834 0
vn -0.9238795 0.3826834 0
vn -0.3826834 0.9238795 0
vn 0.9238795 -0.3826834 0
vn 0.3826834 -0.9238795 0

vt -15.74803 0
vt -19.68504 3.937008
vt 15.74803 4.618528E-14
vt -14.11727 3.937008
vt 19.68504 3.937008
vt -15.74803 5.56777
vt 14.11727 3.937008
vt 15.74803 5.56777
vt -19.68504 11.81102
vt 19.68504 11.81102
vt -15.74803 10.18026
vt -14.11727 11.81102
vt 15.74803 10.18026
vt 14.11727 11.81102
vt -15.74803 15.74803
vt 15.74803 15.74803
vt -11.81102 5.861978E-14
vt -11.81102 -5.56777
vt -19.68504 5.861978E-14
vt -19.68504 -5.56777
vt 15.74803 0
vt -15.74803 4.618528E-14
vt -19.68504 11.13554
vt -19.68504 16.70331
vt -11.81102 11.13554
vt -11.81102 16.70331
vt -19.68504 -3.552714E-15
vt -11.81102 -3.552714E-15
vt 19.68504 16.70331
vt 19.68504 11.13554
vt 11.81102 16.70331
vt 11.81102 11.13554
vt 15.74803 -11.81102
vt 15.74803 -19.68504
vt -15.74803 -11.81102
vt -15.74803 -19.68504
vt -11.81102 11.81102
vt -11.81102 3.937008
vt -15.74803 11.81102
vt -15.74803 19.68504
vt 15.74803 11.81102
vt 15.74803 19.68504
vt 11.81102 3.937008
vt 11.81102 11.81102
vt 11.81102 -5.56777
vt 11.81102 -3.552714E-15
vt 19.68504 -5.56777
vt 19.68504 -3.552714E-15
vt 19.68504 5.861978E-14
vt 11.81102 5.861978E-14
vt 19.68504 -3.937008
vt 15.74803 -3.937008
vt 19.68504 -1.630762
vt 15.74803 -1.630762
vt 14.11727 19.68504
vt 14.11727 15.74803
vt -14.11727 19.68504
vt -14.11727 15.74803
vt -15.74803 -1.630762
vt -15.74803 -3.937008
vt -19.68504 -1.630762
vt -19.68504 -3.937008
vt -19.68504 10.18026
vt -19.68504 5.56777
vt -15.74803 15.07255
vt -15.74803 12.7663
vt -19.68504 15.07255
vt -19.68504 12.7663
vt 15.74803 12.7663
vt 15.74803 15.07255
vt 19.68504 12.7663
vt 19.68504 15.07255
vt 19.68504 5.56777
vt 19.68504 10.18026
vt 14.11727 -15.74803
vt 14.11727 -19.68504
vt -14.11727 -15.74803
vt -14.11727 -19.68504

usemtl dark

f 3/3/1 2/2/1 1/1/1
f 2/2/1 3/3/1 4/4/1
f 5/5/1 4/4/1 3/3/1
f 2/2/1 4/4/1 6/6/1
f 4/4/1 5/5/1 7/7/1
f 7/7/1 5/5/1 8/8/1
f 2/2/1 6/6/1 9/9/1
f 8/8/1 5/5/1 10/10/1
f 9/9/1 6/6/1 11/11/1
f 9/9/1 11/11/1 12/12/1
f 8/8/1 10/10/1 13/13/1
f 9/9/1 12/12/1 14/14/1
f 13/13/1 10/10/1 14/14/1
f 9/9/1 14/14/1 15/15/1
f 15/15/1 14/14/1 10/10/1
f 15/15/1 10/10/1 16/16/1
f 1/1/2 2/2/2 3/3/2
f 4/4/2 3/3/2 2/2/2
f 3/3/2 4/4/2 5/5/2
f 6/6/2 4/4/2 2/2/2
f 7/7/2 5/5/2 4/4/2
f 8/8/2 5/5/2 7/7/2
f 9/9/2 6/6/2 2/2/2
f 10/10/2 5/5/2 8/8/2
f 11/11/2 6/6/2 9/9/2
f 12/12/2 11/11/2 9/9/2
f 13/13/2 10/10/2 8/8/2
f 14/14/2 12/12/2 9/9/2
f 14/14/2 10/10/2 13/13/2
f 15/15/2 14/14/2 9/9/2
f 10/10/2 14/14/2 15/15/2
f 16/16/2 10/10/2 15/15/2
f 16/19/3 18/18/4 17/17/3
f 18/18/4 16/19/3 10/20/4
f 17/17/5 18/18/6 16/19/5
f 10/20/6 16/19/5 18/18/6
f 21/5/2 20/22/2 19/21/2
f 20/22/2 21/5/2 22/7/2
f 22/7/2 23/2/2 20/22/2
f 22/7/2 21/5/2 24/8/2
f 23/2/2 22/7/2 25/4/2
f 23/2/2 25/4/2 26/6/2
f 24/8/2 21/5/2 27/10/2
f 23/2/2 26/6/2 28/9/2
f 24/8/2 27/10/2 29/13/2
f 29/13/2 27/10/2 30/14/2
f 28/9/2 26/6/2 31/11/2
f 30/14/2 27/10/2 32/12/2
f 28/9/2 31/11/2 32/12/2
f 32/12/2 27/10/2 33/16/2
f 32/12/2 33/16/2 28/9/2
f 28/9/2 33/16/2 34/15/2
f 19/21/1 20/22/1 21/5/1
f 22/7/1 21/5/1 20/22/1
f 20/22/1 23/2/1 22/7/1
f 24/8/1 21/5/1 22/7/1
f 25/4/1 22/7/1 23/2/1
f 26/6/1 25/4/1 23/2/1
f 27/10/1 21/5/1 24/8/1
f 28/9/1 26/6/1 23/2/1
f 29/13/1 27/10/1 24/8/1
f 30/14/1 27/10/1 29/13/1
f 31/11/1 26/6/1 28/9/1
f 32/12/1 27/10/1 30/14/1
f 32/12/1 31/11/1 28/9/1
f 33/16/1 27/10/1 32/12/1
f 28/9/1 33/16/1 32/12/1
f 34/15/1 33/16/1 28/9/1
f 35/25/5 21/24/6 19/23/5
f 21/24/6 35/25/5 36/26/6
f 19/23/3 21/24/4 35/25/3
f 36/26/4 35/25/3 21/24/4
f 37/18/7 33/27/8 27/20/7
f 33/27/8 37/18/7 38/28/8
f 27/20/9 33/27/10 37/18/9
f 38/28/10 37/18/9 33/27/10
f 39/31/9 20/30/10 23/29/9
f 20/30/10 39/31/9 40/32/10
f 23/29/7 20/30/8 39/31/7
f 40/32/8 39/31/7 20/30/8
f 35/35/5 20/34/10 40/33/10
f 20/34/10 35/35/5 19/36/5
f 40/33/8 20/34/8 35/35/3
f 19/36/3 35/35/3 20/34/8
f 10/9/4 41/38/9 18/37/4
f 41/38/9 10/9/4 5/2/9
f 18/37/6 41/38/7 10/9/6
f 5/2/7 10/9/6 41/38/7
f 42/41/8 16/40/3 17/39/3
f 16/40/3 42/41/8 15/42/8
f 17/39/5 16/40/5 42/41/10
f 15/42/10 42/41/10 16/40/5
f 36/38/6 27/9/7 21/2/6
f 27/9/7 36/38/6 37/37/7
f 21/2/4 27/9/9 36/38/4
f 37/37/9 36/38/4 27/9/9
f 1/40/5 43/41/10 3/42/10
f 43/41/10 1/40/5 44/39/5
f 3/42/8 43/41/8 1/40/3
f 44/39/3 1/40/3 43/41/8
f 1/30/5 45/31/6 44/32/5
f 45/31/6 1/30/5 2/29/6
f 44/32/3 45/31/4 1/30/3
f 2/29/4 1/30/3 45/31/4
f 5/24/9 43/25/10 41/26/9
f 43/25/10 5/24/9 3/23/10
f 41/26/7 43/25/8 5/24/7
f 3/23/8 5/24/7 43/25/8
f 2/5/6 46/44/7 45/43/6
f 46/44/7 2/5/6 9/10/7
f 45/43/4 46/44/9 2/5/4
f 9/10/9 2/5/4 46/44/9
f 9/47/7 42/46/8 46/45/7
f 42/46/8 9/47/7 15/48/8
f 46/45/9 42/46/10 9/47/9
f 15/48/10 9/47/9 42/46/10
f 47/44/4 23/5/9 28/10/4
f 23/5/9 47/44/4 39/43/9
f 28/10/6 23/5/7 47/44/6
f 39/43/7 47/44/6 23/5/7
f 48/50/3 28/47/4 34/49/3
f 28/47/4 48/50/3 47/45/4
f 34/49/5 28/47/6 48/50/5
f 47/45/6 48/50/5 28/47/6
f 33/34/8 48/35/3 34/36/3
f 48/35/3 33/34/8 38/33/8
f 34/36/5 48/35/5 33/34/10
f 38/33/10 33/34/10 48/35/5

usemtl grey-dark

f 51/8/2 50/4/2 49/7/2
f 50/4/2 51/8/2 52/6/2
f 52/6/2 51/8/2 53/13/2
f 52/6/2 53/13/2 54/11/2
f 54/11/2 53/13/2 55/14/2
f 54/11/2 55/14/2 56/12/2
f 49/7/1 50/4/1 51/8/1
f 52/6/1 51/8/1 50/4/1
f 53/13/1 51/8/1 52/6/1
f 54/11/1 53/13/1 52/6/1
f 55/14/1 53/13/1 54/11/1
f 56/12/1 55/14/1 54/11/1
f 59/7/1 58/6/1 57/4/1
f 58/6/1 59/7/1 60/8/1
f 58/6/1 60/8/1 61/11/1
f 61/11/1 60/8/1 62/13/1
f 61/11/1 62/13/1 63/12/1
f 63/12/1 62/13/1 64/14/1
f 57/4/2 58/6/2 59/7/2
f 60/8/2 59/7/2 58/6/2
f 61/11/2 60/8/2 58/6/2
f 62/13/2 60/8/2 61/11/2
f 63/12/2 62/13/2 61/11/2
f 64/14/2 62/13/2 63/12/2
f 14/53/5 62/52/6 13/51/6
f 62/52/6 14/53/5 64/54/5
f 13/51/4 62/52/4 14/53/3
f 64/54/3 14/53/3 62/52/4
f 12/57/10 64/56/5 14/55/5
f 64/56/5 12/57/10 63/58/10
f 14/55/3 64/56/3 12/57/8
f 63/58/8 12/57/8 64/56/3
f 12/61/10 61/60/9 63/59/10
f 61/60/9 12/61/10 11/62/9
f 63/59/8 61/60/7 12/61/8
f 11/62/7 12/61/8 61/60/7
f 11/63/9 58/6/4 61/11/9
f 58/6/4 11/63/9 6/64/4
f 61/11/7 58/6/6 11/63/7
f 6/64/6 11/63/7 58/6/6
f 6/67/4 57/66/3 58/65/4
f 57/66/3 6/67/4 4/68/3
f 58/65/6 57/66/5 6/67/6
f 4/68/5 6/67/6 57/66/5
f 57/56/3 7/57/8 59/58/8
f 7/57/8 57/56/3 4/55/3
f 59/58/10 7/57/10 57/56/5
f 4/55/5 57/56/5 7/57/10
f 7/71/8 60/70/7 59/69/8
f 60/70/7 7/71/8 8/72/7
f 59/69/10 60/70/9 7/71/10
f 8/72/9 7/71/10 60/70/9
f 8/73/7 62/13/6 60/8/7
f 62/13/6 8/73/7 13/74/6
f 60/8/9 62/13/4 8/73/9
f 13/74/4 8/73/9 62/13/4
f 53/13/9 24/73/4 29/74/9
f 24/73/4 53/13/9 51/8/4
f 29/74/7 24/73/6 53/13/7
f 51/8/6 53/13/7 24/73/6
f 55/54/10 29/51/9 30/53/10
f 29/51/9 55/54/10 53/52/9
f 30/53/8 29/51/7 55/54/8
f 53/52/7 55/54/8 29/51/7
f 55/77/10 32/76/5 56/75/5
f 32/76/5 55/77/10 30/78/10
f 56/75/3 32/76/3 55/77/8
f 30/78/8 55/77/8 32/76/3
f 56/59/5 31/62/6 54/60/6
f 31/62/6 56/59/5 32/61/5
f 54/60/4 31/62/4 56/59/3
f 32/61/3 56/59/3 31/62/4
f 51/70/4 22/71/3 24/72/4
f 22/71/3 51/70/4 49/69/3
f 24/72/6 22/71/5 51/70/6
f 49/69/5 51/70/6 22/71/5
f 52/6/7 31/63/6 26/64/7
f 31/63/6 52/6/7 54/11/6
f 26/64/9 31/63/4 52/6/9
f 54/11/4 52/6/9 31/63/4
f 50/66/8 26/67/7 25/68/8
f 26/67/7 50/66/8 52/65/7
f 25/68/10 26/67/9 50/66/10
f 52/65/9 50/66/10 26/67/9
f 22/76/3 50/77/8 25/78/8
f 50/77/8 22/76/3 49/75/3
f 25/78/10 50/77/10 22/76/5
f 49/75/5 22/76/5 50/77/10
f 17/17/3 47/45/4 48/50/3
f 47/45/4 17/17/3 18/18/4
f 48/50/5 47/45/6 17/17/5
f 18/18/6 17/17/5 47/45/6
f 18/37/4 39/43/9 47/44/4
f 39/43/9 18/37/4 41/38/9
f 47/44/6 39/43/7 18/37/6
f 41/38/7 18/37/6 39/43/7
f 38/33/8 17/39/3 48/35/3
f 17/39/3 38/33/8 42/41/8
f 48/35/5 17/39/5 38/33/10
f 42/41/10 38/33/10 17/39/5
f 44/32/5 36/26/6 35/25/5
f 36/26/6 44/32/5 45/31/6
f 35/25/3 36/26/4 44/32/3
f 45/31/4 44/32/3 36/26/4
f 41/26/9 40/32/10 39/31/9
f 40/32/10 41/26/9 43/25/10
f 39/31/7 40/32/8 41/26/7
f 43/25/8 41/26/7 40/32/8
f 46/45/7 38/28/8 37/18/7
f 38/28/8 46/45/7 42/46/8
f 37/18/9 38/28/10 46/45/9
f 42/46/10 46/45/9 38/28/10
f 44/39/5 40/33/10 43/41/10
f 40/33/10 44/39/5 35/35/5
f 43/41/8 40/33/8 44/39/3
f 35/35/3 44/39/3 40/33/8
f 45/43/6 37/37/7 36/38/6
f 37/37/7 45/43/6 46/44/7
f 36/38/4 37/37/9 45/43/4
f 46/44/9 45/43/4 37/37/9

