# Created by Kenney (www.kenney.nl)

mtllib conveyor-bars-sides.mtl

g Group

v 0.3125 0.05 -0.4
v 0.4375 0.05 -0.4
v 0.25 0.1125 -0.4
v 0.3125 0.1125 -0.4
v 0.4375 0.1125 -0.4
v 0.5 0.1125 -0.4
v 0.4375 0.2375 -0.4
v 0.5 0.2375 -0.4
v 0.3125 0.2375 -0.4
v 0.3125 0.3 -0.4
v 0.4375 0.3 -0.4
v 0.25 0.2375 -0.4
v 0.1875 0.2375 -0.4
v 0.1875 0.1125 -0.4
v 0.1875 0.05 -0.4
v 0.0625 0.1125 -0.4
v 0.0625 0.3 -0.4
v 0.1875 0.3 -0.4
v 0.0625 0.2375 -0.4
v 7.219114E-16 0.2375 -0.4
v 7.219114E-16 0.1125 -0.4
v 0.0625 0.05 -0.4
v -0.0625 0.2375 -0.4
v -0.0625 0.1125 -0.4
v -0.0625 0.05 -0.4
v -0.1875 0.1125 -0.4
v -0.1875 0.3 -0.4
v -0.0625 0.3 -0.4
v -0.1875 0.2375 -0.4
v -0.25 0.2375 -0.4
v -0.25 0.1125 -0.4
v -0.1875 0.05 -0.4
v -0.3125 0.2375 -0.4
v -0.3125 0.1125 -0.4
v -0.3125 0.05 -0.4
v -0.4375 0.1125 -0.4
v -0.4375 0.3 -0.4
v -0.3125 0.3 -0.4
v -0.4375 0.2375 -0.4
v -0.5 0.2375 -0.4
v -0.5 0.1125 -0.4
v -0.4375 0.05 -0.4
v 0.4375 0.3 0.4
v 0.3125 0.3 0.4
v 0.25 0.2375 0.4
v 0.5 0.2375 0.4
v 0.5 0.1125 0.4
v 0.3125 0.05 0.4
v 0.25 0.1125 0.4
v 0.4375 0.05 0.4
v 0.4375 0.1125 0.4
v 0.3125 0.1125 0.4
v 0.4375 0.2375 0.4
v 0.3125 0.2375 0.4
v 0.1875 0.2375 0.4
v 0.1875 0.3 0.4
v 0.1875 0.1125 0.4
v 0.0625 0.2375 0.4
v 0.0625 0.05 0.4
v 0.1875 0.05 0.4
v 0.0625 0.1125 0.4
v 7.219114E-16 0.1125 0.4
v 7.219114E-16 0.2375 0.4
v 0.0625 0.3 0.4
v -0.0625 0.2375 0.4
v -0.0625 0.3 0.4
v -0.0625 0.1125 0.4
v -0.1875 0.2375 0.4
v -0.1875 0.05 0.4
v -0.0625 0.05 0.4
v -0.1875 0.1125 0.4
v -0.25 0.1125 0.4
v -0.25 0.2375 0.4
v -0.1875 0.3 0.4
v -0.3125 0.2375 0.4
v -0.3125 0.3 0.4
v -0.3125 0.1125 0.4
v -0.4375 0.2375 0.4
v -0.4375 0.05 0.4
v -0.3125 0.05 0.4
v -0.4375 0.1125 0.4
v -0.5 0.1125 0.4
v -0.5 0.2375 0.4
v -0.4375 0.3 0.4

vn 0 0 -1
vn 0 0 1
vn 0.3826834 0.9238795 0
vn -0.3826834 0.9238795 0
vn 0.3826834 -0.9238795 0
vn -0.3826834 -0.9238795 0
vn -0.7071068 0.7071068 0
vn 0.7071068 -0.7071068 0
vn 0.9238795 0.3826834 0
vn 0.9238795 -0.3826834 0
vn -0.9238795 -0.3826834 0
vn -0.9238795 0.3826834 0
vn -0.7071068 -0.7071068 0
vn 0.7071068 0.7071068 0

vt -12.30315 0
vt -17.22441 0
vt -9.84252 2.46063
vt -12.30315 2.46063
vt -17.22441 2.46063
vt -19.68504 2.46063
vt -17.22441 7.38189
vt -19.68504 7.38189
vt -12.30315 7.38189
vt -12.30315 9.84252
vt -17.22441 9.84252
vt -9.84252 7.38189
vt -7.38189 7.38189
vt -7.38189 2.46063
vt -7.38189 0
vt -2.46063 2.46063
vt -2.46063 9.84252
vt -7.38189 9.84252
vt -2.46063 7.38189
vt 0 7.38189
vt 0 2.46063
vt -2.46063 0
vt 2.46063 7.38189
vt 2.46063 2.46063
vt 2.46063 0
vt 7.38189 2.46063
vt 7.38189 9.84252
vt 2.46063 9.84252
vt 7.38189 7.38189
vt 9.84252 7.38189
vt 9.84252 2.46063
vt 7.38189 0
vt 12.30315 7.38189
vt 12.30315 2.46063
vt 12.30315 0
vt 17.22441 2.46063
vt 17.22441 9.84252
vt 12.30315 9.84252
vt 17.22441 7.38189
vt 19.68504 7.38189
vt 19.68504 2.46063
vt 17.22441 0
vt -17.22441 -15.74803
vt -17.22441 15.74803
vt -12.30315 -15.74803
vt -12.30315 15.74803
vt -15.74803 15.65935
vt 15.74803 15.65935
vt -15.74803 12.1795
vt 15.74803 12.1795
vt 15.74803 7.38189
vt 15.74803 2.46063
vt -15.74803 7.38189
vt -15.74803 2.46063
vt 15.74803 -5.219784
vt 15.74803 -8.69964
vt -15.74803 -5.219784
vt -15.74803 -8.69964
vt 17.22441 -3.637979E-15
vt 12.30315 -3.637979E-15
vt 2.46063 -5.456968E-15
vt 7.38189 -5.456968E-15
vt -5.456968E-15 2.46063
vt -5.456968E-15 7.38189
vt -7.38189 -5.456968E-15
vt -2.46063 -5.456968E-15
vt -17.22441 -5.456968E-15
vt -12.30315 -5.456968E-15
vt -2.46063 15.74803
vt -2.46063 -15.74803
vt -7.38189 15.74803
vt -7.38189 -15.74803
vt -15.74803 1.739928
vt 15.74803 1.739928
vt -15.74803 -1.739928
vt 15.74803 -1.739928
vt 2.46063 -15.74803
vt 2.46063 15.74803
vt 7.38189 -15.74803
vt 7.38189 15.74803
vt 15.74803 8.69964
vt 15.74803 5.219784
vt -15.74803 8.69964
vt -15.74803 5.219784
vt 12.30315 -15.74803
vt 12.30315 15.74803
vt 17.22441 -15.74803
vt 17.22441 15.74803

usemtl grey-dark

f 3/3/1 2/2/1 1/1/1
f 2/2/1 3/3/1 4/4/1
f 2/2/1 4/4/1 5/5/1
f 5/5/1 6/6/1 2/2/1
f 6/6/1 5/5/1 7/7/1
f 6/6/1 7/7/1 8/8/1
f 4/4/1 3/3/1 9/9/1
f 7/7/1 10/10/1 8/8/1
f 9/9/1 10/10/1 7/7/1
f 8/8/1 10/10/1 11/11/1
f 9/9/1 12/12/1 10/10/1
f 9/9/1 3/3/1 12/12/1
f 3/3/1 13/13/1 12/12/1
f 3/3/1 14/14/1 13/13/1
f 14/14/1 3/3/1 15/15/1
f 15/15/1 16/16/1 14/14/1
f 13/13/1 17/17/1 12/12/1
f 12/12/1 17/17/1 18/18/1
f 19/19/1 17/17/1 13/13/1
f 19/19/1 20/20/1 17/17/1
f 15/15/1 21/21/1 16/16/1
f 16/16/1 21/21/1 19/19/1
f 19/19/1 21/21/1 20/20/1
f 21/21/1 15/15/1 22/22/1
f 21/21/1 23/23/1 20/20/1
f 21/21/1 24/24/1 23/23/1
f 24/24/1 21/21/1 25/25/1
f 25/25/1 26/26/1 24/24/1
f 23/23/1 27/27/1 20/20/1
f 20/20/1 27/27/1 28/28/1
f 29/29/1 27/27/1 23/23/1
f 29/29/1 30/30/1 27/27/1
f 25/25/1 31/31/1 26/26/1
f 26/26/1 31/31/1 29/29/1
f 29/29/1 31/31/1 30/30/1
f 31/31/1 25/25/1 32/32/1
f 31/31/1 33/33/1 30/30/1
f 31/31/1 34/34/1 33/33/1
f 34/34/1 31/31/1 35/35/1
f 35/35/1 36/36/1 34/34/1
f 33/33/1 37/37/1 30/30/1
f 30/30/1 37/37/1 38/38/1
f 39/39/1 37/37/1 33/33/1
f 39/39/1 40/40/1 37/37/1
f 39/39/1 41/41/1 40/40/1
f 36/36/1 41/41/1 39/39/1
f 35/35/1 41/41/1 36/36/1
f 41/41/1 35/35/1 42/42/1
f 1/1/2 2/2/2 3/3/2
f 4/4/2 3/3/2 2/2/2
f 5/5/2 4/4/2 2/2/2
f 2/2/2 6/6/2 5/5/2
f 7/7/2 5/5/2 6/6/2
f 8/8/2 7/7/2 6/6/2
f 9/9/2 3/3/2 4/4/2
f 8/8/2 10/10/2 7/7/2
f 7/7/2 10/10/2 9/9/2
f 11/11/2 10/10/2 8/8/2
f 10/10/2 12/12/2 9/9/2
f 12/12/2 3/3/2 9/9/2
f 12/12/2 13/13/2 3/3/2
f 13/13/2 14/14/2 3/3/2
f 15/15/2 3/3/2 14/14/2
f 14/14/2 16/16/2 15/15/2
f 12/12/2 17/17/2 13/13/2
f 18/18/2 17/17/2 12/12/2
f 13/13/2 17/17/2 19/19/2
f 17/17/2 20/20/2 19/19/2
f 16/16/2 21/21/2 15/15/2
f 19/19/2 21/21/2 16/16/2
f 20/20/2 21/21/2 19/19/2
f 22/22/2 15/15/2 21/21/2
f 20/20/2 23/23/2 21/21/2
f 23/23/2 24/24/2 21/21/2
f 25/25/2 21/21/2 24/24/2
f 24/24/2 26/26/2 25/25/2
f 20/20/2 27/27/2 23/23/2
f 28/28/2 27/27/2 20/20/2
f 23/23/2 27/27/2 29/29/2
f 27/27/2 30/30/2 29/29/2
f 26/26/2 31/31/2 25/25/2
f 29/29/2 31/31/2 26/26/2
f 30/30/2 31/31/2 29/29/2
f 32/32/2 25/25/2 31/31/2
f 30/30/2 33/33/2 31/31/2
f 33/33/2 34/34/2 31/31/2
f 35/35/2 31/31/2 34/34/2
f 34/34/2 36/36/2 35/35/2
f 30/30/2 37/37/2 33/33/2
f 38/38/2 37/37/2 30/30/2
f 33/33/2 37/37/2 39/39/2
f 37/37/2 40/40/2 39/39/2
f 40/40/2 41/41/2 39/39/2
f 39/39/2 41/41/2 36/36/2
f 36/36/2 41/41/2 35/35/2
f 42/42/2 35/35/2 41/41/2
f 10/45/4 43/44/3 11/43/3
f 43/44/3 10/45/4 44/46/4
f 11/43/6 43/44/6 10/45/5
f 44/46/5 10/45/5 43/44/6
f 12/49/7 44/48/4 10/47/4
f 44/48/4 12/49/7 45/50/7
f 10/47/5 44/48/5 12/49/8
f 45/50/8 12/49/8 44/48/5
f 46/53/9 6/52/10 8/51/9
f 6/52/10 46/53/9 47/54/10
f 8/51/11 6/52/12 46/53/11
f 47/54/12 46/53/11 6/52/12
f 43/57/3 8/56/9 11/55/3
f 8/56/9 43/57/3 46/58/9
f 11/55/6 8/56/11 43/57/6
f 46/58/11 43/57/6 8/56/11
f 49/55/13 1/58/6 48/56/6
f 1/58/6 49/55/13 3/57/13
f 48/56/3 1/58/3 49/55/14
f 3/57/14 49/55/14 1/58/3
f 47/41/2 48/60/2 50/59/2
f 48/60/2 47/41/2 51/36/2
f 52/34/2 48/60/2 51/36/2
f 51/36/2 47/41/2 53/39/2
f 53/39/2 47/41/2 46/40/2
f 48/60/2 52/34/2 49/31/2
f 53/39/2 46/40/2 43/37/2
f 53/39/2 43/37/2 54/33/2
f 49/31/2 52/34/2 54/33/2
f 54/33/2 43/37/2 45/30/2
f 49/31/2 54/33/2 45/30/2
f 45/30/2 43/37/2 44/38/2
f 55/29/2 49/31/2 45/30/2
f 55/29/2 45/30/2 56/27/2
f 57/26/2 49/31/2 55/29/2
f 55/29/2 56/27/2 58/23/2
f 59/61/2 49/31/2 57/26/2
f 49/31/2 59/61/2 60/62/2
f 61/24/2 59/61/2 57/26/2
f 59/61/2 61/24/2 62/63/2
f 62/63/2 61/24/2 58/23/2
f 58/23/2 56/27/2 63/64/2
f 62/63/2 58/23/2 63/64/2
f 63/64/2 56/27/2 64/28/2
f 65/19/2 62/63/2 63/64/2
f 65/19/2 63/64/2 66/17/2
f 67/16/2 62/63/2 65/19/2
f 65/19/2 66/17/2 68/13/2
f 69/65/2 62/63/2 67/16/2
f 62/63/2 69/65/2 70/66/2
f 71/14/2 69/65/2 67/16/2
f 69/65/2 71/14/2 72/3/2
f 72/3/2 71/14/2 68/13/2
f 68/13/2 66/17/2 73/12/2
f 72/3/2 68/13/2 73/12/2
f 73/12/2 66/17/2 74/18/2
f 75/9/2 72/3/2 73/12/2
f 75/9/2 73/12/2 76/10/2
f 77/4/2 72/3/2 75/9/2
f 75/9/2 76/10/2 78/7/2
f 79/67/2 72/3/2 77/4/2
f 72/3/2 79/67/2 80/68/2
f 81/5/2 79/67/2 77/4/2
f 79/67/2 81/5/2 82/6/2
f 82/6/2 81/5/2 78/7/2
f 82/6/2 78/7/2 83/8/2
f 78/7/2 76/10/2 83/8/2
f 83/8/2 76/10/2 84/11/2
f 50/59/1 48/60/1 47/41/1
f 51/36/1 47/41/1 48/60/1
f 51/36/1 48/60/1 52/34/1
f 53/39/1 47/41/1 51/36/1
f 46/40/1 47/41/1 53/39/1
f 49/31/1 52/34/1 48/60/1
f 43/37/1 46/40/1 53/39/1
f 54/33/1 43/37/1 53/39/1
f 54/33/1 52/34/1 49/31/1
f 45/30/1 43/37/1 54/33/1
f 45/30/1 54/33/1 49/31/1
f 44/38/1 43/37/1 45/30/1
f 45/30/1 49/31/1 55/29/1
f 56/27/1 45/30/1 55/29/1
f 55/29/1 49/31/1 57/26/1
f 58/23/1 56/27/1 55/29/1
f 57/26/1 49/31/1 59/61/1
f 60/62/1 59/61/1 49/31/1
f 57/26/1 59/61/1 61/24/1
f 62/63/1 61/24/1 59/61/1
f 58/23/1 61/24/1 62/63/1
f 63/64/1 56/27/1 58/23/1
f 63/64/1 58/23/1 62/63/1
f 64/28/1 56/27/1 63/64/1
f 63/64/1 62/63/1 65/19/1
f 66/17/1 63/64/1 65/19/1
f 65/19/1 62/63/1 67/16/1
f 68/13/1 66/17/1 65/19/1
f 67/16/1 62/63/1 69/65/1
f 70/66/1 69/65/1 62/63/1
f 67/16/1 69/65/1 71/14/1
f 72/3/1 71/14/1 69/65/1
f 68/13/1 71/14/1 72/3/1
f 73/12/1 66/17/1 68/13/1
f 73/12/1 68/13/1 72/3/1
f 74/18/1 66/17/1 73/12/1
f 73/12/1 72/3/1 75/9/1
f 76/10/1 73/12/1 75/9/1
f 75/9/1 72/3/1 77/4/1
f 78/7/1 76/10/1 75/9/1
f 77/4/1 72/3/1 79/67/1
f 80/68/1 79/67/1 72/3/1
f 77/4/1 79/67/1 81/5/1
f 82/6/1 81/5/1 79/67/1
f 78/7/1 81/5/1 82/6/1
f 83/8/1 78/7/1 82/6/1
f 83/8/1 76/10/1 78/7/1
f 84/11/1 76/10/1 83/8/1
f 69/71/6 25/70/5 70/69/5
f 25/70/5 69/71/6 32/72/6
f 70/69/4 25/70/4 69/71/3
f 32/72/3 69/71/3 25/70/4
f 70/75/5 21/74/8 62/73/8
f 21/74/8 70/75/5 25/76/5
f 62/73/7 21/74/7 70/75/4
f 25/76/4 70/75/4 21/74/7
f 73/76/7 27/73/4 30/75/7
f 27/73/4 73/76/7 74/74/4
f 30/75/8 27/73/5 73/76/8
f 74/74/5 73/76/8 27/73/5
f 27/79/4 66/78/3 28/77/3
f 66/78/3 27/79/4 74/80/4
f 28/77/6 66/78/6 27/79/5
f 74/80/5 27/79/5 66/78/6
f 79/50/6 41/47/11 42/49/6
f 41/47/11 79/50/6 82/48/11
f 42/49/3 41/47/9 79/50/3
f 82/48/9 79/50/3 41/47/9
f 59/76/6 21/73/13 22/75/6
f 21/73/13 59/76/6 62/74/13
f 22/75/3 21/73/14 59/76/3
f 62/74/14 59/76/3 21/73/14
f 66/83/3 20/82/14 28/81/3
f 20/82/14 66/83/3 63/84/14
f 28/81/6 20/82/13 66/83/6
f 63/84/13 66/83/6 20/82/13
f 76/47/3 30/50/14 38/48/3
f 30/50/14 76/47/3 73/49/14
f 38/48/6 30/50/13 76/47/6
f 73/49/13 76/47/6 30/50/13
f 60/84/5 3/81/8 49/83/8
f 3/81/8 60/84/5 15/82/5
f 49/83/7 3/81/7 60/84/4
f 15/82/4 60/84/4 3/81/7
f 79/44/6 35/45/5 80/46/5
f 35/45/5 79/44/6 42/43/6
f 80/46/4 35/45/4 79/44/3
f 42/43/3 79/44/3 35/45/4
f 47/47/10 2/50/5 6/48/10
f 2/50/5 47/47/10 50/49/5
f 6/48/12 2/50/4 47/47/12
f 50/49/4 47/47/12 2/50/4
f 56/73/3 12/76/14 18/74/3
f 12/76/14 56/73/3 45/75/14
f 18/74/6 12/76/13 56/73/6
f 45/75/13 56/73/6 12/76/13
f 83/56/12 37/57/4 40/58/12
f 37/57/4 83/56/12 84/55/4
f 40/58/10 37/57/5 83/56/10
f 84/55/5 83/56/10 37/57/5
f 17/70/4 56/71/3 18/72/3
f 56/71/3 17/70/4 64/69/4
f 18/72/6 56/71/6 17/70/5
f 64/69/5 17/70/5 56/71/6
f 37/87/4 76/86/3 38/85/3
f 76/86/3 37/87/4 84/88/4
f 38/85/6 76/86/6 37/87/5
f 84/88/5 37/87/5 76/86/6
f 48/86/6 2/87/5 50/88/5
f 2/87/5 48/86/6 1/85/6
f 50/88/4 2/87/4 48/86/3
f 1/85/3 48/86/3 2/87/4
f 72/81/13 32/84/6 69/82/6
f 32/84/6 72/81/13 31/83/13
f 69/82/3 32/84/3 72/81/14
f 31/83/14 72/81/14 32/84/3
f 59/78/6 15/79/5 60/80/5
f 15/79/5 59/78/6 22/77/6
f 60/80/4 15/79/4 59/78/3
f 22/77/3 59/78/3 15/79/4
f 80/58/5 31/55/8 72/57/8
f 31/55/8 80/58/5 35/56/5
f 72/57/7 31/55/7 80/58/4
f 35/56/4 80/58/4 31/55/7
f 63/82/7 17/83/4 20/84/7
f 17/83/4 63/82/7 64/81/4
f 20/84/8 17/83/5 63/82/8
f 64/81/5 63/82/8 17/83/5
f 82/52/11 40/53/12 41/54/11
f 40/53/12 82/52/11 83/51/12
f 41/54/9 40/53/10 82/52/9
f 83/51/10 82/52/9 40/53/10

usemtl dark

f 4/4/1 7/7/1 5/5/1
f 7/7/1 4/4/1 9/9/1
f 5/5/2 7/7/2 4/4/2
f 9/9/2 4/4/2 7/7/2
f 16/16/1 13/13/1 14/14/1
f 13/13/1 16/16/1 19/19/1
f 14/14/2 13/13/2 16/16/2
f 19/19/2 16/16/2 13/13/2
f 26/26/1 23/23/1 24/24/1
f 23/23/1 26/26/1 29/29/1
f 24/24/2 23/23/2 26/26/2
f 29/29/2 26/26/2 23/23/2
f 65/19/2 71/14/2 67/16/2
f 71/14/2 65/19/2 68/13/2
f 67/16/1 71/14/1 65/19/1
f 68/13/1 65/19/1 71/14/1
f 75/9/2 81/5/2 77/4/2
f 81/5/2 75/9/2 78/7/2
f 77/4/1 81/5/1 75/9/1
f 78/7/1 75/9/1 81/5/1
f 53/39/2 52/34/2 51/36/2
f 52/34/2 53/39/2 54/33/2
f 51/36/1 52/34/1 53/39/1
f 54/33/1 53/39/1 52/34/1
f 36/36/1 33/33/1 34/34/1
f 33/33/1 36/36/1 39/39/1
f 34/34/2 33/33/2 36/36/2
f 39/39/2 36/36/2 33/33/2
f 55/29/2 61/24/2 57/26/2
f 61/24/2 55/29/2 58/23/2
f 57/26/1 61/24/1 55/29/1
f 58/23/1 55/29/1 61/24/1

g Group

v 0.5 0.2 -0.45
v 0.5 0.2 -0.4
v -0.5 0.2 -0.45
v -0.5 0.2 -0.4
v 0.5 5.86553E-16 0.5
v 0.5 5.86553E-16 0.4
v -0.5 5.86553E-16 0.5
v -0.5 5.86553E-16 0.4
v -0.5 0.2 0.4
v 0.5 0.2 0.4
v 0.5 0.15 0.5
v -0.5 0.15 0.5
v 0.5 0 -0.4
v 0.5 0 -0.5
v -0.5 0 -0.4
v -0.5 0 -0.5
v 0.5 0.15 -0.5
v -0.5 0.15 -0.5
v 0.5 0.2 0.45
v -0.5 0.2 0.45

vn 0 0.9238795 -0.3826834
vn 0 1 0
vn 0 -0.9238795 0.3826834
vn 0 -1 0
vn 0 0.3826834 0.9238795
vn 0 -0.3826834 -0.9238795
vn 1 0 0
vn -1 0 0
vn 0 0.9238795 0.3826834
vn 0 -0.9238795 -0.3826834
vn 0 0.3826834 -0.9238795
vn 0 -0.3826834 0.9238795

vt -19.68504 -17.71654
vt -19.68504 -15.74803
vt 19.68504 -17.71654
vt 19.68504 -15.74803
vt 19.68504 19.68504
vt 19.68504 15.74803
vt -19.68504 19.68504
vt -19.68504 15.74803
vt 19.68504 2.309264E-14
vt -19.68504 2.309264E-14
vt 19.68504 7.874016
vt -19.68504 7.874016
vt 19.68504 5.905512
vt -19.68504 5.905512
vt 19.68504 -19.68504
vt -19.68504 -19.68504
vt 19.68504 0
vt 17.71654 7.874016
vt 15.74803 0
vt 15.74803 7.874016
vt -19.68504 0
vt -15.74803 0
vt -17.71654 7.874016
vt -15.74803 7.874016
vt -19.68504 17.71654
vt 19.68504 17.71654
vt 19.68504 -9.743597
vt -19.68504 -9.743597
vt 19.68504 -6.959713
vt -19.68504 -6.959713
vt 15.74803 2.309264E-14
vt -15.74803 2.309264E-14

usemtl grey

f 87/91/15 86/90/16 85/89/15
f 86/90/16 87/91/15 88/92/16
f 85/89/17 86/90/18 87/91/17
f 88/92/18 87/91/17 86/90/18
f 91/95/18 90/94/18 89/93/18
f 90/94/18 91/95/18 92/96/18
f 89/93/16 90/94/16 91/95/16
f 92/96/16 91/95/16 90/94/16
f 93/99/1 90/98/1 92/97/1
f 90/98/1 93/99/1 94/100/1
f 92/97/2 90/98/2 93/99/2
f 94/100/2 93/99/2 90/98/2
f 95/101/19 91/98/2 89/97/2
f 91/98/2 95/101/19 96/102/19
f 89/97/1 91/98/1 95/101/20
f 96/102/20 95/101/20 91/98/1
f 99/90/18 98/103/18 97/92/18
f 98/103/18 99/90/18 100/104/18
f 97/92/16 98/103/16 99/90/16
f 100/104/16 99/90/16 98/103/16
f 85/106/21 98/105/21 101/101/21
f 98/105/21 85/106/21 97/107/21
f 97/107/21 85/106/21 86/108/21
f 101/101/22 98/105/22 85/106/22
f 97/107/22 85/106/22 98/105/22
f 86/108/22 85/106/22 97/107/22
f 99/110/22 102/102/22 100/109/22
f 102/102/22 99/110/22 87/111/22
f 87/111/22 99/110/22 88/112/22
f 100/109/21 102/102/21 99/110/21
f 87/111/21 99/110/21 102/102/21
f 88/112/21 99/110/21 87/111/21
f 94/96/16 104/114/23 103/113/23
f 104/114/23 94/96/16 93/94/16
f 103/113/24 104/114/24 94/96/18
f 93/94/18 94/96/18 104/114/24
f 87/117/15 101/116/25 102/115/25
f 101/116/25 87/117/15 85/118/15
f 102/115/26 101/116/26 87/117/17
f 85/118/17 87/117/17 101/116/26
f 103/117/23 96/116/19 95/115/19
f 96/116/19 103/117/23 104/118/23
f 95/115/20 96/116/20 103/117/24
f 104/118/24 103/117/24 96/116/20
f 102/101/25 98/109/1 100/105/1
f 98/109/1 102/101/25 101/102/25
f 100/105/2 98/109/2 102/101/26
f 101/102/26 102/101/26 98/109/2
f 91/97/22 93/108/22 92/119/22
f 93/108/22 91/97/22 104/106/22
f 104/106/22 91/97/22 96/101/22
f 92/119/21 93/108/21 91/97/21
f 104/106/21 91/97/21 93/108/21
f 96/101/21 91/97/21 104/106/21
f 103/111/21 90/120/21 94/112/21
f 90/120/21 103/111/21 89/98/21
f 89/98/21 103/111/21 95/102/21
f 94/112/22 90/120/22 103/111/22
f 89/98/22 103/111/22 90/120/22
f 95/102/22 103/111/22 89/98/22
f 86/99/2 99/109/2 97/105/2
f 99/109/2 86/99/2 88/100/2
f 97/105/1 99/109/1 86/99/1
f 88/100/1 86/99/1 99/109/1

