# Created by Kenney (www.kenney.nl)

mtllib conveyor-bars.mtl

g conveyor-bars

v 0.1875 0.0625 -0.5
v 0.1875 0.1875 -0.5
v 0.0625 0.0625 -0.5
v 0.0625 0.1875 -0.5
v -0.3125 0.0625 -0.5
v -0.3125 0.1875 -0.5
v -0.4375 0.0625 -0.5
v -0.4375 0.1875 -0.5
v -0.0625 0.0625 -0.5
v -0.0625 0.1875 -0.5
v -0.1875 0.0625 -0.5
v -0.1875 0.1875 -0.5
v -0.0625 0.0625 0.5
v -0.1875 0.0625 0.5
v -0.0625 0.1875 0.5
v -0.1875 0.1875 0.5
v -0.3125 0.0625 0.5
v -0.4375 0.0625 0.5
v -0.3125 0.1875 0.5
v -0.4375 0.1875 0.5
v 0.4375 0.0625 0.5
v 0.3125 0.0625 0.5
v 0.4375 0.1875 0.5
v 0.3125 0.1875 0.5
v 0.1875 0.0625 0.5
v 0.0625 0.0625 0.5
v 0.1875 0.1875 0.5
v 0.0625 0.1875 0.5
v 0.4375 0.0625 -0.5
v 0.4375 0.1875 -0.5
v 0.3125 0.0625 -0.5
v 0.3125 0.1875 -0.5
v -0.4375 0 -0.5
v -0.3125 0 -0.5
v -0.5 0.0625 -0.5
v -0.25 0.0625 -0.5
v -0.5 0.1875 -0.5
v -0.4375 0.25 -0.5
v -0.25 0.1875 -0.5
v -0.3125 0.25 -0.5
v -0.1875 0.25 -0.5
v -0.0625 0.25 -0.5
v 0 0.1875 -0.5
v 0 0.0625 -0.5
v -0.0625 0 -0.5
v -0.1875 0 -0.5
v 0.0625 0.25 -0.5
v 0.25 0.0625 -0.5
v 0.1875 0 -0.5
v 0.0625 0 -0.5
v 0.25 0.1875 -0.5
v 0.1875 0.25 -0.5
v 0.3125 0.25 -0.5
v 0.5 0.1875 -0.5
v 0.4375 0.25 -0.5
v 0.5 0.0625 -0.5
v 0.4375 0 -0.5
v 0.3125 0 -0.5
v -0.0625 0.25 0.5
v -0.1875 0.25 0.5
v 0 0.0625 0.5
v -0.0625 0 0.5
v -0.1875 0 0.5
v -0.25 0.0625 0.5
v -0.25 0.1875 0.5
v 0 0.1875 0.5
v -0.3125 0.25 0.5
v -0.4375 0.25 0.5
v -0.5 0.1875 0.5
v -0.5 0.0625 0.5
v -0.4375 0 0.5
v -0.3125 0 0.5
v 0.0625 0.25 0.5
v 0.1875 0.25 0.5
v 0.25 0.0625 0.5
v 0.0625 0 0.5
v 0.1875 0 0.5
v 0.25 0.1875 0.5
v 0.3125 0 0.5
v 0.4375 0.25 0.5
v 0.3125 0.25 0.5
v 0.5 0.1875 0.5
v 0.5 0.0625 0.5
v 0.4375 0 0.5

vn 0 0 -1
vn 0 0 1
vn 0.3826834 0.9238795 0
vn -0.3826834 0.9238795 0
vn 0.3826834 -0.9238795 0
vn -0.3826834 -0.9238795 0
vn 0.7071068 -0.7071068 0
vn -0.7071068 0.7071068 0
vn 0.7071068 0.7071068 0
vn -0.7071068 -0.7071068 0
vn -0.9238795 -0.3826834 0
vn 0.9238795 0.3826834 0
vn 0.9238795 -0.3826834 0
vn -0.9238795 0.3826834 0

vt -7.38189 2.46063
vt -7.38189 7.38189
vt -2.46063 2.46063
vt -2.46063 7.38189
vt 12.30315 2.46063
vt 12.30315 7.38189
vt 17.22441 2.46063
vt 17.22441 7.38189
vt 2.46063 2.46063
vt 2.46063 7.38189
vt 7.38189 2.46063
vt 7.38189 7.38189
vt -12.30315 2.46063
vt -17.22441 2.46063
vt -12.30315 7.38189
vt -17.22441 7.38189
vt 17.22441 0
vt 12.30315 0
vt 19.68504 2.46063
vt 9.84252 2.46063
vt 19.68504 7.38189
vt 17.22441 9.84252
vt 9.84252 7.38189
vt 12.30315 9.84252
vt 7.38189 9.84252
vt 2.46063 9.84252
vt 0 7.38189
vt 0 2.46063
vt 2.46063 0
vt 7.38189 0
vt -2.46063 9.84252
vt -9.84252 2.46063
vt -7.38189 0
vt -2.46063 0
vt -9.84252 7.38189
vt -7.38189 9.84252
vt -12.30315 9.84252
vt -19.68504 7.38189
vt -17.22441 9.84252
vt -19.68504 2.46063
vt -17.22441 0
vt -12.30315 0
vt 2.46063 -19.68504
vt 2.46063 19.68504
vt 7.38189 -19.68504
vt 7.38189 19.68504
vt -19.68504 1.739928
vt 19.68504 1.739928
vt -19.68504 -1.739928
vt 19.68504 -1.739928
vt -2.46063 -8.526513E-15
vt -7.38189 -8.526513E-15
vt -8.526513E-15 2.46063
vt -8.526513E-15 7.38189
vt -17.22441 -8.526513E-15
vt -12.30315 -8.526513E-15
vt 2.46063 -8.526513E-15
vt 7.38189 -8.526513E-15
vt 12.30315 -5.684342E-15
vt 17.22441 -5.684342E-15
vt 19.68504 8.69964
vt 19.68504 5.219784
vt -19.68504 8.69964
vt -19.68504 5.219784
vt -19.68504 12.1795
vt -19.68504 15.65935
vt 19.68504 12.1795
vt 19.68504 15.65935
vt -12.30315 19.68504
vt -12.30315 -19.68504
vt -17.22441 19.68504
vt -17.22441 -19.68504
vt -2.46063 19.68504
vt -2.46063 -19.68504
vt -7.38189 19.68504
vt -7.38189 -19.68504
vt -19.68504 -5.219784
vt 19.68504 -5.219784
vt -19.68504 -8.69964
vt 19.68504 -8.69964
vt 12.30315 -19.68504
vt 12.30315 19.68504
vt 17.22441 -19.68504
vt 17.22441 19.68504

usemtl dark

f 3/3/1 2/2/1 1/1/1
f 2/2/1 3/3/1 4/4/1
f 1/1/2 2/2/2 3/3/2
f 4/4/2 3/3/2 2/2/2
f 7/7/1 6/6/1 5/5/1
f 6/6/1 7/7/1 8/8/1
f 5/5/2 6/6/2 7/7/2
f 8/8/2 7/7/2 6/6/2
f 11/11/1 10/10/1 9/9/1
f 10/10/1 11/11/1 12/12/1
f 9/9/2 10/10/2 11/11/2
f 12/12/2 11/11/2 10/10/2
f 15/4/2 14/1/2 13/3/2
f 14/1/2 15/4/2 16/2/2
f 13/3/1 14/1/1 15/4/1
f 16/2/1 15/4/1 14/1/1
f 19/15/2 18/14/2 17/13/2
f 18/14/2 19/15/2 20/16/2
f 17/13/1 18/14/1 19/15/1
f 20/16/1 19/15/1 18/14/1
f 23/8/2 22/5/2 21/7/2
f 22/5/2 23/8/2 24/6/2
f 21/7/1 22/5/1 23/8/1
f 24/6/1 23/8/1 22/5/1
f 27/12/2 26/9/2 25/11/2
f 26/9/2 27/12/2 28/10/2
f 25/11/1 26/9/1 27/12/1
f 28/10/1 27/12/1 26/9/1
f 31/13/1 30/16/1 29/14/1
f 30/16/1 31/13/1 32/15/1
f 29/14/2 30/16/2 31/13/2
f 32/15/2 31/13/2 30/16/2

usemtl grey-dark

f 35/19/1 34/18/1 33/17/1
f 34/18/1 35/19/1 5/5/1
f 5/5/1 36/20/1 34/18/1
f 5/5/1 35/19/1 7/7/1
f 7/7/1 35/19/1 8/8/1
f 8/8/1 35/19/1 37/21/1
f 8/8/1 37/21/1 38/22/1
f 8/8/1 38/22/1 6/6/1
f 36/20/1 5/5/1 6/6/1
f 6/6/1 38/22/1 39/23/1
f 36/20/1 6/6/1 39/23/1
f 39/23/1 38/22/1 40/24/1
f 12/12/1 36/20/1 39/23/1
f 12/12/1 39/23/1 41/25/1
f 12/12/1 41/25/1 10/10/1
f 42/26/1 10/10/1 41/25/1
f 11/11/1 36/20/1 12/12/1
f 43/27/1 10/10/1 42/26/1
f 44/28/1 10/10/1 43/27/1
f 44/28/1 9/9/1 10/10/1
f 45/29/1 36/20/1 11/11/1
f 45/29/1 11/11/1 9/9/1
f 9/9/1 44/28/1 45/29/1
f 36/20/1 45/29/1 46/30/1
f 4/4/1 44/28/1 43/27/1
f 4/4/1 43/27/1 47/31/1
f 3/3/1 44/28/1 4/4/1
f 4/4/1 47/31/1 2/2/1
f 1/1/1 44/28/1 3/3/1
f 48/32/1 1/1/1 2/2/1
f 49/33/1 44/28/1 1/1/1
f 1/1/1 48/32/1 49/33/1
f 44/28/1 49/33/1 50/34/1
f 2/2/1 47/31/1 51/35/1
f 48/32/1 2/2/1 51/35/1
f 51/35/1 47/31/1 52/36/1
f 32/15/1 48/32/1 51/35/1
f 32/15/1 51/35/1 53/37/1
f 31/13/1 48/32/1 32/15/1
f 32/15/1 53/37/1 30/16/1
f 29/14/1 48/32/1 31/13/1
f 30/16/1 53/37/1 54/38/1
f 54/38/1 53/37/1 55/39/1
f 56/40/1 30/16/1 54/38/1
f 56/40/1 29/14/1 30/16/1
f 29/14/1 56/40/1 57/41/1
f 57/41/1 48/32/1 29/14/1
f 48/32/1 57/41/1 58/42/1
f 33/17/2 34/18/2 35/19/2
f 5/5/2 35/19/2 34/18/2
f 34/18/2 36/20/2 5/5/2
f 7/7/2 35/19/2 5/5/2
f 8/8/2 35/19/2 7/7/2
f 37/21/2 35/19/2 8/8/2
f 38/22/2 37/21/2 8/8/2
f 6/6/2 38/22/2 8/8/2
f 6/6/2 5/5/2 36/20/2
f 39/23/2 38/22/2 6/6/2
f 39/23/2 6/6/2 36/20/2
f 40/24/2 38/22/2 39/23/2
f 39/23/2 36/20/2 12/12/2
f 41/25/2 39/23/2 12/12/2
f 10/10/2 41/25/2 12/12/2
f 41/25/2 10/10/2 42/26/2
f 12/12/2 36/20/2 11/11/2
f 42/26/2 10/10/2 43/27/2
f 43/27/2 10/10/2 44/28/2
f 10/10/2 9/9/2 44/28/2
f 11/11/2 36/20/2 45/29/2
f 9/9/2 11/11/2 45/29/2
f 45/29/2 44/28/2 9/9/2
f 46/30/2 45/29/2 36/20/2
f 43/27/2 44/28/2 4/4/2
f 47/31/2 43/27/2 4/4/2
f 4/4/2 44/28/2 3/3/2
f 2/2/2 47/31/2 4/4/2
f 3/3/2 44/28/2 1/1/2
f 2/2/2 1/1/2 48/32/2
f 1/1/2 44/28/2 49/33/2
f 49/33/2 48/32/2 1/1/2
f 50/34/2 49/33/2 44/28/2
f 51/35/2 47/31/2 2/2/2
f 51/35/2 2/2/2 48/32/2
f 52/36/2 47/31/2 51/35/2
f 51/35/2 48/32/2 32/15/2
f 53/37/2 51/35/2 32/15/2
f 32/15/2 48/32/2 31/13/2
f 30/16/2 53/37/2 32/15/2
f 31/13/2 48/32/2 29/14/2
f 54/38/2 53/37/2 30/16/2
f 55/39/2 53/37/2 54/38/2
f 54/38/2 30/16/2 56/40/2
f 30/16/2 29/14/2 56/40/2
f 57/41/2 56/40/2 29/14/2
f 29/14/2 48/32/2 57/41/2
f 58/42/2 57/41/2 48/32/2
f 41/45/4 59/44/3 42/43/3
f 59/44/3 41/45/4 60/46/4
f 42/43/6 59/44/6 41/45/5
f 60/46/5 41/45/5 59/44/6
f 62/49/5 44/48/7 61/47/7
f 44/48/7 62/49/5 45/50/5
f 61/47/8 44/48/8 62/49/4
f 45/50/4 62/49/4 44/48/8
f 61/53/2 63/52/2 62/51/2
f 63/52/2 61/53/2 13/3/2
f 14/1/2 63/52/2 13/3/2
f 63/52/2 14/1/2 64/32/2
f 13/3/2 61/53/2 15/4/2
f 64/32/2 14/1/2 16/2/2
f 15/4/2 59/31/2 16/2/2
f 16/2/2 59/31/2 65/35/2
f 64/32/2 16/2/2 65/35/2
f 65/35/2 59/31/2 60/36/2
f 15/4/2 66/54/2 59/31/2
f 15/4/2 61/53/2 66/54/2
f 19/15/2 64/32/2 65/35/2
f 19/15/2 65/35/2 67/37/2
f 19/15/2 67/37/2 20/16/2
f 68/39/2 20/16/2 67/37/2
f 69/38/2 20/16/2 68/39/2
f 70/40/2 20/16/2 69/38/2
f 70/40/2 18/14/2 20/16/2
f 70/40/2 17/13/2 18/14/2
f 17/13/2 64/32/2 19/15/2
f 17/13/2 70/40/2 71/55/2
f 71/55/2 64/32/2 17/13/2
f 64/32/2 71/55/2 72/56/2
f 61/53/2 28/10/2 66/54/2
f 66/54/2 28/10/2 73/26/2
f 73/26/2 28/10/2 74/25/2
f 61/53/2 26/9/2 28/10/2
f 27/12/2 74/25/2 28/10/2
f 61/53/2 25/11/2 26/9/2
f 25/11/2 75/20/2 27/12/2
f 25/11/2 61/53/2 76/57/2
f 76/57/2 75/20/2 25/11/2
f 75/20/2 76/57/2 77/58/2
f 27/12/2 78/23/2 74/25/2
f 27/12/2 75/20/2 78/23/2
f 75/20/2 24/6/2 78/23/2
f 75/20/2 22/5/2 24/6/2
f 75/20/2 21/7/2 22/5/2
f 21/7/2 75/20/2 79/59/2
f 24/6/2 80/22/2 78/23/2
f 78/23/2 80/22/2 81/24/2
f 23/8/2 80/22/2 24/6/2
f 23/8/2 82/21/2 80/22/2
f 23/8/2 83/19/2 82/21/2
f 21/7/2 83/19/2 23/8/2
f 79/59/2 83/19/2 21/7/2
f 83/19/2 79/59/2 84/60/2
f 62/51/1 63/52/1 61/53/1
f 13/3/1 61/53/1 63/52/1
f 13/3/1 63/52/1 14/1/1
f 64/32/1 14/1/1 63/52/1
f 15/4/1 61/53/1 13/3/1
f 16/2/1 14/1/1 64/32/1
f 16/2/1 59/31/1 15/4/1
f 59/31/1 66/54/1 15/4/1
f 66/54/1 61/53/1 15/4/1
f 65/35/1 59/31/1 16/2/1
f 65/35/1 16/2/1 64/32/1
f 60/36/1 59/31/1 65/35/1
f 66/54/1 28/10/1 61/53/1
f 73/26/1 28/10/1 66/54/1
f 74/25/1 28/10/1 73/26/1
f 28/10/1 26/9/1 61/53/1
f 28/10/1 74/25/1 27/12/1
f 26/9/1 25/11/1 61/53/1
f 27/12/1 75/20/1 25/11/1
f 76/57/1 61/53/1 25/11/1
f 25/11/1 75/20/1 76/57/1
f 77/58/1 76/57/1 75/20/1
f 74/25/1 78/23/1 27/12/1
f 78/23/1 75/20/1 27/12/1
f 78/23/1 24/6/1 75/20/1
f 24/6/1 22/5/1 75/20/1
f 22/5/1 21/7/1 75/20/1
f 79/59/1 75/20/1 21/7/1
f 78/23/1 80/22/1 24/6/1
f 81/24/1 80/22/1 78/23/1
f 24/6/1 80/22/1 23/8/1
f 80/22/1 82/21/1 23/8/1
f 82/21/1 83/19/1 23/8/1
f 23/8/1 83/19/1 21/7/1
f 21/7/1 83/19/1 79/59/1
f 84/60/1 79/59/1 83/19/1
f 59/63/3 43/62/9 42/61/3
f 43/62/9 59/63/3 66/64/9
f 42/61/6 43/62/10 59/63/6
f 66/64/10 59/63/6 43/62/10
f 76/50/6 44/47/10 50/49/6
f 44/47/10 76/50/6 61/48/10
f 50/49/3 44/47/9 76/50/3
f 61/48/9 76/50/3 44/47/9
f 71/67/6 35/66/11 33/65/6
f 35/66/11 71/67/6 70/68/11
f 33/65/3 35/66/12 71/67/3
f 70/68/12 71/67/3 35/66/12
f 65/50/8 41/47/4 39/49/8
f 41/47/4 65/50/8 60/48/4
f 39/49/7 41/47/5 65/50/7
f 60/48/5 65/50/7 41/47/5
f 83/66/13 57/67/5 56/68/13
f 57/67/5 83/66/13 84/65/5
f 56/68/14 57/67/4 83/66/14
f 84/65/4 83/66/14 57/67/4
f 67/66/3 39/67/9 40/68/3
f 39/67/9 67/66/3 65/65/9
f 40/68/6 39/67/10 67/66/6
f 65/65/10 67/66/6 39/67/10
f 77/64/5 48/61/7 75/63/7
f 48/61/7 77/64/5 49/62/5
f 75/63/8 48/61/8 77/64/4
f 49/62/4 77/64/4 48/61/8
f 71/71/6 34/70/5 72/69/5
f 34/70/5 71/71/6 33/72/6
f 72/69/4 34/70/4 71/71/3
f 33/72/3 71/71/3 34/70/4
f 63/75/6 45/74/5 62/73/5
f 45/74/5 63/75/6 46/76/6
f 62/73/4 45/74/4 63/75/3
f 46/76/3 63/75/3 45/74/4
f 72/56/1 71/55/1 64/32/1
f 17/13/1 64/32/1 71/55/1
f 71/55/1 70/40/1 17/13/1
f 18/14/1 17/13/1 70/40/1
f 19/15/1 64/32/1 17/13/1
f 65/35/1 64/32/1 19/15/1
f 67/37/1 65/35/1 19/15/1
f 20/16/1 18/14/1 70/40/1
f 20/16/1 67/37/1 19/15/1
f 69/38/1 20/16/1 70/40/1
f 67/37/1 20/16/1 68/39/1
f 68/39/1 20/16/1 69/38/1
f 64/61/10 46/64/6 63/62/6
f 46/64/6 64/61/10 36/63/10
f 63/62/3 46/64/3 64/61/9
f 36/63/9 64/61/9 46/64/3
f 76/44/6 49/45/5 77/46/5
f 49/45/5 76/44/6 50/43/6
f 77/46/4 49/45/4 76/44/3
f 50/43/3 76/44/3 49/45/4
f 72/79/5 36/78/7 64/77/7
f 36/78/7 72/79/5 34/80/5
f 64/77/8 36/78/8 72/79/4
f 34/80/4 72/79/4 36/78/8
f 66/62/8 47/63/4 43/64/8
f 47/63/4 66/62/8 73/61/4
f 43/64/7 47/63/5 66/62/7
f 73/61/5 66/62/7 47/63/5
f 70/19/11 37/38/14 35/40/11
f 37/38/14 70/19/11 69/21/14
f 35/40/12 37/38/13 70/19/12
f 69/21/13 70/19/12 37/38/13
f 74/47/3 51/50/9 52/48/3
f 51/50/9 74/47/3 78/49/9
f 52/48/6 51/50/10 74/47/6
f 78/49/10 74/47/6 51/50/10
f 69/80/14 38/77/4 37/79/14
f 38/77/4 69/80/14 68/78/4
f 37/79/13 38/77/5 69/80/13
f 68/78/5 69/80/13 38/77/5
f 47/74/4 74/75/3 52/76/3
f 74/75/3 47/74/4 73/73/4
f 52/76/6 74/75/6 47/74/5
f 73/73/5 47/74/5 74/75/6
f 38/83/4 67/82/3 40/81/3
f 67/82/3 38/83/4 68/84/4
f 40/81/6 67/82/6 38/83/5
f 68/84/5 38/83/5 67/82/6
f 79/82/6 57/83/5 84/84/5
f 57/83/5 79/82/6 58/81/6
f 84/84/4 57/83/4 79/82/3
f 58/81/3 79/82/3 57/83/4
f 53/70/4 80/71/3 55/72/3
f 80/71/3 53/70/4 81/69/4
f 55/72/6 80/71/6 53/70/5
f 81/69/5 53/70/5 80/71/6
f 51/65/8 81/68/4 53/66/4
f 81/68/4 51/65/8 78/67/8
f 53/66/5 81/68/5 51/65/7
f 78/67/7 51/65/7 81/68/5
f 82/38/12 56/19/13 54/21/12
f 56/19/13 82/38/12 83/40/13
f 54/21/11 56/19/14 82/38/11
f 83/40/14 82/38/11 56/19/14
f 80/77/3 54/80/12 55/78/3
f 54/80/12 80/77/3 82/79/12
f 55/78/6 54/80/11 80/77/6
f 82/79/11 80/77/6 54/80/11
f 75/78/10 58/79/6 79/80/6
f 58/79/6 75/78/10 48/77/10
f 79/80/3 58/79/3 75/78/9
f 48/77/9 75/78/9 58/79/3

