# Created by Kenney (www.kenney.nl)

mtllib cover-stripe-corner.mtl

g cover-stripe-corner

v -0.7 1 0.7
v -0.7 1.15 0.65
v -0.65 1.15 0.7
v -0.5 1.2 0.7
v -0.7 1.2 0.5
v 0.5 1.2 -0.5
v 0.5 1.2 0.7
v -0.7 1.2 -0.5
v 0.65 1.15 -0.65
v 0.65 1.15 0.7
v -0.7 1.15 -0.65
v 0.7 1 -0.7
v -0.7 1 -0.7
v 0.7 1 0.7
v -0.7 2.224389E-14 0.6
v -0.7 0.2 0.7
v -0.6 5.86553E-16 0.7
v 0.6 4.060752E-16 -0.6
v 0.7 0.2 -0.7
v -0.7 2.206342E-14 -0.6
v -0.7 0.2 -0.7
v 0.7 0.2 0.7
v 0.6 4.060752E-16 0.7
v 0.5 9.926282E-16 0.7
v 0.5 9.926282E-16 -0.5
v -0.7 2.147686E-14 -0.5
v 0.7 0.4 -0.7
v -0.7 0.4 -0.7
v 0.7 0.4 0.7
v -0.5 0 0.7
v -0.5 1.141522E-14 0.5
v -0.7 2.283045E-14 0.5
v -0.7 0.4 0.5
v -0.7 0.4 0.7
v -0.7 0.4 -0.5
v -0.5 0.4 0.7
v 0.5 0.4 0.7
v 0.5 1 -0.5
v -0.7 1 -0.5
v -0.5 1 0.5
v -0.5 1 0.7
v 0.5 1 0.7
v -0.7 1 0.5

vn -0.6882472 0.2294157 0.6882472
vn -0.4890198 0.7223014 0.4890198
vn 0.4890198 -0.7223014 -0.4890198
vn 0.6882472 -0.2294157 -0.6882472
vn -0.3015113 0.904534 0.3015113
vn 0.3015113 -0.904534 -0.3015113
vn 0 1 0
vn 0 -1 0
vn 0.8310396 0.5562133 0
vn 0.7071068 0.7071068 0
vn 0.3162278 0.9486833 0
vn -0.3162278 -0.9486833 0
vn -0.7071068 -0.7071068 0
vn -0.8310396 -0.5562133 0
vn 0 0.5562133 -0.8310396
vn 0 0.9486833 -0.3162278
vn 0 0.7071068 -0.7071068
vn 0 -0.7071068 0.7071068
vn 0 -0.9486833 0.3162278
vn 0 -0.5562133 0.8310396
vn 0 0.3162278 -0.9486833
vn 0 -0.3162278 0.9486833
vn 0.9486833 0.3162278 0
vn -0.9486833 -0.3162278 0
vn -0.6666667 -0.3333333 0.6666667
vn 0.6666667 0.3333333 -0.6666667
vn 0.4247964 -0.7994348 -0.4247964
vn 0 -0.1941159 -0.9809786
vn 0 -0.8506508 -0.5257311
vn 0 -0.2297529 -0.973249
vn 0 0.8506508 0.5257311
vn 0 0.1941159 0.9809786
vn -0.4247964 0.7994348 0.4247964
vn 0 0.2297529 0.973249
vn 0.9809786 -0.1941159 0
vn 0.973249 -0.2297529 0
vn 0.5257311 -0.8506508 0
vn -0.973249 0.2297529 0
vn -0.9809786 0.1941159 0
vn -0.5257311 0.8506508 0
vn 0 0 -1
vn 0 0 1
vn 1 0 0
vn -1 0 0

vt 3.947065E-12 29.37868
vt -1.391943 35.44602
vt 1.391943 35.44602
vt 5.56777 -10.07247
vt 1.391943 -14.68903
vt -5.56777 -10.07247
vt -1.391943 -14.68903
vt -19.68504 -19.68504
vt -19.68504 27.55906
vt 27.55906 -19.68504
vt 19.68504 27.55906
vt 27.55906 19.68504
vt 25.59055 -9.959929
vt -27.55906 -9.959929
vt 19.68504 -3.734974
vt -27.55906 -3.734974
vt -25.59055 -9.959929
vt -19.68504 -3.734974
vt 27.55906 -9.959929
vt 27.55906 -3.734974
vt -27.55906 28.6348
vt -25.59055 34.85975
vt 27.55906 28.6348
vt 27.55906 34.85975
vt 25.59055 34.85975
vt -27.55906 34.85975
vt -2.783885 12.0635
vt 2.104272E-11 20.41516
vt 2.783885 12.0635
vt -23.62205 10.5641
vt -27.55906 19.36752
vt 27.55906 10.5641
vt 27.55906 19.36752
vt 23.62205 10.5641
vt -27.55906 10.5641
vt 23.62205 27.55906
vt 23.62205 -23.62205
vt 19.68504 -19.68504
vt -27.55906 -23.62205
vt -27.55906 -19.68504
vt -27.55906 7.874016
vt -27.55906 15.74803
vt 27.55906 7.874016
vt 27.55906 15.74803
vt -19.68504 19.68504
vt -23.62205 27.55906
vt -27.55906 19.68504
vt -27.55906 23.62205
vt 19.68504 15.74803
vt 19.68504 -3.04207E-12
vt 23.62205 -3.065163E-12
vt -19.68504 15.74803
vt -23.62205 1.017852E-12
vt -19.68504 9.947598E-13
vt -19.68504 -6.77763E-12
vt -23.62205 -6.754537E-12
vt 23.62205 -1.03384E-13
vt 19.68504 -8.029133E-14
vt 19.68504 -3.016042E-13
vt -27.55906 5.048618E-13
vt 19.68504 39.37008
vt -27.55906 39.37008
vt -19.68504 39.37008
vt -19.68504 -5.519141E-12
vt -27.55906 -5.968559E-12
vt -19.68504 -1.312622E-13
vt 27.55906 -1.312622E-13
vt 27.55906 39.37008
vt 19.68504 -3.643496E-12
vt 27.55906 -3.194078E-12
vt 25.59055 45.27559
vt -25.59055 45.27559
vt -19.68504 47.24409
vt 19.68504 47.24409

usemtl grey-dark

f 3/3/2 2/2/2 1/1/1
f 1/1/4 2/2/3 3/3/3
f 5/6/5 3/5/2 4/4/5
f 3/5/2 5/6/5 2/7/2
f 4/4/6 3/5/3 5/6/6
f 2/7/3 5/6/6 3/5/3
f 8/10/7 7/9/7 6/8/7
f 7/9/7 8/10/7 4/11/7
f 4/11/7 8/10/7 5/12/7
f 6/8/8 7/9/8 8/10/8
f 4/11/8 8/10/8 7/9/8
f 5/12/8 8/10/8 4/11/8
f 6/15/11 10/14/10 9/13/9
f 10/14/10 6/15/11 7/16/11
f 9/13/14 10/14/13 6/15/12
f 7/16/12 6/15/12 10/14/13
f 11/19/17 6/18/16 9/17/15
f 6/18/16 11/19/17 8/20/16
f 9/17/20 6/18/19 11/19/18
f 8/20/19 11/19/18 6/18/19
f 13/23/21 9/22/15 12/21/21
f 9/22/15 13/23/21 11/24/17
f 12/21/22 9/22/20 13/23/22
f 11/24/18 13/23/22 9/22/20
f 9/25/9 14/21/23 12/23/23
f 14/21/23 9/25/9 10/26/10
f 12/23/24 14/21/24 9/25/14
f 10/26/13 9/25/14 14/21/24

usemtl striping

f 17/29/25 16/28/25 15/27/25
f 15/27/26 16/28/26 17/29/26
f 20/32/29 19/31/28 18/30/27
f 19/31/28 20/32/29 21/33/30
f 18/30/33 19/31/32 20/32/31
f 21/33/34 20/32/31 19/31/32
f 22/31/36 18/34/27 19/33/35
f 18/34/27 22/31/36 23/35/37
f 19/33/39 18/34/33 22/31/38
f 23/35/40 22/31/38 18/34/33
f 24/11/8 18/37/27 23/36/37
f 18/37/27 24/11/8 25/38/8
f 18/37/27 25/38/8 20/39/29
f 20/39/29 25/38/8 26/40/8
f 23/36/40 18/37/33 24/11/7
f 25/38/7 24/11/7 18/37/33
f 20/39/31 25/38/7 18/37/33
f 26/40/7 25/38/7 20/39/31
f 21/43/30 27/42/41 19/41/28
f 27/42/41 21/43/30 28/44/41
f 19/41/32 27/42/42 21/43/34
f 28/44/42 21/43/34 27/42/42
f 29/42/43 19/43/35 27/44/43
f 19/43/35 29/42/43 22/41/36
f 27/44/44 19/43/39 29/42/44
f 22/41/38 29/42/44 19/43/39
f 17/46/8 31/45/8 30/9/8
f 31/45/8 17/46/8 32/47/8
f 32/47/8 17/46/8 15/48/8
f 30/9/7 31/45/7 17/46/7
f 32/47/7 17/46/7 31/45/7
f 15/48/7 17/46/7 32/47/7
f 32/50/44 34/44/44 33/49/44
f 34/44/44 32/50/44 15/51/44
f 34/44/44 15/51/44 16/43/44
f 33/49/43 34/44/43 32/50/43
f 15/51/43 32/50/43 34/44/43
f 16/43/43 15/51/43 34/44/43
f 21/41/44 35/52/44 28/42/44
f 35/52/44 21/41/44 20/53/44
f 35/52/44 20/53/44 26/54/44
f 28/42/43 35/52/43 21/41/43
f 20/53/43 21/41/43 35/52/43
f 26/54/43 20/53/43 35/52/43
f 36/52/42 17/56/42 30/55/42
f 17/56/42 36/52/42 16/41/42
f 16/41/42 36/52/42 34/42/42
f 30/55/41 17/56/41 36/52/41
f 16/41/41 36/52/41 17/56/41
f 34/42/41 36/52/41 16/41/41
f 22/43/42 24/58/42 23/57/42
f 24/58/42 22/43/42 37/49/42
f 37/49/42 22/43/42 29/44/42
f 23/57/41 24/58/41 22/43/41
f 37/49/41 22/43/41 24/58/41
f 29/44/41 22/43/41 37/49/41

usemtl dark

f 38/61/42 26/60/42 25/59/42
f 26/60/42 38/61/42 35/42/42
f 35/42/42 38/61/42 39/62/42
f 25/59/41 26/60/41 38/61/41
f 35/42/41 38/61/41 26/60/41
f 39/62/41 38/61/41 35/42/41
f 41/62/43 31/64/43 40/63/43
f 31/64/43 41/62/43 36/42/43
f 31/64/43 36/42/43 30/65/43
f 40/63/44 31/64/44 41/62/44
f 36/42/44 41/62/44 31/64/44
f 30/65/44 36/42/44 31/64/44
f 24/67/44 38/63/44 25/66/44
f 38/63/44 24/67/44 37/44/44
f 42/68/44 38/63/44 37/44/44
f 25/66/43 38/63/43 24/67/43
f 37/44/43 24/67/43 38/63/43
f 37/44/43 38/63/43 42/68/43
f 32/70/41 40/61/41 31/69/41
f 40/61/41 32/70/41 33/44/41
f 40/61/41 33/44/41 43/68/41
f 31/69/42 40/61/42 32/70/42
f 33/44/42 32/70/42 40/61/42
f 43/68/42 33/44/42 40/61/42
f 41/9/8 38/38/8 42/11/8
f 38/38/8 41/9/8 40/45/8
f 38/38/8 40/45/8 39/40/8
f 39/40/8 40/45/8 43/47/8
f 42/11/7 38/38/7 41/9/7
f 40/45/7 41/9/7 38/38/7
f 39/40/7 40/45/7 38/38/7
f 43/47/7 40/45/7 39/40/7

usemtl grey

f 14/68/42 37/49/42 29/44/42
f 37/49/42 14/68/42 42/61/42
f 42/61/42 14/68/42 41/63/42
f 41/63/42 14/68/42 10/71/42
f 41/63/42 10/71/42 1/62/42
f 34/42/42 41/63/42 1/62/42
f 41/63/42 34/42/42 36/52/42
f 1/62/42 10/71/42 3/72/42
f 3/72/42 10/71/42 4/73/42
f 4/73/42 10/71/42 7/74/42
f 29/44/41 37/49/41 14/68/41
f 42/61/41 14/68/41 37/49/41
f 41/63/41 14/68/41 42/61/41
f 10/71/41 14/68/41 41/63/41
f 1/62/41 10/71/41 41/63/41
f 1/62/41 41/63/41 34/42/41
f 36/52/41 34/42/41 41/63/41
f 3/72/41 10/71/41 1/62/41
f 4/73/41 10/71/41 3/72/41
f 7/74/41 10/71/41 4/73/41
f 35/52/44 13/62/44 28/42/44
f 13/62/44 35/52/44 11/72/44
f 11/72/44 35/52/44 39/63/44
f 11/72/44 39/63/44 8/73/44
f 8/73/44 39/63/44 43/61/44
f 8/73/44 43/61/44 5/74/44
f 5/74/44 43/61/44 33/49/44
f 5/74/44 33/49/44 34/44/44
f 5/74/44 34/44/44 2/71/44
f 2/71/44 34/44/44 1/68/44
f 28/42/43 13/62/43 35/52/43
f 11/72/43 35/52/43 13/62/43
f 39/63/43 35/52/43 11/72/43
f 8/73/43 39/63/43 11/72/43
f 43/61/43 39/63/43 8/73/43
f 5/74/43 43/61/43 8/73/43
f 33/49/43 43/61/43 5/74/43
f 34/44/43 33/49/43 5/74/43
f 2/71/43 34/44/43 5/74/43
f 1/68/43 34/44/43 2/71/43
f 12/68/43 29/42/43 27/44/43
f 29/42/43 12/68/43 14/62/43
f 27/44/44 29/42/44 12/68/44
f 14/62/44 12/68/44 29/42/44
f 13/68/41 27/42/41 28/44/41
f 27/42/41 13/68/41 12/62/41
f 28/44/42 27/42/42 13/68/42
f 12/62/42 13/68/42 27/42/42

