# Created by Kenney (www.kenney.nl)

mtllib cover-hopper.mtl

g cover-hopper

v -0.5 1 -0.7
v 0.5 1 -0.7
v -0.5 1.15 -0.65
v 0.5 1.15 -0.65
v 0.5 1.2 -0.5
v -0.5 1.2 -0.5
v 0.5 1 0.7
v -0.5 1 0.7
v 0.5 1.15 0.65
v -0.5 1.15 0.65
v 0.5 1.2 0.5
v -0.5 1.2 0.5
v -0.5 5.86553E-16 -0.6
v 0.5 5.86553E-16 -0.6
v -0.5 0.2 -0.7
v 0.5 0.2 -0.7
v 0.5 0 -0.5
v -0.5 1.173106E-15 -0.5
v -0.5 0.4 -0.7
v 0.5 0.4 -0.7
v 0.5 0.2 0.7
v -0.5 0.2 0.7
v 0.5 0.4 0.7
v -0.5 0.4 0.7
v 0.5 7.670309E-16 0.6
v 0.5 1.353584E-15 0.5
v -0.5 7.670309E-16 0.6
v -0.5 1.804779E-16 0.5
v 0.3 1 -0.3
v -0.3 1 -0.3
v 0.3 1.2 -0.3
v -0.3 1.2 -0.3
v -0.3 1 0.3
v -0.3 1.2 0.3
v 0.3 1 0.3
v 0.3 1.2 0.3
v 0.5 1.6 -0.5
v 0.4 1.4 -0.4
v 0.5 1.6 0.5
v 0.4 1.4 0.4
v -0.4 1.4 -0.4
v -0.5 1.6 -0.5
v -0.4 1.4 0.4
v -0.5 1.6 0.5
v -0.5 1.8 0.5
v 0.5 1.8 0.5
v -0.5 1.8 -0.5
v 0.5 1.8 -0.5
v 0.3 1.8 -0.3
v 0.3 1.8 0.3
v -0.3 1.8 -0.3
v -0.3 1.8 0.3
v 0.4 1.2 -0.4
v 0.4 1.2 0.4
v -0.4 1.2 -0.4
v -0.4 1.2 0.4
v 0.5 1 -0.5
v -0.5 1 -0.5
v -0.5 1 0.5
v 0.5 1 0.5

vn 0 0.3162278 -0.9486833
vn 0 0.7071068 -0.7071068
vn 0 -0.7071068 0.7071068
vn 0 -0.3162278 0.9486833
vn 0 0.9486833 -0.3162278
vn 0 -0.9486833 0.3162278
vn 0 0.3162278 0.9486833
vn 0 0.7071068 0.7071068
vn 0 0.9486833 0.3162278
vn 0 -0.8506508 -0.5257311
vn 0 -0.2297529 -0.973249
vn 0 0.2297529 0.973249
vn 0 0.8506508 0.5257311
vn 0 -1 0
vn 0 1 0
vn 0 0 -1
vn 0 0 1
vn 0 -0.2297529 0.973249
vn 0 0.2297529 -0.973249
vn 0 -0.8506508 0.5257311
vn 0 0.8506508 -0.5257311
vn 1 0 0
vn -1 0 0
vn 0.9809786 -0.1941159 0
vn 0.8944272 -0.4472136 0
vn -0.9809786 0.1941159 0
vn -0.8944272 0.4472136 0
vn 0 -0.4472136 -0.8944272
vn 0 -0.1941159 -0.9809786
vn 0 0.1941159 0.9809786
vn 0 0.4472136 0.8944272
vn 0 -0.4472136 0.8944272
vn 0 -0.1941159 0.9809786
vn 0 0.4472136 -0.8944272
vn 0 0.1941159 -0.9809786
vn -0.9809786 -0.1941159 0
vn 0.9809786 0.1941159 0
vn -0.8944272 -0.4472136 0
vn 0.8944272 0.4472136 0
vn 0 -0.7071068 -0.7071068
vn 0 -0.3162278 -0.9486833
vn 0 -0.9486833 -0.3162278

vt 19.68504 28.6348
vt -19.68504 28.6348
vt 19.68504 34.85975
vt -19.68504 34.85975
vt -19.68504 -9.959929
vt -19.68504 -3.734974
vt 19.68504 -9.959929
vt 19.68504 -3.734974
vt 19.68504 10.5641
vt -19.68504 10.5641
vt 19.68504 19.36752
vt -19.68504 19.36752
vt 19.68504 -19.68504
vt 19.68504 -23.62205
vt -19.68504 -19.68504
vt -19.68504 -23.62205
vt 19.68504 7.874016
vt -19.68504 7.874016
vt 19.68504 15.74803
vt -19.68504 15.74803
vt 19.68504 23.62205
vt 19.68504 19.68504
vt -19.68504 23.62205
vt -19.68504 19.68504
vt 11.81102 39.37008
vt -11.81102 39.37008
vt 11.81102 47.24409
vt -11.81102 47.24409
vt 19.68504 65.14529
vt 15.74803 56.34187
vt -19.68504 65.14529
vt -15.74803 56.34187
vt -19.68504 62.99213
vt -19.68504 70.86614
vt 19.68504 62.99213
vt 19.68504 70.86614
vt -11.81102 -11.81102
vt -11.81102 11.81102
vt 11.81102 -11.81102
vt 11.81102 11.81102
vt -15.74803 -15.74803
vt -15.74803 15.74803
vt 15.74803 -15.74803
vt 15.74803 15.74803
vt 19.68504 3.926683E-14
vt -19.68504 8.545211E-14
vt 19.68504 39.37008
vt -19.68504 39.37008
vt 19.68504 7.503121E-13
vt -19.68504 7.964974E-13
vt -11.81102 70.86614
vt 11.81102 70.86614
vt 27.55906 39.37008
vt 27.55906 15.74803
vt 25.59055 45.27559
vt 27.55906 7.874016
vt 23.62205 -2.241727E-13
vt 19.68504 47.24409
vt 19.68504 -2.472654E-13
vt -19.68504 47.24409
vt -25.59055 45.27559
vt -23.62205 -2.170673E-13
vt -19.68504 -1.939747E-13
vt -27.55906 7.874016
vt -27.55906 39.37008
vt -27.55906 15.74803
vt -23.62205 2.047932E-13
vt -19.68504 2.278859E-13
vt 23.62205 2.118986E-13
vt 19.68504 1.88806E-13
vt -15.74803 47.24409
vt -15.74803 55.11811
vt 15.74803 47.24409
vt 15.74803 55.11811

usemtl grey-dark

f 3/3/2 2/2/1 1/1/1
f 2/2/1 3/3/2 4/4/2
f 1/1/4 2/2/4 3/3/3
f 4/4/3 3/3/3 2/2/4
f 3/7/2 5/6/5 4/5/2
f 5/6/5 3/7/2 6/8/5
f 4/5/3 5/6/6 3/7/3
f 6/8/6 3/7/3 5/6/6
f 9/3/8 8/2/7 7/1/7
f 8/2/7 9/3/8 10/4/8
f 11/8/9 10/5/8 9/7/8
f 10/5/8 11/8/9 12/6/9
f 15/11/11 14/10/10 13/9/10
f 14/10/10 15/11/11 16/12/11
f 13/9/13 14/10/13 15/11/12
f 16/12/12 15/11/12 14/10/13
f 18/15/14 14/14/10 17/13/14
f 14/14/10 18/15/14 13/16/10
f 17/13/15 14/14/13 18/15/15
f 13/16/13 18/15/15 14/14/13
f 19/19/16 16/18/11 15/17/11
f 16/18/11 19/19/16 20/20/16
f 15/17/12 16/18/12 19/19/17
f 20/20/17 19/19/17 16/18/12
f 23/19/17 22/18/18 21/17/18
f 22/18/18 23/19/17 24/20/17
f 21/17/19 22/18/19 23/19/16
f 24/20/16 23/19/16 22/18/19
f 27/23/20 26/22/14 25/21/20
f 26/22/14 27/23/20 28/24/14
f 25/21/21 26/22/15 27/23/21
f 28/24/15 27/23/21 26/22/15
f 21/11/18 27/10/20 25/9/20
f 27/10/20 21/11/18 22/12/18
f 25/9/21 27/10/21 21/11/19
f 22/12/19 21/11/19 27/10/21
f 31/27/17 30/26/17 29/25/17
f 30/26/17 31/27/17 32/28/17
f 29/25/16 30/26/16 31/27/16
f 32/28/16 31/27/16 30/26/16
f 32/27/22 33/26/22 30/25/22
f 33/26/22 32/27/22 34/28/22
f 30/25/23 33/26/23 32/27/23
f 34/28/23 32/27/23 33/26/23
f 33/25/16 36/28/16 35/26/16
f 36/28/16 33/25/16 34/27/16
f 35/26/17 36/28/17 33/25/17
f 34/27/17 33/25/17 36/28/17
f 35/25/23 31/28/23 29/26/23
f 31/28/23 35/25/23 36/27/23
f 29/26/22 31/28/22 35/25/22
f 36/27/22 35/25/22 31/28/22
f 39/31/24 38/30/25 37/29/24
f 38/30/25 39/31/24 40/32/25
f 37/29/26 38/30/27 39/31/26
f 40/32/27 39/31/26 38/30/27
f 42/29/29 38/32/28 41/30/28
f 38/32/28 42/29/29 37/31/29
f 41/30/31 38/32/31 42/29/30
f 37/31/30 42/29/30 38/32/31
f 40/30/32 44/31/33 43/32/32
f 44/31/33 40/30/32 39/29/33
f 43/32/34 44/31/35 40/30/34
f 39/29/35 40/30/34 44/31/35
f 39/35/33 45/34/17 44/33/33
f 45/34/17 39/35/33 46/36/17
f 44/33/35 45/34/16 39/35/35
f 46/36/16 39/35/35 45/34/16
f 44/35/36 47/34/23 42/33/36
f 47/34/23 44/35/36 45/36/23
f 42/33/37 47/34/22 44/35/37
f 45/36/22 44/35/37 47/34/22
f 41/32/38 44/29/36 42/31/36
f 44/29/36 41/32/38 43/30/38
f 42/31/37 44/29/37 41/32/39
f 43/30/39 41/32/39 44/29/37
f 46/34/22 37/35/24 48/36/22
f 37/35/24 46/34/22 39/33/24
f 48/36/23 37/35/26 46/34/23
f 39/33/26 46/34/23 37/35/26
f 47/36/16 37/33/29 42/35/29
f 37/33/29 47/36/16 48/34/16
f 42/35/30 37/33/30 47/36/17
f 48/34/17 47/36/17 37/33/30
f 48/15/15 49/37/15 46/24/15
f 49/37/15 48/15/15 47/13/15
f 50/38/15 46/24/15 49/37/15
f 49/37/15 47/13/15 51/39/15
f 46/24/15 50/38/15 45/22/15
f 51/39/15 47/13/15 52/40/15
f 45/22/15 50/38/15 52/40/15
f 45/22/15 52/40/15 47/13/15
f 46/24/14 49/37/14 48/15/14
f 47/13/14 48/15/14 49/37/14
f 49/37/14 46/24/14 50/38/14
f 51/39/14 47/13/14 49/37/14
f 45/22/14 50/38/14 46/24/14
f 52/40/14 47/13/14 51/39/14
f 52/40/14 50/38/14 45/22/14
f 47/13/14 52/40/14 45/22/14
f 5/15/15 53/41/15 11/24/15
f 53/41/15 5/15/15 6/13/15
f 54/42/15 11/24/15 53/41/15
f 53/41/15 6/13/15 55/43/15
f 11/24/15 54/42/15 12/22/15
f 55/43/15 6/13/15 56/44/15
f 12/22/15 54/42/15 56/44/15
f 12/22/15 56/44/15 6/13/15
f 11/24/14 53/41/14 5/15/14
f 6/13/14 5/15/14 53/41/14
f 53/41/14 11/24/14 54/42/14
f 55/43/14 6/13/14 53/41/14
f 12/22/14 54/42/14 11/24/14
f 56/44/14 6/13/14 55/43/14
f 56/44/14 54/42/14 12/22/14
f 6/13/14 56/44/14 12/22/14

usemtl dark

f 57/47/17 18/46/17 17/45/17
f 18/46/17 57/47/17 58/48/17
f 17/45/16 18/46/16 57/47/16
f 58/48/16 57/47/16 18/46/16
f 59/47/16 26/50/16 28/49/16
f 26/50/16 59/47/16 60/48/16
f 28/49/17 26/50/17 59/47/17
f 60/48/17 59/47/17 26/50/17
f 34/27/16 50/51/16 36/28/16
f 50/51/16 34/27/16 52/52/16
f 36/28/17 50/51/17 34/27/17
f 52/52/17 34/27/17 50/51/17
f 52/51/22 32/27/22 51/52/22
f 32/27/22 52/51/22 34/28/22
f 51/52/23 32/27/23 52/51/23
f 34/28/23 52/51/23 32/27/23
f 36/27/23 49/51/23 31/28/23
f 49/51/23 36/27/23 50/52/23
f 31/28/22 49/51/22 36/27/22
f 50/52/22 36/27/22 49/51/22
f 49/52/17 32/28/17 31/27/17
f 32/28/17 49/52/17 51/51/17
f 31/27/16 32/28/16 49/52/16
f 51/51/16 49/52/16 32/28/16
f 60/22/14 35/40/14 57/13/14
f 35/40/14 60/22/14 59/24/14
f 57/13/14 35/40/14 29/39/14
f 35/40/14 59/24/14 33/38/14
f 29/39/14 58/15/14 57/13/14
f 58/15/14 33/38/14 59/24/14
f 58/15/14 29/39/14 30/37/14
f 58/15/14 30/37/14 33/38/14
f 57/13/15 35/40/15 60/22/15
f 59/24/15 60/22/15 35/40/15
f 29/39/15 35/40/15 57/13/15
f 33/38/15 59/24/15 35/40/15
f 57/13/15 58/15/15 29/39/15
f 59/24/15 33/38/15 58/15/15
f 30/37/15 29/39/15 58/15/15
f 33/38/15 30/37/15 58/15/15

usemtl grey

f 7/1/41 8/2/41 9/3/40
f 10/4/40 9/3/40 8/2/41
f 9/7/40 10/5/40 11/8/42
f 12/6/42 11/8/42 10/5/40
f 1/47/16 20/20/16 19/19/16
f 20/20/16 1/47/16 2/48/16
f 19/19/17 20/20/17 1/47/17
f 2/48/17 1/47/17 20/20/17
f 7/47/17 24/20/17 23/19/17
f 24/20/17 7/47/17 8/48/17
f 23/19/16 24/20/16 7/47/16
f 8/48/16 7/47/16 24/20/16
f 4/55/22 20/54/22 2/53/22
f 20/54/22 4/55/22 16/56/22
f 16/56/22 4/55/22 14/57/22
f 14/57/22 4/55/22 5/58/22
f 14/57/22 5/58/22 57/47/22
f 14/57/22 57/47/22 17/59/22
f 11/60/22 57/47/22 5/58/22
f 57/47/22 11/60/22 60/48/22
f 60/48/22 11/60/22 9/61/22
f 60/48/22 9/61/22 25/62/22
f 25/62/22 26/63/22 60/48/22
f 25/62/22 9/61/22 21/64/22
f 21/64/22 9/61/22 7/65/22
f 21/64/22 7/65/22 23/66/22
f 2/53/23 20/54/23 4/55/23
f 16/56/23 4/55/23 20/54/23
f 14/57/23 4/55/23 16/56/23
f 5/58/23 4/55/23 14/57/23
f 57/47/23 5/58/23 14/57/23
f 17/59/23 57/47/23 14/57/23
f 5/58/23 57/47/23 11/60/23
f 60/48/23 11/60/23 57/47/23
f 9/61/23 11/60/23 60/48/23
f 25/62/23 9/61/23 60/48/23
f 60/48/23 26/63/23 25/62/23
f 21/64/23 9/61/23 25/62/23
f 7/65/23 9/61/23 21/64/23
f 23/66/23 7/65/23 21/64/23
f 18/68/23 58/48/23 13/67/23
f 6/60/23 13/67/23 58/48/23
f 6/60/23 58/48/23 59/47/23
f 3/61/23 13/67/23 6/60/23
f 3/61/23 15/64/23 13/67/23
f 1/65/23 15/64/23 3/61/23
f 15/64/23 1/65/23 19/66/23
f 6/60/23 59/47/23 12/58/23
f 59/47/23 27/69/23 12/58/23
f 27/69/23 59/47/23 28/70/23
f 12/58/23 27/69/23 10/55/23
f 10/55/23 27/69/23 22/56/23
f 10/55/23 22/56/23 8/53/23
f 8/53/23 22/56/23 24/54/23
f 13/67/22 58/48/22 18/68/22
f 58/48/22 13/67/22 6/60/22
f 59/47/22 58/48/22 6/60/22
f 6/60/22 13/67/22 3/61/22
f 13/67/22 15/64/22 3/61/22
f 3/61/22 15/64/22 1/65/22
f 19/66/22 1/65/22 15/64/22
f 12/58/22 59/47/22 6/60/22
f 12/58/22 27/69/22 59/47/22
f 28/70/22 59/47/22 27/69/22
f 10/55/22 27/69/22 12/58/22
f 22/56/22 27/69/22 10/55/22
f 8/53/22 22/56/22 10/55/22
f 24/54/22 22/56/22 8/53/22
f 54/73/17 43/72/17 56/71/17
f 43/72/17 54/73/17 40/74/17
f 56/71/16 43/72/16 54/73/16
f 40/74/16 54/73/16 43/72/16
f 56/73/23 41/72/23 55/71/23
f 41/72/23 56/73/23 43/74/23
f 55/71/22 41/72/22 56/73/22
f 43/74/22 56/73/22 41/72/22
f 40/72/22 53/73/22 38/74/22
f 53/73/22 40/72/22 54/71/22
f 38/74/23 53/73/23 40/72/23
f 54/71/23 40/72/23 53/73/23
f 41/74/16 53/71/16 55/73/16
f 53/71/16 41/74/16 38/72/16
f 55/73/17 53/71/17 41/74/17
f 38/72/17 41/74/17 53/71/17

