# Created by Kenney (www.kenney.nl)

mtllib cover-stripe-top.mtl

g cover-stripe-top

v -0.5 1 -0.7
v 0.5 1 -0.7
v -0.5 1.15 -0.65
v 0.5 1.15 -0.65
v 0.5 1.2 -0.5
v -0.5 1.2 -0.5
v 0.5 1 0.7
v -0.5 1 0.7
v 0.5 1.15 0.65
v -0.5 1.15 0.65
v 0.5 1.2 0.5
v -0.5 1.2 0.5
v 0.3 1 -0.3
v -0.3 1 -0.3
v 0.3 1.2 -0.3
v -0.3 1.2 -0.3
v -0.3 1 0.3
v -0.3 1.2 0.3
v 0.3 1 0.3
v 0.3 1.2 0.3
v 0.5 0 -0.5
v -0.5 1.173106E-15 -0.5
v 0.5 0.4 -0.5
v -0.5 0.4 -0.5
v 0.5 1 -0.5
v -0.5 1 -0.5
v -0.5 1.804779E-16 0.5
v 0.5 1.353584E-15 0.5
v -0.5 0.4 0.5
v 0.5 0.4 0.5
v -0.5 1 0.5
v 0.5 1 0.5
v -0.5 0.4 -0.7
v 0.5 0.4 -0.7
v 0.5 0.4 0.7
v -0.5 0.4 0.7
v 0.5 7.670309E-16 0.6
v 0.5 0.2 0.7
v -0.5 5.86553E-16 -0.6
v 0.5 5.86553E-16 -0.6
v -0.5 0.2 -0.7
v 0.5 0.2 -0.7
v -0.5 0.2 0.7
v -0.5 7.670309E-16 0.6

vn 0 0.3162278 -0.9486833
vn 0 0.7071068 -0.7071068
vn 0 -0.7071068 0.7071068
vn 0 -0.3162278 0.9486833
vn 0 0.9486833 -0.3162278
vn 0 -0.9486833 0.3162278
vn 0 0.3162278 0.9486833
vn 0 0.7071068 0.7071068
vn 0 0.9486833 0.3162278
vn 0 0 1
vn 0 0 -1
vn 1 0 0
vn -1 0 0
vn 0 1 0
vn 0 -1 0
vn 0 -0.7071068 -0.7071068
vn 0 -0.3162278 -0.9486833
vn 0 -0.9486833 -0.3162278
vn 0 -0.8506508 -0.5257311
vn 0 -0.2297529 -0.973249
vn 0 0.2297529 0.973249
vn 0 0.8506508 0.5257311
vn 0 -0.2297529 0.973249
vn 0 0.2297529 -0.973249
vn 0 -0.8506508 0.5257311
vn 0 0.8506508 -0.5257311

vt 19.68504 28.6348
vt -19.68504 28.6348
vt 19.68504 34.85975
vt -19.68504 34.85975
vt -19.68504 -9.959929
vt -19.68504 -3.734974
vt 19.68504 -9.959929
vt 19.68504 -3.734974
vt 11.81102 39.37008
vt -11.81102 39.37008
vt 11.81102 47.24409
vt -11.81102 47.24409
vt 11.81102 -11.81102
vt 19.68504 -19.68504
vt -11.81102 -11.81102
vt 11.81102 11.81102
vt -19.68504 -19.68504
vt 19.68504 19.68504
vt -19.68504 19.68504
vt -11.81102 11.81102
vt 19.68504 5.609548E-14
vt -19.68504 1.022808E-13
vt 19.68504 15.74803
vt -19.68504 15.74803
vt 19.68504 39.37008
vt -19.68504 39.37008
vt 19.68504 8.298391E-13
vt -19.68504 8.760244E-13
vt -27.55906 15.74803
vt -27.55906 39.37008
vt -25.59055 45.27559
vt -19.68504 47.24409
vt 19.68504 47.24409
vt 27.55906 15.74803
vt 25.59055 45.27559
vt 27.55906 39.37008
vt -19.68504 -9.391007E-13
vt -23.62205 -9.621933E-13
vt -27.55906 7.874016
vt 19.68504 10.5641
vt -19.68504 10.5641
vt 19.68504 19.36752
vt -19.68504 19.36752
vt 19.68504 -23.62205
vt -19.68504 -23.62205
vt 19.68504 7.874016
vt -19.68504 7.874016
vt 19.68504 23.62205
vt -19.68504 23.62205
vt 27.55906 7.874016
vt 23.62205 -1.628327E-13
vt 19.68504 -1.859253E-13
vt -23.62205 4.67774E-14
vt -19.68504 6.987003E-14
vt 19.68504 8.242296E-13
vt 23.62205 8.473222E-13

usemtl grey-dark

f 3/3/2 2/2/1 1/1/1
f 2/2/1 3/3/2 4/4/2
f 1/1/4 2/2/4 3/3/3
f 4/4/3 3/3/3 2/2/4
f 3/7/2 5/6/5 4/5/2
f 5/6/5 3/7/2 6/8/5
f 4/5/3 5/6/6 3/7/3
f 6/8/6 3/7/3 5/6/6
f 9/3/8 8/2/7 7/1/7
f 8/2/7 9/3/8 10/4/8
f 11/8/9 10/5/8 9/7/8
f 10/5/8 11/8/9 12/6/9
f 15/11/10 14/10/10 13/9/10
f 14/10/10 15/11/10 16/12/10
f 13/9/11 14/10/11 15/11/11
f 16/12/11 15/11/11 14/10/11
f 16/11/12 17/10/12 14/9/12
f 17/10/12 16/11/12 18/12/12
f 14/9/13 17/10/13 16/11/13
f 18/12/13 16/11/13 17/10/13
f 17/9/11 20/12/11 19/10/11
f 20/12/11 17/9/11 18/11/11
f 19/10/10 20/12/10 17/9/10
f 18/11/10 17/9/10 20/12/10
f 19/9/13 15/12/13 13/10/13
f 15/12/13 19/9/13 20/11/13
f 13/10/12 15/12/12 19/9/12
f 20/11/12 19/9/12 15/12/12
f 15/15/14 6/14/14 16/13/14
f 16/13/14 6/14/14 18/16/14
f 15/15/14 5/17/14 6/14/14
f 12/18/14 18/16/14 6/14/14
f 5/17/14 15/15/14 11/19/14
f 12/18/14 20/20/14 18/16/14
f 11/19/14 20/20/14 12/18/14
f 20/20/14 11/19/14 15/15/14
f 11/19/15 15/15/15 5/17/15
f 6/14/15 5/17/15 15/15/15
f 15/15/15 11/19/15 20/20/15
f 16/13/15 6/14/15 15/15/15
f 12/18/15 20/20/15 11/19/15
f 18/16/15 6/14/15 16/13/15
f 18/16/15 20/20/15 12/18/15
f 6/14/15 18/16/15 12/18/15

usemtl dark

f 23/23/10 22/22/10 21/21/10
f 22/22/10 23/23/10 24/24/10
f 24/24/10 23/23/10 25/25/10
f 24/24/10 25/25/10 26/26/10
f 21/21/11 22/22/11 23/23/11
f 24/24/11 23/23/11 22/22/11
f 25/25/11 23/23/11 24/24/11
f 26/26/11 25/25/11 24/24/11
f 29/23/11 28/28/11 27/27/11
f 28/28/11 29/23/11 30/24/11
f 30/24/11 29/23/11 31/25/11
f 30/24/11 31/25/11 32/26/11
f 27/27/10 28/28/10 29/23/10
f 30/24/10 29/23/10 28/28/10
f 31/25/10 29/23/10 30/24/10
f 32/26/10 31/25/10 30/24/10
f 32/18/15 19/16/15 25/14/15
f 19/16/15 32/18/15 31/19/15
f 25/14/15 19/16/15 13/13/15
f 19/16/15 31/19/15 17/20/15
f 13/13/15 26/17/15 25/14/15
f 26/17/15 17/20/15 31/19/15
f 26/17/15 13/13/15 14/15/15
f 26/17/15 14/15/15 17/20/15
f 25/14/14 19/16/14 32/18/14
f 31/19/14 32/18/14 19/16/14
f 13/13/14 19/16/14 25/14/14
f 17/20/14 31/19/14 19/16/14
f 25/14/14 26/17/14 13/13/14
f 31/19/14 17/20/14 26/17/14
f 14/15/14 13/13/14 26/17/14
f 17/20/14 14/15/14 26/17/14

usemtl grey

f 7/1/17 8/2/17 9/3/16
f 10/4/16 9/3/16 8/2/17
f 9/7/16 10/5/16 11/8/18
f 12/6/18 11/8/18 10/5/16
f 1/25/11 34/24/11 33/23/11
f 34/24/11 1/25/11 2/26/11
f 33/23/10 34/24/10 1/25/10
f 2/26/10 1/25/10 34/24/10
f 7/25/10 36/24/10 35/23/10
f 36/24/10 7/25/10 8/26/10
f 35/23/11 36/24/11 7/25/11
f 8/26/11 7/25/11 36/24/11
f 24/24/13 1/30/13 33/29/13
f 1/30/13 24/24/13 3/31/13
f 3/31/13 24/24/13 26/26/13
f 26/26/13 6/32/13 3/31/13
f 6/32/13 26/26/13 31/25/13
f 6/32/13 31/25/13 12/33/13
f 31/25/13 36/34/13 12/33/13
f 36/34/13 31/25/13 29/23/13
f 12/33/13 36/34/13 10/35/13
f 10/35/13 36/34/13 8/36/13
f 33/29/12 1/30/12 24/24/12
f 3/31/12 24/24/12 1/30/12
f 26/26/12 24/24/12 3/31/12
f 3/31/12 6/32/12 26/26/12
f 31/25/12 26/26/12 6/32/12
f 12/33/12 31/25/12 6/32/12
f 12/33/12 36/34/12 31/25/12
f 29/23/12 31/25/12 36/34/12
f 10/35/12 36/34/12 12/33/12
f 8/36/12 36/34/12 10/35/12
f 32/26/12 35/29/12 30/24/12
f 35/29/12 32/26/12 9/31/12
f 35/29/12 9/31/12 7/30/12
f 32/26/12 11/32/12 9/31/12
f 25/25/12 11/32/12 32/26/12
f 11/32/12 25/25/12 5/33/12
f 25/25/12 4/35/12 5/33/12
f 23/23/12 4/35/12 25/25/12
f 34/34/12 4/35/12 23/23/12
f 4/35/12 34/34/12 2/36/12
f 30/24/13 35/29/13 32/26/13
f 9/31/13 32/26/13 35/29/13
f 7/30/13 9/31/13 35/29/13
f 9/31/13 11/32/13 32/26/13
f 32/26/13 11/32/13 25/25/13
f 5/33/13 25/25/13 11/32/13
f 5/33/13 4/35/13 25/25/13
f 25/25/13 4/35/13 23/23/13
f 23/23/13 4/35/13 34/34/13
f 2/36/13 34/34/13 4/35/13

usemtl striping

f 30/24/12 37/38/12 28/37/12
f 37/38/12 30/24/12 35/29/12
f 37/38/12 35/29/12 38/39/12
f 28/37/13 37/38/13 30/24/13
f 35/29/13 30/24/13 37/38/13
f 38/39/13 35/29/13 37/38/13
f 41/42/20 40/41/19 39/40/19
f 40/41/19 41/42/20 42/43/20
f 39/40/22 40/41/22 41/42/21
f 42/43/21 41/42/21 40/41/22
f 22/17/15 40/44/19 21/14/15
f 40/44/19 22/17/15 39/45/19
f 21/14/14 40/44/22 22/17/14
f 39/45/22 22/17/14 40/44/22
f 33/23/11 42/47/20 41/46/20
f 42/47/20 33/23/11 34/24/11
f 41/46/21 42/47/21 33/23/10
f 34/24/10 33/23/10 42/47/21
f 35/23/10 43/47/23 38/46/23
f 43/47/23 35/23/10 36/24/10
f 38/46/24 43/47/24 35/23/11
f 36/24/11 35/23/11 43/47/24
f 44/49/25 28/18/15 37/48/25
f 28/18/15 44/49/25 27/19/15
f 37/48/26 28/18/14 44/49/26
f 27/19/14 44/49/26 28/18/14
f 38/42/23 44/41/25 37/40/25
f 44/41/25 38/42/23 43/43/23
f 37/40/26 44/41/26 38/42/24
f 43/43/24 38/42/24 44/41/26
f 23/23/12 42/50/12 34/34/12
f 42/50/12 23/23/12 40/51/12
f 40/51/12 23/23/12 21/52/12
f 34/34/13 42/50/13 23/23/13
f 40/51/13 23/23/13 42/50/13
f 21/52/13 23/23/13 40/51/13
f 39/53/13 33/29/13 41/39/13
f 33/29/13 39/53/13 24/24/13
f 24/24/13 39/53/13 22/54/13
f 41/39/12 33/29/12 39/53/12
f 24/24/12 39/53/12 33/29/12
f 22/54/12 39/53/12 24/24/12
f 44/56/13 29/23/13 27/55/13
f 29/23/13 44/56/13 36/34/13
f 36/34/13 44/56/13 43/50/13
f 27/55/12 29/23/12 44/56/12
f 36/34/12 44/56/12 29/23/12
f 43/50/12 44/56/12 36/34/12

