# Created by Kenney (www.kenney.nl)

mtllib cover-corner.mtl

g cover-corner

v -0.7 1 0.7
v -0.7 1.15 0.65
v -0.65 1.15 0.7
v -0.7 2.224389E-14 0.6
v -0.7 0.2 0.7
v -0.6 5.86553E-16 0.7
v -0.5 1.2 0.7
v -0.7 1.2 0.5
v 0.5 1.2 -0.5
v 0.5 1.2 0.7
v -0.7 1.2 -0.5
v 0.6 4.060752E-16 -0.6
v 0.7 0.2 -0.7
v -0.7 2.206342E-14 -0.6
v -0.7 0.2 -0.7
v 0.7 0.2 0.7
v 0.6 4.060752E-16 0.7
v 0.65 1.15 -0.65
v 0.65 1.15 0.7
v -0.7 1.15 -0.65
v 0.5 9.926282E-16 0.7
v 0.5 9.926282E-16 -0.5
v -0.7 2.147686E-14 -0.5
v 0.7 0.4 -0.7
v -0.7 0.4 -0.7
v 0.7 0.4 0.7
v 0.7 1 -0.7
v -0.7 1 -0.7
v 0.7 1 0.7
v -0.5 0 0.7
v -0.5 1.141522E-14 0.5
v -0.7 2.283045E-14 0.5
v 0.5 1 -0.5
v -0.7 1 -0.5
v -0.5 1 0.5
v -0.5 1 0.7
v 0.5 1 0.7
v -0.7 1 0.5

vn -0.6882472 0.2294157 0.6882472
vn -0.4890198 0.7223014 0.4890198
vn 0.4890198 -0.7223014 -0.4890198
vn 0.6882472 -0.2294157 -0.6882472
vn -0.6666667 -0.3333333 0.6666667
vn 0.6666667 0.3333333 -0.6666667
vn -0.3015113 0.904534 0.3015113
vn 0.3015113 -0.904534 -0.3015113
vn 0 1 0
vn 0 -1 0
vn 0.4247964 -0.7994348 -0.4247964
vn 0 -0.1941159 -0.9809786
vn 0 -0.8506508 -0.5257311
vn 0 -0.2297529 -0.973249
vn 0 0.8506508 0.5257311
vn 0 0.1941159 0.9809786
vn -0.4247964 0.7994348 0.4247964
vn 0 0.2297529 0.973249
vn 0.9809786 -0.1941159 0
vn 0.973249 -0.2297529 0
vn 0.5257311 -0.8506508 0
vn -0.973249 0.2297529 0
vn -0.9809786 0.1941159 0
vn -0.5257311 0.8506508 0
vn 0.8310396 0.5562133 0
vn 0.7071068 0.7071068 0
vn 0.3162278 0.9486833 0
vn -0.3162278 -0.9486833 0
vn -0.7071068 -0.7071068 0
vn -0.8310396 -0.5562133 0
vn 0 0.5562133 -0.8310396
vn 0 0.9486833 -0.3162278
vn 0 0.7071068 -0.7071068
vn 0 -0.7071068 0.7071068
vn 0 -0.9486833 0.3162278
vn 0 -0.5562133 0.8310396
vn 0 0 -1
vn 0 0 1
vn 1 0 0
vn -1 0 0
vn 0 0.3162278 -0.9486833
vn 0 -0.3162278 0.9486833
vn 0.9486833 0.3162278 0
vn -0.9486833 -0.3162278 0

vt 3.939959E-12 29.37868
vt -1.391943 35.44602
vt 1.391943 35.44602
vt -2.783885 12.0635
vt 2.104628E-11 20.41516
vt 2.783885 12.0635
vt 5.56777 -10.07247
vt 1.391943 -14.68903
vt -5.56777 -10.07247
vt -1.391943 -14.68903
vt -19.68504 -19.68504
vt -19.68504 27.55906
vt 27.55906 -19.68504
vt 19.68504 27.55906
vt 27.55906 19.68504
vt -23.62205 10.5641
vt -27.55906 19.36752
vt 27.55906 10.5641
vt 27.55906 19.36752
vt 23.62205 10.5641
vt -27.55906 10.5641
vt 25.59055 -9.959929
vt -27.55906 -9.959929
vt 19.68504 -3.734974
vt -27.55906 -3.734974
vt -25.59055 -9.959929
vt -19.68504 -3.734974
vt 27.55906 -9.959929
vt 27.55906 -3.734974
vt 23.62205 27.55906
vt 23.62205 -23.62205
vt 19.68504 -19.68504
vt -27.55906 -23.62205
vt -27.55906 -19.68504
vt -27.55906 7.874016
vt -27.55906 15.74803
vt 27.55906 7.874016
vt 27.55906 15.74803
vt -27.55906 28.6348
vt -25.59055 34.85975
vt 27.55906 28.6348
vt 27.55906 34.85975
vt 25.59055 34.85975
vt -27.55906 34.85975
vt -19.68504 19.68504
vt -23.62205 27.55906
vt -27.55906 19.68504
vt -27.55906 23.62205
vt 19.68504 3.907985E-14
vt -27.55906 8.455459E-13
vt 19.68504 39.37008
vt -27.55906 39.37008
vt -19.68504 39.37008
vt -19.68504 -5.519141E-12
vt -27.55906 -5.968559E-12
vt -19.68504 3.232969E-13
vt 27.55906 3.232969E-13
vt 27.55906 39.37008
vt 19.68504 -3.643308E-12
vt 27.55906 -3.19389E-12
vt 23.62205 -6.789967E-13
vt 19.68504 -6.559041E-13
vt 25.59055 45.27559
vt -25.59055 45.27559
vt -19.68504 47.24409
vt 19.68504 47.24409
vt -23.62205 -6.718913E-13
vt -19.68504 -6.949839E-13
vt -23.62205 -3.644324E-13
vt -19.68504 -3.87525E-13
vt 19.68504 -3.342343E-13
vt 23.62205 -3.573269E-13

usemtl grey-dark

f 3/3/2 2/2/2 1/1/1
f 1/1/4 2/2/3 3/3/3
f 6/6/5 5/5/5 4/4/5
f 4/4/6 5/5/6 6/6/6
f 8/9/7 3/8/2 7/7/7
f 3/8/2 8/9/7 2/10/2
f 7/7/8 3/8/3 8/9/8
f 2/10/3 8/9/8 3/8/3
f 11/13/9 10/12/9 9/11/9
f 10/12/9 11/13/9 7/14/9
f 7/14/9 11/13/9 8/15/9
f 9/11/10 10/12/10 11/13/10
f 7/14/10 11/13/10 10/12/10
f 8/15/10 11/13/10 7/14/10
f 14/18/13 13/17/12 12/16/11
f 13/17/12 14/18/13 15/19/14
f 12/16/17 13/17/16 14/18/15
f 15/19/18 14/18/15 13/17/16
f 16/17/20 12/20/11 13/19/19
f 12/20/11 16/17/20 17/21/21
f 13/19/23 12/20/17 16/17/22
f 17/21/24 16/17/22 12/20/17
f 9/24/27 19/23/26 18/22/25
f 19/23/26 9/24/27 10/25/27
f 18/22/30 19/23/29 9/24/28
f 10/25/28 9/24/28 19/23/29
f 20/28/33 9/27/32 18/26/31
f 9/27/32 20/28/33 11/29/32
f 18/26/36 9/27/35 20/28/34
f 11/29/35 20/28/34 9/27/35
f 21/14/10 12/31/11 17/30/21
f 12/31/11 21/14/10 22/32/10
f 12/31/11 22/32/10 14/33/13
f 14/33/13 22/32/10 23/34/10
f 17/30/24 12/31/17 21/14/9
f 22/32/9 21/14/9 12/31/17
f 14/33/15 22/32/9 12/31/17
f 23/34/9 22/32/9 14/33/15
f 15/37/14 24/36/37 13/35/12
f 24/36/37 15/37/14 25/38/37
f 13/35/16 24/36/38 15/37/18
f 25/38/38 15/37/18 24/36/38
f 26/36/39 13/37/19 24/38/39
f 13/37/19 26/36/39 16/35/20
f 24/38/40 13/37/23 26/36/40
f 16/35/22 26/36/40 13/37/23
f 28/41/41 18/40/31 27/39/41
f 18/40/31 28/41/41 20/42/33
f 27/39/42 18/40/36 28/41/42
f 20/42/34 28/41/42 18/40/36
f 18/43/25 29/39/43 27/41/43
f 29/39/43 18/43/25 19/44/26
f 27/41/44 29/39/44 18/43/30
f 19/44/29 18/43/30 29/39/44
f 6/46/10 31/45/10 30/12/10
f 31/45/10 6/46/10 32/47/10
f 32/47/10 6/46/10 4/48/10
f 30/12/9 31/45/9 6/46/9
f 32/47/9 6/46/9 31/45/9
f 4/48/9 6/46/9 32/47/9

usemtl dark

f 33/51/38 23/50/38 22/49/38
f 23/50/38 33/51/38 34/52/38
f 22/49/37 23/50/37 33/51/37
f 34/52/37 33/51/37 23/50/37
f 36/52/39 31/54/39 35/53/39
f 31/54/39 36/52/39 30/55/39
f 35/53/40 31/54/40 36/52/40
f 30/55/40 36/52/40 31/54/40
f 21/57/40 33/53/40 22/56/40
f 33/53/40 21/57/40 37/58/40
f 22/56/39 33/53/39 21/57/39
f 37/58/39 21/57/39 33/53/39
f 32/60/37 35/51/37 31/59/37
f 35/51/37 32/60/37 38/58/37
f 31/59/38 35/51/38 32/60/38
f 38/58/38 32/60/38 35/51/38
f 36/12/10 33/32/10 37/14/10
f 33/32/10 36/12/10 35/45/10
f 33/32/10 35/45/10 34/34/10
f 34/34/10 35/45/10 38/47/10
f 37/14/9 33/32/9 36/12/9
f 35/45/9 36/12/9 33/32/9
f 34/34/9 35/45/9 33/32/9
f 38/47/9 35/45/9 34/34/9

usemtl grey

f 16/37/38 21/62/38 17/61/38
f 21/62/38 16/37/38 37/51/38
f 37/51/38 16/37/38 26/38/38
f 37/51/38 26/38/38 29/58/38
f 37/51/38 29/58/38 36/53/38
f 36/53/38 29/58/38 19/63/38
f 36/53/38 19/63/38 1/52/38
f 1/52/38 19/63/38 3/64/38
f 3/64/38 19/63/38 7/65/38
f 7/65/38 19/63/38 10/66/38
f 5/35/38 36/53/38 1/52/38
f 6/67/38 36/53/38 5/35/38
f 36/53/38 6/67/38 30/68/38
f 17/61/37 21/62/37 16/37/37
f 37/51/37 16/37/37 21/62/37
f 26/38/37 16/37/37 37/51/37
f 29/58/37 26/38/37 37/51/37
f 36/53/37 29/58/37 37/51/37
f 19/63/37 29/58/37 36/53/37
f 1/52/37 19/63/37 36/53/37
f 1/52/37 36/53/37 5/35/37
f 5/35/37 36/53/37 6/67/37
f 30/68/37 6/67/37 36/53/37
f 3/64/37 19/63/37 1/52/37
f 7/65/37 19/63/37 3/64/37
f 10/66/37 19/63/37 7/65/37
f 15/35/40 28/52/40 25/36/40
f 28/52/40 15/35/40 14/69/40
f 28/52/40 14/69/40 20/64/40
f 20/64/40 14/69/40 11/65/40
f 11/65/40 14/69/40 34/53/40
f 34/53/40 14/69/40 23/70/40
f 11/65/40 34/53/40 38/51/40
f 11/65/40 38/51/40 8/66/40
f 8/66/40 38/51/40 32/71/40
f 8/66/40 32/71/40 4/72/40
f 8/66/40 4/72/40 2/63/40
f 2/63/40 4/72/40 5/37/40
f 2/63/40 5/37/40 1/58/40
f 25/36/39 28/52/39 15/35/39
f 14/69/39 15/35/39 28/52/39
f 20/64/39 14/69/39 28/52/39
f 11/65/39 14/69/39 20/64/39
f 34/53/39 14/69/39 11/65/39
f 23/70/39 14/69/39 34/53/39
f 38/51/39 34/53/39 11/65/39
f 8/66/39 38/51/39 11/65/39
f 32/71/39 38/51/39 8/66/39
f 4/72/39 32/71/39 8/66/39
f 2/63/39 4/72/39 8/66/39
f 5/37/39 4/72/39 2/63/39
f 1/58/39 5/37/39 2/63/39
f 27/58/39 26/36/39 24/38/39
f 26/36/39 27/58/39 29/52/39
f 24/38/40 26/36/40 27/58/40
f 29/52/40 27/58/40 26/36/40
f 28/58/37 24/36/37 25/38/37
f 24/36/37 28/58/37 27/52/37
f 25/38/38 24/36/38 28/58/38
f 27/52/38 28/58/38 24/36/38

