# Created by Kenney (www.kenney.nl)

mtllib cover-stripe-hopper.mtl

g cover-stripe-hopper

v -0.5 1 -0.7
v 0.5 1 -0.7
v -0.5 1.15 -0.65
v 0.5 1.15 -0.65
v 0.5 1.2 -0.5
v -0.5 1.2 -0.5
v 0.5 1 0.7
v -0.5 1 0.7
v 0.5 1.15 0.65
v -0.5 1.15 0.65
v 0.5 1.2 0.5
v -0.5 1.2 0.5
v 0.3 1 -0.3
v -0.3 1 -0.3
v 0.3 1.2 -0.3
v -0.3 1.2 -0.3
v -0.3 1 0.3
v -0.3 1.2 0.3
v 0.3 1 0.3
v 0.3 1.2 0.3
v 0.5 1.6 -0.5
v 0.4 1.4 -0.4
v 0.5 1.6 0.5
v 0.4 1.4 0.4
v -0.4 1.4 -0.4
v -0.5 1.6 -0.5
v -0.4 1.4 0.4
v -0.5 1.6 0.5
v -0.5 1.8 0.5
v 0.5 1.8 0.5
v -0.5 1.8 -0.5
v 0.5 1.8 -0.5
v 0.3 1.8 -0.3
v 0.3 1.8 0.3
v -0.3 1.8 -0.3
v -0.3 1.8 0.3
v 0.4 1.2 -0.4
v 0.4 1.2 0.4
v -0.4 1.2 -0.4
v -0.4 1.2 0.4
v 0.5 0 -0.5
v -0.5 1.173106E-15 -0.5
v 0.5 0.4 -0.5
v -0.5 0.4 -0.5
v 0.5 1 -0.5
v -0.5 1 -0.5
v -0.5 1.804779E-16 0.5
v 0.5 1.353584E-15 0.5
v -0.5 0.4 0.5
v 0.5 0.4 0.5
v -0.5 1 0.5
v 0.5 1 0.5
v -0.5 0.4 -0.7
v 0.5 0.4 -0.7
v 0.5 0.4 0.7
v -0.5 0.4 0.7
v -0.5 5.86553E-16 -0.6
v 0.5 5.86553E-16 -0.6
v -0.5 0.2 -0.7
v 0.5 0.2 -0.7
v 0.5 0.2 0.7
v -0.5 0.2 0.7
v 0.5 7.670309E-16 0.6
v -0.5 7.670309E-16 0.6

vn 0 0.3162278 -0.9486833
vn 0 0.7071068 -0.7071068
vn 0 -0.7071068 0.7071068
vn 0 -0.3162278 0.9486833
vn 0 0.9486833 -0.3162278
vn 0 -0.9486833 0.3162278
vn 0 0.3162278 0.9486833
vn 0 0.7071068 0.7071068
vn 0 0.9486833 0.3162278
vn 0 0 1
vn 0 0 -1
vn 1 0 0
vn -1 0 0
vn 0.9809786 -0.1941159 0
vn 0.8944272 -0.4472136 0
vn -0.9809786 0.1941159 0
vn -0.8944272 0.4472136 0
vn 0 -0.4472136 -0.8944272
vn 0 -0.1941159 -0.9809786
vn 0 0.1941159 0.9809786
vn 0 0.4472136 0.8944272
vn 0 -0.4472136 0.8944272
vn 0 -0.1941159 0.9809786
vn 0 0.4472136 -0.8944272
vn 0 0.1941159 -0.9809786
vn -0.9809786 -0.1941159 0
vn 0.9809786 0.1941159 0
vn -0.8944272 -0.4472136 0
vn 0.8944272 0.4472136 0
vn 0 1 0
vn 0 -1 0
vn 0 -0.7071068 -0.7071068
vn 0 -0.3162278 -0.9486833
vn 0 -0.9486833 -0.3162278
vn 0 -0.8506508 -0.5257311
vn 0 -0.2297529 -0.973249
vn 0 0.2297529 0.973249
vn 0 0.8506508 0.5257311
vn 0 -0.2297529 0.973249
vn 0 0.2297529 -0.973249
vn 0 -0.8506508 0.5257311
vn 0 0.8506508 -0.5257311

vt 19.68504 28.6348
vt -19.68504 28.6348
vt 19.68504 34.85975
vt -19.68504 34.85975
vt -19.68504 -9.959929
vt -19.68504 -3.734974
vt 19.68504 -9.959929
vt 19.68504 -3.734974
vt 11.81102 39.37008
vt -11.81102 39.37008
vt 11.81102 47.24409
vt -11.81102 47.24409
vt 19.68504 65.14529
vt 15.74803 56.34187
vt -19.68504 65.14529
vt -15.74803 56.34187
vt -19.68504 62.99213
vt -19.68504 70.86614
vt 19.68504 62.99213
vt 19.68504 70.86614
vt -19.68504 19.68504
vt -11.81102 -11.81102
vt -19.68504 -19.68504
vt 19.68504 -19.68504
vt -11.81102 11.81102
vt 11.81102 -11.81102
vt 19.68504 19.68504
vt 11.81102 11.81102
vt -15.74803 -15.74803
vt -15.74803 15.74803
vt 15.74803 -15.74803
vt 15.74803 15.74803
vt 19.68504 5.609548E-14
vt -19.68504 1.022808E-13
vt 19.68504 15.74803
vt -19.68504 15.74803
vt 19.68504 39.37008
vt -19.68504 39.37008
vt 19.68504 8.31709E-13
vt -19.68504 8.778943E-13
vt -11.81102 70.86614
vt 11.81102 70.86614
vt -27.55906 15.74803
vt -25.59055 45.27559
vt -27.55906 39.37008
vt -19.68504 47.24409
vt 19.68504 47.24409
vt 25.59055 45.27559
vt 27.55906 15.74803
vt 27.55906 39.37008
vt -15.74803 47.24409
vt -15.74803 55.11811
vt 15.74803 47.24409
vt 15.74803 55.11811
vt 19.68504 10.5641
vt -19.68504 10.5641
vt 19.68504 19.36752
vt -19.68504 19.36752
vt 19.68504 -23.62205
vt -19.68504 -23.62205
vt 19.68504 7.874016
vt -19.68504 7.874016
vt 19.68504 23.62205
vt -19.68504 23.62205
vt 19.68504 8.242296E-13
vt 23.62205 8.473222E-13
vt 27.55906 7.874016
vt -19.68504 -9.367321E-13
vt -23.62205 -9.598248E-13
vt -27.55906 7.874016
vt 23.62205 -1.616485E-13
vt 19.68504 -1.847411E-13
vt -23.62205 5.269859E-14
vt -19.68504 7.579123E-14

usemtl grey-dark

f 3/3/2 2/2/1 1/1/1
f 2/2/1 3/3/2 4/4/2
f 1/1/4 2/2/4 3/3/3
f 4/4/3 3/3/3 2/2/4
f 3/7/2 5/6/5 4/5/2
f 5/6/5 3/7/2 6/8/5
f 4/5/3 5/6/6 3/7/3
f 6/8/6 3/7/3 5/6/6
f 9/3/8 8/2/7 7/1/7
f 8/2/7 9/3/8 10/4/8
f 11/8/9 10/5/8 9/7/8
f 10/5/8 11/8/9 12/6/9
f 15/11/10 14/10/10 13/9/10
f 14/10/10 15/11/10 16/12/10
f 13/9/11 14/10/11 15/11/11
f 16/12/11 15/11/11 14/10/11
f 16/11/12 17/10/12 14/9/12
f 17/10/12 16/11/12 18/12/12
f 14/9/13 17/10/13 16/11/13
f 18/12/13 16/11/13 17/10/13
f 17/9/11 20/12/11 19/10/11
f 20/12/11 17/9/11 18/11/11
f 19/10/10 20/12/10 17/9/10
f 18/11/10 17/9/10 20/12/10
f 19/9/13 15/12/13 13/10/13
f 15/12/13 19/9/13 20/11/13
f 13/10/12 15/12/12 19/9/12
f 20/11/12 19/9/12 15/12/12
f 23/15/14 22/14/15 21/13/14
f 22/14/15 23/15/14 24/16/15
f 21/13/16 22/14/17 23/15/16
f 24/16/17 23/15/16 22/14/17
f 26/13/19 22/16/18 25/14/18
f 22/16/18 26/13/19 21/15/19
f 25/14/21 22/16/21 26/13/20
f 21/15/20 26/13/20 22/16/21
f 24/14/22 28/15/23 27/16/22
f 28/15/23 24/14/22 23/13/23
f 27/16/24 28/15/25 24/14/24
f 23/13/25 24/14/24 28/15/25
f 23/19/23 29/18/10 28/17/23
f 29/18/10 23/19/23 30/20/10
f 28/17/25 29/18/11 23/19/25
f 30/20/11 23/19/25 29/18/11
f 28/19/26 31/18/13 26/17/26
f 31/18/13 28/19/26 29/20/13
f 26/17/27 31/18/12 28/19/27
f 29/20/12 28/19/27 31/18/12
f 25/16/28 28/13/26 26/15/26
f 28/13/26 25/16/28 27/14/28
f 26/15/27 28/13/27 25/16/29
f 27/14/29 25/16/29 28/13/27
f 30/18/12 21/19/14 32/20/12
f 21/19/14 30/18/12 23/17/14
f 32/20/13 21/19/16 30/18/13
f 23/17/16 30/18/13 21/19/16
f 31/20/11 21/17/19 26/19/19
f 21/17/19 31/20/11 32/18/11
f 26/19/20 21/17/20 31/20/10
f 32/18/10 31/20/10 21/17/20
f 32/23/30 33/22/30 30/21/30
f 33/22/30 32/23/30 31/24/30
f 34/25/30 30/21/30 33/22/30
f 33/22/30 31/24/30 35/26/30
f 30/21/30 34/25/30 29/27/30
f 35/26/30 31/24/30 36/28/30
f 29/27/30 34/25/30 36/28/30
f 29/27/30 36/28/30 31/24/30
f 30/21/31 33/22/31 32/23/31
f 31/24/31 32/23/31 33/22/31
f 33/22/31 30/21/31 34/25/31
f 35/26/31 31/24/31 33/22/31
f 29/27/31 34/25/31 30/21/31
f 36/28/31 31/24/31 35/26/31
f 36/28/31 34/25/31 29/27/31
f 31/24/31 36/28/31 29/27/31
f 5/23/30 37/29/30 11/21/30
f 37/29/30 5/23/30 6/24/30
f 38/30/30 11/21/30 37/29/30
f 37/29/30 6/24/30 39/31/30
f 11/21/30 38/30/30 12/27/30
f 39/31/30 6/24/30 40/32/30
f 12/27/30 38/30/30 40/32/30
f 12/27/30 40/32/30 6/24/30
f 11/21/31 37/29/31 5/23/31
f 6/24/31 5/23/31 37/29/31
f 37/29/31 11/21/31 38/30/31
f 39/31/31 6/24/31 37/29/31
f 12/27/31 38/30/31 11/21/31
f 40/32/31 6/24/31 39/31/31
f 40/32/31 38/30/31 12/27/31
f 6/24/31 40/32/31 12/27/31

usemtl dark

f 43/35/10 42/34/10 41/33/10
f 42/34/10 43/35/10 44/36/10
f 44/36/10 43/35/10 45/37/10
f 44/36/10 45/37/10 46/38/10
f 41/33/11 42/34/11 43/35/11
f 44/36/11 43/35/11 42/34/11
f 45/37/11 43/35/11 44/36/11
f 46/38/11 45/37/11 44/36/11
f 49/35/11 48/40/11 47/39/11
f 48/40/11 49/35/11 50/36/11
f 50/36/11 49/35/11 51/37/11
f 50/36/11 51/37/11 52/38/11
f 47/39/10 48/40/10 49/35/10
f 50/36/10 49/35/10 48/40/10
f 51/37/10 49/35/10 50/36/10
f 52/38/10 51/37/10 50/36/10
f 18/11/11 34/41/11 20/12/11
f 34/41/11 18/11/11 36/42/11
f 20/12/10 34/41/10 18/11/10
f 36/42/10 18/11/10 34/41/10
f 36/41/12 16/11/12 35/42/12
f 16/11/12 36/41/12 18/12/12
f 35/42/13 16/11/13 36/41/13
f 18/12/13 36/41/13 16/11/13
f 20/11/13 33/41/13 15/12/13
f 33/41/13 20/11/13 34/42/13
f 15/12/12 33/41/12 20/11/12
f 34/42/12 20/11/12 33/41/12
f 33/42/10 16/12/10 15/11/10
f 16/12/10 33/42/10 35/41/10
f 15/11/11 16/12/11 33/42/11
f 35/41/11 33/42/11 16/12/11
f 52/27/31 19/28/31 45/24/31
f 19/28/31 52/27/31 51/21/31
f 45/24/31 19/28/31 13/26/31
f 19/28/31 51/21/31 17/25/31
f 13/26/31 46/23/31 45/24/31
f 46/23/31 17/25/31 51/21/31
f 46/23/31 13/26/31 14/22/31
f 46/23/31 14/22/31 17/25/31
f 45/24/30 19/28/30 52/27/30
f 51/21/30 52/27/30 19/28/30
f 13/26/30 19/28/30 45/24/30
f 17/25/30 51/21/30 19/28/30
f 45/24/30 46/23/30 13/26/30
f 51/21/30 17/25/30 46/23/30
f 14/22/30 13/26/30 46/23/30
f 17/25/30 14/22/30 46/23/30

usemtl grey

f 7/1/33 8/2/33 9/3/32
f 10/4/32 9/3/32 8/2/33
f 9/7/32 10/5/32 11/8/34
f 12/6/34 11/8/34 10/5/32
f 1/37/11 54/36/11 53/35/11
f 54/36/11 1/37/11 2/38/11
f 53/35/10 54/36/10 1/37/10
f 2/38/10 1/37/10 54/36/10
f 7/37/10 56/36/10 55/35/10
f 56/36/10 7/37/10 8/38/10
f 55/35/11 56/36/11 7/37/11
f 8/38/11 7/37/11 56/36/11
f 52/38/12 55/43/12 50/36/12
f 55/43/12 52/38/12 9/44/12
f 55/43/12 9/44/12 7/45/12
f 52/38/12 11/46/12 9/44/12
f 45/37/12 11/46/12 52/38/12
f 11/46/12 45/37/12 5/47/12
f 45/37/12 4/48/12 5/47/12
f 43/35/12 4/48/12 45/37/12
f 54/49/12 4/48/12 43/35/12
f 4/48/12 54/49/12 2/50/12
f 50/36/13 55/43/13 52/38/13
f 9/44/13 52/38/13 55/43/13
f 7/45/13 9/44/13 55/43/13
f 9/44/13 11/46/13 52/38/13
f 52/38/13 11/46/13 45/37/13
f 5/47/13 45/37/13 11/46/13
f 5/47/13 4/48/13 45/37/13
f 45/37/13 4/48/13 43/35/13
f 43/35/13 4/48/13 54/49/13
f 2/50/13 54/49/13 4/48/13
f 38/53/10 27/52/10 40/51/10
f 27/52/10 38/53/10 24/54/10
f 40/51/11 27/52/11 38/53/11
f 24/54/11 38/53/11 27/52/11
f 40/53/13 25/52/13 39/51/13
f 25/52/13 40/53/13 27/54/13
f 39/51/12 25/52/12 40/53/12
f 27/54/12 40/53/12 25/52/12
f 24/52/12 37/53/12 22/54/12
f 37/53/12 24/52/12 38/51/12
f 22/54/13 37/53/13 24/52/13
f 38/51/13 24/52/13 37/53/13
f 25/54/11 37/51/11 39/53/11
f 37/51/11 25/54/11 22/52/11
f 39/53/10 37/51/10 25/54/10
f 22/52/10 25/54/10 37/51/10
f 44/36/13 1/45/13 53/43/13
f 1/45/13 44/36/13 3/44/13
f 3/44/13 44/36/13 46/38/13
f 46/38/13 6/46/13 3/44/13
f 6/46/13 46/38/13 51/37/13
f 6/46/13 51/37/13 12/47/13
f 51/37/13 56/49/13 12/47/13
f 56/49/13 51/37/13 49/35/13
f 12/47/13 56/49/13 10/48/13
f 10/48/13 56/49/13 8/50/13
f 53/43/12 1/45/12 44/36/12
f 3/44/12 44/36/12 1/45/12
f 46/38/12 44/36/12 3/44/12
f 3/44/12 6/46/12 46/38/12
f 51/37/12 46/38/12 6/46/12
f 12/47/12 51/37/12 6/46/12
f 12/47/12 56/49/12 51/37/12
f 49/35/12 51/37/12 56/49/12
f 10/48/12 56/49/12 12/47/12
f 8/50/12 56/49/12 10/48/12

usemtl striping

f 59/57/36 58/56/35 57/55/35
f 58/56/35 59/57/36 60/58/36
f 57/55/38 58/56/38 59/57/37
f 60/58/37 59/57/37 58/56/38
f 42/23/31 58/59/35 41/24/31
f 58/59/35 42/23/31 57/60/35
f 41/24/30 58/59/38 42/23/30
f 57/60/38 42/23/30 58/59/38
f 53/35/11 60/62/36 59/61/36
f 60/62/36 53/35/11 54/36/11
f 59/61/37 60/62/37 53/35/10
f 54/36/10 53/35/10 60/62/37
f 55/35/10 62/62/39 61/61/39
f 62/62/39 55/35/10 56/36/10
f 61/61/40 62/62/40 55/35/11
f 56/36/11 55/35/11 62/62/40
f 64/64/41 48/27/31 63/63/41
f 48/27/31 64/64/41 47/21/31
f 63/63/42 48/27/30 64/64/42
f 47/21/30 64/64/42 48/27/30
f 61/57/39 64/56/41 63/55/41
f 64/56/41 61/57/39 62/58/39
f 63/55/42 64/56/42 61/57/40
f 62/58/40 61/57/40 64/56/42
f 64/66/13 49/35/13 47/65/13
f 49/35/13 64/66/13 56/49/13
f 56/49/13 64/66/13 62/67/13
f 47/65/12 49/35/12 64/66/12
f 56/49/12 64/66/12 49/35/12
f 62/67/12 64/66/12 56/49/12
f 50/36/12 63/69/12 48/68/12
f 63/69/12 50/36/12 55/43/12
f 63/69/12 55/43/12 61/70/12
f 48/68/13 63/69/13 50/36/13
f 55/43/13 50/36/13 63/69/13
f 61/70/13 55/43/13 63/69/13
f 43/35/12 60/67/12 54/49/12
f 60/67/12 43/35/12 58/71/12
f 58/71/12 43/35/12 41/72/12
f 54/49/13 60/67/13 43/35/13
f 58/71/13 43/35/13 60/67/13
f 41/72/13 43/35/13 58/71/13
f 57/73/13 53/43/13 59/70/13
f 53/43/13 57/73/13 44/36/13
f 44/36/13 57/73/13 42/74/13
f 59/70/12 53/43/12 57/73/12
f 44/36/12 57/73/12 53/43/12
f 42/74/12 57/73/12 44/36/12

