# Created by Kenney (www.kenney.nl)

mtllib cover-stripe-bar.mtl

g cover-stripe-bar

v -0.05 0.5 0.6
v 0.05 0.5 0.6
v -0.05 0.9 0.6
v 0.05 0.9 0.6
v -0.05 0.5 0.65
v -0.05 0.9 0.65
v 0.05 0.5 0.65
v 0.05 0.9 0.65
v -0.05 0.5 -0.65
v -0.05 0.9 -0.65
v -0.05 0.5 -0.6
v -0.05 0.9 -0.6
v -0.4 0.5 0.6
v -0.4 0.5 0.7
v 0.4 0.5 0.7
v 0.4 0.5 0.6
v 0.05 0.5 -0.65
v 0.05 0.9 -0.65
v -0.4 0.5 -0.6
v -0.4 0.5 -0.7
v 0.4 0.5 -0.7
v 0.4 0.5 -0.6
v 0.05 0.5 -0.6
v 0.05 0.9 -0.6
v -0.4 0.9 -0.7
v -0.4 0.9 -0.5
v -0.4 0.4 -0.6
v -0.4 0.4 -0.5
v 0.4 0.4 0.5
v 0.4 0.9 0.5
v 0.4 0.4 0.6
v 0.4 0.9 0.7
v 0.4 0.4 -0.6
v 0.5 1 0.5
v 0.5 1 -0.5
v -0.5 1 0.5
v -0.5 1 -0.5
v 0.4 0.4 -0.5
v 0.4 0.9 -0.5
v 0.4 0.9 -0.7
v -0.4 0.9 0.5
v -0.4 0.4 0.5
v -0.4 0.9 0.7
v -0.4 0.4 0.6
v 0.5 0 -0.5
v -0.5 1.173106E-15 -0.5
v 0.5 0.4 -0.5
v -0.5 0.4 -0.5
v -0.5 1.804779E-16 0.5
v 0.5 1.353584E-15 0.5
v -0.5 0.4 0.5
v 0.5 0.4 0.5
v 0.5 1.15 -0.65
v 0.5 1.2 -0.5
v -0.5 1.15 -0.65
v -0.5 1.2 -0.5
v 0.5 1.15 0.65
v -0.5 1.15 0.65
v 0.5 1.2 0.5
v -0.5 1.2 0.5
v -0.5 1 -0.7
v 0.5 1 -0.7
v 0.5 1 0.7
v -0.5 1 0.7
v 0.5 0.4 -0.7
v 0.5 0.4 0.7
v -0.5 0.4 0.7
v -0.5 0.4 -0.7
v 0.5 0.2 -0.7
v 0.5 5.86553E-16 -0.6
v -0.5 5.86553E-16 -0.6
v -0.5 0.2 -0.7
v 0.5 0.2 0.7
v -0.5 0.2 0.7
v 0.5 7.670309E-16 0.6
v -0.5 7.670309E-16 0.6

vn 0 0 -1
vn 0 0 1
vn -1 0 0
vn 1 0 0
vn 0 0.4472136 -0.8944272
vn 0 1 0
vn 0 0.7071068 -0.7071068
vn 0 -0.7071068 0.7071068
vn 0 -1 0
vn 0 -0.4472136 0.8944272
vn 0 0.7071068 0.7071068
vn 0 0.4472136 0.8944272
vn 0 -0.4472136 -0.8944272
vn 0 -0.7071068 -0.7071068
vn 0 0.9486833 -0.3162278
vn 0 -0.9486833 0.3162278
vn 0 0.9486833 0.3162278
vn 0 -0.9486833 -0.3162278
vn 0 0.3162278 -0.9486833
vn 0 -0.3162278 0.9486833
vn 0 0.3162278 0.9486833
vn 0 -0.3162278 -0.9486833
vn 0 -0.8506508 -0.5257311
vn 0 0.8506508 0.5257311
vn 0 -0.2297529 -0.973249
vn 0 0.2297529 0.973249
vn 0 -0.2297529 0.973249
vn 0 0.2297529 -0.973249
vn 0 -0.8506508 0.5257311
vn 0 0.8506508 -0.5257311

vt 1.968504 19.68504
vt -1.968504 19.68504
vt 1.968504 35.43307
vt -1.968504 35.43307
vt 23.62205 19.68504
vt 23.62205 35.43307
vt 25.59055 19.68504
vt 25.59055 35.43307
vt -23.62205 35.43307
vt -23.62205 19.68504
vt -25.59055 35.43307
vt -25.59055 19.68504
vt 1.968504 23.62205
vt 1.968504 25.59055
vt 15.74803 23.62205
vt 15.74803 27.55906
vt -1.968504 25.59055
vt -15.74803 27.55906
vt -15.74803 23.62205
vt -1.968504 23.62205
vt 15.74803 -23.62205
vt 15.74803 -27.55906
vt 1.968504 -23.62205
vt 1.968504 -25.59055
vt -1.968504 -25.59055
vt -15.74803 -27.55906
vt -15.74803 -23.62205
vt -1.968504 -23.62205
vt 27.55906 35.43307
vt 27.55906 19.68504
vt 19.68504 35.43307
vt 23.62205 15.74803
vt 19.68504 15.74803
vt 15.74803 15.74803
vt -15.74803 15.74803
vt 15.74803 19.68504
vt -15.74803 19.68504
vt 19.68504 19.68504
vt 19.68504 -19.68504
vt -19.68504 19.68504
vt -19.68504 -19.68504
vt -23.62205 15.74803
vt -19.68504 15.74803
vt -19.68504 35.43307
vt -27.55906 35.43307
vt -27.55906 19.68504
vt 19.68504 2.153394E-14
vt -19.68504 6.771921E-14
vt 19.68504 39.37008
vt 15.74803 35.43307
vt -19.68504 39.37008
vt -15.74803 35.43307
vt -15.74803 -19.68504
vt 15.74803 -19.68504
vt 19.68504 2.689561E-13
vt -19.68504 3.151414E-13
vt -19.68504 -9.959929
vt -19.68504 -3.734974
vt 19.68504 -9.959929
vt 19.68504 -3.734974
vt 19.68504 28.6348
vt -19.68504 28.6348
vt 19.68504 34.85975
vt -19.68504 34.85975
vt 27.55906 39.37008
vt 27.55906 15.74803
vt 25.59055 45.27559
vt 19.68504 47.24409
vt -19.68504 47.24409
vt -25.59055 45.27559
vt -27.55906 15.74803
vt -27.55906 39.37008
vt 27.55906 7.874016
vt 23.62205 -1.048051E-13
vt 19.68504 -1.278977E-13
vt 19.68504 -23.62205
vt -19.68504 -23.62205
vt 19.68504 10.5641
vt -19.68504 10.5641
vt 19.68504 19.36752
vt -19.68504 19.36752
vt 19.68504 7.874016
vt -19.68504 7.874016
vt 19.68504 23.62205
vt -19.68504 23.62205
vt 19.68504 -1.539509E-13
vt 23.62205 -1.308583E-13
vt -27.55906 7.874016
vt -23.62205 2.309264E-14
vt -19.68504 4.618528E-14
vt -19.68504 -2.309264E-13
vt -23.62205 -2.54019E-13

usemtl dark

f 3/3/1 2/2/1 1/1/1
f 2/2/1 3/3/1 4/4/1
f 1/1/2 2/2/2 3/3/2
f 4/4/2 3/3/2 2/2/2
f 5/7/3 3/6/3 1/5/3
f 3/6/3 5/7/3 6/8/3
f 1/5/4 3/6/4 5/7/4
f 6/8/4 5/7/4 3/6/4
f 8/3/2 5/2/2 7/1/2
f 5/2/2 8/3/2 6/4/2
f 7/1/1 5/2/1 8/3/1
f 6/4/1 8/3/1 5/2/1
f 8/11/4 2/10/4 4/9/4
f 2/10/4 8/11/4 7/12/4
f 4/9/3 2/10/3 8/11/3
f 7/12/3 8/11/3 2/10/3
f 11/10/3 10/11/3 9/12/3
f 10/11/3 11/10/3 12/9/3
f 9/12/4 10/11/4 11/10/4
f 12/9/4 11/10/4 10/11/4
f 13/15/7 5/14/6 1/13/5
f 5/14/6 13/15/7 14/16/6
f 14/16/6 7/17/6 5/14/6
f 15/18/6 7/17/6 14/16/6
f 7/17/6 15/18/6 16/19/7
f 7/17/6 16/19/7 2/20/5
f 1/13/10 5/14/9 13/15/8
f 14/16/9 13/15/8 5/14/9
f 5/14/9 7/17/9 14/16/9
f 14/16/9 7/17/9 15/18/9
f 16/19/8 15/18/9 7/17/9
f 2/20/10 16/19/8 7/17/9
f 10/3/1 17/2/1 9/1/1
f 17/2/1 10/3/1 18/4/1
f 9/1/2 17/2/2 10/3/2
f 18/4/2 10/3/2 17/2/2
f 11/23/12 20/22/6 19/21/11
f 9/24/6 20/22/6 11/23/12
f 17/25/6 20/22/6 9/24/6
f 17/25/6 21/26/6 20/22/6
f 21/26/6 17/25/6 22/27/6
f 23/28/6 22/27/6 17/25/6
f 19/21/14 20/22/9 11/23/13
f 11/23/13 20/22/9 9/24/9
f 9/24/9 20/22/9 17/25/9
f 20/22/9 21/26/9 17/25/9
f 22/27/9 17/25/9 21/26/9
f 17/25/9 22/27/9 23/28/9
f 24/6/4 17/7/4 18/8/4
f 17/7/4 24/6/4 23/5/4
f 18/8/3 17/7/3 24/6/3
f 23/5/3 24/6/3 17/7/3
f 26/31/4 20/30/4 25/29/4
f 20/30/4 26/31/4 19/5/4
f 19/5/4 26/31/4 27/32/4
f 27/32/4 26/31/4 28/33/4
f 25/29/3 20/30/3 26/31/3
f 19/5/3 26/31/3 20/30/3
f 27/32/3 26/31/3 19/5/3
f 28/33/3 26/31/3 27/32/3
f 31/32/3 30/31/3 29/33/3
f 30/31/3 31/32/3 16/5/3
f 30/31/3 16/5/3 32/29/3
f 32/29/3 16/5/3 15/30/3
f 29/33/4 30/31/4 31/32/4
f 16/5/4 31/32/4 30/31/4
f 32/29/4 16/5/4 30/31/4
f 15/30/4 16/5/4 32/29/4
f 22/36/2 27/35/2 33/34/2
f 27/35/2 22/36/2 19/37/11
f 19/37/11 22/36/2 23/1/2
f 19/37/11 23/1/2 11/2/12
f 33/34/1 27/35/1 22/36/1
f 19/37/14 22/36/1 27/35/1
f 23/1/1 22/36/1 19/37/14
f 11/2/13 23/1/1 19/37/14
f 36/40/9 35/39/9 34/38/9
f 35/39/9 36/40/9 37/41/9
f 34/38/6 35/39/6 36/40/6
f 37/41/6 36/40/6 35/39/6
f 38/43/3 22/10/3 33/42/3
f 39/44/3 22/10/3 38/43/3
f 40/45/3 22/10/3 39/44/3
f 22/10/3 40/45/3 21/46/3
f 33/42/4 22/10/4 38/43/4
f 38/43/4 22/10/4 39/44/4
f 39/44/4 22/10/4 40/45/4
f 21/46/4 40/45/4 22/10/4
f 43/45/4 42/43/4 41/44/4
f 42/43/4 43/45/4 13/10/4
f 13/10/4 43/45/4 14/46/4
f 44/42/4 42/43/4 13/10/4
f 41/44/3 42/43/3 43/45/3
f 13/10/3 43/45/3 42/43/3
f 13/10/3 42/43/3 44/42/3
f 14/46/3 43/45/3 13/10/3
f 47/33/2 46/48/2 45/47/2
f 46/48/2 47/33/2 48/43/2
f 48/43/2 47/33/2 38/34/2
f 38/34/2 47/33/2 35/49/2
f 28/35/2 48/43/2 38/34/2
f 38/34/2 35/49/2 39/50/2
f 48/43/2 28/35/2 37/51/2
f 39/50/2 35/49/2 26/52/2
f 37/51/2 28/35/2 26/52/2
f 37/51/2 26/52/2 35/49/2
f 45/47/1 46/48/1 47/33/1
f 48/43/1 47/33/1 46/48/1
f 38/34/1 47/33/1 48/43/1
f 35/49/1 47/33/1 38/34/1
f 38/34/1 48/43/1 28/35/1
f 39/50/1 35/49/1 38/34/1
f 37/51/1 28/35/1 48/43/1
f 26/52/1 35/49/1 39/50/1
f 26/52/1 28/35/1 37/51/1
f 35/49/1 26/52/1 37/51/1
f 27/21/6 38/53/6 33/27/6
f 38/53/6 27/21/6 28/54/6
f 33/27/9 38/53/9 27/21/9
f 28/54/9 27/21/9 38/53/9
f 29/37/6 44/15/6 31/19/6
f 44/15/6 29/37/6 42/36/6
f 31/19/9 44/15/9 29/37/9
f 42/36/9 29/37/9 44/15/9
f 24/3/2 11/2/2 23/1/2
f 11/2/2 24/3/2 12/4/2
f 23/1/1 11/2/1 24/3/1
f 12/4/1 24/3/1 11/2/1
f 13/36/7 31/35/1 44/34/1
f 31/35/1 13/36/7 16/37/7
f 16/37/7 13/36/7 1/1/5
f 16/37/7 1/1/5 2/2/5
f 44/34/2 31/35/2 13/36/8
f 16/37/8 13/36/8 31/35/2
f 1/1/10 13/36/8 16/37/8
f 2/2/10 1/1/10 16/37/8
f 51/33/1 50/56/1 49/55/1
f 50/56/1 51/33/1 52/43/1
f 52/43/1 51/33/1 42/34/1
f 42/34/1 51/33/1 36/49/1
f 29/35/1 52/43/1 42/34/1
f 42/34/1 36/49/1 41/50/1
f 52/43/1 29/35/1 34/51/1
f 41/50/1 36/49/1 30/52/1
f 34/51/1 29/35/1 30/52/1
f 34/51/1 30/52/1 36/49/1
f 49/55/2 50/56/2 51/33/2
f 52/43/2 51/33/2 50/56/2
f 42/34/2 51/33/2 52/43/2
f 36/49/2 51/33/2 42/34/2
f 42/34/2 52/43/2 29/35/2
f 41/50/2 36/49/2 42/34/2
f 34/51/2 29/35/2 52/43/2
f 30/52/2 36/49/2 41/50/2
f 30/52/2 29/35/2 34/51/2
f 36/49/2 30/52/2 34/51/2
f 39/54/9 24/23/9 40/22/9
f 24/23/9 39/54/9 26/53/9
f 18/24/9 40/22/9 24/23/9
f 24/23/9 26/53/9 12/28/9
f 40/22/9 18/24/9 25/26/9
f 12/28/9 26/53/9 10/25/9
f 25/26/9 18/24/9 10/25/9
f 25/26/9 10/25/9 26/53/9
f 40/22/6 24/23/6 39/54/6
f 26/53/6 39/54/6 24/23/6
f 24/23/6 40/22/6 18/24/6
f 12/28/6 26/53/6 24/23/6
f 25/26/6 18/24/6 40/22/6
f 10/25/6 26/53/6 12/28/6
f 10/25/6 18/24/6 25/26/6
f 26/53/6 10/25/6 25/26/6
f 32/16/9 8/14/9 30/36/9
f 8/14/9 32/16/9 43/18/9
f 4/13/9 30/36/9 8/14/9
f 8/14/9 43/18/9 6/17/9
f 30/36/9 4/13/9 41/37/9
f 6/17/9 43/18/9 3/20/9
f 41/37/9 4/13/9 3/20/9
f 41/37/9 3/20/9 43/18/9
f 30/36/6 8/14/6 32/16/6
f 43/18/6 32/16/6 8/14/6
f 8/14/6 30/36/6 4/13/6
f 6/17/6 43/18/6 8/14/6
f 41/37/6 4/13/6 30/36/6
f 3/20/6 43/18/6 6/17/6
f 3/20/6 4/13/6 41/37/6
f 43/18/6 3/20/6 41/37/6

usemtl grey-dark

f 55/59/7 54/58/15 53/57/7
f 54/58/15 55/59/7 56/60/15
f 53/57/8 54/58/16 55/59/8
f 56/60/16 55/59/8 54/58/16
f 59/60/17 58/57/11 57/59/11
f 58/57/11 59/60/17 60/58/17
f 57/59/14 58/57/14 59/60/18
f 60/58/18 59/60/18 58/57/14
f 55/63/7 62/62/19 61/61/19
f 62/62/19 55/63/7 53/64/7
f 61/61/20 62/62/20 55/63/8
f 53/64/8 55/63/8 62/62/20
f 57/63/11 64/62/21 63/61/21
f 64/62/21 57/63/11 58/64/11
f 63/61/22 64/62/22 57/63/14
f 58/64/14 57/63/14 64/62/22
f 54/41/6 60/38/6 59/40/6
f 60/38/6 54/41/6 56/39/6
f 59/40/9 60/38/9 54/41/9
f 56/39/9 54/41/9 60/38/9

usemtl grey

f 53/67/4 65/66/4 62/65/4
f 65/66/4 53/67/4 47/33/4
f 47/33/4 53/67/4 54/68/4
f 47/33/4 54/68/4 35/49/4
f 59/69/4 35/49/4 54/68/4
f 35/49/4 59/69/4 34/51/4
f 34/51/4 59/69/4 57/70/4
f 66/71/4 34/51/4 57/70/4
f 66/71/4 57/70/4 63/72/4
f 34/51/4 66/71/4 52/43/4
f 62/65/3 65/66/3 53/67/3
f 47/33/3 53/67/3 65/66/3
f 54/68/3 53/67/3 47/33/3
f 35/49/3 54/68/3 47/33/3
f 54/68/3 35/49/3 59/69/3
f 34/51/3 59/69/3 35/49/3
f 57/70/3 59/69/3 34/51/3
f 57/70/3 34/51/3 66/71/3
f 52/43/3 66/71/3 34/51/3
f 63/72/3 57/70/3 66/71/3
f 67/66/3 36/49/3 51/33/3
f 36/49/3 67/66/3 60/68/3
f 60/68/3 67/66/3 58/67/3
f 58/67/3 67/66/3 64/65/3
f 56/69/3 36/49/3 60/68/3
f 56/69/3 37/51/3 36/49/3
f 56/69/3 48/43/3 37/51/3
f 55/70/3 48/43/3 56/69/3
f 61/72/3 48/43/3 55/70/3
f 48/43/3 61/72/3 68/71/3
f 51/33/4 36/49/4 67/66/4
f 60/68/4 67/66/4 36/49/4
f 58/67/4 67/66/4 60/68/4
f 64/65/4 67/66/4 58/67/4
f 60/68/4 36/49/4 56/69/4
f 36/49/4 37/51/4 56/69/4
f 37/51/4 48/43/4 56/69/4
f 56/69/4 48/43/4 55/70/4
f 55/70/4 48/43/4 61/72/4
f 68/71/4 61/72/4 48/43/4
f 66/33/2 15/36/2 67/43/2
f 15/36/2 66/33/2 63/49/2
f 14/37/2 67/43/2 15/36/2
f 15/36/2 63/49/2 32/50/2
f 67/43/2 14/37/2 64/51/2
f 32/50/2 63/49/2 43/52/2
f 64/51/2 14/37/2 43/52/2
f 64/51/2 43/52/2 63/49/2
f 68/33/1 20/36/1 65/43/1
f 20/36/1 68/33/1 61/49/1
f 21/37/1 65/43/1 20/36/1
f 20/36/1 61/49/1 25/50/1
f 65/43/1 21/37/1 62/51/1
f 25/50/1 61/49/1 40/52/1
f 62/51/1 21/37/1 40/52/1
f 62/51/1 40/52/1 61/49/1
f 67/43/1 15/36/1 66/33/1
f 63/49/1 66/33/1 15/36/1
f 15/36/1 67/43/1 14/37/1
f 32/50/1 63/49/1 15/36/1
f 64/51/1 14/37/1 67/43/1
f 43/52/1 63/49/1 32/50/1
f 43/52/1 14/37/1 64/51/1
f 63/49/1 43/52/1 64/51/1
f 65/43/2 20/36/2 68/33/2
f 61/49/2 68/33/2 20/36/2
f 20/36/2 65/43/2 21/37/2
f 25/50/2 61/49/2 20/36/2
f 62/51/2 21/37/2 65/43/2
f 40/52/2 61/49/2 25/50/2
f 40/52/2 21/37/2 62/51/2
f 61/49/2 40/52/2 62/51/2

usemtl striping

f 47/33/4 69/73/4 65/66/4
f 69/73/4 47/33/4 70/74/4
f 70/74/4 47/33/4 45/75/4
f 65/66/3 69/73/3 47/33/3
f 70/74/3 47/33/3 69/73/3
f 45/75/3 47/33/3 70/74/3
f 46/41/9 70/76/23 45/39/9
f 70/76/23 46/41/9 71/77/23
f 45/39/6 70/76/24 46/41/6
f 71/77/24 46/41/6 70/76/24
f 72/80/25 70/79/23 71/78/23
f 70/79/23 72/80/25 69/81/25
f 71/78/24 70/79/24 72/80/26
f 69/81/26 72/80/26 70/79/24
f 68/33/1 69/83/25 72/82/25
f 69/83/25 68/33/1 65/43/1
f 72/82/26 69/83/26 68/33/2
f 65/43/2 68/33/2 69/83/26
f 66/33/2 74/83/27 73/82/27
f 74/83/27 66/33/2 67/43/2
f 73/82/28 74/83/28 66/33/1
f 67/43/1 66/33/1 74/83/28
f 73/80/27 76/79/29 75/78/29
f 76/79/29 73/80/27 74/81/27
f 75/78/30 76/79/30 73/80/28
f 74/81/28 73/80/28 76/79/30
f 76/85/29 50/38/9 75/84/29
f 50/38/9 76/85/29 49/40/9
f 75/84/30 50/38/6 76/85/30
f 49/40/6 76/85/30 50/38/6
f 76/87/3 51/33/3 49/86/3
f 51/33/3 76/87/3 67/66/3
f 67/66/3 76/87/3 74/73/3
f 49/86/4 51/33/4 76/87/4
f 67/66/4 76/87/4 51/33/4
f 74/73/4 76/87/4 67/66/4
f 71/89/3 68/71/3 72/88/3
f 68/71/3 71/89/3 48/43/3
f 48/43/3 71/89/3 46/90/3
f 72/88/4 68/71/4 71/89/4
f 48/43/4 71/89/4 68/71/4
f 46/90/4 71/89/4 48/43/4
f 52/43/4 75/92/4 50/91/4
f 75/92/4 52/43/4 66/71/4
f 75/92/4 66/71/4 73/88/4
f 50/91/3 75/92/3 52/43/3
f 66/71/3 52/43/3 75/92/3
f 73/88/3 66/71/3 75/92/3

