# Created by Kenney (www.kenney.nl)

mtllib cover-stripe.mtl

g cover-stripe

v -0.5 1 -0.7
v 0.5 1 -0.7
v -0.5 1.15 -0.65
v 0.5 1.15 -0.65
v 0.5 1.2 -0.5
v -0.5 1.2 -0.5
v 0.5 1 0.7
v -0.5 1 0.7
v 0.5 1.15 0.65
v -0.5 1.15 0.65
v 0.5 1.2 0.5
v -0.5 1.2 0.5
v 0.5 1 0.5
v 0.5 1 -0.5
v -0.5 1 0.5
v -0.5 1 -0.5
v 0.5 0 -0.5
v -0.5 1.173106E-15 -0.5
v 0.5 0.4 -0.5
v -0.5 0.4 -0.5
v -0.5 1.804779E-16 0.5
v 0.5 1.353584E-15 0.5
v -0.5 0.4 0.5
v 0.5 0.4 0.5
v -0.5 0.4 -0.7
v 0.5 0.4 -0.7
v 0.5 0.4 0.7
v -0.5 0.4 0.7
v 0.5 7.670309E-16 0.6
v 0.5 0.2 0.7
v -0.5 5.86553E-16 -0.6
v 0.5 5.86553E-16 -0.6
v -0.5 0.2 -0.7
v 0.5 0.2 -0.7
v -0.5 0.2 0.7
v -0.5 7.670309E-16 0.6

vn 0 0.3162278 -0.9486833
vn 0 0.7071068 -0.7071068
vn 0 -0.7071068 0.7071068
vn 0 -0.3162278 0.9486833
vn 0 0.9486833 -0.3162278
vn 0 -0.9486833 0.3162278
vn 0 0.3162278 0.9486833
vn 0 0.7071068 0.7071068
vn 0 0.9486833 0.3162278
vn 0 1 0
vn 0 -1 0
vn 0 0 1
vn 0 0 -1
vn 0 -0.7071068 -0.7071068
vn 0 -0.3162278 -0.9486833
vn 0 -0.9486833 -0.3162278
vn -1 0 0
vn 1 0 0
vn 0 -0.8506508 -0.5257311
vn 0 -0.2297529 -0.973249
vn 0 0.2297529 0.973249
vn 0 0.8506508 0.5257311
vn 0 -0.2297529 0.973249
vn 0 0.2297529 -0.973249
vn 0 -0.8506508 0.5257311
vn 0 0.8506508 -0.5257311

vt 19.68504 28.6348
vt -19.68504 28.6348
vt 19.68504 34.85975
vt -19.68504 34.85975
vt -19.68504 -9.959929
vt -19.68504 -3.734974
vt 19.68504 -9.959929
vt 19.68504 -3.734974
vt -19.68504 -19.68504
vt -19.68504 19.68504
vt 19.68504 -19.68504
vt 19.68504 19.68504
vt 19.68504 5.609548E-14
vt -19.68504 1.022808E-13
vt 19.68504 15.74803
vt -19.68504 15.74803
vt -19.68504 39.37008
vt 19.68504 39.37008
vt 19.68504 8.31709E-13
vt -19.68504 8.778943E-13
vt -27.55906 15.74803
vt -27.55906 39.37008
vt -25.59055 45.27559
vt -19.68504 47.24409
vt 19.68504 47.24409
vt 27.55906 15.74803
vt 25.59055 45.27559
vt 27.55906 39.37008
vt -19.68504 -9.391007E-13
vt -23.62205 -9.621933E-13
vt -27.55906 7.874016
vt 19.68504 10.5641
vt -19.68504 10.5641
vt 19.68504 19.36752
vt -19.68504 19.36752
vt 19.68504 -23.62205
vt -19.68504 -23.62205
vt 19.68504 7.874016
vt -19.68504 7.874016
vt 19.68504 23.62205
vt -19.68504 23.62205
vt 19.68504 8.360719E-13
vt 23.62205 8.591646E-13
vt 27.55906 7.874016
vt -23.62205 4.67774E-14
vt -19.68504 6.987003E-14
vt 23.62205 -1.569115E-13
vt 19.68504 -1.800042E-13

usemtl grey-dark

f 3/3/2 2/2/1 1/1/1
f 2/2/1 3/3/2 4/4/2
f 1/1/4 2/2/4 3/3/3
f 4/4/3 3/3/3 2/2/4
f 3/7/2 5/6/5 4/5/2
f 5/6/5 3/7/2 6/8/5
f 4/5/3 5/6/6 3/7/3
f 6/8/6 3/7/3 5/6/6
f 9/3/8 8/2/7 7/1/7
f 8/2/7 9/3/8 10/4/8
f 11/8/9 10/5/8 9/7/8
f 10/5/8 11/8/9 12/6/9
f 6/11/10 11/10/10 5/9/10
f 11/10/10 6/11/10 12/12/10
f 5/9/11 11/10/11 6/11/11
f 12/12/11 6/11/11 11/10/11

usemtl dark

f 15/10/11 14/11/11 13/12/11
f 14/11/11 15/10/11 16/9/11
f 13/12/10 14/11/10 15/10/10
f 16/9/10 15/10/10 14/11/10
f 19/15/12 18/14/12 17/13/12
f 18/14/12 19/15/12 20/16/12
f 20/16/12 19/15/12 16/17/12
f 16/17/12 19/15/12 14/18/12
f 17/13/13 18/14/13 19/15/13
f 20/16/13 19/15/13 18/14/13
f 16/17/13 19/15/13 20/16/13
f 14/18/13 19/15/13 16/17/13
f 23/15/13 22/20/13 21/19/13
f 22/20/13 23/15/13 24/16/13
f 24/16/13 23/15/13 15/18/13
f 24/16/13 15/18/13 13/17/13
f 21/19/12 22/20/12 23/15/12
f 24/16/12 23/15/12 22/20/12
f 15/18/12 23/15/12 24/16/12
f 13/17/12 15/18/12 24/16/12

usemtl grey

f 7/1/15 8/2/15 9/3/14
f 10/4/14 9/3/14 8/2/15
f 9/7/14 10/5/14 11/8/16
f 12/6/16 11/8/16 10/5/14
f 1/18/13 26/16/13 25/15/13
f 26/16/13 1/18/13 2/17/13
f 25/15/12 26/16/12 1/18/12
f 2/17/12 1/18/12 26/16/12
f 7/18/12 28/16/12 27/15/12
f 28/16/12 7/18/12 8/17/12
f 27/15/13 28/16/13 7/18/13
f 8/17/13 7/18/13 28/16/13
f 20/16/17 1/22/17 25/21/17
f 1/22/17 20/16/17 3/23/17
f 3/23/17 20/16/17 16/17/17
f 16/17/17 6/24/17 3/23/17
f 6/24/17 16/17/17 15/18/17
f 6/24/17 15/18/17 12/25/17
f 15/18/17 28/26/17 12/25/17
f 28/26/17 15/18/17 23/15/17
f 12/25/17 28/26/17 10/27/17
f 10/27/17 28/26/17 8/28/17
f 25/21/18 1/22/18 20/16/18
f 3/23/18 20/16/18 1/22/18
f 16/17/18 20/16/18 3/23/18
f 3/23/18 6/24/18 16/17/18
f 15/18/18 16/17/18 6/24/18
f 12/25/18 15/18/18 6/24/18
f 12/25/18 28/26/18 15/18/18
f 23/15/18 15/18/18 28/26/18
f 10/27/18 28/26/18 12/25/18
f 8/28/18 28/26/18 10/27/18
f 13/17/18 27/21/18 24/16/18
f 27/21/18 13/17/18 9/23/18
f 27/21/18 9/23/18 7/22/18
f 13/17/18 11/24/18 9/23/18
f 14/18/18 11/24/18 13/17/18
f 11/24/18 14/18/18 5/25/18
f 14/18/18 4/27/18 5/25/18
f 19/15/18 4/27/18 14/18/18
f 26/26/18 4/27/18 19/15/18
f 4/27/18 26/26/18 2/28/18
f 24/16/17 27/21/17 13/17/17
f 9/23/17 13/17/17 27/21/17
f 7/22/17 9/23/17 27/21/17
f 9/23/17 11/24/17 13/17/17
f 13/17/17 11/24/17 14/18/17
f 5/25/17 14/18/17 11/24/17
f 5/25/17 4/27/17 14/18/17
f 14/18/17 4/27/17 19/15/17
f 19/15/17 4/27/17 26/26/17
f 2/28/17 26/26/17 4/27/17

usemtl striping

f 24/16/18 29/30/18 22/29/18
f 29/30/18 24/16/18 27/21/18
f 29/30/18 27/21/18 30/31/18
f 22/29/17 29/30/17 24/16/17
f 27/21/17 24/16/17 29/30/17
f 30/31/17 27/21/17 29/30/17
f 33/34/20 32/33/19 31/32/19
f 32/33/19 33/34/20 34/35/20
f 31/32/22 32/33/22 33/34/21
f 34/35/21 33/34/21 32/33/22
f 18/9/11 32/36/19 17/11/11
f 32/36/19 18/9/11 31/37/19
f 17/11/10 32/36/22 18/9/10
f 31/37/22 18/9/10 32/36/22
f 25/15/13 34/39/20 33/38/20
f 34/39/20 25/15/13 26/16/13
f 33/38/21 34/39/21 25/15/12
f 26/16/12 25/15/12 34/39/21
f 27/15/12 35/39/23 30/38/23
f 35/39/23 27/15/12 28/16/12
f 30/38/24 35/39/24 27/15/13
f 28/16/13 27/15/13 35/39/24
f 36/41/25 22/12/11 29/40/25
f 22/12/11 36/41/25 21/10/11
f 29/40/26 22/12/10 36/41/26
f 21/10/10 36/41/26 22/12/10
f 30/34/23 36/33/25 29/32/25
f 36/33/25 30/34/23 35/35/23
f 29/32/26 36/33/26 30/34/24
f 35/35/24 30/34/24 36/33/26
f 36/43/17 23/15/17 21/42/17
f 23/15/17 36/43/17 28/26/17
f 28/26/17 36/43/17 35/44/17
f 21/42/18 23/15/18 36/43/18
f 28/26/18 36/43/18 23/15/18
f 35/44/18 36/43/18 28/26/18
f 31/45/17 25/21/17 33/31/17
f 25/21/17 31/45/17 20/16/17
f 20/16/17 31/45/17 18/46/17
f 33/31/18 25/21/18 31/45/18
f 20/16/18 31/45/18 25/21/18
f 18/46/18 31/45/18 20/16/18
f 19/15/18 34/44/18 26/26/18
f 34/44/18 19/15/18 32/47/18
f 32/47/18 19/15/18 17/48/18
f 26/26/17 34/44/17 19/15/17
f 32/47/17 19/15/17 34/44/17
f 17/48/17 19/15/17 32/47/17

