# Created by Kenney (www.kenney.nl)

mtllib cover-window.mtl

g cover-window

v 0.5 1 0.5
v 0.5 1 -0.5
v -0.5 1 0.5
v -0.5 1 -0.5
v 0.4 0.9 -0.5
v 0.4 0.9 -0.7
v -0.4 0.9 -0.5
v -0.4 0.9 -0.7
v 0.4 0.4 -0.6
v -0.4 0.4 -0.6
v 0.4 0.5 -0.6
v -0.4 0.5 -0.6
v 0.4 0.4 0.5
v 0.4 0.9 0.5
v 0.4 0.4 0.6
v 0.4 0.5 0.6
v 0.4 0.9 0.7
v 0.4 0.5 0.7
v -0.4 0.9 0.7
v -0.4 0.9 0.5
v 0.4 0.4 -0.5
v 0.4 0.5 -0.7
v -0.4 0.5 -0.7
v -0.4 0.4 -0.5
v -0.4 0.4 0.5
v -0.4 0.5 0.6
v -0.4 0.5 0.7
v -0.4 0.4 0.6
v -0.5 1.173106E-15 -0.5
v 0.5 0 -0.5
v 0.5 1.443823E-15 0.5
v -0.5 2.707168E-16 0.5
v 0.5 1.15 0.65
v -0.5 1.15 0.65
v 0.5 1.2 0.5
v -0.5 1.2 0.5
v -0.5 1 -0.7
v 0.5 1 -0.7
v -0.5 1.15 -0.65
v 0.5 1.15 -0.65
v 0.5 1 0.7
v -0.5 1 0.7
v 0.5 1.2 -0.5
v -0.5 1.2 -0.5
v -0.5 0.2 -0.7
v 0.5 0.2 -0.7
v -0.5 0.4 -0.7
v 0.5 0.4 -0.7
v 0.5 5.86553E-16 -0.6
v -0.5 5.86553E-16 -0.6
v 0.5 0.2 0.7
v -0.5 0.2 0.7
v 0.5 0.4 0.7
v -0.5 0.4 0.7
v 0.5 8.572698E-16 0.6
v -0.5 8.572698E-16 0.6

vn 0 -1 0
vn 0 1 0
vn 0 0 1
vn 0 0.7071068 0.7071068
vn 0 -0.7071068 -0.7071068
vn 0 0 -1
vn -1 0 0
vn 1 0 0
vn 0 0.7071068 -0.7071068
vn 0 -0.7071068 0.7071068
vn 0 0.9486833 0.3162278
vn 0 -0.9486833 -0.3162278
vn 0 0.3162278 -0.9486833
vn 0 -0.3162278 0.9486833
vn 0 0.3162278 0.9486833
vn 0 -0.3162278 -0.9486833
vn 0 -0.2297529 -0.973249
vn 0 0.2297529 0.973249
vn 0 -0.8506508 -0.5257311
vn 0 0.8506508 0.5257311
vn 0 -0.2297529 0.973249
vn 0 0.2297529 -0.973249
vn 0 -0.8506508 0.5257311
vn 0 0.8506508 -0.5257311
vn 0 0.9486833 -0.3162278
vn 0 -0.9486833 0.3162278

vt 19.68504 19.68504
vt 19.68504 -19.68504
vt -19.68504 19.68504
vt -19.68504 -19.68504
vt 15.74803 -19.68504
vt 15.74803 -27.55906
vt -15.74803 -19.68504
vt -15.74803 -27.55906
vt 15.74803 15.74803
vt -15.74803 15.74803
vt 15.74803 19.68504
vt -15.74803 19.68504
vt 19.68504 15.74803
vt 19.68504 35.43307
vt 23.62205 15.74803
vt 23.62205 19.68504
vt 27.55906 35.43307
vt 27.55906 19.68504
vt 15.74803 27.55906
vt -15.74803 27.55906
vt -23.62205 15.74803
vt -23.62205 19.68504
vt -19.68504 15.74803
vt -19.68504 35.43307
vt -27.55906 35.43307
vt -27.55906 19.68504
vt -15.74803 23.62205
vt 15.74803 23.62205
vt -15.74803 -23.62205
vt 15.74803 -23.62205
vt -19.68504 6.771921E-14
vt 19.68504 2.153394E-14
vt 19.68504 39.37008
vt 15.74803 35.43307
vt -19.68504 39.37008
vt -15.74803 35.43307
vt -19.68504 3.33422E-13
vt 19.68504 2.872367E-13
vt 19.68504 -9.959929
vt -19.68504 -9.959929
vt 19.68504 -3.734974
vt -19.68504 -3.734974
vt 19.68504 28.6348
vt -19.68504 28.6348
vt 19.68504 34.85975
vt -19.68504 34.85975
vt 19.68504 7.874016
vt -19.68504 7.874016
vt 19.68504 -23.62205
vt -19.68504 -23.62205
vt 19.68504 10.5641
vt -19.68504 10.5641
vt 19.68504 19.36752
vt -19.68504 19.36752
vt 19.68504 23.62205
vt -19.68504 23.62205
vt -23.62205 9.353311E-15
vt -19.68504 3.244595E-14
vt -19.68504 47.24409
vt -25.59055 45.27559
vt -27.55906 7.874016
vt -27.55906 39.37008
vt -27.55906 15.74803
vt 19.68504 47.24409
vt 23.62205 2.001145E-14
vt 19.68504 -3.081187E-15
vt 25.59055 45.27559
vt 27.55906 7.874016
vt 27.55906 39.37008
vt 27.55906 15.74803
vt 23.62205 -2.223088E-14
vt 19.68504 -4.532352E-14
vt -23.62205 -1.157274E-14
vt -19.68504 1.15199E-14

usemtl dark

f 3/3/1 2/2/1 1/1/1
f 2/2/1 3/3/1 4/4/1
f 1/1/2 2/2/2 3/3/2
f 4/4/2 3/3/2 2/2/2
f 7/7/1 6/6/1 5/5/1
f 6/6/1 7/7/1 8/8/1
f 5/5/2 6/6/2 7/7/2
f 8/8/2 7/7/2 6/6/2
f 11/11/4 10/10/3 9/9/3
f 10/10/3 11/11/4 12/12/4
f 9/9/6 10/10/6 11/11/5
f 12/12/5 11/11/5 10/10/6
f 15/15/7 14/14/7 13/13/7
f 14/14/7 15/15/7 16/16/7
f 14/14/7 16/16/7 17/17/7
f 17/17/7 16/16/7 18/18/7
f 13/13/8 14/14/8 15/15/8
f 16/16/8 15/15/8 14/14/8
f 17/17/8 16/16/8 14/14/8
f 18/18/8 16/16/8 17/17/8
f 19/20/1 14/11/1 17/19/1
f 14/11/1 19/20/1 20/12/1
f 17/19/2 14/11/2 19/20/2
f 20/12/2 19/20/2 14/11/2
f 21/23/7 11/22/7 9/21/7
f 5/24/7 11/22/7 21/23/7
f 6/25/7 11/22/7 5/24/7
f 11/22/7 6/25/7 22/26/7
f 9/21/8 11/22/8 21/23/8
f 21/23/8 11/22/8 5/24/8
f 5/24/8 11/22/8 6/25/8
f 22/26/8 6/25/8 11/22/8
f 7/14/8 23/18/8 8/17/8
f 23/18/8 7/14/8 12/16/8
f 12/16/8 7/14/8 10/15/8
f 10/15/8 7/14/8 24/13/8
f 8/17/7 23/18/7 7/14/7
f 12/16/7 7/14/7 23/18/7
f 10/15/7 7/14/7 12/16/7
f 24/13/7 7/14/7 10/15/7
f 19/25/8 25/23/8 20/24/8
f 25/23/8 19/25/8 26/22/8
f 26/22/8 19/25/8 27/26/8
f 28/21/8 25/23/8 26/22/8
f 20/24/7 25/23/7 19/25/7
f 26/22/7 19/25/7 25/23/7
f 26/22/7 25/23/7 28/21/7
f 27/26/7 19/25/7 26/22/7
f 16/27/9 27/19/2 18/20/2
f 27/19/2 16/27/9 26/28/9
f 18/20/1 27/19/1 16/27/10
f 26/28/10 16/27/10 27/19/1
f 26/11/9 15/10/6 28/9/6
f 15/10/6 26/11/9 16/12/9
f 28/9/3 15/10/3 26/11/10
f 16/12/10 26/11/10 15/10/3
f 23/6/2 11/29/4 22/8/2
f 11/29/4 23/6/2 12/30/4
f 22/8/1 11/29/5 23/6/1
f 12/30/5 23/6/1 11/29/5
f 10/30/2 21/7/2 9/29/2
f 21/7/2 10/30/2 24/5/2
f 9/29/1 21/7/1 10/30/1
f 24/5/1 10/30/1 21/7/1
f 13/12/2 28/28/2 15/27/2
f 28/28/2 13/12/2 25/11/2
f 15/27/1 28/28/1 13/12/1
f 25/11/1 13/12/1 28/28/1
f 30/32/3 21/9/3 29/31/3
f 21/9/3 30/32/3 2/33/3
f 24/10/3 29/31/3 21/9/3
f 21/9/3 2/33/3 5/34/3
f 29/31/3 24/10/3 4/35/3
f 5/34/3 2/33/3 7/36/3
f 4/35/3 24/10/3 7/36/3
f 4/35/3 7/36/3 2/33/3
f 29/31/6 21/9/6 30/32/6
f 2/33/6 30/32/6 21/9/6
f 21/9/6 29/31/6 24/10/6
f 5/34/6 2/33/6 21/9/6
f 4/35/6 24/10/6 29/31/6
f 7/36/6 2/33/6 5/34/6
f 7/36/6 24/10/6 4/35/6
f 2/33/6 7/36/6 4/35/6
f 32/38/6 25/9/6 31/37/6
f 25/9/6 32/38/6 3/33/6
f 13/10/6 31/37/6 25/9/6
f 25/9/6 3/33/6 20/34/6
f 31/37/6 13/10/6 1/35/6
f 20/34/6 3/33/6 14/36/6
f 1/35/6 13/10/6 14/36/6
f 1/35/6 14/36/6 3/33/6
f 31/37/3 25/9/3 32/38/3
f 3/33/3 32/38/3 25/9/3
f 25/9/3 31/37/3 13/10/3
f 20/34/3 3/33/3 25/9/3
f 1/35/3 13/10/3 31/37/3
f 14/36/3 3/33/3 20/34/3
f 14/36/3 13/10/3 1/35/3
f 3/33/3 14/36/3 1/35/3

usemtl grey-dark

f 35/41/11 34/40/4 33/39/4
f 34/40/4 35/41/11 36/42/11
f 33/39/5 34/40/5 35/41/12
f 36/42/12 35/41/12 34/40/5
f 39/45/9 38/44/13 37/43/13
f 38/44/13 39/45/9 40/46/9
f 37/43/14 38/44/14 39/45/10
f 40/46/10 39/45/10 38/44/14
f 33/45/4 42/44/15 41/43/15
f 42/44/15 33/45/4 34/46/4
f 41/43/16 42/44/16 33/45/5
f 34/46/5 33/45/5 42/44/16
f 43/4/2 36/1/2 35/3/2
f 36/1/2 43/4/2 44/2/2
f 35/3/1 36/1/1 43/4/1
f 44/2/1 43/4/1 36/1/1
f 47/13/6 46/48/17 45/47/17
f 46/48/17 47/13/6 48/23/6
f 45/47/18 46/48/18 47/13/3
f 48/23/3 47/13/3 46/48/18
f 29/4/1 49/49/19 30/2/1
f 49/49/19 29/4/1 50/50/19
f 30/2/2 49/49/20 29/4/2
f 50/50/20 29/4/2 49/49/20
f 53/13/3 52/48/21 51/47/21
f 52/48/21 53/13/3 54/23/3
f 51/47/22 52/48/22 53/13/6
f 54/23/6 53/13/6 52/48/22
f 51/53/21 56/52/23 55/51/23
f 56/52/23 51/53/21 52/54/21
f 55/51/24 56/52/24 51/53/22
f 52/54/22 51/53/22 56/52/24
f 56/56/23 31/1/1 55/55/23
f 31/1/1 56/56/23 32/3/1
f 55/55/24 31/1/2 56/56/24
f 32/3/2 56/56/24 31/1/2
f 45/53/17 49/52/19 50/51/19
f 49/52/19 45/53/17 46/54/17
f 50/51/20 49/52/20 45/53/18
f 46/54/18 45/53/18 49/52/20
f 39/39/9 43/42/25 40/40/9
f 43/42/25 39/39/9 44/41/25
f 40/40/10 43/42/26 39/39/10
f 44/41/26 39/39/10 43/42/26

usemtl grey

f 29/58/7 4/35/7 50/57/7
f 44/59/7 50/57/7 4/35/7
f 44/59/7 4/35/7 3/33/7
f 39/60/7 50/57/7 44/59/7
f 39/60/7 45/61/7 50/57/7
f 37/62/7 45/61/7 39/60/7
f 45/61/7 37/62/7 47/63/7
f 44/59/7 3/33/7 36/64/7
f 3/33/7 56/65/7 36/64/7
f 56/65/7 3/33/7 32/66/7
f 36/64/7 56/65/7 34/67/7
f 34/67/7 56/65/7 52/68/7
f 34/67/7 52/68/7 42/69/7
f 42/69/7 52/68/7 54/70/7
f 50/57/8 4/35/8 29/58/8
f 4/35/8 50/57/8 44/59/8
f 3/33/8 4/35/8 44/59/8
f 44/59/8 50/57/8 39/60/8
f 50/57/8 45/61/8 39/60/8
f 39/60/8 45/61/8 37/62/8
f 47/63/8 37/62/8 45/61/8
f 36/64/8 3/33/8 44/59/8
f 36/64/8 56/65/8 3/33/8
f 32/66/8 3/33/8 56/65/8
f 34/67/8 56/65/8 36/64/8
f 52/68/8 56/65/8 34/67/8
f 42/69/8 52/68/8 34/67/8
f 54/70/8 52/68/8 42/69/8
f 40/67/8 48/70/8 38/69/8
f 48/70/8 40/67/8 46/68/8
f 46/68/8 40/67/8 49/71/8
f 49/71/8 40/67/8 43/64/8
f 49/71/8 43/64/8 2/33/8
f 49/71/8 2/33/8 30/72/8
f 35/59/8 2/33/8 43/64/8
f 2/33/8 35/59/8 1/35/8
f 1/35/8 35/59/8 33/60/8
f 1/35/8 33/60/8 55/73/8
f 55/73/8 31/74/8 1/35/8
f 55/73/8 33/60/8 51/61/8
f 51/61/8 33/60/8 41/62/8
f 51/61/8 41/62/8 53/63/8
f 38/69/7 48/70/7 40/67/7
f 46/68/7 40/67/7 48/70/7
f 49/71/7 40/67/7 46/68/7
f 43/64/7 40/67/7 49/71/7
f 2/33/7 43/64/7 49/71/7
f 30/72/7 2/33/7 49/71/7
f 43/64/7 2/33/7 35/59/7
f 1/35/7 35/59/7 2/33/7
f 33/60/7 35/59/7 1/35/7
f 55/73/7 33/60/7 1/35/7
f 1/35/7 31/74/7 55/73/7
f 51/61/7 33/60/7 55/73/7
f 41/62/7 33/60/7 51/61/7
f 53/63/7 41/62/7 51/61/7
f 47/13/6 23/11/6 48/23/6
f 23/11/6 47/13/6 37/33/6
f 22/12/6 48/23/6 23/11/6
f 23/11/6 37/33/6 8/34/6
f 48/23/6 22/12/6 38/35/6
f 8/34/6 37/33/6 6/36/6
f 38/35/6 22/12/6 6/36/6
f 38/35/6 6/36/6 37/33/6
f 53/13/3 18/11/3 54/23/3
f 18/11/3 53/13/3 41/33/3
f 27/12/3 54/23/3 18/11/3
f 18/11/3 41/33/3 17/34/3
f 54/23/3 27/12/3 42/35/3
f 17/34/3 41/33/3 19/36/3
f 42/35/3 27/12/3 19/36/3
f 42/35/3 19/36/3 41/33/3
f 48/23/3 23/11/3 47/13/3
f 37/33/3 47/13/3 23/11/3
f 23/11/3 48/23/3 22/12/3
f 8/34/3 37/33/3 23/11/3
f 38/35/3 22/12/3 48/23/3
f 6/36/3 37/33/3 8/34/3
f 6/36/3 22/12/3 38/35/3
f 37/33/3 6/36/3 38/35/3
f 54/23/6 18/11/6 53/13/6
f 41/33/6 53/13/6 18/11/6
f 18/11/6 54/23/6 27/12/6
f 17/34/6 41/33/6 18/11/6
f 42/35/6 27/12/6 54/23/6
f 19/36/6 41/33/6 17/34/6
f 19/36/6 27/12/6 42/35/6
f 41/33/6 19/36/6 42/35/6

