# Created by Kenney (www.kenney.nl)

mtllib cover-stripe-window.mtl

g cover-stripe-window

v 0.5 1 0.5
v 0.5 1 -0.5
v -0.5 1 0.5
v -0.5 1 -0.5
v 0.4 0.9 -0.5
v 0.4 0.9 -0.7
v -0.4 0.9 -0.5
v -0.4 0.9 -0.7
v 0.4 0.4 -0.6
v -0.4 0.4 -0.6
v 0.4 0.5 -0.6
v -0.4 0.5 -0.6
v 0.4 0.4 0.5
v 0.4 0.9 0.5
v 0.4 0.4 0.6
v 0.4 0.5 0.6
v 0.4 0.9 0.7
v 0.4 0.5 0.7
v -0.4 0.9 0.7
v -0.4 0.9 0.5
v 0.4 0.4 -0.5
v 0.4 0.5 -0.7
v -0.4 0.5 -0.7
v -0.4 0.4 -0.5
v -0.4 0.4 0.5
v -0.4 0.5 0.6
v -0.4 0.5 0.7
v -0.4 0.4 0.6
v 0.5 0 -0.5
v -0.5 1.173106E-15 -0.5
v 0.5 0.4 -0.5
v -0.5 0.4 -0.5
v -0.5 2.707168E-16 0.5
v 0.5 1.443823E-15 0.5
v -0.5 0.4 0.5
v 0.5 0.4 0.5
v 0.5 1.15 0.65
v -0.5 1.15 0.65
v 0.5 1.2 0.5
v -0.5 1.2 0.5
v -0.5 1 -0.7
v 0.5 1 -0.7
v -0.5 1.15 -0.65
v 0.5 1.15 -0.65
v 0.5 1 0.7
v -0.5 1 0.7
v 0.5 1.2 -0.5
v -0.5 1.2 -0.5
v 0.5 0.4 0.7
v 0.5 0.4 -0.7
v -0.5 0.4 -0.7
v -0.5 0.4 0.7
v -0.5 0.2 -0.7
v 0.5 0.2 -0.7
v 0.5 5.86553E-16 -0.6
v -0.5 5.86553E-16 -0.6
v -0.5 8.572698E-16 0.6
v -0.5 0.2 0.7
v 0.5 0.2 0.7
v 0.5 8.572698E-16 0.6

vn 0 -1 0
vn 0 1 0
vn 0 0 1
vn 0 0.7071068 0.7071068
vn 0 -0.7071068 -0.7071068
vn 0 0 -1
vn -1 0 0
vn 1 0 0
vn 0 0.7071068 -0.7071068
vn 0 -0.7071068 0.7071068
vn 0 0.9486833 0.3162278
vn 0 -0.9486833 -0.3162278
vn 0 0.3162278 -0.9486833
vn 0 -0.3162278 0.9486833
vn 0 0.3162278 0.9486833
vn 0 -0.3162278 -0.9486833
vn 0 0.9486833 -0.3162278
vn 0 -0.9486833 0.3162278
vn 0 -0.2297529 -0.973249
vn 0 0.2297529 0.973249
vn 0 -0.8506508 -0.5257311
vn 0 0.8506508 0.5257311
vn 0 -0.2297529 0.973249
vn 0 0.2297529 -0.973249
vn 0 -0.8506508 0.5257311
vn 0 0.8506508 -0.5257311

vt 19.68504 19.68504
vt 19.68504 -19.68504
vt -19.68504 19.68504
vt -19.68504 -19.68504
vt 15.74803 -19.68504
vt 15.74803 -27.55906
vt -15.74803 -19.68504
vt -15.74803 -27.55906
vt 15.74803 15.74803
vt -15.74803 15.74803
vt 15.74803 19.68504
vt -15.74803 19.68504
vt 19.68504 15.74803
vt 19.68504 35.43307
vt 23.62205 15.74803
vt 23.62205 19.68504
vt 27.55906 35.43307
vt 27.55906 19.68504
vt 15.74803 27.55906
vt -15.74803 27.55906
vt -23.62205 15.74803
vt -23.62205 19.68504
vt -19.68504 15.74803
vt -19.68504 35.43307
vt -27.55906 35.43307
vt -27.55906 19.68504
vt -15.74803 23.62205
vt 15.74803 23.62205
vt -15.74803 -23.62205
vt 15.74803 -23.62205
vt 19.68504 2.991759E-14
vt -19.68504 7.610287E-14
vt 19.68504 39.37008
vt 15.74803 35.43307
vt -19.68504 39.37008
vt -15.74803 35.43307
vt 19.68504 3.528406E-13
vt -19.68504 3.990258E-13
vt 19.68504 -9.959929
vt -19.68504 -9.959929
vt 19.68504 -3.734974
vt -19.68504 -3.734974
vt 19.68504 28.6348
vt -19.68504 28.6348
vt 19.68504 34.85975
vt -19.68504 34.85975
vt -27.55906 15.74803
vt -25.59055 45.27559
vt -27.55906 39.37008
vt -19.68504 47.24409
vt 19.68504 47.24409
vt 25.59055 45.27559
vt 27.55906 15.74803
vt 27.55906 39.37008
vt 19.68504 7.874016
vt -19.68504 7.874016
vt 19.68504 -23.62205
vt -19.68504 -23.62205
vt 19.68504 -4.144833E-14
vt 23.62205 -1.835569E-14
vt 27.55906 7.874016
vt 19.68504 10.5641
vt -19.68504 10.5641
vt 19.68504 19.36752
vt -19.68504 19.36752
vt 19.68504 23.62205
vt -19.68504 23.62205
vt -27.55906 7.874016
vt -23.62205 -2.09018E-13
vt -19.68504 -1.859253E-13
vt -19.68504 4.736952E-15
vt -23.62205 -1.835569E-14
vt 23.62205 7.046216E-14
vt 19.68504 4.736951E-14

usemtl dark

f 3/3/1 2/2/1 1/1/1
f 2/2/1 3/3/1 4/4/1
f 1/1/2 2/2/2 3/3/2
f 4/4/2 3/3/2 2/2/2
f 7/7/1 6/6/1 5/5/1
f 6/6/1 7/7/1 8/8/1
f 5/5/2 6/6/2 7/7/2
f 8/8/2 7/7/2 6/6/2
f 11/11/4 10/10/3 9/9/3
f 10/10/3 11/11/4 12/12/4
f 9/9/6 10/10/6 11/11/5
f 12/12/5 11/11/5 10/10/6
f 15/15/7 14/14/7 13/13/7
f 14/14/7 15/15/7 16/16/7
f 14/14/7 16/16/7 17/17/7
f 17/17/7 16/16/7 18/18/7
f 13/13/8 14/14/8 15/15/8
f 16/16/8 15/15/8 14/14/8
f 17/17/8 16/16/8 14/14/8
f 18/18/8 16/16/8 17/17/8
f 19/20/1 14/11/1 17/19/1
f 14/11/1 19/20/1 20/12/1
f 17/19/2 14/11/2 19/20/2
f 20/12/2 19/20/2 14/11/2
f 21/23/7 11/22/7 9/21/7
f 5/24/7 11/22/7 21/23/7
f 6/25/7 11/22/7 5/24/7
f 11/22/7 6/25/7 22/26/7
f 9/21/8 11/22/8 21/23/8
f 21/23/8 11/22/8 5/24/8
f 5/24/8 11/22/8 6/25/8
f 22/26/8 6/25/8 11/22/8
f 7/14/8 23/18/8 8/17/8
f 23/18/8 7/14/8 12/16/8
f 12/16/8 7/14/8 10/15/8
f 10/15/8 7/14/8 24/13/8
f 8/17/7 23/18/7 7/14/7
f 12/16/7 7/14/7 23/18/7
f 10/15/7 7/14/7 12/16/7
f 24/13/7 7/14/7 10/15/7
f 19/25/8 25/23/8 20/24/8
f 25/23/8 19/25/8 26/22/8
f 26/22/8 19/25/8 27/26/8
f 28/21/8 25/23/8 26/22/8
f 20/24/7 25/23/7 19/25/7
f 26/22/7 19/25/7 25/23/7
f 26/22/7 25/23/7 28/21/7
f 27/26/7 19/25/7 26/22/7
f 16/27/9 27/19/2 18/20/2
f 27/19/2 16/27/9 26/28/9
f 18/20/1 27/19/1 16/27/10
f 26/28/10 16/27/10 27/19/1
f 26/11/9 15/10/6 28/9/6
f 15/10/6 26/11/9 16/12/9
f 28/9/3 15/10/3 26/11/10
f 16/12/10 26/11/10 15/10/3
f 23/6/2 11/29/4 22/8/2
f 11/29/4 23/6/2 12/30/4
f 22/8/1 11/29/5 23/6/1
f 12/30/5 23/6/1 11/29/5
f 10/30/2 21/7/2 9/29/2
f 21/7/2 10/30/2 24/5/2
f 9/29/1 21/7/1 10/30/1
f 24/5/1 10/30/1 21/7/1
f 31/13/3 30/32/3 29/31/3
f 30/32/3 31/13/3 32/23/3
f 32/23/3 31/13/3 21/9/3
f 21/9/3 31/13/3 2/33/3
f 24/10/3 32/23/3 21/9/3
f 21/9/3 2/33/3 5/34/3
f 32/23/3 24/10/3 4/35/3
f 5/34/3 2/33/3 7/36/3
f 4/35/3 24/10/3 7/36/3
f 4/35/3 7/36/3 2/33/3
f 29/31/6 30/32/6 31/13/6
f 32/23/6 31/13/6 30/32/6
f 21/9/6 31/13/6 32/23/6
f 2/33/6 31/13/6 21/9/6
f 21/9/6 32/23/6 24/10/6
f 5/34/6 2/33/6 21/9/6
f 4/35/6 24/10/6 32/23/6
f 7/36/6 2/33/6 5/34/6
f 7/36/6 24/10/6 4/35/6
f 2/33/6 7/36/6 4/35/6
f 35/13/6 34/38/6 33/37/6
f 34/38/6 35/13/6 36/23/6
f 36/23/6 35/13/6 25/9/6
f 25/9/6 35/13/6 3/33/6
f 13/10/6 36/23/6 25/9/6
f 25/9/6 3/33/6 20/34/6
f 36/23/6 13/10/6 1/35/6
f 20/34/6 3/33/6 14/36/6
f 1/35/6 13/10/6 14/36/6
f 1/35/6 14/36/6 3/33/6
f 33/37/3 34/38/3 35/13/3
f 36/23/3 35/13/3 34/38/3
f 25/9/3 35/13/3 36/23/3
f 3/33/3 35/13/3 25/9/3
f 25/9/3 36/23/3 13/10/3
f 20/34/3 3/33/3 25/9/3
f 1/35/3 13/10/3 36/23/3
f 14/36/3 3/33/3 20/34/3
f 14/36/3 13/10/3 1/35/3
f 3/33/3 14/36/3 1/35/3
f 13/12/2 28/28/2 15/27/2
f 28/28/2 13/12/2 25/11/2
f 15/27/1 28/28/1 13/12/1
f 25/11/1 13/12/1 28/28/1

usemtl grey-dark

f 39/41/11 38/40/4 37/39/4
f 38/40/4 39/41/11 40/42/11
f 37/39/5 38/40/5 39/41/12
f 40/42/12 39/41/12 38/40/5
f 43/45/9 42/44/13 41/43/13
f 42/44/13 43/45/9 44/46/9
f 41/43/14 42/44/14 43/45/10
f 44/46/10 43/45/10 42/44/14
f 37/45/4 46/44/15 45/43/15
f 46/44/15 37/45/4 38/46/4
f 45/43/16 46/44/16 37/45/5
f 38/46/5 37/45/5 46/44/16
f 47/4/2 40/1/2 39/3/2
f 40/1/2 47/4/2 48/2/2
f 39/3/1 40/1/1 47/4/1
f 48/2/1 47/4/1 40/1/1
f 43/39/9 47/42/17 44/40/9
f 47/42/17 43/39/9 48/41/17
f 44/40/10 47/42/18 43/39/10
f 48/41/18 43/39/10 47/42/18

usemtl grey

f 1/35/8 49/47/8 36/23/8
f 49/47/8 1/35/8 37/48/8
f 49/47/8 37/48/8 45/49/8
f 1/35/8 39/50/8 37/48/8
f 2/33/8 39/50/8 1/35/8
f 39/50/8 2/33/8 47/51/8
f 2/33/8 44/52/8 47/51/8
f 31/13/8 44/52/8 2/33/8
f 50/53/8 44/52/8 31/13/8
f 44/52/8 50/53/8 42/54/8
f 36/23/7 49/47/7 1/35/7
f 37/48/7 1/35/7 49/47/7
f 45/49/7 37/48/7 49/47/7
f 37/48/7 39/50/7 1/35/7
f 1/35/7 39/50/7 2/33/7
f 47/51/7 2/33/7 39/50/7
f 47/51/7 44/52/7 2/33/7
f 2/33/7 44/52/7 31/13/7
f 31/13/7 44/52/7 50/53/7
f 42/54/7 50/53/7 44/52/7
f 32/23/7 41/49/7 51/47/7
f 41/49/7 32/23/7 43/48/7
f 43/48/7 32/23/7 4/35/7
f 4/35/7 48/50/7 43/48/7
f 48/50/7 4/35/7 3/33/7
f 48/50/7 3/33/7 40/51/7
f 3/33/7 52/53/7 40/51/7
f 52/53/7 3/33/7 35/13/7
f 40/51/7 52/53/7 38/52/7
f 38/52/7 52/53/7 46/54/7
f 51/47/8 41/49/8 32/23/8
f 43/48/8 32/23/8 41/49/8
f 4/35/8 32/23/8 43/48/8
f 43/48/8 48/50/8 4/35/8
f 3/33/8 4/35/8 48/50/8
f 40/51/8 3/33/8 48/50/8
f 40/51/8 52/53/8 3/33/8
f 35/13/8 3/33/8 52/53/8
f 38/52/8 52/53/8 40/51/8
f 46/54/8 52/53/8 38/52/8
f 51/13/6 23/11/6 50/23/6
f 23/11/6 51/13/6 41/33/6
f 22/12/6 50/23/6 23/11/6
f 23/11/6 41/33/6 8/34/6
f 50/23/6 22/12/6 42/35/6
f 8/34/6 41/33/6 6/36/6
f 42/35/6 22/12/6 6/36/6
f 42/35/6 6/36/6 41/33/6
f 49/13/3 18/11/3 52/23/3
f 18/11/3 49/13/3 45/33/3
f 27/12/3 52/23/3 18/11/3
f 18/11/3 45/33/3 17/34/3
f 52/23/3 27/12/3 46/35/3
f 17/34/3 45/33/3 19/36/3
f 46/35/3 27/12/3 19/36/3
f 46/35/3 19/36/3 45/33/3
f 50/23/3 23/11/3 51/13/3
f 41/33/3 51/13/3 23/11/3
f 23/11/3 50/23/3 22/12/3
f 8/34/3 41/33/3 23/11/3
f 42/35/3 22/12/3 50/23/3
f 6/36/3 41/33/3 8/34/3
f 6/36/3 22/12/3 42/35/3
f 41/33/3 6/36/3 42/35/3
f 52/23/6 18/11/6 49/13/6
f 45/33/6 49/13/6 18/11/6
f 18/11/6 52/23/6 27/12/6
f 17/34/6 45/33/6 18/11/6
f 46/35/6 27/12/6 52/23/6
f 19/36/6 45/33/6 17/34/6
f 19/36/6 27/12/6 46/35/6
f 45/33/6 19/36/6 46/35/6

usemtl striping

f 51/13/6 54/56/19 53/55/19
f 54/56/19 51/13/6 50/23/6
f 53/55/20 54/56/20 51/13/3
f 50/23/3 51/13/3 54/56/20
f 30/4/1 55/57/21 29/2/1
f 55/57/21 30/4/1 56/58/21
f 29/2/2 55/57/22 30/4/2
f 56/58/22 30/4/2 55/57/22
f 57/60/7 35/13/7 33/59/7
f 35/13/7 57/60/7 52/53/7
f 52/53/7 57/60/7 58/61/7
f 33/59/8 35/13/8 57/60/8
f 52/53/8 57/60/8 35/13/8
f 58/61/8 57/60/8 52/53/8
f 49/13/3 58/56/23 59/55/23
f 58/56/23 49/13/3 52/23/3
f 59/55/24 58/56/24 49/13/6
f 52/23/6 49/13/6 58/56/24
f 59/64/23 57/63/25 60/62/25
f 57/63/25 59/64/23 58/65/23
f 60/62/26 57/63/26 59/64/24
f 58/65/24 59/64/24 57/63/26
f 57/67/25 34/1/1 60/66/25
f 34/1/1 57/67/25 33/3/1
f 60/66/26 34/1/2 57/67/26
f 33/3/2 57/67/26 34/1/2
f 53/64/19 55/63/21 56/62/21
f 55/63/21 53/64/19 54/65/19
f 56/62/22 55/63/22 53/64/20
f 54/65/20 53/64/20 55/63/22
f 56/69/7 51/47/7 53/68/7
f 51/47/7 56/69/7 32/23/7
f 32/23/7 56/69/7 30/70/7
f 53/68/8 51/47/8 56/69/8
f 32/23/8 56/69/8 51/47/8
f 30/70/8 56/69/8 32/23/8
f 36/23/8 60/72/8 34/71/8
f 60/72/8 36/23/8 49/47/8
f 60/72/8 49/47/8 59/68/8
f 34/71/7 60/72/7 36/23/7
f 49/47/7 36/23/7 60/72/7
f 59/68/7 49/47/7 60/72/7
f 31/13/8 54/61/8 50/53/8
f 54/61/8 31/13/8 55/73/8
f 55/73/8 31/13/8 29/74/8
f 50/53/7 54/61/7 31/13/7
f 55/73/7 31/13/7 54/61/7
f 29/74/7 31/13/7 55/73/7

