# Created by Kenney (www.kenney.nl)

mtllib door-wide-half.mtl

g door-wide-half

v -0.9 0.8198057 0.4
v 0.9 0.8198057 0.4
v -0.9 1.051591 0.4
v 0.9 1.051591 0.4
v -0.9 1.283376 0.4
v 0.9 1.283376 0.4
v -0.9 1.484107 0.5098076
v 0.9 1.484107 0.5098076
v 0.9 0.3562358 0.4
v -0.1178871 0.424815 0.4
v -0.9 0.3562358 0.4
v -0.9 0.5880208 0.4
v 0.1178871 0.424815 0.4
v -0.1178871 0.5194417 0.4
v 0.9 0.5880208 0.4
v 0.1178871 0.5194417 0.4
v 0.9 1.6 0.7
v -0.9 1.6 0.7

vn 0 0 -1
vn 0 0 1
vn 0 0.4799216 -0.8773113
vn 0 -0.4799216 0.8773113
vn 0 0.8539527 -0.5203506
vn 0 -0.8539527 0.5203506

vt 35.43307 32.27582
vt -35.43307 32.27582
vt 35.43307 41.40121
vt -35.43307 41.40121
vt 35.43307 51.88539
vt -35.43307 51.88539
vt 35.43307 60.89339
vt -35.43307 60.89339
vt -35.43307 14.02503
vt 4.641223 16.725
vt 35.43307 14.02503
vt 35.43307 23.15042
vt -4.641223 16.725
vt 4.641223 20.45046
vt -35.43307 23.15042
vt -4.641223 20.45046
vt -35.43307 47.54361
vt -35.43307 56.31212
vt 35.43307 47.54361
vt 35.43307 56.31212
vt 35.43307 50.52661
vt -35.43307 50.52661

usemtl striping

f 3/3/1 2/2/1 1/1/1
f 2/2/1 3/3/1 4/4/1
f 1/1/2 2/2/2 3/3/2
f 4/4/2 3/3/2 2/2/2
f 7/7/3 6/6/3 5/5/3
f 6/6/3 7/7/3 8/8/3
f 5/5/4 6/6/4 7/7/4
f 8/8/4 7/7/4 6/6/4
f 11/11/1 10/10/1 9/9/1
f 10/10/1 11/11/1 12/12/1
f 13/13/1 9/9/1 10/10/1
f 10/10/1 12/12/1 14/14/1
f 9/9/1 13/13/1 15/15/1
f 14/14/1 12/12/1 16/16/1
f 15/15/1 13/13/1 16/16/1
f 15/15/1 16/16/1 12/12/1
f 9/9/2 10/10/2 11/11/2
f 12/12/2 11/11/2 10/10/2
f 10/10/2 9/9/2 13/13/2
f 14/14/2 12/12/2 10/10/2
f 15/15/2 13/13/2 9/9/2
f 16/16/2 12/12/2 14/14/2
f 16/16/2 13/13/2 15/15/2
f 12/12/2 16/16/2 15/15/2

usemtl grey

f 14/14/1 13/13/1 10/10/1
f 13/13/1 14/14/1 16/16/1
f 10/10/2 13/13/2 14/14/2
f 16/16/2 14/14/2 13/13/2

usemtl striping-dark

f 7/19/5 17/18/5 8/17/5
f 17/18/5 7/19/5 18/20/5
f 8/17/6 17/18/6 7/19/6
f 18/20/6 7/19/6 17/18/6
f 5/21/1 4/4/1 3/3/1
f 4/4/1 5/21/1 6/22/1
f 3/3/2 4/4/2 5/21/2
f 6/22/2 5/21/2 4/4/2
f 1/1/1 15/15/1 12/12/1
f 15/15/1 1/1/1 2/2/1
f 12/12/2 15/15/2 1/1/2
f 2/2/2 1/1/2 15/15/2

