# Created by Kenney (www.kenney.nl)

mtllib door-wide-open.mtl

g door-wide-open

v 0.9 1.484107 0.5098076
v 0.9 1.6 0.7
v -0.9 1.484107 0.5098076
v -0.9 1.6 0.7
v -0.9 1.051591 0.4
v 0.9 1.051591 0.4
v -0.9 1.283376 0.4
v 0.9 1.283376 0.4
v 0.9 0.8198057 0.4
v -0.1178871 0.8883849 0.4
v -0.9 0.8198057 0.4
v 0.1178871 0.8883849 0.4
v -0.1178871 0.9830117 0.4
v 0.1178871 0.9830117 0.4

vn 0 0.8539527 -0.5203506
vn 0 -0.8539527 0.5203506
vn 0 0 -1
vn 0 0 1
vn 0 0.4799216 -0.8773113
vn 0 -0.4799216 0.8773113

vt -35.43307 47.54361
vt -35.43307 56.31212
vt 35.43307 47.54361
vt 35.43307 56.31212
vt 35.43307 41.40121
vt -35.43307 41.40121
vt 35.43307 50.52661
vt -35.43307 50.52661
vt 35.43307 51.88539
vt -35.43307 51.88539
vt 35.43307 60.89339
vt -35.43307 60.89339
vt -35.43307 32.27582
vt 4.641223 34.97578
vt 35.43307 32.27582
vt -4.641223 34.97578
vt 4.641223 38.70125
vt -4.641223 38.70125

usemtl striping-dark

f 3/3/1 2/2/1 1/1/1
f 2/2/1 3/3/1 4/4/1
f 1/1/2 2/2/2 3/3/2
f 4/4/2 3/3/2 2/2/2
f 7/7/3 6/6/3 5/5/3
f 6/6/3 7/7/3 8/8/3
f 5/5/4 6/6/4 7/7/4
f 8/8/4 7/7/4 6/6/4

usemtl striping

f 3/11/5 8/10/5 7/9/5
f 8/10/5 3/11/5 1/12/5
f 7/9/6 8/10/6 3/11/6
f 1/12/6 3/11/6 8/10/6
f 11/15/3 10/14/3 9/13/3
f 10/14/3 11/15/3 5/5/3
f 12/16/3 9/13/3 10/14/3
f 10/14/3 5/5/3 13/17/3
f 9/13/3 12/16/3 6/6/3
f 13/17/3 5/5/3 14/18/3
f 6/6/3 12/16/3 14/18/3
f 6/6/3 14/18/3 5/5/3
f 9/13/4 10/14/4 11/15/4
f 5/5/4 11/15/4 10/14/4
f 10/14/4 9/13/4 12/16/4
f 13/17/4 5/5/4 10/14/4
f 6/6/4 12/16/4 9/13/4
f 14/18/4 5/5/4 13/17/4
f 14/18/4 12/16/4 6/6/4
f 5/5/4 14/18/4 6/6/4

usemtl grey

f 13/17/3 12/16/3 10/14/3
f 12/16/3 13/17/3 14/18/3
f 10/14/4 12/16/4 13/17/4
f 14/18/4 13/17/4 12/16/4

