# Created by Kenney (www.kenney.nl)

mtllib door-wide-closed.mtl

g door-wide-closed

v -0.9 1.39071 0.4
v 0.9 1.39071 0.4
v -0.9 1.6 0.4
v 0.9 1.6 0.4
v -0.9 0.46357 0.4
v 0.9 0.46357 0.4
v -0.9 0.695355 0.4
v 0.9 0.695355 0.4
v -0.9 0.92714 0.4
v 0.9 0.92714 0.4
v -0.9 1.158925 0.4
v 0.9 1.158925 0.4
v -0.1178871 0.1632059 0.4
v -0.9 0.231785 0.4
v -0.1178871 0.06857914 0.4
v 0.1178871 0.1632059 0.4
v -0.9 4.511946E-17 0.4
v 0.9 0.231785 0.4
v 0.9 4.511946E-17 0.4
v 0.1178871 0.06857914 0.4

vn 0 0 -1
vn 0 0 1

vt 35.43307 54.75236
vt -35.43307 54.75236
vt 35.43307 62.99213
vt -35.43307 62.99213
vt 35.43307 18.25079
vt -35.43307 18.25079
vt 35.43307 27.37618
vt -35.43307 27.37618
vt 35.43307 36.50158
vt -35.43307 36.50158
vt 35.43307 45.62697
vt -35.43307 45.62697
vt 4.641223 6.425428
vt 35.43307 9.125394
vt 4.641223 2.699966
vt -4.641223 6.425428
vt 35.43307 1.776357E-15
vt -35.43307 9.125394
vt -35.43307 1.776357E-15
vt -4.641223 2.699966

usemtl striping

f 3/3/1 2/2/1 1/1/1
f 2/2/1 3/3/1 4/4/1
f 1/1/2 2/2/2 3/3/2
f 4/4/2 3/3/2 2/2/2
f 7/7/1 6/6/1 5/5/1
f 6/6/1 7/7/1 8/8/1
f 5/5/2 6/6/2 7/7/2
f 8/8/2 7/7/2 6/6/2
f 11/11/1 10/10/1 9/9/1
f 10/10/1 11/11/1 12/12/1
f 9/9/2 10/10/2 11/11/2
f 12/12/2 11/11/2 10/10/2
f 15/15/1 14/14/1 13/13/1
f 13/13/1 14/14/1 16/16/1
f 15/15/1 17/17/1 14/14/1
f 18/18/1 16/16/1 14/14/1
f 17/17/1 15/15/1 19/19/1
f 18/18/1 20/20/1 16/16/1
f 19/19/1 20/20/1 18/18/1
f 20/20/1 19/19/1 15/15/1
f 13/13/2 14/14/2 15/15/2
f 16/16/2 14/14/2 13/13/2
f 14/14/2 17/17/2 15/15/2
f 14/14/2 16/16/2 18/18/2
f 19/19/2 15/15/2 17/17/2
f 16/16/2 20/20/2 18/18/2
f 15/15/2 19/19/2 20/20/2
f 18/18/2 20/20/2 19/19/2

usemtl striping-dark

f 9/9/1 8/8/1 7/7/1
f 8/8/1 9/9/1 10/10/1
f 7/7/2 8/8/2 9/9/2
f 10/10/2 9/9/2 8/8/2
f 1/1/1 12/12/1 11/11/1
f 12/12/1 1/1/1 2/2/1
f 11/11/2 12/12/2 1/1/2
f 2/2/2 1/1/2 12/12/2
f 5/5/1 18/18/1 14/14/1
f 18/18/1 5/5/1 6/6/1
f 14/14/2 18/18/2 5/5/2
f 6/6/2 5/5/2 18/18/2

usemtl grey

f 13/13/1 20/20/1 15/15/1
f 20/20/1 13/13/1 16/16/1
f 15/15/2 20/20/2 13/13/2
f 16/16/2 13/13/2 20/20/2

