# Created by Kenney (www.kenney.nl)

mtllib structure-doorway.mtl

g structure-doorway

v 0.4 1.7 0.3
v 0.4 1.7 0.6
v -0.4 1.7 0.3
v -0.4 1.7 0.6
v -0.4 1.7 1.5
v 0.4 1.7 1.5
v 0.4 1.6 1.5
v 0.4 1.6 0.3
v -0.4 1.6 1.5
v -0.4 1.6 0.3
v -0.4 3.946726E-15 0.3
v -0.4 3.997862E-15 0.7
v -0.4 3.997862E-15 1.5
v -0.5 1.950165E-16 0.3
v -0.5 1.6 0.3
v -0.5 2.461519E-16 0.7
v -0.5 1.6 0.6
v -0.5 1.6 1.5
v -0.5 2.461519E-16 1.5
v 0.5 3 0.5
v 0.5 3 1.5
v -0.5 3 0.5
v -0.5 3 1.5
v 0.5 1.6 0.3
v 0.5 1.918205E-16 0.3
v 0.5 1.6 0.6
v 0.5 2.429559E-16 0.7
v 0.5 1.6 1.5
v 0.5 2.429559E-16 1.5
v 0.4 4.824318E-15 0.3
v 0.4 4.875453E-15 0.7
v 0.4 4.875453E-15 1.5
v -0.5 2.7 0.6
v 0.5 2.7 0.6
v -0.5 2.8 0.6
v 0.5 2.8 0.6
v 0.5 2.8 0.5
v -0.5 2.8 0.5
v -0.5 4.743824E-17 -0.5
v 0.5 4.743824E-17 -0.5

vn 0.3826834 0.9238795 0
vn -0.3826834 0.9238795 0
vn 0.3826834 -0.9238795 0
vn -0.3826834 -0.9238795 0
vn 0 -1 0
vn 0 1 0
vn 1 0 0
vn -1 0 0
vn -0.9238795 0.3826834 0
vn 0.9238795 -0.3826834 0
vn 0.9238795 0.3826834 0
vn -0.9238795 -0.3826834 0
vn 0 0 -1
vn 0 0 1
vn 0 -0.7071068 -0.7071068
vn 0 0.7071068 0.7071068

vt -15.74803 11.81102
vt -15.74803 23.62205
vt 15.74803 11.81102
vt 15.74803 23.62205
vt 15.74803 59.05512
vt -15.74803 59.05512
vt -11.81102 62.99213
vt -11.81102 -2.709427E-13
vt -59.05512 62.99213
vt -27.55906 -2.689295E-13
vt -59.05512 -2.689295E-13
vt 11.81102 2.465547E-14
vt 11.81102 62.99213
vt 27.55906 2.666868E-14
vt 23.62205 62.99213
vt 59.05512 62.99213
vt 59.05512 2.666868E-14
vt -19.68504 19.68504
vt -19.68504 59.05512
vt 19.68504 19.68504
vt 19.68504 59.05512
vt -11.81102 1.49698E-14
vt -23.62205 62.99213
vt -27.55906 1.6983E-14
vt -59.05512 1.6983E-14
vt 11.81102 -7.195609E-13
vt 27.55906 -7.175477E-13
vt 59.05512 -7.175477E-13
vt -11.81102 36.19051
vt -11.81102 30.62273
vt -23.62205 36.19051
vt -23.62205 30.62273
vt -59.05512 30.62273
vt -59.05512 36.19051
vt 19.68504 7.677815E-15
vt 15.74803 1.553829E-13
vt 19.68504 62.99213
vt 15.74803 62.99213
vt 15.74803 66.92913
vt -15.74803 66.92913
vt -19.68504 62.99213
vt -15.74803 62.99213
vt -15.74803 1.899338E-13
vt -19.68504 7.551989E-15
vt 19.68504 106.2992
vt -19.68504 106.2992
vt 19.68504 110.2362
vt -19.68504 110.2362
vt 11.81102 30.62273
vt 11.81102 36.19051
vt 23.62205 30.62273
vt 23.62205 36.19051
vt 59.05512 30.62273
vt 59.05512 36.19051
vt 19.68504 23.62205
vt -19.68504 23.62205
vt 19.68504 118.1102
vt -19.68504 118.1102
vt 19.68504 9.565194E-15
vt 15.74803 1.91947E-13
vt -15.74803 1.573961E-13
vt -19.68504 9.691019E-15
vt -15.74803 27.55906
vt -19.68504 27.55906
vt 19.68504 27.55906
vt 15.74803 27.55906
vt 19.68504 -19.68504
vt 19.68504 11.81102
vt -19.68504 11.81102
vt -19.68504 -19.68504

usemtl grey-dark

f 3/3/2 2/2/1 1/1/1
f 2/2/1 3/3/2 4/4/2
f 5/5/2 2/2/1 4/4/2
f 2/2/1 5/5/2 6/6/1
f 1/1/4 2/2/4 3/3/3
f 4/4/3 3/3/3 2/2/4
f 4/4/3 2/2/4 5/5/3
f 6/6/4 5/5/3 2/2/4
f 9/6/5 8/3/5 7/5/5
f 8/3/5 9/6/5 10/1/5
f 7/5/6 8/3/6 9/6/6
f 10/1/6 9/6/6 8/3/6
f 9/9/7 11/8/7 10/7/7
f 11/8/7 9/9/7 12/10/7
f 12/10/7 9/9/7 13/11/7
f 10/7/8 11/8/8 9/9/8
f 12/10/8 9/9/8 11/8/8
f 13/11/8 9/9/8 12/10/8
f 16/14/8 15/13/9 14/12/8
f 15/13/9 16/14/8 17/15/9
f 17/15/9 16/14/8 18/16/9
f 18/16/9 16/14/8 19/17/8
f 14/12/7 15/13/10 16/14/7
f 17/15/10 16/14/7 15/13/10
f 18/16/10 16/14/7 17/15/10
f 19/17/7 16/14/7 18/16/10
f 22/20/6 21/19/6 20/18/6
f 21/19/6 22/20/6 23/21/6
f 20/18/5 21/19/5 22/20/5
f 23/21/5 22/20/5 21/19/5
f 26/23/11 25/22/7 24/7/11
f 25/22/7 26/23/11 27/24/7
f 27/24/7 26/23/11 28/9/11
f 27/24/7 28/9/11 29/25/7
f 24/7/12 25/22/8 26/23/12
f 27/24/8 26/23/12 25/22/8
f 28/9/12 26/23/12 27/24/8
f 29/25/8 28/9/12 27/24/8
f 31/27/8 8/13/8 30/26/8
f 8/13/8 31/27/8 7/16/8
f 7/16/8 31/27/8 32/28/8
f 30/26/7 8/13/7 31/27/7
f 7/16/7 31/27/7 8/13/7
f 32/28/7 31/27/7 7/16/7
f 2/31/1 24/30/11 1/29/1
f 24/30/11 2/31/1 26/32/11
f 2/31/1 28/33/11 26/32/11
f 28/33/11 2/31/1 6/34/1
f 1/29/4 24/30/12 2/31/4
f 26/32/12 2/31/4 24/30/12
f 26/32/12 28/33/12 2/31/4
f 6/34/4 2/31/4 28/33/12
f 15/37/13 11/36/13 14/35/13
f 11/36/13 15/37/13 10/38/13
f 10/38/13 15/37/13 3/39/13
f 1/40/13 10/38/13 3/39/13
f 24/41/13 10/38/13 1/40/13
f 24/41/13 8/42/13 10/38/13
f 24/41/13 30/43/13 8/42/13
f 30/43/13 24/41/13 25/44/13
f 14/35/14 11/36/14 15/37/14
f 10/38/14 15/37/14 11/36/14
f 3/39/14 15/37/14 10/38/14
f 3/39/14 10/38/14 1/40/14
f 1/40/14 10/38/14 24/41/14
f 10/38/14 8/42/14 24/41/14
f 8/42/14 30/43/14 24/41/14
f 25/44/14 24/41/14 30/43/14
f 35/47/13 34/46/13 33/45/13
f 34/46/13 35/47/13 36/48/13
f 33/45/14 34/46/14 35/47/14
f 36/48/14 35/47/14 34/46/14
f 17/51/9 3/50/2 15/49/9
f 3/50/2 17/51/9 4/52/2
f 18/53/9 4/52/2 17/51/9
f 4/52/2 18/53/9 5/54/2
f 15/49/10 3/50/3 17/51/10
f 4/52/3 17/51/10 3/50/3
f 17/51/10 4/52/3 18/53/10
f 5/54/3 18/53/10 4/52/3
f 35/56/5 37/20/15 36/55/5
f 37/20/15 35/56/5 38/18/15
f 36/55/6 37/20/16 35/56/6
f 38/18/16 35/56/6 37/20/16
f 22/57/13 37/48/15 38/47/15
f 37/48/15 22/57/13 20/58/13
f 38/47/16 37/48/16 22/57/14
f 20/58/14 22/57/14 37/48/16
f 28/37/14 32/60/14 29/59/14
f 32/60/14 28/37/14 7/38/14
f 7/38/14 28/37/14 9/42/14
f 9/42/14 28/37/14 6/39/14
f 5/40/14 9/42/14 6/39/14
f 18/41/14 9/42/14 5/40/14
f 18/41/14 13/61/14 9/42/14
f 13/61/14 18/41/14 19/62/14
f 29/59/13 32/60/13 28/37/13
f 7/38/13 28/37/13 32/60/13
f 9/42/13 28/37/13 7/38/13
f 6/39/13 28/37/13 9/42/13
f 6/39/13 9/42/13 5/40/13
f 5/40/13 9/42/13 18/41/13
f 9/42/13 13/61/13 18/41/13
f 19/62/13 18/41/13 13/61/13
f 19/19/5 12/63/5 13/6/5
f 12/63/5 19/19/5 16/64/5
f 13/6/6 12/63/6 19/19/6
f 16/64/6 19/19/6 12/63/6
f 32/5/5 27/65/5 29/21/5
f 27/65/5 32/5/5 31/66/5
f 29/21/6 27/65/6 32/5/6
f 31/66/6 32/5/6 27/65/6

usemtl grey

f 13/5/6 11/3/6 12/66/6
f 11/3/6 13/5/6 32/6/6
f 32/6/6 39/67/6 11/3/6
f 11/3/6 39/67/6 14/68/6
f 31/63/6 39/67/6 32/6/6
f 30/1/6 39/67/6 31/63/6
f 25/69/6 39/67/6 30/1/6
f 39/67/6 25/69/6 40/70/6
f 12/66/5 11/3/5 13/5/5
f 32/6/5 13/5/5 11/3/5
f 11/3/5 39/67/5 32/6/5
f 14/68/5 39/67/5 11/3/5
f 32/6/5 39/67/5 31/63/5
f 31/63/5 39/67/5 30/1/5
f 30/1/5 39/67/5 25/69/5
f 40/70/5 25/69/5 39/67/5
f 33/45/13 4/39/13 17/37/13
f 4/39/13 33/45/13 2/40/13
f 34/46/13 2/40/13 33/45/13
f 2/40/13 34/46/13 26/41/13
f 17/37/14 4/39/14 33/45/14
f 2/40/14 33/45/14 4/39/14
f 33/45/14 2/40/14 34/46/14
f 26/41/14 34/46/14 2/40/14

