# Created by Kenney (www.kenney.nl)

mtllib structure-wall.mtl

g structure-wall

v 0.5 3 0.5
v 0.5 3 1.5
v -0.5 3 0.5
v -0.5 3 1.5
v -0.5 2.279161E-16 0.5
v 0.5 2.279161E-16 0.5
v -0.5 0.6 0.5
v 0.5 0.6 0.5
v -0.5 0.9 0.6
v 0.5 0.9 0.6
v -0.5 1.5 0.6
v 0.5 1.5 0.6
v -0.5 1.6 0.6
v 0.5 1.6 0.6
v -0.5 2.7 0.6
v 0.5 2.7 0.6
v -0.5 2.8 0.6
v 0.5 2.8 0.6
v 0.5 2.8 0.5
v -0.5 2.8 0.5
v -0.5 1.2 0.6
v 0.5 1.2 0.6
v 0.5 4.743824E-17 -0.5
v -0.5 4.743824E-17 -0.5
v -0.5 1.2 0.7
v 0.5 1.2 0.7
v -0.5 1.5 0.7
v 0.5 1.5 0.7

vn 0 1 0
vn 0 -1 0
vn 0 0 -1
vn 0 0.1601822 -0.9870875
vn 0 -0.1601822 0.9870875
vn 0 0 1
vn 0 0.3162278 -0.9486833
vn 0 -0.3162278 0.9486833
vn 0 -0.7071068 -0.7071068
vn 0 0.7071068 0.7071068
vn 0 0.7071068 -0.7071068
vn 0 -0.7071068 0.7071068

vt -19.68504 19.68504
vt -19.68504 59.05512
vt 19.68504 19.68504
vt 19.68504 59.05512
vt 19.68504 1.510816E-13
vt -19.68504 1.510816E-13
vt 19.68504 23.62205
vt -19.68504 23.62205
vt 19.68504 28.6348
vt -19.68504 28.6348
vt 19.68504 41.08471
vt -19.68504 41.08471
vt 19.68504 62.99213
vt -19.68504 62.99213
vt 19.68504 106.2992
vt -19.68504 106.2992
vt 19.68504 110.2362
vt -19.68504 110.2362
vt 19.68504 118.1102
vt -19.68504 118.1102
vt 19.68504 35.43307
vt -19.68504 35.43307
vt 19.68504 47.24409
vt -19.68504 47.24409
vt -19.68504 -19.68504
vt 19.68504 -19.68504
vt -19.68504 27.55906
vt 19.68504 27.55906

usemtl grey-dark

f 3/3/1 2/2/1 1/1/1
f 2/2/1 3/3/1 4/4/1
f 1/1/2 2/2/2 3/3/2
f 4/4/2 3/3/2 2/2/2
f 7/7/4 6/6/3 5/5/3
f 6/6/3 7/7/4 8/8/4
f 5/5/6 6/6/6 7/7/5
f 8/8/5 7/7/5 6/6/6
f 9/11/7 8/10/4 7/9/4
f 8/10/4 9/11/7 10/12/7
f 7/9/5 8/10/5 9/11/8
f 10/12/8 9/11/8 8/10/5
f 13/13/3 12/2/3 11/4/3
f 12/2/3 13/13/3 14/14/3
f 11/4/6 12/2/6 13/13/6
f 14/14/6 13/13/6 12/2/6
f 17/17/3 16/16/3 15/15/3
f 16/16/3 17/17/3 18/18/3
f 15/15/6 16/16/6 17/17/6
f 18/18/6 17/17/6 16/16/6
f 17/8/2 19/3/9 18/7/2
f 19/3/9 17/8/2 20/1/9
f 18/7/1 19/3/10 17/8/1
f 20/1/10 17/8/1 19/3/10
f 3/19/3 19/18/9 20/17/9
f 19/18/9 3/19/3 1/20/3
f 20/17/10 19/18/10 3/19/6
f 1/20/6 3/19/6 19/18/10

usemtl grey

f 21/23/3 10/22/3 9/21/3
f 10/22/3 21/23/3 22/24/3
f 9/21/6 10/22/6 21/23/6
f 22/24/6 21/23/6 10/22/6
f 15/15/3 14/14/3 13/13/3
f 14/14/3 15/15/3 16/16/3
f 13/13/6 14/14/6 15/15/6
f 16/16/6 15/15/6 14/14/6
f 24/26/1 6/1/1 23/25/1
f 6/1/1 24/26/1 5/3/1
f 23/25/2 6/1/2 24/26/2
f 5/3/2 24/26/2 6/1/2

usemtl striping

f 27/4/9 26/24/11 25/23/11
f 26/24/11 27/4/9 28/2/9
f 25/23/12 26/24/12 27/4/10
f 28/2/10 27/4/10 26/24/12
f 22/8/1 25/28/11 26/27/11
f 25/28/11 22/8/1 21/7/1
f 26/27/12 25/28/12 22/8/2
f 21/7/2 22/8/2 25/28/12
f 27/27/9 12/7/2 28/28/9
f 12/7/2 27/27/9 11/8/2
f 28/28/10 12/7/1 27/27/10
f 11/8/1 27/27/10 12/7/1

