# Created by Kenney (www.kenney.nl)

mtllib structure-yellow-short.mtl

g structure-yellow-short

v 0.075 0.5 -0.5
v 0.075 0.5 -0.35
v -0.075 0.5 -0.5
v 0.0375 0.5 -0.35
v -0.0375 0.5 -0.35
v -0.075 0.5 -0.35
v -0.075 0.15 -0.5
v -0.075 0.15 -0.35
v 0.075 0.15 0.35
v 0.075 0.15 0.5
v 0.075 0.5 0.35
v 0.075 0.5 0.5
v 0.075 0.15 -0.5
v -0.0375 0.4 -0.35
v 0.0375 0.4 -0.35
v -0.0375 0.25 -0.35
v 0.0375 0.25 -0.35
v 0.075 0.15 -0.35
v -0.075 0.15 0.5
v -0.075 0.5 0.5
v 0.0375 0.5 0.35
v -0.0375 0.5 0.35
v -0.075 0.5 0.35
v 0.0375 0.4 0.35
v -0.0375 0.4 0.35
v 0.0375 0.25 0.35
v -0.0375 0.25 0.35
v -0.075 0.15 0.35
v 0.0375 0.15 0.4625
v 0.0375 0.15 0.3875
v -0.0375 0.15 0.4625
v -0.0375 0.15 0.3875
v 0.0375 0.15 -0.3875
v 0.0375 0.15 -0.4625
v -0.0375 0.15 -0.3875
v -0.0375 0.15 -0.4625
v -0.075 0.075 -0.5
v -0.075 0.075 -0.35
v 0.075 0 -0.35
v -0.075 0 -0.35
v 0.075 0.075 -0.35
v 0.075 0.075 -0.5
v -0.075 0.075 0.35
v 0.075 0.075 0.35
v -0.075 0 0.35
v -0.075 0 0.5
v -0.075 0.075 0.5
v 0.075 0 0.5
v 0.075 0 0.35
v 0.075 0 -0.5
v 0.075 0.075 0.5
v -0.075 0 -0.5

vn 0 1 0
vn 0 -1 0
vn -0.7071068 0 -0.7071068
vn -1 0 0
vn 1 0 0
vn 0.7071068 0 0.7071068
vn 0.7071068 0 -0.7071068
vn -0.7071068 0 0.7071068
vn 0 0 1
vn 0 0 -1
vn -0.9809786 0.1941159 0
vn -0.8944272 0.4472136 0
vn 0.9809786 -0.1941159 0
vn 0.8944272 -0.4472136 0
vn 0 0.1941159 0.9809786
vn 0 -0.1941159 -0.9809786
vn 0 0.1941159 -0.9809786
vn 0 0.4472136 -0.8944272
vn 0 -0.4472136 0.8944272
vn 0 -0.1941159 0.9809786
vn 0 0.4472136 0.8944272
vn 0 -0.4472136 -0.8944272
vn 0.9809786 0.1941159 0
vn 0.8944272 0.4472136 0
vn -0.8944272 -0.4472136 0
vn -0.9809786 -0.1941159 0
vn 0.7071068 0.7071068 0
vn -0.7071068 0.7071068 0
vn 0.7071068 -0.7071068 0
vn -0.7071068 -0.7071068 0

vt -2.952756 -19.68504
vt -2.952756 -13.77953
vt 2.952756 -19.68504
vt -1.476378 -13.77953
vt 1.476378 -13.77953
vt 2.952756 -13.77953
vt -19.68504 5.905512
vt -19.68504 19.68504
vt -13.77953 5.905512
vt -13.77953 19.68504
vt 2.952756 5.905512
vt -2.952756 5.905512
vt 2.952756 19.68504
vt -2.952756 19.68504
vt -1.476378 19.68504
vt 1.476378 19.68504
vt -1.476378 15.74803
vt 1.476378 15.74803
vt -1.476378 9.84252
vt 1.476378 9.84252
vt 13.77953 5.905512
vt 13.77953 19.68504
vt 19.68504 5.905512
vt 19.68504 19.68504
vt -2.952756 13.77953
vt -1.476378 13.77953
vt 1.476378 13.77953
vt 2.952756 13.77953
vt 1.476378 18.20866
vt 1.476378 15.25591
vt -1.476378 18.20866
vt -1.476378 15.25591
vt 1.476378 -15.25591
vt 1.476378 -18.20866
vt -1.476378 -15.25591
vt -1.476378 -18.20866
vt -19.68504 1.320513
vt -18.20866 4.621794
vt -13.77953 1.320513
vt -15.25591 4.621794
vt 2.952756 0
vt -2.952756 0
vt 2.952756 2.952756
vt -2.952756 2.952756
vt 2.952756 -6.162392
vt -2.952756 -6.162392
vt 1.476378 -2.861111
vt -1.476378 -2.861111
vt 2.952756 8.803417
vt -2.952756 8.803417
vt 1.476378 12.1047
vt -1.476378 12.1047
vt 19.68504 1.320513
vt 13.77953 1.320513
vt 18.20866 4.621794
vt 15.25591 4.621794
vt 13.77953 0
vt 13.77953 2.952756
vt 19.68504 0
vt 19.68504 2.952756
vt -13.77953 2.952756
vt -13.77953 0
vt -19.68504 2.952756
vt -19.68504 0
vt -13.77953 15.74803
vt 13.77953 15.74803
vt -13.77953 9.84252
vt 13.77953 9.84252

usemtl grey

f 3/3/1 2/2/1 1/1/1
f 2/2/1 3/3/1 4/4/1
f 4/4/1 3/3/1 5/5/1
f 5/5/1 3/3/1 6/6/1
f 1/1/2 2/2/2 3/3/2
f 4/4/2 3/3/2 2/2/2
f 5/5/2 3/3/2 4/4/2
f 6/6/2 3/3/2 5/5/2
f 8/9/4 3/8/3 7/7/3
f 3/8/3 8/9/4 6/10/4
f 7/7/6 3/8/6 8/9/5
f 6/10/5 8/9/5 3/8/6
f 11/10/5 10/7/6 9/9/5
f 10/7/6 11/10/5 12/8/6
f 9/9/4 10/7/3 11/10/4
f 12/8/3 11/10/4 10/7/3
f 3/13/3 13/12/7 7/11/3
f 13/12/7 3/13/3 1/14/7
f 7/11/6 13/12/8 3/13/6
f 1/14/8 3/13/6 13/12/8
f 6/14/9 4/16/9 5/15/9
f 6/14/9 2/13/9 4/16/9
f 6/14/9 14/17/9 2/13/9
f 15/18/9 2/13/9 14/17/9
f 6/14/9 16/19/9 14/17/9
f 8/12/9 16/19/9 6/14/9
f 17/20/9 2/13/9 15/18/9
f 16/19/9 8/12/9 17/20/9
f 17/20/9 18/11/9 2/13/9
f 18/11/9 17/20/9 8/12/9
f 5/15/10 4/16/10 6/14/10
f 4/16/10 2/13/10 6/14/10
f 2/13/10 14/17/10 6/14/10
f 14/17/10 16/19/10 6/14/10
f 14/17/10 2/13/10 15/18/10
f 6/14/10 16/19/10 8/12/10
f 15/18/10 2/13/10 17/20/10
f 17/20/10 8/12/10 16/19/10
f 2/13/10 18/11/10 17/20/10
f 8/12/10 17/20/10 18/11/10
f 12/13/6 19/12/8 10/11/6
f 19/12/8 12/13/6 20/14/8
f 10/11/3 19/12/7 12/13/3
f 20/14/7 12/13/3 19/12/7
f 11/14/10 22/16/10 21/15/10
f 11/14/10 23/13/10 22/16/10
f 11/14/10 24/17/10 23/13/10
f 25/18/10 23/13/10 24/17/10
f 11/14/10 26/19/10 24/17/10
f 9/12/10 26/19/10 11/14/10
f 27/20/10 23/13/10 25/18/10
f 26/19/10 9/12/10 27/20/10
f 27/20/10 28/11/10 23/13/10
f 28/11/10 27/20/10 9/12/10
f 21/15/9 22/16/9 11/14/9
f 22/16/9 23/13/9 11/14/9
f 23/13/9 24/17/9 11/14/9
f 24/17/9 26/19/9 11/14/9
f 24/17/9 23/13/9 25/18/9
f 11/14/9 26/19/9 9/12/9
f 25/18/9 23/13/9 27/20/9
f 27/20/9 9/12/9 26/19/9
f 23/13/9 28/11/9 27/20/9
f 9/12/9 27/20/9 28/11/9
f 19/23/8 23/22/4 28/21/4
f 23/22/4 19/23/8 20/24/8
f 28/21/5 23/22/5 19/23/7
f 20/24/7 19/23/7 23/22/5
f 21/26/1 12/14/1 11/25/1
f 12/14/1 21/26/1 20/13/1
f 20/13/1 21/26/1 22/27/1
f 20/13/1 22/27/1 23/28/1
f 11/25/2 12/14/2 21/26/2
f 20/13/2 21/26/2 12/14/2
f 22/27/2 21/26/2 20/13/2
f 23/28/2 22/27/2 20/13/2
f 2/22/5 13/23/7 1/24/7
f 13/23/7 2/22/5 18/21/5
f 1/24/8 13/23/8 2/22/4
f 18/21/4 2/22/4 13/23/8
f 10/13/2 29/29/2 9/28/2
f 29/29/2 10/13/2 19/14/2
f 30/30/2 9/28/2 29/29/2
f 29/29/2 19/14/2 31/31/2
f 9/28/2 30/30/2 28/25/2
f 31/31/2 19/14/2 32/32/2
f 28/25/2 30/30/2 32/32/2
f 28/25/2 32/32/2 19/14/2
f 18/6/2 33/33/2 13/3/2
f 33/33/2 18/6/2 8/2/2
f 34/34/2 13/3/2 33/33/2
f 33/33/2 8/2/2 35/35/2
f 13/3/2 34/34/2 7/1/2
f 35/35/2 8/2/2 36/36/2
f 7/1/2 34/34/2 36/36/2
f 7/1/2 36/36/2 8/2/2
f 9/28/1 29/29/1 10/13/1
f 19/14/1 10/13/1 29/29/1
f 29/29/1 9/28/1 30/30/1
f 31/31/1 19/14/1 29/29/1
f 28/25/1 30/30/1 9/28/1
f 32/32/1 19/14/1 31/31/1
f 32/32/1 30/30/1 28/25/1
f 19/14/1 32/32/1 28/25/1
f 13/3/1 33/33/1 18/6/1
f 8/2/1 18/6/1 33/33/1
f 33/33/1 13/3/1 34/34/1
f 35/35/1 8/2/1 33/33/1
f 7/1/1 34/34/1 13/3/1
f 36/36/1 8/2/1 35/35/1
f 36/36/1 34/34/1 7/1/1
f 8/2/1 36/36/1 7/1/1

usemtl dark

f 38/39/11 36/38/12 37/37/11
f 36/38/12 38/39/11 35/40/12
f 37/37/13 36/38/14 38/39/13
f 35/40/14 38/39/13 36/38/14
f 41/43/15 40/42/9 39/41/9
f 40/42/9 41/43/15 38/44/15
f 39/41/10 40/42/10 41/43/16
f 38/44/16 41/43/16 40/42/10
f 36/47/18 42/46/17 37/45/17
f 42/46/17 36/47/18 34/48/18
f 37/45/20 42/46/20 36/47/19
f 34/48/19 36/47/19 42/46/20
f 32/51/18 44/50/17 43/49/17
f 44/50/17 32/51/18 30/52/18
f 43/49/20 44/50/20 32/51/19
f 30/52/19 32/51/19 44/50/20
f 33/51/21 38/50/15 41/49/15
f 38/50/15 33/51/21 35/52/21
f 41/49/16 38/50/16 33/51/22
f 35/52/22 33/51/22 38/50/16
f 34/55/24 41/54/23 42/53/23
f 41/54/23 34/55/24 33/56/24
f 42/53/26 41/54/26 34/55/25
f 33/56/25 34/55/25 41/54/26
f 46/59/4 43/58/11 45/57/4
f 43/58/11 46/59/4 47/60/11
f 45/57/5 43/58/13 46/59/5
f 47/60/13 46/59/5 43/58/13
f 47/53/11 32/56/12 43/54/11
f 32/56/12 47/53/11 31/55/12
f 43/54/13 32/56/14 47/53/13
f 31/55/14 47/53/13 32/56/14
f 46/14/2 49/28/2 48/13/2
f 49/28/2 46/14/2 45/25/2
f 48/13/1 49/28/1 46/14/1
f 45/25/1 46/14/1 49/28/1
f 41/58/23 50/59/5 42/60/23
f 50/59/5 41/58/23 39/57/5
f 42/60/26 50/59/4 41/58/26
f 39/57/4 41/58/26 50/59/4
f 51/63/23 49/62/5 44/61/23
f 49/62/5 51/63/23 48/64/5
f 44/61/26 49/62/4 51/63/26
f 48/64/4 51/63/26 49/62/4
f 51/43/15 46/42/9 48/41/9
f 46/42/9 51/43/15 47/44/15
f 48/41/10 46/42/10 51/43/16
f 47/44/16 51/43/16 46/42/10
f 40/62/4 37/63/11 52/64/4
f 37/63/11 40/62/4 38/61/11
f 52/64/5 37/63/13 40/62/5
f 38/61/13 40/62/5 37/63/13
f 43/43/17 49/42/10 45/41/10
f 49/42/10 43/43/17 44/44/17
f 45/41/9 49/42/9 43/43/20
f 44/44/20 43/43/20 49/42/9
f 30/40/24 51/37/23 44/39/23
f 51/37/23 30/40/24 29/38/24
f 44/39/26 51/37/26 30/40/25
f 29/38/25 30/40/25 51/37/26
f 29/47/21 47/46/15 51/45/15
f 47/46/15 29/47/21 31/48/21
f 51/45/16 47/46/16 29/47/22
f 31/48/22 29/47/22 47/46/16
f 37/43/17 50/42/10 52/41/10
f 50/42/10 37/43/17 42/44/17
f 52/41/9 50/42/9 37/43/20
f 42/44/20 37/43/20 50/42/9
f 40/2/2 50/3/2 39/6/2
f 50/3/2 40/2/2 52/1/2
f 39/6/1 50/3/1 40/2/1
f 52/1/1 40/2/1 50/3/1

usemtl striping

f 14/5/28 24/26/27 15/4/27
f 24/26/27 14/5/28 25/27/28
f 15/4/30 24/26/30 14/5/29
f 25/27/29 14/5/29 24/26/30
f 27/26/2 17/5/2 26/27/2
f 17/5/2 27/26/2 16/4/2
f 26/27/1 17/5/1 27/26/1
f 16/4/1 27/26/1 17/5/1
f 16/67/4 25/66/28 14/65/28
f 25/66/28 16/67/4 27/68/4
f 14/65/29 25/66/29 16/67/5
f 27/68/5 16/67/5 25/66/29
f 24/65/27 17/68/5 15/66/27
f 17/68/5 24/65/27 26/67/5
f 15/66/30 17/68/4 24/65/30
f 26/67/4 24/65/30 17/68/4

