# Created by Kenney (www.kenney.nl)

mtllib structure-doorway-wide.mtl

g structure-doorway-wide

v -0.9 1.6 0.3
v -0.9 3.946726E-15 0.3
v -0.9 1.6 1.5
v -0.9 3.997862E-15 0.7
v -0.9 3.997862E-15 1.5
v 1 1.6 0.3
v 1 1.918205E-16 0.3
v 1 1.6 0.6
v 1 2.429559E-16 0.7
v 1 1.6 1.5
v 1 2.429559E-16 1.5
v 0.9 4.824318E-15 0.3
v 0.9 1.6 0.3
v 0.9 4.875453E-15 0.7
v 0.9 1.6 1.5
v 0.9 4.875453E-15 1.5
v 0.9 1.7 0.3
v 0.9 1.7 0.6
v 0.9 1.7 1.5
v -1 1.950165E-16 0.3
v -1 1.6 0.3
v -1 2.461519E-16 0.7
v -1 1.6 0.6
v -1 1.6 1.5
v -1 2.461519E-16 1.5
v 1 3 0.5
v 1 3 1.5
v -1 3 0.5
v -1 3 1.5
v -1 2.7 0.6
v 1 2.7 0.6
v -1 2.8 0.6
v 1 2.8 0.6
v -0.9 1.7 0.3
v -0.9 1.7 0.6
v -0.9 1.7 1.5
v 1 2.8 0.5
v -1 2.8 0.5
v -1 4.743824E-17 -0.5
v 1 4.743824E-17 -0.5

vn 1 0 0
vn -1 0 0
vn 0.9238795 0.3826834 0
vn -0.9238795 -0.3826834 0
vn 0.3826834 0.9238795 0
vn -0.3826834 -0.9238795 0
vn 0 -1 0
vn 0 1 0
vn -0.9238795 0.3826834 0
vn 0.9238795 -0.3826834 0
vn 0 0 -1
vn 0 0 1
vn -0.3826834 0.9238795 0
vn 0.3826834 -0.9238795 0
vn 0 -0.7071068 -0.7071068
vn 0 0.7071068 0.7071068

vt -11.81102 62.99213
vt -11.81102 -8.038498E-13
vt -59.05512 62.99213
vt -27.55906 -8.018366E-13
vt -59.05512 -8.018366E-13
vt -11.81102 7.551989E-15
vt -23.62205 62.99213
vt -27.55906 9.565194E-15
vt -59.05512 9.565194E-15
vt 11.81102 -1.856429E-12
vt 11.81102 62.99213
vt 27.55906 -1.854416E-12
vt 59.05512 62.99213
vt 59.05512 -1.854416E-12
vt -11.81102 22.27108
vt -11.81102 16.70331
vt -23.62205 22.27108
vt -23.62205 16.70331
vt -59.05512 16.70331
vt -59.05512 22.27108
vt 35.43307 59.05512
vt 35.43307 11.81102
vt -35.43307 59.05512
vt -35.43307 11.81102
vt 11.81102 -6.053429E-14
vt 27.55906 -5.852109E-14
vt 23.62205 62.99213
vt 59.05512 -5.852109E-14
vt -39.37008 19.68504
vt -39.37008 59.05512
vt 39.37008 19.68504
vt 39.37008 59.05512
vt 39.37008 106.2992
vt -39.37008 106.2992
vt 39.37008 110.2362
vt -39.37008 110.2362
vt 39.37008 7.677815E-15
vt 35.43307 1.553829E-13
vt 39.37008 62.99213
vt 35.43307 62.99213
vt 35.43307 66.92913
vt -35.43307 66.92913
vt -39.37008 62.99213
vt -35.43307 62.99213
vt -35.43307 1.899338E-13
vt -39.37008 7.551989E-15
vt 11.81102 16.70331
vt 11.81102 22.27108
vt 23.62205 16.70331
vt 23.62205 22.27108
vt 59.05512 16.70331
vt 59.05512 22.27108
vt 39.37008 23.62205
vt -39.37008 23.62205
vt -35.43307 23.62205
vt 35.43307 23.62205
vt 39.37008 118.1102
vt -39.37008 118.1102
vt 39.37008 9.565194E-15
vt 35.43307 1.91947E-13
vt -35.43307 1.573961E-13
vt -39.37008 9.691019E-15
vt -35.43307 27.55906
vt -39.37008 27.55906
vt 39.37008 27.55906
vt 35.43307 27.55906
vt 39.37008 -19.68504
vt 39.37008 11.81102
vt -39.37008 11.81102
vt -39.37008 -19.68504

usemtl grey-dark

f 3/3/1 2/2/1 1/1/1
f 2/2/1 3/3/1 4/4/1
f 4/4/1 3/3/1 5/5/1
f 1/1/2 2/2/2 3/3/2
f 4/4/2 3/3/2 2/2/2
f 5/5/2 3/3/2 4/4/2
f 8/7/3 7/6/1 6/1/3
f 7/6/1 8/7/3 9/8/1
f 9/8/1 8/7/3 10/3/3
f 9/8/1 10/3/3 11/9/1
f 6/1/4 7/6/2 8/7/4
f 9/8/2 8/7/4 7/6/2
f 10/3/4 8/7/4 9/8/2
f 11/9/2 10/3/4 9/8/2
f 14/12/2 13/11/2 12/10/2
f 13/11/2 14/12/2 15/13/2
f 15/13/2 14/12/2 16/14/2
f 12/10/1 13/11/1 14/12/1
f 15/13/1 14/12/1 13/11/1
f 16/14/1 14/12/1 15/13/1
f 18/17/5 6/16/3 17/15/5
f 6/16/3 18/17/5 8/18/3
f 18/17/5 10/19/3 8/18/3
f 10/19/3 18/17/5 19/20/5
f 17/15/6 6/16/4 18/17/6
f 8/18/4 18/17/6 6/16/4
f 8/18/4 10/19/4 18/17/6
f 19/20/6 18/17/6 10/19/4
f 3/23/7 13/22/7 15/21/7
f 13/22/7 3/23/7 1/24/7
f 15/21/8 13/22/8 3/23/8
f 1/24/8 3/23/8 13/22/8
f 22/26/2 21/11/9 20/25/2
f 21/11/9 22/26/2 23/27/9
f 23/27/9 22/26/2 24/13/9
f 24/13/9 22/26/2 25/28/2
f 20/25/1 21/11/10 22/26/1
f 23/27/10 22/26/1 21/11/10
f 24/13/10 22/26/1 23/27/10
f 25/28/1 22/26/1 24/13/10
f 28/31/8 27/30/8 26/29/8
f 27/30/8 28/31/8 29/32/8
f 26/29/7 27/30/7 28/31/7
f 29/32/7 28/31/7 27/30/7
f 32/35/11 31/34/11 30/33/11
f 31/34/11 32/35/11 33/36/11
f 30/33/12 31/34/12 32/35/12
f 33/36/12 32/35/12 31/34/12
f 21/39/11 2/38/11 20/37/11
f 2/38/11 21/39/11 1/40/11
f 1/40/11 21/39/11 34/41/11
f 17/42/11 1/40/11 34/41/11
f 6/43/11 1/40/11 17/42/11
f 6/43/11 13/44/11 1/40/11
f 6/43/11 12/45/11 13/44/11
f 12/45/11 6/43/11 7/46/11
f 20/37/12 2/38/12 21/39/12
f 1/40/12 21/39/12 2/38/12
f 34/41/12 21/39/12 1/40/12
f 34/41/12 1/40/12 17/42/12
f 17/42/12 1/40/12 6/43/12
f 1/40/12 13/44/12 6/43/12
f 13/44/12 12/45/12 6/43/12
f 7/46/12 6/43/12 12/45/12
f 23/49/9 34/48/13 21/47/9
f 34/48/13 23/49/9 35/50/13
f 24/51/9 35/50/13 23/49/9
f 35/50/13 24/51/9 36/52/13
f 21/47/10 34/48/14 23/49/10
f 35/50/14 23/49/10 34/48/14
f 23/49/10 35/50/14 24/51/10
f 36/52/14 24/51/10 35/50/14
f 32/54/7 37/31/15 33/53/7
f 37/31/15 32/54/7 38/29/15
f 33/53/8 37/31/16 32/54/8
f 38/29/16 32/54/8 37/31/16
f 34/22/13 18/55/5 17/24/5
f 18/55/5 34/22/13 35/56/13
f 36/21/13 18/55/5 35/56/13
f 18/55/5 36/21/13 19/23/5
f 17/24/6 18/55/6 34/22/14
f 35/56/14 34/22/14 18/55/6
f 35/56/14 18/55/6 36/21/14
f 19/23/6 36/21/14 18/55/6
f 28/57/11 37/36/15 38/35/15
f 37/36/15 28/57/11 26/58/11
f 38/35/16 37/36/16 28/57/12
f 26/58/12 28/57/12 37/36/16
f 10/39/12 16/60/12 11/59/12
f 16/60/12 10/39/12 15/40/12
f 15/40/12 10/39/12 3/44/12
f 3/44/12 10/39/12 19/41/12
f 36/42/12 3/44/12 19/41/12
f 24/43/12 3/44/12 36/42/12
f 24/43/12 5/61/12 3/44/12
f 5/61/12 24/43/12 25/62/12
f 11/59/11 16/60/11 10/39/11
f 15/40/11 10/39/11 16/60/11
f 3/44/11 10/39/11 15/40/11
f 19/41/11 10/39/11 3/44/11
f 19/41/11 3/44/11 36/42/11
f 36/42/11 3/44/11 24/43/11
f 3/44/11 5/61/11 24/43/11
f 25/62/11 24/43/11 5/61/11
f 25/30/7 4/63/7 5/23/7
f 4/63/7 25/30/7 22/64/7
f 5/23/8 4/63/8 25/30/8
f 22/64/8 25/30/8 4/63/8
f 16/21/7 9/65/7 11/32/7
f 9/65/7 16/21/7 14/66/7
f 11/32/8 9/65/8 16/21/8
f 14/66/8 16/21/8 9/65/8

usemtl grey

f 5/21/8 2/22/8 4/66/8
f 2/22/8 5/21/8 16/23/8
f 16/23/8 39/67/8 2/22/8
f 2/22/8 39/67/8 20/68/8
f 14/63/8 39/67/8 16/23/8
f 12/24/8 39/67/8 14/63/8
f 7/69/8 39/67/8 12/24/8
f 39/67/8 7/69/8 40/70/8
f 4/66/7 2/22/7 5/21/7
f 16/23/7 5/21/7 2/22/7
f 2/22/7 39/67/7 16/23/7
f 20/68/7 39/67/7 2/22/7
f 16/23/7 39/67/7 14/63/7
f 14/63/7 39/67/7 12/24/7
f 12/24/7 39/67/7 7/69/7
f 40/70/7 7/69/7 39/67/7
f 30/33/11 35/41/11 23/39/11
f 35/41/11 30/33/11 18/42/11
f 31/34/11 18/42/11 30/33/11
f 18/42/11 31/34/11 8/43/11
f 23/39/12 35/41/12 30/33/12
f 18/42/12 30/33/12 35/41/12
f 30/33/12 18/42/12 31/34/12
f 8/43/12 31/34/12 18/42/12

