# Created by Kenney (www.kenney.nl)

mtllib structure-yellow-tall.mtl

g structure-yellow-tall

v 0.075 2 -0.5
v 0.075 2 -0.35
v -0.075 2 -0.5
v 0.0375 2 -0.35
v -0.075 2 -0.35
v -0.075 0.15 -0.5
v -0.075 0.15 -0.35
v 0.075 0.15 0.35
v 0.075 0.15 0.5
v 0.075 2 0.35
v 0.075 2 0.5
v 0.075 0.15 -0.5
v -0.0375 1.6 -0.35
v 0.0375 1.6 -0.35
v -0.0375 1.45 -0.35
v 0.0375 1.45 -0.35
v -0.0375 0.7 -0.35
v -0.0375 0.55 -0.35
v 0.0375 0.7 -0.35
v 0.0375 0.55 -0.35
v 0.075 0.15 -0.35
v -0.075 0.15 0.5
v -0.075 2 0.5
v -0.075 0.15 0.35
v -0.075 2 0.35
v 0.0375 0.15 0.4625
v 0.0375 0.15 0.3875
v -0.0375 0.15 0.4625
v -0.0375 0.15 0.3875
v 0.0375 0.15 -0.3875
v 0.0375 0.15 -0.4625
v -0.0375 0.15 -0.3875
v -0.0375 0.15 -0.4625
v -0.0375 1.6 0.35
v -0.0375 1.45 0.35
v 0.0375 1.6 0.35
v 0.0375 1.45 0.35
v 0.0375 0.7 0.35
v -0.0375 0.7 0.35
v 0.0375 0.55 0.35
v -0.0375 0.55 0.35
v -0.075 0.075 -0.5
v -0.075 0.075 -0.35
v 0.075 0 -0.35
v -0.075 0 -0.35
v 0.075 0.075 -0.35
v 0.075 0.075 -0.5
v -0.075 0.075 0.35
v 0.075 0.075 0.35
v -0.075 0 0.35
v -0.075 0 0.5
v -0.075 0.075 0.5
v 0.075 0 0.5
v 0.075 0 0.35
v 0.075 0 -0.5
v 0.075 0.075 0.5
v -0.075 0 -0.5

vn 0 1 0
vn 0 -1 0
vn -0.7071068 0 -0.7071068
vn -1 0 0
vn 1 0 0
vn 0.7071068 0 0.7071068
vn 0.7071068 0 -0.7071068
vn -0.7071068 0 0.7071068
vn 0 0 1
vn 0 0 -1
vn -0.9809786 0.1941159 0
vn -0.8944272 0.4472136 0
vn 0.9809786 -0.1941159 0
vn 0.8944272 -0.4472136 0
vn 0 0.1941159 0.9809786
vn 0 -0.1941159 -0.9809786
vn 0 0.1941159 -0.9809786
vn 0 0.4472136 -0.8944272
vn 0 -0.4472136 0.8944272
vn 0 -0.1941159 0.9809786
vn 0 0.4472136 0.8944272
vn 0 -0.4472136 -0.8944272
vn 0.9809786 0.1941159 0
vn 0.8944272 0.4472136 0
vn -0.8944272 -0.4472136 0
vn -0.9809786 -0.1941159 0
vn 0.7071068 0.7071068 0
vn -0.7071068 -0.7071068 0
vn -0.7071068 0.7071068 0
vn 0.7071068 -0.7071068 0

vt -2.952756 -19.68504
vt -2.952756 -13.77953
vt 2.952756 -19.68504
vt -1.476378 -13.77953
vt 2.952756 -13.77953
vt -19.68504 5.905512
vt -19.68504 78.74016
vt -13.77953 5.905512
vt -13.77953 78.74016
vt 2.952756 5.905512
vt -2.952756 5.905512
vt 2.952756 78.74016
vt -2.952756 78.74016
vt 1.476378 78.74016
vt -1.476378 62.99213
vt 1.476378 62.99213
vt -1.476378 57.08661
vt 1.476378 57.08661
vt -1.476378 27.55906
vt -1.476378 21.65354
vt 1.476378 27.55906
vt 1.476378 21.65354
vt 13.77953 5.905512
vt 13.77953 78.74016
vt 19.68504 5.905512
vt 19.68504 78.74016
vt -2.952756 13.77953
vt -2.952756 19.68504
vt 2.952756 13.77953
vt 2.952756 19.68504
vt 1.476378 18.20866
vt 1.476378 15.25591
vt -1.476378 18.20866
vt -1.476378 15.25591
vt 1.476378 -15.25591
vt 1.476378 -18.20866
vt -1.476378 -15.25591
vt -1.476378 -18.20866
vt -19.68504 1.320513
vt -18.20866 4.621794
vt -13.77953 1.320513
vt -15.25591 4.621794
vt 2.952756 0
vt -2.952756 0
vt 2.952756 2.952756
vt -2.952756 2.952756
vt 2.952756 -6.162392
vt -2.952756 -6.162392
vt 1.476378 -2.861111
vt -1.476378 -2.861111
vt 2.952756 8.803417
vt -2.952756 8.803417
vt 1.476378 12.1047
vt -1.476378 12.1047
vt 19.68504 1.320513
vt 13.77953 1.320513
vt 18.20866 4.621794
vt 15.25591 4.621794
vt 13.77953 0
vt 13.77953 2.952756
vt 19.68504 0
vt 19.68504 2.952756
vt -13.77953 2.952756
vt -13.77953 0
vt -19.68504 2.952756
vt -19.68504 0
vt 1.476378 13.77953
vt 1.476378 -13.77953
vt -1.476378 13.77953
vt 13.77953 62.99213
vt 13.77953 57.08661
vt -13.77953 62.99213
vt -13.77953 57.08661
vt -13.77953 27.55906
vt 13.77953 27.55906
vt -13.77953 21.65354
vt 13.77953 21.65354

usemtl grey

f 3/3/1 2/2/1 1/1/1
f 2/2/1 3/3/1 4/4/1
f 4/4/1 3/3/1 5/5/1
f 1/1/2 2/2/2 3/3/2
f 4/4/2 3/3/2 2/2/2
f 5/5/2 3/3/2 4/4/2
f 7/8/4 3/7/3 6/6/3
f 3/7/3 7/8/4 5/9/4
f 6/6/6 3/7/6 7/8/5
f 5/9/5 7/8/5 3/7/6
f 10/9/5 9/6/6 8/8/5
f 9/6/6 10/9/5 11/7/6
f 8/8/4 9/6/3 10/9/4
f 11/7/3 10/9/4 9/6/3
f 3/12/3 12/11/7 6/10/3
f 12/11/7 3/12/3 1/13/7
f 6/10/6 12/11/8 3/12/6
f 1/13/8 3/12/6 12/11/8
f 5/13/9 2/12/9 4/14/9
f 5/13/9 13/15/9 2/12/9
f 14/16/9 2/12/9 13/15/9
f 5/13/9 15/17/9 13/15/9
f 16/18/9 2/12/9 14/16/9
f 5/13/9 17/19/9 15/17/9
f 15/17/9 17/19/9 16/18/9
f 5/13/9 18/20/9 17/19/9
f 19/21/9 16/18/9 17/19/9
f 19/21/9 2/12/9 16/18/9
f 7/11/9 18/20/9 5/13/9
f 20/22/9 2/12/9 19/21/9
f 18/20/9 7/11/9 20/22/9
f 20/22/9 21/10/9 2/12/9
f 21/10/9 20/22/9 7/11/9
f 4/14/10 2/12/10 5/13/10
f 2/12/10 13/15/10 5/13/10
f 13/15/10 2/12/10 14/16/10
f 13/15/10 15/17/10 5/13/10
f 14/16/10 2/12/10 16/18/10
f 15/17/10 17/19/10 5/13/10
f 16/18/10 17/19/10 15/17/10
f 17/19/10 18/20/10 5/13/10
f 17/19/10 16/18/10 19/21/10
f 16/18/10 2/12/10 19/21/10
f 5/13/10 18/20/10 7/11/10
f 19/21/10 2/12/10 20/22/10
f 20/22/10 7/11/10 18/20/10
f 2/12/10 21/10/10 20/22/10
f 7/11/10 20/22/10 21/10/10
f 11/12/6 22/11/8 9/10/6
f 22/11/8 11/12/6 23/13/8
f 9/10/3 22/11/7 11/12/3
f 23/13/7 11/12/3 22/11/7
f 22/25/8 25/24/4 24/23/4
f 25/24/4 22/25/8 23/26/8
f 24/23/5 25/24/5 22/25/7
f 23/26/7 22/25/7 25/24/5
f 2/24/5 12/25/7 1/26/7
f 12/25/7 2/24/5 21/23/5
f 1/26/8 12/25/8 2/24/4
f 21/23/4 2/24/4 12/25/8
f 25/29/1 11/28/1 10/27/1
f 11/28/1 25/29/1 23/30/1
f 10/27/2 11/28/2 25/29/2
f 23/30/2 25/29/2 11/28/2
f 9/30/2 26/31/2 8/29/2
f 26/31/2 9/30/2 22/28/2
f 27/32/2 8/29/2 26/31/2
f 26/31/2 22/28/2 28/33/2
f 8/29/2 27/32/2 24/27/2
f 28/33/2 22/28/2 29/34/2
f 24/27/2 27/32/2 29/34/2
f 24/27/2 29/34/2 22/28/2
f 21/5/2 30/35/2 12/3/2
f 30/35/2 21/5/2 7/2/2
f 31/36/2 12/3/2 30/35/2
f 30/35/2 7/2/2 32/37/2
f 12/3/2 31/36/2 6/1/2
f 32/37/2 7/2/2 33/38/2
f 6/1/2 31/36/2 33/38/2
f 6/1/2 33/38/2 7/2/2
f 35/18/10 25/12/10 34/16/10
f 34/16/10 25/12/10 36/15/10
f 10/13/10 36/15/10 25/12/10
f 10/13/10 37/17/10 36/15/10
f 37/17/10 38/19/10 35/18/10
f 10/13/10 38/19/10 37/17/10
f 39/21/10 35/18/10 38/19/10
f 39/21/10 25/12/10 35/18/10
f 10/13/10 40/20/10 38/19/10
f 8/11/10 40/20/10 10/13/10
f 41/22/10 25/12/10 39/21/10
f 40/20/10 8/11/10 41/22/10
f 41/22/10 24/10/10 25/12/10
f 24/10/10 41/22/10 8/11/10
f 8/29/1 26/31/1 9/30/1
f 22/28/1 9/30/1 26/31/1
f 26/31/1 8/29/1 27/32/1
f 28/33/1 22/28/1 26/31/1
f 24/27/1 27/32/1 8/29/1
f 29/34/1 22/28/1 28/33/1
f 29/34/1 27/32/1 24/27/1
f 22/28/1 29/34/1 24/27/1
f 12/3/1 30/35/1 21/5/1
f 7/2/1 21/5/1 30/35/1
f 30/35/1 12/3/1 31/36/1
f 32/37/1 7/2/1 30/35/1
f 6/1/1 31/36/1 12/3/1
f 33/38/1 7/2/1 32/37/1
f 33/38/1 31/36/1 6/1/1
f 7/2/1 33/38/1 6/1/1
f 8/11/9 41/22/9 24/10/9
f 25/12/9 24/10/9 41/22/9
f 41/22/9 8/11/9 40/20/9
f 10/13/9 40/20/9 8/11/9
f 39/21/9 25/12/9 41/22/9
f 38/19/9 40/20/9 10/13/9
f 38/19/9 35/18/9 39/21/9
f 35/18/9 25/12/9 39/21/9
f 35/18/9 38/19/9 37/17/9
f 37/17/9 38/19/9 10/13/9
f 34/16/9 25/12/9 35/18/9
f 36/15/9 37/17/9 10/13/9
f 36/15/9 25/12/9 34/16/9
f 25/12/9 36/15/9 10/13/9

usemtl dark

f 43/41/11 33/40/12 42/39/11
f 33/40/12 43/41/11 32/42/12
f 42/39/13 33/40/14 43/41/13
f 32/42/14 43/41/13 33/40/14
f 46/45/15 45/44/9 44/43/9
f 45/44/9 46/45/15 43/46/15
f 44/43/10 45/44/10 46/45/16
f 43/46/16 46/45/16 45/44/10
f 33/49/18 47/48/17 42/47/17
f 47/48/17 33/49/18 31/50/18
f 42/47/20 47/48/20 33/49/19
f 31/50/19 33/49/19 47/48/20
f 29/53/18 49/52/17 48/51/17
f 49/52/17 29/53/18 27/54/18
f 48/51/20 49/52/20 29/53/19
f 27/54/19 29/53/19 49/52/20
f 30/53/21 43/52/15 46/51/15
f 43/52/15 30/53/21 32/54/21
f 46/51/16 43/52/16 30/53/22
f 32/54/22 30/53/22 43/52/16
f 31/57/24 46/56/23 47/55/23
f 46/56/23 31/57/24 30/58/24
f 47/55/26 46/56/26 31/57/25
f 30/58/25 31/57/25 46/56/26
f 51/61/4 48/60/11 50/59/4
f 48/60/11 51/61/4 52/62/11
f 50/59/5 48/60/13 51/61/5
f 52/62/13 51/61/5 48/60/13
f 52/55/11 29/58/12 48/56/11
f 29/58/12 52/55/11 28/57/12
f 48/56/13 29/58/14 52/55/13
f 28/57/14 52/55/13 29/58/14
f 51/28/2 54/29/2 53/30/2
f 54/29/2 51/28/2 50/27/2
f 53/30/1 54/29/1 51/28/1
f 50/27/1 51/28/1 54/29/1
f 46/60/23 55/61/5 47/62/23
f 55/61/5 46/60/23 44/59/5
f 47/62/26 55/61/4 46/60/26
f 44/59/4 46/60/26 55/61/4
f 56/65/23 54/64/5 49/63/23
f 54/64/5 56/65/23 53/66/5
f 49/63/26 54/64/4 56/65/26
f 53/66/4 56/65/26 54/64/4
f 56/45/15 51/44/9 53/43/9
f 51/44/9 56/45/15 52/46/15
f 53/43/10 51/44/10 56/45/16
f 52/46/16 56/45/16 51/44/10
f 45/64/4 42/65/11 57/66/4
f 42/65/11 45/64/4 43/63/11
f 57/66/5 42/65/13 45/64/5
f 43/63/13 45/64/5 42/65/13
f 48/45/17 54/44/10 50/43/10
f 54/44/10 48/45/17 49/46/17
f 50/43/9 54/44/9 48/45/20
f 49/46/20 48/45/20 54/44/9
f 27/42/24 56/39/23 49/41/23
f 56/39/23 27/42/24 26/40/24
f 49/41/26 56/39/26 27/42/25
f 26/40/25 27/42/25 56/39/26
f 26/49/21 52/48/15 56/47/15
f 52/48/15 26/49/21 28/50/21
f 56/47/16 52/48/16 26/49/22
f 28/50/22 26/49/22 52/48/16
f 42/45/17 55/44/10 57/43/10
f 55/44/10 42/45/17 47/46/17
f 57/43/9 55/44/9 42/45/20
f 47/46/20 42/45/20 55/44/9
f 45/2/2 55/3/2 44/5/2
f 55/3/2 45/2/2 57/1/2
f 44/5/1 55/3/1 45/2/1
f 57/1/1 45/2/1 55/3/1

usemtl striping

f 35/69/2 16/68/2 37/67/2
f 16/68/2 35/69/2 15/4/2
f 37/67/1 16/68/1 35/69/1
f 15/4/1 35/69/1 16/68/1
f 41/69/2 20/68/2 40/67/2
f 20/68/2 41/69/2 18/4/2
f 40/67/1 20/68/1 41/69/1
f 18/4/1 41/69/1 20/68/1
f 36/72/27 16/71/5 14/70/27
f 16/71/5 36/72/27 37/73/5
f 14/70/28 16/71/4 36/72/28
f 37/73/4 36/72/28 16/71/4
f 13/68/29 36/69/27 14/4/27
f 36/69/27 13/68/29 34/67/29
f 14/4/28 36/69/28 13/68/30
f 34/67/30 13/68/30 36/69/28
f 15/73/4 34/70/29 13/72/29
f 34/70/29 15/73/4 35/71/4
f 13/72/30 34/70/30 15/73/5
f 35/71/5 15/73/5 34/70/30
f 18/76/4 39/75/29 17/74/29
f 39/75/29 18/76/4 41/77/4
f 17/74/30 39/75/30 18/76/5
f 41/77/5 18/76/5 39/75/30
f 17/68/29 38/69/27 19/4/27
f 38/69/27 17/68/29 39/67/29
f 19/4/28 38/69/28 17/68/30
f 39/67/30 17/68/30 38/69/28
f 38/74/27 20/77/5 19/75/27
f 20/77/5 38/74/27 40/76/5
f 19/75/28 20/77/4 38/74/28
f 40/76/4 38/74/28 20/77/4

