# Created by Kenney (www.kenney.nl)

mtllib structure-corner-outer.mtl

g structure-corner-outer

v 1.5 4.511946E-17 -0.5
v 1.5 4.060752E-16 0.5
v -0.5 4.511946E-17 -0.5
v 0.5 4.060752E-16 0.5
v -0.5 4.060752E-16 1.5
v 0.5 5.86553E-16 1.5
v 0.6 0.9 0.6
v 1.5 0.9 0.6
v 0.6 1.2 0.6
v 1.5 1.2 0.6
v 0.6 0.9 1.5
v 0.6 1.2 1.5
v 0.6 1.6 0.6
v 1.5 1.6 0.6
v 0.6 2.7 0.6
v 1.5 2.7 0.6
v 0.6 1.6 1.5
v 0.6 2.7 1.5
v 1.5 3 0.5
v 1.5 3 1.5
v 0.5 3 0.5
v 0.5 3 1.5
v 0.6 2.8 0.6
v 1.5 2.8 0.6
v 0.6 2.8 1.5
v 0.5 2.8 1.5
v 0.5 2.8 0.5
v 1.5 2.8 0.5
v 0.5 0.6 0.5
v 1.5 0.6 0.5
v 0.5 0.6 1.5
v 0.6 1.5 0.6
v 1.5 1.5 0.6
v 0.6 1.5 1.5
v 0.7 1.2 0.7
v 1.5 1.2 0.7
v 0.7 1.5 0.7
v 1.5 1.5 0.7
v 0.7 1.5 1.5
v 0.7 1.2 1.5

vn 0 1 0
vn 0 -1 0
vn 0 0 -1
vn 0 0 1
vn -1 0 0
vn 1 0 0
vn -0.7071068 -0.7071068 0
vn -0.5773503 -0.5773503 -0.5773503
vn 0 -0.7071068 -0.7071068
vn 0.7071068 0.7071068 0
vn 0.5773503 0.5773503 0.5773503
vn 0 0.7071068 0.7071068
vn 0 0.142857 -0.9897433
vn 0 0.1601822 -0.9870875
vn 0 -0.142857 0.9897433
vn 0 -0.1601822 0.9870875
vn 0 0.3162278 -0.9486833
vn 0 -0.3162278 0.9486833
vn -0.9897433 0.142857 0
vn -0.9870875 0.1601822 0
vn 0.9897433 -0.142857 0
vn 0.9870875 -0.1601822 0
vn -0.9486833 0.3162278 0
vn 0.9486833 -0.3162278 0
vn -0.3015113 0.904534 -0.3015113
vn 0 0.7071068 -0.7071068
vn -0.3015113 -0.904534 -0.3015113
vn 0.3015113 0.904534 0.3015113
vn 0 -0.7071068 0.7071068
vn 0.3015113 -0.904534 0.3015113
vn -0.7071068 0.7071068 0
vn 0.7071068 -0.7071068 0

vt -59.05512 -19.68504
vt -59.05512 19.68504
vt 19.68504 -19.68504
vt -19.68504 19.68504
vt 19.68504 59.05512
vt -19.68504 59.05512
vt -23.62205 35.43307
vt -59.05512 35.43307
vt -23.62205 47.24409
vt -59.05512 47.24409
vt 23.62205 35.43307
vt 23.62205 47.24409
vt 59.05512 35.43307
vt 59.05512 47.24409
vt -23.62205 62.99213
vt -59.05512 62.99213
vt -23.62205 106.2992
vt -59.05512 106.2992
vt 23.62205 62.99213
vt 23.62205 106.2992
vt 59.05512 62.99213
vt 59.05512 106.2992
vt -59.05512 59.05512
vt -23.62205 110.2362
vt -59.05512 110.2362
vt 23.62205 110.2362
vt 59.05512 110.2362
vt 23.62205 59.05512
vt 23.62205 23.62205
vt 19.68504 19.68504
vt 59.05512 19.68504
vt 59.05512 23.62205
vt -19.68504 1.598721E-14
vt -59.05512 1.598721E-14
vt -19.68504 23.62205
vt -59.05512 23.62205
vt -19.68504 28.6348
vt -59.05512 28.6348
vt -23.62205 41.08471
vt -59.05512 41.08471
vt 19.68504 1.598721E-14
vt 19.68504 23.62205
vt 59.05512 2.309264E-14
vt 19.68504 28.6348
vt 23.62205 41.08471
vt 59.05512 28.6348
vt 59.05512 41.08471
vt 19.68504 110.2362
vt 19.68504 118.1102
vt 59.05512 118.1102
vt -19.68504 110.2362
vt -19.68504 118.1102
vt -59.05512 118.1102
vt -23.62205 59.05512
vt 59.05512 59.05512
vt -27.55906 47.24409
vt -27.55906 59.05512
vt 27.55906 59.05512
vt 27.55906 27.55906
vt 59.05512 27.55906
vt 27.55906 47.24409
vt -59.05512 27.55906
vt -23.62205 23.62205
vt -27.55906 27.55906

usemtl grey

f 3/3/1 2/2/1 1/1/1
f 2/2/1 3/3/1 4/4/1
f 5/5/1 4/4/1 3/3/1
f 4/4/1 5/5/1 6/6/1
f 1/1/2 2/2/2 3/3/2
f 4/4/2 3/3/2 2/2/2
f 3/3/2 4/4/2 5/5/2
f 6/6/2 5/5/2 4/4/2
f 9/9/3 8/8/3 7/7/3
f 8/8/3 9/9/3 10/10/3
f 7/7/4 8/8/4 9/9/4
f 10/10/4 9/9/4 8/8/4
f 11/13/5 9/12/5 7/11/5
f 9/12/5 11/13/5 12/14/5
f 7/11/6 9/12/6 11/13/6
f 12/14/6 11/13/6 9/12/6
f 15/17/3 14/16/3 13/15/3
f 14/16/3 15/17/3 16/18/3
f 13/15/4 14/16/4 15/17/4
f 16/18/4 15/17/4 14/16/4
f 17/21/5 15/20/5 13/19/5
f 15/20/5 17/21/5 18/22/5
f 13/19/6 15/20/6 17/21/6
f 18/22/6 17/21/6 15/20/6

usemtl grey-dark

f 21/4/1 20/23/1 19/2/1
f 20/23/1 21/4/1 22/6/1
f 19/2/2 20/23/2 21/4/2
f 22/6/2 21/4/2 20/23/2
f 23/24/3 16/18/3 15/17/3
f 16/18/3 23/24/3 24/25/3
f 15/17/4 16/18/4 23/24/4
f 24/25/4 23/24/4 16/18/4
f 15/20/5 25/27/5 23/26/5
f 25/27/5 15/20/5 18/22/5
f 23/26/6 25/27/6 15/20/6
f 18/22/6 15/20/6 25/27/6
f 26/5/7 23/29/2 25/28/2
f 27/30/8 23/29/2 26/5/7
f 28/31/9 23/29/2 27/30/8
f 23/29/2 28/31/9 24/32/2
f 25/28/1 23/29/1 26/5/10
f 26/5/10 23/29/1 27/30/11
f 27/30/11 23/29/1 28/31/12
f 24/32/1 28/31/12 23/29/1
f 29/35/13 2/34/3 4/33/3
f 2/34/3 29/35/13 30/36/14
f 4/33/4 2/34/4 29/35/15
f 30/36/16 29/35/15 2/34/4
f 7/39/17 30/38/14 29/37/13
f 30/38/14 7/39/17 8/40/17
f 29/37/15 30/38/16 7/39/18
f 8/40/18 7/39/18 30/38/16
f 6/43/5 29/42/19 4/41/5
f 29/42/19 6/43/5 31/32/20
f 4/41/6 29/42/21 6/43/6
f 31/32/22 6/43/6 29/42/21
f 31/46/20 7/45/23 29/44/19
f 7/45/23 31/46/20 11/47/23
f 29/44/21 7/45/24 31/46/22
f 11/47/24 31/46/22 7/45/24
f 26/27/7 21/49/5 27/48/8
f 21/49/5 26/27/7 22/50/5
f 27/48/11 21/49/6 26/27/10
f 22/50/6 26/27/10 21/49/6
f 21/52/3 28/25/9 27/51/8
f 28/25/9 21/52/3 19/53/3
f 27/51/11 28/25/12 21/52/4
f 19/53/4 21/52/4 28/25/12
f 13/15/3 33/23/3 32/54/3
f 33/23/3 13/15/3 14/16/3
f 32/54/4 33/23/4 13/15/4
f 14/16/4 13/15/4 33/23/4
f 32/28/5 17/21/5 13/19/5
f 17/21/5 32/28/5 34/55/5
f 13/19/6 17/21/6 32/28/6
f 34/55/6 32/28/6 17/21/6

usemtl striping

f 37/57/27 36/10/26 35/56/25
f 36/10/26 37/57/27 38/23/9
f 35/56/30 36/10/29 37/57/28
f 38/23/12 37/57/28 36/10/29
f 34/28/2 37/59/27 39/58/7
f 32/29/2 37/59/27 34/28/2
f 33/32/2 37/59/27 32/29/2
f 37/59/27 33/32/2 38/60/9
f 39/58/10 37/59/28 34/28/1
f 34/28/1 37/59/28 32/29/1
f 32/29/1 37/59/28 33/32/1
f 38/60/12 33/32/1 37/59/28
f 40/14/31 37/58/27 35/61/25
f 37/58/27 40/14/31 39/55/7
f 35/61/30 37/58/28 40/14/32
f 39/55/10 40/14/32 37/58/28
f 9/63/1 36/62/26 10/36/1
f 36/62/26 9/63/1 35/64/25
f 35/64/25 9/63/1 40/57/31
f 40/57/31 9/63/1 12/54/1
f 10/36/2 36/62/29 9/63/2
f 35/64/30 9/63/2 36/62/29
f 40/57/32 9/63/2 35/64/30
f 12/54/2 9/63/2 40/57/32

