# Created by Kenney (www.kenney.nl)

mtllib structure-corner-inner.mtl

g structure-corner-inner

v -0.5 1.2 0.7
v 0.7 1.2 0.7
v -0.5 1.5 0.7
v 0.7 1.5 0.7
v 0.7 1.2 -0.5
v 0.6 1.2 0.6
v 0.6 1.2 -0.5
v -0.5 1.2 0.6
v -0.5 1.5 0.6
v 0.6 1.5 0.6
v 0.7 1.5 -0.5
v 0.6 1.5 -0.5
v -0.5 2.7 0.6
v 0.6 2.7 0.6
v -0.5 2.8 0.6
v 0.6 2.8 0.6
v -0.5 -1.353584E-16 0.5
v 0.5 4.511946E-17 0.5
v -0.5 0.6 0.5
v 0.5 0.6 0.5
v -0.5 2.8 0.5
v 0.5 2.8 0.5
v -0.5 3 0.5
v 0.5 3 0.5
v -0.5 1.6 0.6
v 0.6 1.6 0.6
v -0.5 0.9 0.6
v 0.6 0.9 0.6
v 0.6 2.8 -0.5
v 0.5 2.8 -0.5
v 0.5 3 -0.5
v 1.5 3 -0.5000001
v 1.5 3 1.5
v -0.5 3 1.5
v 0.5 4.511946E-17 -0.5
v 0.5 0.6 -0.5
v 0.6 2.7 -0.5
v 0.6 0.9 -0.5
v 0.6 1.6 -0.5
v -0.5 -1.353584E-16 -0.5

vn 0 0.7071068 -0.7071068
vn -0.5773503 0.5773503 -0.5773503
vn 0 -0.7071068 -0.7071068
vn -0.5773503 -0.5773503 -0.5773503
vn 0 0.7071068 0.7071068
vn 0.5773503 -0.5773503 0.5773503
vn 0 -0.7071068 0.7071068
vn 0.5773503 0.5773503 0.5773503
vn -0.7071068 0.7071068 0
vn 0 1 0
vn 0 -1 0
vn 0.7071068 -0.7071068 0
vn -0.7071068 -0.7071068 0
vn 0.7071068 0.7071068 0
vn 0 0 -1
vn 0 0 1
vn 0 0.1601823 -0.9870875
vn 0 0.1743933 -0.9846761
vn 0 -0.1601823 0.9870875
vn 0 -0.1743933 0.9846761
vn -0.3015113 -0.904534 -0.3015113
vn 0.3015113 0.904534 0.3015113
vn 0 0.3162278 -0.9486833
vn 0 -0.3162278 0.9486833
vn -1 0 0
vn 1 0 0
vn -0.9870875 0.1601822 0
vn -0.9846761 0.1743933 0
vn 0.9870875 -0.1601822 0
vn 0.9846761 -0.1743933 0
vn -0.9486833 0.3162278 0
vn 0.9486833 -0.3162278 0

vt 19.68504 47.24409
vt -27.55906 47.24409
vt 19.68504 59.05512
vt -27.55906 59.05512
vt -27.55906 -19.68504
vt -23.62205 23.62205
vt -23.62205 -19.68504
vt -27.55906 27.55906
vt 19.68504 27.55906
vt 19.68504 23.62205
vt -19.68504 23.62205
vt -19.68504 27.55906
vt 23.62205 23.62205
vt 27.55906 27.55906
vt 27.55906 -19.68504
vt 23.62205 -19.68504
vt -19.68504 47.24409
vt -19.68504 59.05512
vt 27.55906 47.24409
vt 27.55906 59.05512
vt 19.68504 106.2992
vt -23.62205 106.2992
vt 19.68504 110.2362
vt -23.62205 110.2362
vt 19.68504 1.33137E-13
vt -19.68504 1.402425E-13
vt -19.68504 110.2362
vt 19.68504 118.1102
vt -19.68504 118.1102
vt -23.62205 59.05512
vt 19.68504 62.99213
vt -23.62205 62.99213
vt 19.68504 28.6348
vt -19.68504 28.6348
vt 19.68504 41.08471
vt -23.62205 41.08471
vt -19.68504 19.68504
vt 19.68504 19.68504
vt 19.68504 -19.68504
vt -59.05512 -19.68504
vt -19.68504 -19.68504
vt -59.05512 59.05512
vt -19.68504 1.438849E-13
vt 19.68504 1.438849E-13
vt -19.68504 106.2992
vt 23.62205 106.2992
vt 23.62205 110.2362
vt -19.68504 41.08471
vt 23.62205 41.08471
vt -19.68504 62.99213
vt 23.62205 59.05512
vt 23.62205 62.99213
vt 19.68504 35.43307
vt -23.62205 35.43307
vt -23.62205 47.24409
vt -19.68504 35.43307
vt 23.62205 35.43307
vt 23.62205 47.24409

usemtl striping

f 3/3/3 2/2/2 1/1/1
f 2/2/2 3/3/3 4/4/4
f 1/1/7 2/2/6 3/3/5
f 4/4/8 3/3/5 2/2/6
f 7/7/10 6/6/10 5/5/9
f 6/6/10 2/8/2 5/5/9
f 2/8/2 6/6/10 1/9/1
f 1/9/1 6/6/10 8/10/10
f 5/5/12 6/6/11 7/7/11
f 5/5/12 2/8/6 6/6/11
f 1/9/7 6/6/11 2/8/6
f 8/10/11 6/6/11 1/9/7
f 10/13/11 3/12/3 9/11/11
f 10/13/11 4/14/4 3/12/3
f 4/14/4 10/13/11 11/15/13
f 12/16/11 11/15/13 10/13/11
f 9/11/10 3/12/5 10/13/10
f 3/12/5 4/14/8 10/13/10
f 11/15/14 10/13/10 4/14/8
f 10/13/10 11/15/14 12/16/10
f 2/19/2 11/18/13 5/17/9
f 11/18/13 2/19/2 4/20/4
f 5/17/12 11/18/14 2/19/6
f 4/20/8 2/19/6 11/18/14

usemtl grey-dark

f 15/23/15 14/22/15 13/21/15
f 14/22/15 15/23/15 16/24/15
f 13/21/16 14/22/16 15/23/16
f 16/24/16 15/23/16 14/22/16
f 19/10/17 18/26/15 17/25/15
f 18/26/15 19/10/17 20/11/18
f 17/25/16 18/26/16 19/10/19
f 20/11/20 19/10/19 18/26/16
f 23/28/15 22/27/21 21/23/3
f 22/27/21 23/28/15 24/29/15
f 21/23/5 22/27/22 23/28/16
f 24/29/16 23/28/16 22/27/22
f 25/31/15 10/30/15 9/3/15
f 10/30/15 25/31/15 26/32/15
f 9/3/16 10/30/16 25/31/16
f 26/32/16 25/31/16 10/30/16
f 27/35/23 20/34/18 19/33/17
f 20/34/18 27/35/23 28/36/23
f 19/33/19 20/34/20 27/35/24
f 28/36/24 27/35/24 20/34/20
f 22/38/21 15/11/11 21/37/3
f 22/38/21 16/13/11 15/11/11
f 16/13/11 22/38/21 29/16/11
f 30/39/13 29/16/11 22/38/21
f 21/37/5 15/11/10 22/38/22
f 15/11/10 16/13/10 22/38/22
f 29/16/10 22/38/22 16/13/10
f 22/38/22 29/16/10 30/39/14
f 22/23/21 31/29/25 30/27/13
f 31/29/25 22/23/21 24/28/25
f 30/27/14 31/29/26 22/23/22
f 24/28/26 22/23/22 31/29/26
f 31/41/10 24/37/10 32/40/10
f 24/37/10 33/42/10 32/40/10
f 33/42/10 24/37/10 34/3/10
f 34/3/10 24/37/10 23/38/10
f 32/40/11 24/37/11 31/41/11
f 32/40/11 33/42/11 24/37/11
f 34/3/11 24/37/11 33/42/11
f 23/38/11 24/37/11 34/3/11
f 18/44/25 36/11/27 35/43/25
f 36/11/27 18/44/25 20/10/28
f 35/43/26 36/11/29 18/44/26
f 20/10/30 18/44/26 36/11/29
f 14/46/25 29/27/25 37/45/25
f 29/27/25 14/46/25 16/47/25
f 37/45/26 29/27/26 14/46/26
f 16/47/26 14/46/26 29/27/26
f 36/34/27 28/49/31 38/48/31
f 28/49/31 36/34/27 20/33/28
f 38/48/32 28/49/32 36/34/29
f 20/33/30 36/34/29 28/49/32
f 10/51/25 39/50/25 12/18/25
f 39/50/25 10/51/25 26/52/25
f 12/18/26 39/50/26 10/51/26
f 26/52/26 10/51/26 39/50/26

usemtl grey

f 13/21/15 26/32/15 25/31/15
f 26/32/15 13/21/15 14/22/15
f 25/31/16 26/32/16 13/21/16
f 14/22/16 13/21/16 26/32/16
f 35/41/10 17/38/10 18/37/10
f 17/38/10 35/41/10 40/39/10
f 18/37/11 17/38/11 35/41/11
f 40/39/11 35/41/11 17/38/11
f 8/1/15 28/54/15 27/53/15
f 28/54/15 8/1/15 6/55/15
f 27/53/16 28/54/16 8/1/16
f 6/55/16 8/1/16 28/54/16
f 28/57/25 7/17/25 38/56/25
f 7/17/25 28/57/25 6/58/25
f 38/56/26 7/17/26 28/57/26
f 6/58/26 28/57/26 7/17/26
f 39/50/25 14/46/25 37/45/25
f 14/46/25 39/50/25 26/52/25
f 37/45/26 14/46/26 39/50/26
f 26/52/26 39/50/26 14/46/26

