# Created by Kenney (www.kenney.nl)

mtllib structure-high.mtl

g structure-high

v 0.075 1.5 -0.5
v 0.075 1.5 -0.35
v -0.075 1.5 -0.5
v 0.0375 1.5 -0.35
v -0.075 1.5 -0.35
v -0.075 0.15 -0.5
v -0.075 0.15 -0.35
v 0.075 0.15 0.35
v 0.075 0.15 0.5
v 0.075 1.5 0.35
v 0.075 1.5 0.5
v 0.075 0.15 -0.5
v -0.0375 0.9 -0.35
v 0.0375 0.9 -0.35
v -0.0375 0.75 -0.35
v 0.0375 0.75 -0.35
v 0.075 0.15 -0.35
v -0.075 0.15 0.5
v -0.075 1.5 0.5
v -0.075 0.15 0.35
v -0.075 1.5 0.35
v 0.0375 0.15 0.4625
v 0.0375 0.15 0.3875
v -0.0375 0.15 0.4625
v -0.0375 0.15 0.3875
v 0.0375 0.15 -0.3875
v 0.0375 0.15 -0.4625
v -0.0375 0.15 -0.3875
v -0.0375 0.15 -0.4625
v -0.0375 0.9 0.35
v -0.0375 0.75 0.35
v 0.0375 0.9 0.35
v 0.0375 0.75 0.35
v -0.075 0.075 -0.5
v -0.075 0.075 -0.35
v 0.075 0 -0.35
v -0.075 0 -0.35
v 0.075 0.075 -0.35
v 0.075 0.075 -0.5
v -0.075 0.075 0.35
v 0.075 0.075 0.35
v -0.075 0 0.35
v -0.075 0 0.5
v -0.075 0.075 0.5
v 0.075 0 0.5
v 0.075 0 0.35
v 0.075 0 -0.5
v 0.075 0.075 0.5
v -0.075 0 -0.5

vn 0 1 0
vn 0 -1 0
vn -0.7071068 0 -0.7071068
vn -1 0 0
vn 1 0 0
vn 0.7071068 0 0.7071068
vn 0.7071068 0 -0.7071068
vn -0.7071068 0 0.7071068
vn 0 0 1
vn 0 0 -1
vn -0.9809786 0.1941159 0
vn -0.8944272 0.4472136 0
vn 0.9809786 -0.1941159 0
vn 0.8944272 -0.4472136 0
vn 0 0.1941159 0.9809786
vn 0 -0.1941159 -0.9809786
vn 0 0.1941159 -0.9809786
vn 0 0.4472136 -0.8944272
vn 0 -0.4472136 0.8944272
vn 0 -0.1941159 0.9809786
vn 0 0.4472136 0.8944272
vn 0 -0.4472136 -0.8944272
vn 0.9809786 0.1941159 0
vn 0.8944272 0.4472136 0
vn -0.8944272 -0.4472136 0
vn -0.9809786 -0.1941159 0
vn 0.7071068 0.7071068 0
vn -0.7071068 0.7071068 0
vn 0.7071068 -0.7071068 0
vn -0.7071068 -0.7071068 0

vt -2.952756 -19.68504
vt -2.952756 -13.77953
vt 2.952756 -19.68504
vt -1.476378 -13.77953
vt 2.952756 -13.77953
vt -19.68504 5.905512
vt -19.68504 59.05512
vt -13.77953 5.905512
vt -13.77953 59.05512
vt 2.952756 5.905512
vt -2.952756 5.905512
vt 2.952756 59.05512
vt -2.952756 59.05512
vt 1.476378 59.05512
vt -1.476378 35.43307
vt 1.476378 35.43307
vt -1.476378 29.52756
vt 1.476378 29.52756
vt 13.77953 5.905512
vt 13.77953 59.05512
vt 19.68504 5.905512
vt 19.68504 59.05512
vt -2.952756 13.77953
vt -2.952756 19.68504
vt 2.952756 13.77953
vt 2.952756 19.68504
vt 1.476378 18.20866
vt 1.476378 15.25591
vt -1.476378 18.20866
vt -1.476378 15.25591
vt 1.476378 -15.25591
vt 1.476378 -18.20866
vt -1.476378 -15.25591
vt -1.476378 -18.20866
vt -19.68504 1.320513
vt -18.20866 4.621794
vt -13.77953 1.320513
vt -15.25591 4.621794
vt 2.952756 0
vt -2.952756 0
vt 2.952756 2.952756
vt -2.952756 2.952756
vt 2.952756 -6.162392
vt -2.952756 -6.162392
vt 1.476378 -2.861111
vt -1.476378 -2.861111
vt 2.952756 8.803417
vt -2.952756 8.803417
vt 1.476378 12.1047
vt -1.476378 12.1047
vt 19.68504 1.320513
vt 13.77953 1.320513
vt 18.20866 4.621794
vt 15.25591 4.621794
vt 13.77953 0
vt 13.77953 2.952756
vt 19.68504 0
vt 19.68504 2.952756
vt -13.77953 2.952756
vt -13.77953 0
vt -19.68504 2.952756
vt -19.68504 0
vt -1.476378 13.77953
vt 1.476378 -13.77953
vt 1.476378 13.77953
vt -13.77953 35.43307
vt 13.77953 35.43307
vt -13.77953 29.52756
vt 13.77953 29.52756

usemtl grey

f 3/3/1 2/2/1 1/1/1
f 2/2/1 3/3/1 4/4/1
f 4/4/1 3/3/1 5/5/1
f 1/1/2 2/2/2 3/3/2
f 4/4/2 3/3/2 2/2/2
f 5/5/2 3/3/2 4/4/2
f 7/8/4 3/7/3 6/6/3
f 3/7/3 7/8/4 5/9/4
f 6/6/6 3/7/6 7/8/5
f 5/9/5 7/8/5 3/7/6
f 10/9/5 9/6/6 8/8/5
f 9/6/6 10/9/5 11/7/6
f 8/8/4 9/6/3 10/9/4
f 11/7/3 10/9/4 9/6/3
f 3/12/3 12/11/7 6/10/3
f 12/11/7 3/12/3 1/13/7
f 6/10/6 12/11/8 3/12/6
f 1/13/8 3/12/6 12/11/8
f 5/13/9 2/12/9 4/14/9
f 5/13/9 13/15/9 2/12/9
f 14/16/9 2/12/9 13/15/9
f 5/13/9 15/17/9 13/15/9
f 7/11/9 15/17/9 5/13/9
f 16/18/9 2/12/9 14/16/9
f 15/17/9 7/11/9 16/18/9
f 16/18/9 17/10/9 2/12/9
f 17/10/9 16/18/9 7/11/9
f 4/14/10 2/12/10 5/13/10
f 2/12/10 13/15/10 5/13/10
f 13/15/10 15/17/10 5/13/10
f 13/15/10 2/12/10 14/16/10
f 5/13/10 15/17/10 7/11/10
f 14/16/10 2/12/10 16/18/10
f 16/18/10 7/11/10 15/17/10
f 2/12/10 17/10/10 16/18/10
f 7/11/10 16/18/10 17/10/10
f 11/12/6 18/11/8 9/10/6
f 18/11/8 11/12/6 19/13/8
f 9/10/3 18/11/7 11/12/3
f 19/13/7 11/12/3 18/11/7
f 18/21/8 21/20/4 20/19/4
f 21/20/4 18/21/8 19/22/8
f 20/19/5 21/20/5 18/21/7
f 19/22/7 18/21/7 21/20/5
f 2/20/5 12/21/7 1/22/7
f 12/21/7 2/20/5 17/19/5
f 1/22/8 12/21/8 2/20/4
f 17/19/4 2/20/4 12/21/8
f 21/25/1 11/24/1 10/23/1
f 11/24/1 21/25/1 19/26/1
f 10/23/2 11/24/2 21/25/2
f 19/26/2 21/25/2 11/24/2
f 9/26/2 22/27/2 8/25/2
f 22/27/2 9/26/2 18/24/2
f 23/28/2 8/25/2 22/27/2
f 22/27/2 18/24/2 24/29/2
f 8/25/2 23/28/2 20/23/2
f 24/29/2 18/24/2 25/30/2
f 20/23/2 23/28/2 25/30/2
f 20/23/2 25/30/2 18/24/2
f 17/5/2 26/31/2 12/3/2
f 26/31/2 17/5/2 7/2/2
f 27/32/2 12/3/2 26/31/2
f 26/31/2 7/2/2 28/33/2
f 12/3/2 27/32/2 6/1/2
f 28/33/2 7/2/2 29/34/2
f 6/1/2 27/32/2 29/34/2
f 6/1/2 29/34/2 7/2/2
f 31/18/10 21/12/10 30/16/10
f 30/16/10 21/12/10 32/15/10
f 31/18/10 20/10/10 21/12/10
f 10/13/10 32/15/10 21/12/10
f 20/10/10 31/18/10 8/11/10
f 10/13/10 33/17/10 32/15/10
f 8/11/10 33/17/10 10/13/10
f 33/17/10 8/11/10 31/18/10
f 8/25/1 22/27/1 9/26/1
f 18/24/1 9/26/1 22/27/1
f 22/27/1 8/25/1 23/28/1
f 24/29/1 18/24/1 22/27/1
f 20/23/1 23/28/1 8/25/1
f 25/30/1 18/24/1 24/29/1
f 25/30/1 23/28/1 20/23/1
f 18/24/1 25/30/1 20/23/1
f 12/3/1 26/31/1 17/5/1
f 7/2/1 17/5/1 26/31/1
f 26/31/1 12/3/1 27/32/1
f 28/33/1 7/2/1 26/31/1
f 6/1/1 27/32/1 12/3/1
f 29/34/1 7/2/1 28/33/1
f 29/34/1 27/32/1 6/1/1
f 7/2/1 29/34/1 6/1/1
f 8/11/9 31/18/9 20/10/9
f 21/12/9 20/10/9 31/18/9
f 31/18/9 8/11/9 33/17/9
f 30/16/9 21/12/9 31/18/9
f 10/13/9 33/17/9 8/11/9
f 32/15/9 21/12/9 30/16/9
f 32/15/9 33/17/9 10/13/9
f 21/12/9 32/15/9 10/13/9

usemtl dark

f 35/37/11 29/36/12 34/35/11
f 29/36/12 35/37/11 28/38/12
f 34/35/13 29/36/14 35/37/13
f 28/38/14 35/37/13 29/36/14
f 38/41/15 37/40/9 36/39/9
f 37/40/9 38/41/15 35/42/15
f 36/39/10 37/40/10 38/41/16
f 35/42/16 38/41/16 37/40/10
f 29/45/18 39/44/17 34/43/17
f 39/44/17 29/45/18 27/46/18
f 34/43/20 39/44/20 29/45/19
f 27/46/19 29/45/19 39/44/20
f 25/49/18 41/48/17 40/47/17
f 41/48/17 25/49/18 23/50/18
f 40/47/20 41/48/20 25/49/19
f 23/50/19 25/49/19 41/48/20
f 26/49/21 35/48/15 38/47/15
f 35/48/15 26/49/21 28/50/21
f 38/47/16 35/48/16 26/49/22
f 28/50/22 26/49/22 35/48/16
f 27/53/24 38/52/23 39/51/23
f 38/52/23 27/53/24 26/54/24
f 39/51/26 38/52/26 27/53/25
f 26/54/25 27/53/25 38/52/26
f 43/57/4 40/56/11 42/55/4
f 40/56/11 43/57/4 44/58/11
f 42/55/5 40/56/13 43/57/5
f 44/58/13 43/57/5 40/56/13
f 44/51/11 25/54/12 40/52/11
f 25/54/12 44/51/11 24/53/12
f 40/52/13 25/54/14 44/51/13
f 24/53/14 44/51/13 25/54/14
f 43/24/2 46/25/2 45/26/2
f 46/25/2 43/24/2 42/23/2
f 45/26/1 46/25/1 43/24/1
f 42/23/1 43/24/1 46/25/1
f 38/56/23 47/57/5 39/58/23
f 47/57/5 38/56/23 36/55/5
f 39/58/26 47/57/4 38/56/26
f 36/55/4 38/56/26 47/57/4
f 48/61/23 46/60/5 41/59/23
f 46/60/5 48/61/23 45/62/5
f 41/59/26 46/60/4 48/61/26
f 45/62/4 48/61/26 46/60/4
f 48/41/15 43/40/9 45/39/9
f 43/40/9 48/41/15 44/42/15
f 45/39/10 43/40/10 48/41/16
f 44/42/16 48/41/16 43/40/10
f 37/60/4 34/61/11 49/62/4
f 34/61/11 37/60/4 35/59/11
f 49/62/5 34/61/13 37/60/5
f 35/59/13 37/60/5 34/61/13
f 40/41/17 46/40/10 42/39/10
f 46/40/10 40/41/17 41/42/17
f 42/39/9 46/40/9 40/41/20
f 41/42/20 40/41/20 46/40/9
f 23/38/24 48/35/23 41/37/23
f 48/35/23 23/38/24 22/36/24
f 41/37/26 48/35/26 23/38/25
f 22/36/25 23/38/25 48/35/26
f 22/45/21 44/44/15 48/43/15
f 44/44/15 22/45/21 24/46/21
f 48/43/16 44/44/16 22/45/22
f 24/46/22 22/45/22 44/44/16
f 34/41/17 47/40/10 49/39/10
f 47/40/10 34/41/17 39/42/17
f 49/39/9 47/40/9 34/41/20
f 39/42/20 34/41/20 47/40/9
f 37/2/2 47/3/2 36/5/2
f 47/3/2 37/2/2 49/1/2
f 36/5/1 47/3/1 37/2/1
f 49/1/1 37/2/1 47/3/1

usemtl grey-dark

f 13/64/28 32/63/27 14/4/27
f 32/63/27 13/64/28 30/65/28
f 14/4/30 32/63/30 13/64/29
f 30/65/29 13/64/29 32/63/30
f 31/63/2 16/64/2 33/65/2
f 16/64/2 31/63/2 15/4/2
f 33/65/1 16/64/1 31/63/1
f 15/4/1 31/63/1 16/64/1
f 15/68/4 30/67/28 13/66/28
f 30/67/28 15/68/4 31/69/4
f 13/66/29 30/67/29 15/68/5
f 31/69/5 15/68/5 30/67/29
f 32/66/27 16/69/5 14/67/27
f 16/69/5 32/66/27 33/68/5
f 14/67/30 16/69/4 32/66/30
f 33/68/4 32/66/30 16/69/4

